M48
; DRILL file {KiCad (5.1.5)-3} date 3/10/2022 8:19:11 PM
; FORMAT={-:-/ absolute / inch / decimal}
; #@! TF.CreationDate,2022-03-10T20:19:11-05:00
; #@! TF.GenerationSoftware,Kicad,Pcbnew,(5.1.5)-3
FMAT,2
INCH
T1C0.0130
T2C0.0315
T3C0.0335
T4C0.0394
T5C0.0433
T6C0.1260
%
G90
G05
T1
X6.01Y-3.79
X6.04Y-3.465
X6.04Y-3.715
X6.05Y-2.5
X6.13Y-2.615
X6.18Y-4.16
X6.185Y-2.985
X6.26Y-3.415
X6.29Y-4.1
X6.305Y-3.365
X6.305Y-3.465
X6.32Y-3.79
X6.35Y-3.315
X6.35Y-3.76
X6.385Y-3.28
X6.4Y-3.66
X6.4Y-3.715
X6.435Y-3.165
X6.725Y-3.94
X6.775Y-3.94
X7.075Y-3.76
X7.29Y-3.62
X7.3Y-3.315
X7.3Y-3.365
X7.33Y-3.21
X7.345Y-3.665
X7.35Y-3.61
X7.36Y-3.16
X7.41Y-2.86
X7.425Y-3.24
X7.485Y-3.815
X7.49Y-3.29
X7.5435Y-3.4165
X7.565Y-2.86
X7.65Y-2.54
X7.65Y-2.605
X7.66Y-3.2
X7.6635Y-3.5665
X7.71Y-3.25
X7.74Y-3.715
X7.76Y-2.99
X7.76Y-3.26
X7.765Y-2.85
X7.84Y-3.29
X7.86Y-3.105
X7.885Y-3.465
X8.145Y-2.77
X8.28Y-2.66
X8.5Y-3.57
T2
X5.42Y-2.85
X5.42Y-2.9484
X7.1Y-4.225
X7.1Y-4.325
X7.1Y-4.425
X7.1Y-4.525
X7.1Y-4.625
X7.1Y-4.725
X7.1Y-4.825
X7.4Y-4.225
X7.4Y-4.325
X7.4Y-4.425
X7.4Y-4.525
X7.4Y-4.625
X7.4Y-4.725
X7.4Y-4.825
T3
X8.3625Y-3.2166
X8.3625Y-3.4134
T4
X7.7Y-3.85
X7.8Y-3.85
X7.9Y-3.85
X8.0Y-3.85
X8.1Y-3.85
X8.1Y-4.8528
X8.2Y-3.85
X8.2Y-4.8528
X8.3Y-3.85
X8.3Y-4.8528
X8.4Y-3.85
X8.4Y-4.8528
X8.5Y-3.85
X8.5Y-4.8528
X5.59Y-3.36
X5.59Y-3.46
X5.163Y-4.1
X5.2178Y-3.9678
X5.2178Y-4.2322
X5.4822Y-3.9678
X5.4822Y-4.2322
X5.537Y-4.1
X5.17Y-3.36
X5.27Y-3.36
X5.37Y-3.36
X5.9Y-4.6
X5.9Y-4.7
X5.9Y-4.8
X6.35Y-4.65
X6.35Y-4.75
X5.1Y-2.95
X5.1Y-3.05
X7.65Y-2.41
X7.75Y-2.41
X7.85Y-2.41
X7.95Y-2.41
X8.05Y-2.41
X8.15Y-2.41
X8.25Y-2.41
X6.54Y-4.11
X6.64Y-4.11
X5.22Y-2.64
X5.32Y-2.64
X6.075Y-2.335
X6.175Y-2.335
X6.35Y-4.35
X6.35Y-4.45
X5.8Y-2.6
X5.8Y-2.7
X5.8Y-2.8
X5.8Y-2.9
X5.8Y-3.0
T5
X7.16Y-2.32
X7.16Y-2.4972
X7.4159Y-2.32
X7.4159Y-2.4972
X6.385Y-2.32
X6.385Y-2.4972
X6.6409Y-2.32
X6.6409Y-2.4972
T6
X5.15Y-2.4
X5.15Y-4.6
X8.5Y-2.4
X8.5Y-4.6
T0
M30
