G04 #@! TF.GenerationSoftware,KiCad,Pcbnew,(5.1.5)-3*
G04 #@! TF.CreationDate,2022-03-10T20:17:17-05:00*
G04 #@! TF.ProjectId,wearer,77656172-6572-42e6-9b69-6361645f7063,rev?*
G04 #@! TF.SameCoordinates,Original*
G04 #@! TF.FileFunction,Copper,L2,Bot*
G04 #@! TF.FilePolarity,Positive*
%FSLAX46Y46*%
G04 Gerber Fmt 4.6, Leading zero omitted, Abs format (unit mm)*
G04 Created by KiCad (PCBNEW (5.1.5)-3) date 2022-03-10 20:17:17*
%MOMM*%
%LPD*%
G04 APERTURE LIST*
%ADD10O,1.700000X1.700000*%
%ADD11R,1.700000X1.700000*%
%ADD12C,2.000000*%
%ADD13C,1.600000*%
%ADD14R,1.600000X1.600000*%
%ADD15C,1.350000*%
%ADD16O,1.600000X1.600000*%
%ADD17C,0.685800*%
%ADD18C,0.254000*%
%ADD19C,0.406400*%
%ADD20C,0.203200*%
G04 APERTURE END LIST*
D10*
X136398000Y-85344000D03*
D11*
X131318000Y-85344000D03*
D10*
X133858000Y-85344000D03*
D12*
X162179000Y-63428000D03*
X162179000Y-58928000D03*
X168679000Y-63428000D03*
X168679000Y-58928000D03*
X188364000Y-58928000D03*
X188364000Y-63428000D03*
X181864000Y-58928000D03*
X181864000Y-63428000D03*
D10*
X209550000Y-61214000D03*
X207010000Y-61214000D03*
X204470000Y-61214000D03*
X201930000Y-61214000D03*
X199390000Y-61214000D03*
X196850000Y-61214000D03*
D11*
X194310000Y-61214000D03*
D12*
X131140000Y-104140000D03*
X132531000Y-107499000D03*
X132531000Y-100781000D03*
X139249000Y-107499000D03*
X140640000Y-104140000D03*
X139249000Y-100781000D03*
D13*
X137668000Y-74890000D03*
D14*
X137668000Y-72390000D03*
D10*
X129540000Y-77470000D03*
D11*
X129540000Y-74930000D03*
D10*
X168656000Y-104394000D03*
D11*
X166116000Y-104394000D03*
D10*
X141986000Y-87884000D03*
D11*
X141986000Y-85344000D03*
D10*
X213360000Y-123260000D03*
X205740000Y-123260000D03*
X210820000Y-123260000D03*
D11*
X215900000Y-123260000D03*
D10*
X208280000Y-123260000D03*
X208280000Y-97790000D03*
X200660000Y-97790000D03*
X210820000Y-97790000D03*
X213360000Y-97790000D03*
X198120000Y-97790000D03*
X195580000Y-97790000D03*
D11*
X215900000Y-97790000D03*
D10*
X203200000Y-97790000D03*
X205740000Y-97790000D03*
X154305000Y-59309000D03*
D11*
X156845000Y-59309000D03*
D15*
X212407500Y-86701000D03*
X212407500Y-81701000D03*
D10*
X135128000Y-67056000D03*
D11*
X132588000Y-67056000D03*
X161290000Y-110490000D03*
D10*
X161290000Y-113030000D03*
D11*
X161290000Y-120650000D03*
D10*
X161290000Y-118110000D03*
X149860000Y-116840000D03*
X149860000Y-119380000D03*
D11*
X149860000Y-121920000D03*
D14*
X180340000Y-107315000D03*
D16*
X187960000Y-122555000D03*
X180340000Y-109855000D03*
X187960000Y-120015000D03*
X180340000Y-112395000D03*
X187960000Y-117475000D03*
X180340000Y-114935000D03*
X187960000Y-114935000D03*
X180340000Y-117475000D03*
X187960000Y-112395000D03*
X180340000Y-120015000D03*
X187960000Y-109855000D03*
X180340000Y-122555000D03*
X187960000Y-107315000D03*
D11*
X147320000Y-66040000D03*
D10*
X147320000Y-73660000D03*
X147320000Y-71120000D03*
X147320000Y-76200000D03*
X147320000Y-68580000D03*
D17*
X195834000Y-82550000D03*
X199644000Y-78867000D03*
X186944000Y-80264000D03*
X163449000Y-80391000D03*
X197231000Y-72390000D03*
X157099000Y-75819000D03*
X188595000Y-82296000D03*
X155702000Y-66421000D03*
X162179000Y-83312000D03*
X194310000Y-66167000D03*
X215900000Y-90678000D03*
X190246000Y-83566000D03*
X199136000Y-83566000D03*
X206883000Y-70358000D03*
X190119000Y-96901000D03*
X160147000Y-85471000D03*
X161290000Y-84201000D03*
X170815000Y-100076000D03*
X172085000Y-100076000D03*
X156972000Y-105664000D03*
X161290000Y-95504000D03*
X159004000Y-86741000D03*
X153670000Y-63500000D03*
X160528000Y-96266000D03*
X152654000Y-96266000D03*
X162560000Y-94361000D03*
X153416000Y-94361000D03*
X162560000Y-92964000D03*
X200279000Y-88011000D03*
X191603999Y-86780001D03*
X188214000Y-72644000D03*
X192151000Y-72644000D03*
X159766000Y-104140000D03*
X185166000Y-91948000D03*
X186563000Y-93091000D03*
X186182000Y-81534000D03*
X194564000Y-81280000D03*
X197104000Y-75946000D03*
X197104000Y-82804000D03*
X194651999Y-90590001D03*
X196596000Y-94361000D03*
X179705000Y-95504000D03*
X186690000Y-91694000D03*
X160147000Y-88011000D03*
X153416000Y-88011000D03*
X210312000Y-67564000D03*
X185420000Y-85471000D03*
X185420000Y-84201000D03*
X194310000Y-64516000D03*
D18*
X162179000Y-83312000D02*
X162179000Y-63428000D01*
X162179000Y-63428000D02*
X168679000Y-63428000D01*
X171418000Y-66167000D02*
X168679000Y-63428000D01*
X194310000Y-66167000D02*
X171418000Y-66167000D01*
D19*
X187960000Y-100855782D02*
X187960000Y-107315000D01*
X215900000Y-90678000D02*
X198137782Y-90678000D01*
X198137782Y-90678000D02*
X187960000Y-100855782D01*
D20*
X190246000Y-83566000D02*
X197300598Y-83566000D01*
X197300598Y-83566000D02*
X199136000Y-83566000D01*
D18*
X183278213Y-63428000D02*
X188364000Y-63428000D01*
X181864000Y-63428000D02*
X183278213Y-63428000D01*
X206883000Y-84201000D02*
X206883000Y-70358000D01*
X190119000Y-96901000D02*
X197358000Y-89662000D01*
X197358000Y-89662000D02*
X201422000Y-89662000D01*
X201422000Y-89662000D02*
X206883000Y-84201000D01*
X160147000Y-85471000D02*
X160147000Y-68072000D01*
X154305000Y-62230000D02*
X154305000Y-59309000D01*
X160147000Y-68072000D02*
X154305000Y-62230000D01*
X161290000Y-84201000D02*
X161290000Y-67437000D01*
X156845000Y-62992000D02*
X156845000Y-59309000D01*
X161290000Y-67437000D02*
X156845000Y-62992000D01*
X170815000Y-100076000D02*
X166751000Y-100076000D01*
X166116000Y-100711000D02*
X166116000Y-104394000D01*
X166751000Y-100076000D02*
X166116000Y-100711000D01*
X172085000Y-100076000D02*
X171196000Y-100965000D01*
X171196000Y-100965000D02*
X169164000Y-100965000D01*
X168656000Y-101473000D02*
X168656000Y-104394000D01*
X169164000Y-100965000D02*
X168656000Y-101473000D01*
X161290000Y-101346000D02*
X156972000Y-105664000D01*
X161290000Y-95504000D02*
X161290000Y-101346000D01*
X153670000Y-63500000D02*
X153670000Y-75057000D01*
X153670000Y-75057000D02*
X157988000Y-79375000D01*
X157988000Y-85725000D02*
X159004000Y-86741000D01*
X157988000Y-79375000D02*
X157988000Y-85725000D01*
X160528000Y-96266000D02*
X152654000Y-96266000D01*
X162560000Y-94361000D02*
X153416000Y-94361000D01*
X179324000Y-88011000D02*
X200279000Y-88011000D01*
X162560000Y-92964000D02*
X174371000Y-92964000D01*
X174371000Y-92964000D02*
X179324000Y-88011000D01*
X200279000Y-88011000D02*
X200279000Y-88011000D01*
D20*
X188214000Y-72644000D02*
X192151000Y-72644000D01*
D18*
X155702000Y-108204000D02*
X159766000Y-104140000D01*
X155702000Y-117348000D02*
X155702000Y-108204000D01*
X149860000Y-119380000D02*
X153670000Y-119380000D01*
X153670000Y-119380000D02*
X155702000Y-117348000D01*
X185166000Y-91948000D02*
X182626000Y-94488000D01*
X182626000Y-94488000D02*
X182626000Y-108966000D01*
X181737000Y-109855000D02*
X180340000Y-109855000D01*
X182626000Y-108966000D02*
X181737000Y-109855000D01*
X186563000Y-93091000D02*
X183388000Y-96266000D01*
X183388000Y-96266000D02*
X183388000Y-113411000D01*
X181864000Y-114935000D02*
X180340000Y-114935000D01*
X183388000Y-113411000D02*
X181864000Y-114935000D01*
D20*
X186436000Y-81280000D02*
X186182000Y-81534000D01*
X194564000Y-81280000D02*
X186436000Y-81280000D01*
X197104000Y-82804000D02*
X197104000Y-75946000D01*
D18*
X196596000Y-94361000D02*
X196596000Y-95123000D01*
X195580000Y-96139000D02*
X195580000Y-97790000D01*
X196596000Y-95123000D02*
X195580000Y-96139000D01*
X179705000Y-95019067D02*
X183919067Y-90805000D01*
X179705000Y-95504000D02*
X179705000Y-95019067D01*
X183919067Y-90805000D02*
X185801000Y-90805000D01*
X185801000Y-90805000D02*
X186690000Y-91694000D01*
X160147000Y-88011000D02*
X153416000Y-88011000D01*
X209550000Y-61214000D02*
X209550000Y-66802000D01*
X209550000Y-66802000D02*
X210312000Y-67564000D01*
X185420000Y-85471000D02*
X200914000Y-85471000D01*
X200914000Y-85471000D02*
X203073000Y-83312000D01*
X203073000Y-83312000D02*
X203073000Y-68707000D01*
X199390000Y-65024000D02*
X199390000Y-61214000D01*
X203073000Y-68707000D02*
X199390000Y-65024000D01*
X185420000Y-84201000D02*
X189230000Y-84201000D01*
X189230000Y-84201000D02*
X189484000Y-84455000D01*
X189484000Y-84455000D02*
X200660000Y-84455000D01*
X200660000Y-84455000D02*
X202057000Y-83058000D01*
X202057000Y-83058000D02*
X202057000Y-70612000D01*
X196850000Y-65405000D02*
X196850000Y-61214000D01*
X202057000Y-70612000D02*
X196850000Y-65405000D01*
X194310000Y-64516000D02*
X194310000Y-61214000D01*
G36*
X160927917Y-57856525D02*
G01*
X161043585Y-57972193D01*
X160779186Y-58067956D01*
X160638296Y-58357571D01*
X160556616Y-58669108D01*
X160537282Y-58990595D01*
X160581039Y-59309675D01*
X160686205Y-59614088D01*
X160779186Y-59788044D01*
X161043587Y-59883808D01*
X161999395Y-58928000D01*
X161985253Y-58913858D01*
X162164858Y-58734253D01*
X162179000Y-58748395D01*
X162193143Y-58734253D01*
X162372748Y-58913858D01*
X162358605Y-58928000D01*
X163314413Y-59883808D01*
X163578814Y-59788044D01*
X163719704Y-59498429D01*
X163801384Y-59186892D01*
X163820718Y-58865405D01*
X163776961Y-58546325D01*
X163671795Y-58241912D01*
X163578814Y-58067956D01*
X163314415Y-57972193D01*
X163430083Y-57856525D01*
X163383558Y-57810000D01*
X167474442Y-57810000D01*
X167427917Y-57856525D01*
X167543585Y-57972193D01*
X167279186Y-58067956D01*
X167138296Y-58357571D01*
X167056616Y-58669108D01*
X167037282Y-58990595D01*
X167081039Y-59309675D01*
X167186205Y-59614088D01*
X167279186Y-59788044D01*
X167543587Y-59883808D01*
X168499395Y-58928000D01*
X168485253Y-58913858D01*
X168664858Y-58734253D01*
X168679000Y-58748395D01*
X168693143Y-58734253D01*
X168872748Y-58913858D01*
X168858605Y-58928000D01*
X169814413Y-59883808D01*
X170078814Y-59788044D01*
X170219704Y-59498429D01*
X170301384Y-59186892D01*
X170320718Y-58865405D01*
X170276961Y-58546325D01*
X170171795Y-58241912D01*
X170078814Y-58067956D01*
X169814415Y-57972193D01*
X169930083Y-57856525D01*
X169883558Y-57810000D01*
X180659442Y-57810000D01*
X180612917Y-57856525D01*
X180728585Y-57972193D01*
X180464186Y-58067956D01*
X180323296Y-58357571D01*
X180241616Y-58669108D01*
X180222282Y-58990595D01*
X180266039Y-59309675D01*
X180371205Y-59614088D01*
X180464186Y-59788044D01*
X180728587Y-59883808D01*
X181684395Y-58928000D01*
X181670253Y-58913858D01*
X181849858Y-58734253D01*
X181864000Y-58748395D01*
X181878143Y-58734253D01*
X182057748Y-58913858D01*
X182043605Y-58928000D01*
X182999413Y-59883808D01*
X183263814Y-59788044D01*
X183404704Y-59498429D01*
X183486384Y-59186892D01*
X183505718Y-58865405D01*
X183461961Y-58546325D01*
X183356795Y-58241912D01*
X183263814Y-58067956D01*
X182999415Y-57972193D01*
X183115083Y-57856525D01*
X183068558Y-57810000D01*
X187159442Y-57810000D01*
X187112917Y-57856525D01*
X187228585Y-57972193D01*
X186964186Y-58067956D01*
X186823296Y-58357571D01*
X186741616Y-58669108D01*
X186722282Y-58990595D01*
X186766039Y-59309675D01*
X186871205Y-59614088D01*
X186964186Y-59788044D01*
X187228587Y-59883808D01*
X188184395Y-58928000D01*
X188170253Y-58913858D01*
X188349858Y-58734253D01*
X188364000Y-58748395D01*
X188378143Y-58734253D01*
X188557748Y-58913858D01*
X188543605Y-58928000D01*
X189499413Y-59883808D01*
X189763814Y-59788044D01*
X189904704Y-59498429D01*
X189986384Y-59186892D01*
X190005718Y-58865405D01*
X189961961Y-58546325D01*
X189856795Y-58241912D01*
X189763814Y-58067956D01*
X189499415Y-57972193D01*
X189615083Y-57856525D01*
X189568558Y-57810000D01*
X211963000Y-57810000D01*
X211963000Y-64770000D01*
X211965440Y-64794776D01*
X211972667Y-64818601D01*
X211984403Y-64840557D01*
X212000197Y-64859803D01*
X212019443Y-64875597D01*
X212041399Y-64887333D01*
X212065224Y-64894560D01*
X212090000Y-64897000D01*
X219050001Y-64897000D01*
X219050000Y-112903000D01*
X212090000Y-112903000D01*
X212065224Y-112905440D01*
X212041399Y-112912667D01*
X212019443Y-112924403D01*
X212000197Y-112940197D01*
X211984403Y-112959443D01*
X211972667Y-112981399D01*
X211965440Y-113005224D01*
X211963000Y-113030000D01*
X211963000Y-120650000D01*
X211965440Y-120674776D01*
X211972667Y-120698601D01*
X211984403Y-120720557D01*
X212000197Y-120739803D01*
X212019443Y-120755597D01*
X212041399Y-120767333D01*
X212065224Y-120774560D01*
X212090000Y-120777000D01*
X219050000Y-120777000D01*
X219050000Y-126340000D01*
X127660000Y-126340000D01*
X127660000Y-122770000D01*
X148371928Y-122770000D01*
X148384188Y-122894482D01*
X148420498Y-123014180D01*
X148479463Y-123124494D01*
X148558815Y-123221185D01*
X148655506Y-123300537D01*
X148765820Y-123359502D01*
X148885518Y-123395812D01*
X149010000Y-123408072D01*
X149574250Y-123405000D01*
X149733000Y-123246250D01*
X149733000Y-122047000D01*
X149987000Y-122047000D01*
X149987000Y-123246250D01*
X150145750Y-123405000D01*
X150710000Y-123408072D01*
X150834482Y-123395812D01*
X150954180Y-123359502D01*
X151064494Y-123300537D01*
X151161185Y-123221185D01*
X151240537Y-123124494D01*
X151299502Y-123014180D01*
X151332912Y-122904039D01*
X178948096Y-122904039D01*
X178988754Y-123038087D01*
X179108963Y-123292420D01*
X179276481Y-123518414D01*
X179484869Y-123707385D01*
X179726119Y-123852070D01*
X179990960Y-123946909D01*
X180213000Y-123825624D01*
X180213000Y-122682000D01*
X180467000Y-122682000D01*
X180467000Y-123825624D01*
X180689040Y-123946909D01*
X180953881Y-123852070D01*
X181195131Y-123707385D01*
X181403519Y-123518414D01*
X181571037Y-123292420D01*
X181691246Y-123038087D01*
X181731904Y-122904039D01*
X181609915Y-122682000D01*
X180467000Y-122682000D01*
X180213000Y-122682000D01*
X179070085Y-122682000D01*
X178948096Y-122904039D01*
X151332912Y-122904039D01*
X151335812Y-122894482D01*
X151348072Y-122770000D01*
X151345000Y-122205750D01*
X151186250Y-122047000D01*
X149987000Y-122047000D01*
X149733000Y-122047000D01*
X148533750Y-122047000D01*
X148375000Y-122205750D01*
X148371928Y-122770000D01*
X127660000Y-122770000D01*
X127660000Y-121070000D01*
X148371928Y-121070000D01*
X148375000Y-121634250D01*
X148533750Y-121793000D01*
X149733000Y-121793000D01*
X149733000Y-121773000D01*
X149987000Y-121773000D01*
X149987000Y-121793000D01*
X151186250Y-121793000D01*
X151345000Y-121634250D01*
X151345730Y-121500000D01*
X159801928Y-121500000D01*
X159814188Y-121624482D01*
X159850498Y-121744180D01*
X159909463Y-121854494D01*
X159988815Y-121951185D01*
X160085506Y-122030537D01*
X160195820Y-122089502D01*
X160315518Y-122125812D01*
X160440000Y-122138072D01*
X161004250Y-122135000D01*
X161163000Y-121976250D01*
X161163000Y-120777000D01*
X161417000Y-120777000D01*
X161417000Y-121976250D01*
X161575750Y-122135000D01*
X162140000Y-122138072D01*
X162264482Y-122125812D01*
X162384180Y-122089502D01*
X162494494Y-122030537D01*
X162591185Y-121951185D01*
X162670537Y-121854494D01*
X162729502Y-121744180D01*
X162765812Y-121624482D01*
X162778072Y-121500000D01*
X162775000Y-120935750D01*
X162616250Y-120777000D01*
X161417000Y-120777000D01*
X161163000Y-120777000D01*
X159963750Y-120777000D01*
X159805000Y-120935750D01*
X159801928Y-121500000D01*
X151345730Y-121500000D01*
X151348072Y-121070000D01*
X151335812Y-120945518D01*
X151299502Y-120825820D01*
X151240537Y-120715506D01*
X151161185Y-120618815D01*
X151064494Y-120539463D01*
X150954180Y-120480498D01*
X150881620Y-120458487D01*
X151013475Y-120326632D01*
X151136842Y-120142000D01*
X153632577Y-120142000D01*
X153670000Y-120145686D01*
X153707423Y-120142000D01*
X153707426Y-120142000D01*
X153819378Y-120130974D01*
X153963015Y-120087402D01*
X154095392Y-120016645D01*
X154211422Y-119921422D01*
X154235284Y-119892346D01*
X154327630Y-119800000D01*
X159801928Y-119800000D01*
X159805000Y-120364250D01*
X159963750Y-120523000D01*
X161163000Y-120523000D01*
X161163000Y-120503000D01*
X161417000Y-120503000D01*
X161417000Y-120523000D01*
X162616250Y-120523000D01*
X162775000Y-120364250D01*
X162777670Y-119873665D01*
X178905000Y-119873665D01*
X178905000Y-120156335D01*
X178960147Y-120433574D01*
X179068320Y-120694727D01*
X179225363Y-120929759D01*
X179425241Y-121129637D01*
X179660273Y-121286680D01*
X179670865Y-121291067D01*
X179484869Y-121402615D01*
X179276481Y-121591586D01*
X179108963Y-121817580D01*
X178988754Y-122071913D01*
X178948096Y-122205961D01*
X179070085Y-122428000D01*
X180213000Y-122428000D01*
X180213000Y-122408000D01*
X180467000Y-122408000D01*
X180467000Y-122428000D01*
X181609915Y-122428000D01*
X181617790Y-122413665D01*
X186525000Y-122413665D01*
X186525000Y-122696335D01*
X186580147Y-122973574D01*
X186688320Y-123234727D01*
X186845363Y-123469759D01*
X187045241Y-123669637D01*
X187280273Y-123826680D01*
X187541426Y-123934853D01*
X187818665Y-123990000D01*
X188101335Y-123990000D01*
X188378574Y-123934853D01*
X188639727Y-123826680D01*
X188874759Y-123669637D01*
X189074637Y-123469759D01*
X189231680Y-123234727D01*
X189281794Y-123113740D01*
X204255000Y-123113740D01*
X204255000Y-123406260D01*
X204312068Y-123693158D01*
X204424010Y-123963411D01*
X204586525Y-124206632D01*
X204793368Y-124413475D01*
X205036589Y-124575990D01*
X205306842Y-124687932D01*
X205593740Y-124745000D01*
X205886260Y-124745000D01*
X206173158Y-124687932D01*
X206443411Y-124575990D01*
X206686632Y-124413475D01*
X206893475Y-124206632D01*
X207010000Y-124032240D01*
X207126525Y-124206632D01*
X207333368Y-124413475D01*
X207576589Y-124575990D01*
X207846842Y-124687932D01*
X208133740Y-124745000D01*
X208426260Y-124745000D01*
X208713158Y-124687932D01*
X208983411Y-124575990D01*
X209226632Y-124413475D01*
X209433475Y-124206632D01*
X209550000Y-124032240D01*
X209666525Y-124206632D01*
X209873368Y-124413475D01*
X210116589Y-124575990D01*
X210386842Y-124687932D01*
X210673740Y-124745000D01*
X210966260Y-124745000D01*
X211253158Y-124687932D01*
X211523411Y-124575990D01*
X211766632Y-124413475D01*
X211973475Y-124206632D01*
X212090000Y-124032240D01*
X212206525Y-124206632D01*
X212413368Y-124413475D01*
X212656589Y-124575990D01*
X212926842Y-124687932D01*
X213213740Y-124745000D01*
X213506260Y-124745000D01*
X213793158Y-124687932D01*
X214063411Y-124575990D01*
X214306632Y-124413475D01*
X214438487Y-124281620D01*
X214460498Y-124354180D01*
X214519463Y-124464494D01*
X214598815Y-124561185D01*
X214695506Y-124640537D01*
X214805820Y-124699502D01*
X214925518Y-124735812D01*
X215050000Y-124748072D01*
X216750000Y-124748072D01*
X216874482Y-124735812D01*
X216994180Y-124699502D01*
X217104494Y-124640537D01*
X217201185Y-124561185D01*
X217280537Y-124464494D01*
X217339502Y-124354180D01*
X217375812Y-124234482D01*
X217388072Y-124110000D01*
X217388072Y-122410000D01*
X217375812Y-122285518D01*
X217339502Y-122165820D01*
X217280537Y-122055506D01*
X217201185Y-121958815D01*
X217104494Y-121879463D01*
X216994180Y-121820498D01*
X216874482Y-121784188D01*
X216750000Y-121771928D01*
X215050000Y-121771928D01*
X214925518Y-121784188D01*
X214805820Y-121820498D01*
X214695506Y-121879463D01*
X214598815Y-121958815D01*
X214519463Y-122055506D01*
X214460498Y-122165820D01*
X214438487Y-122238380D01*
X214306632Y-122106525D01*
X214063411Y-121944010D01*
X213793158Y-121832068D01*
X213506260Y-121775000D01*
X213213740Y-121775000D01*
X212926842Y-121832068D01*
X212656589Y-121944010D01*
X212413368Y-122106525D01*
X212206525Y-122313368D01*
X212090000Y-122487760D01*
X211973475Y-122313368D01*
X211766632Y-122106525D01*
X211523411Y-121944010D01*
X211253158Y-121832068D01*
X210966260Y-121775000D01*
X210673740Y-121775000D01*
X210386842Y-121832068D01*
X210116589Y-121944010D01*
X209873368Y-122106525D01*
X209666525Y-122313368D01*
X209550000Y-122487760D01*
X209433475Y-122313368D01*
X209226632Y-122106525D01*
X208983411Y-121944010D01*
X208713158Y-121832068D01*
X208426260Y-121775000D01*
X208133740Y-121775000D01*
X207846842Y-121832068D01*
X207576589Y-121944010D01*
X207333368Y-122106525D01*
X207126525Y-122313368D01*
X207010000Y-122487760D01*
X206893475Y-122313368D01*
X206686632Y-122106525D01*
X206443411Y-121944010D01*
X206173158Y-121832068D01*
X205886260Y-121775000D01*
X205593740Y-121775000D01*
X205306842Y-121832068D01*
X205036589Y-121944010D01*
X204793368Y-122106525D01*
X204586525Y-122313368D01*
X204424010Y-122556589D01*
X204312068Y-122826842D01*
X204255000Y-123113740D01*
X189281794Y-123113740D01*
X189339853Y-122973574D01*
X189395000Y-122696335D01*
X189395000Y-122413665D01*
X189339853Y-122136426D01*
X189231680Y-121875273D01*
X189074637Y-121640241D01*
X188874759Y-121440363D01*
X188639727Y-121283320D01*
X188629135Y-121278933D01*
X188815131Y-121167385D01*
X189023519Y-120978414D01*
X189191037Y-120752420D01*
X189311246Y-120498087D01*
X189351904Y-120364039D01*
X189229915Y-120142000D01*
X188087000Y-120142000D01*
X188087000Y-120162000D01*
X187833000Y-120162000D01*
X187833000Y-120142000D01*
X186690085Y-120142000D01*
X186568096Y-120364039D01*
X186608754Y-120498087D01*
X186728963Y-120752420D01*
X186896481Y-120978414D01*
X187104869Y-121167385D01*
X187290865Y-121278933D01*
X187280273Y-121283320D01*
X187045241Y-121440363D01*
X186845363Y-121640241D01*
X186688320Y-121875273D01*
X186580147Y-122136426D01*
X186525000Y-122413665D01*
X181617790Y-122413665D01*
X181731904Y-122205961D01*
X181691246Y-122071913D01*
X181571037Y-121817580D01*
X181403519Y-121591586D01*
X181195131Y-121402615D01*
X181009135Y-121291067D01*
X181019727Y-121286680D01*
X181254759Y-121129637D01*
X181454637Y-120929759D01*
X181611680Y-120694727D01*
X181719853Y-120433574D01*
X181775000Y-120156335D01*
X181775000Y-119873665D01*
X181719853Y-119596426D01*
X181611680Y-119335273D01*
X181454637Y-119100241D01*
X181254759Y-118900363D01*
X181019727Y-118743320D01*
X181009135Y-118738933D01*
X181195131Y-118627385D01*
X181403519Y-118438414D01*
X181571037Y-118212420D01*
X181691246Y-117958087D01*
X181731904Y-117824039D01*
X181609915Y-117602000D01*
X180467000Y-117602000D01*
X180467000Y-117622000D01*
X180213000Y-117622000D01*
X180213000Y-117602000D01*
X179070085Y-117602000D01*
X178948096Y-117824039D01*
X178988754Y-117958087D01*
X179108963Y-118212420D01*
X179276481Y-118438414D01*
X179484869Y-118627385D01*
X179670865Y-118738933D01*
X179660273Y-118743320D01*
X179425241Y-118900363D01*
X179225363Y-119100241D01*
X179068320Y-119335273D01*
X178960147Y-119596426D01*
X178905000Y-119873665D01*
X162777670Y-119873665D01*
X162778072Y-119800000D01*
X162765812Y-119675518D01*
X162729502Y-119555820D01*
X162670537Y-119445506D01*
X162591185Y-119348815D01*
X162494494Y-119269463D01*
X162384180Y-119210498D01*
X162311620Y-119188487D01*
X162443475Y-119056632D01*
X162605990Y-118813411D01*
X162717932Y-118543158D01*
X162775000Y-118256260D01*
X162775000Y-117963740D01*
X162717932Y-117676842D01*
X162605990Y-117406589D01*
X162443475Y-117163368D01*
X162236632Y-116956525D01*
X161993411Y-116794010D01*
X161723158Y-116682068D01*
X161436260Y-116625000D01*
X161143740Y-116625000D01*
X160856842Y-116682068D01*
X160586589Y-116794010D01*
X160343368Y-116956525D01*
X160136525Y-117163368D01*
X159974010Y-117406589D01*
X159862068Y-117676842D01*
X159805000Y-117963740D01*
X159805000Y-118256260D01*
X159862068Y-118543158D01*
X159974010Y-118813411D01*
X160136525Y-119056632D01*
X160268380Y-119188487D01*
X160195820Y-119210498D01*
X160085506Y-119269463D01*
X159988815Y-119348815D01*
X159909463Y-119445506D01*
X159850498Y-119555820D01*
X159814188Y-119675518D01*
X159801928Y-119800000D01*
X154327630Y-119800000D01*
X156214353Y-117913278D01*
X156243422Y-117889422D01*
X156270772Y-117856096D01*
X156338645Y-117773393D01*
X156409401Y-117641016D01*
X156409402Y-117641015D01*
X156452974Y-117497378D01*
X156464000Y-117385426D01*
X156464000Y-117385423D01*
X156467686Y-117348000D01*
X156464000Y-117310577D01*
X156464000Y-111340000D01*
X159801928Y-111340000D01*
X159814188Y-111464482D01*
X159850498Y-111584180D01*
X159909463Y-111694494D01*
X159988815Y-111791185D01*
X160085506Y-111870537D01*
X160195820Y-111929502D01*
X160268380Y-111951513D01*
X160136525Y-112083368D01*
X159974010Y-112326589D01*
X159862068Y-112596842D01*
X159805000Y-112883740D01*
X159805000Y-113176260D01*
X159862068Y-113463158D01*
X159974010Y-113733411D01*
X160136525Y-113976632D01*
X160343368Y-114183475D01*
X160586589Y-114345990D01*
X160856842Y-114457932D01*
X161143740Y-114515000D01*
X161436260Y-114515000D01*
X161723158Y-114457932D01*
X161993411Y-114345990D01*
X162236632Y-114183475D01*
X162443475Y-113976632D01*
X162605990Y-113733411D01*
X162717932Y-113463158D01*
X162775000Y-113176260D01*
X162775000Y-112883740D01*
X162717932Y-112596842D01*
X162605990Y-112326589D01*
X162443475Y-112083368D01*
X162311620Y-111951513D01*
X162384180Y-111929502D01*
X162494494Y-111870537D01*
X162591185Y-111791185D01*
X162670537Y-111694494D01*
X162729502Y-111584180D01*
X162765812Y-111464482D01*
X162778072Y-111340000D01*
X162775000Y-110775750D01*
X162616250Y-110617000D01*
X161417000Y-110617000D01*
X161417000Y-110637000D01*
X161163000Y-110637000D01*
X161163000Y-110617000D01*
X159963750Y-110617000D01*
X159805000Y-110775750D01*
X159801928Y-111340000D01*
X156464000Y-111340000D01*
X156464000Y-109640000D01*
X159801928Y-109640000D01*
X159805000Y-110204250D01*
X159963750Y-110363000D01*
X161163000Y-110363000D01*
X161163000Y-109163750D01*
X161417000Y-109163750D01*
X161417000Y-110363000D01*
X162616250Y-110363000D01*
X162775000Y-110204250D01*
X162778072Y-109640000D01*
X162765812Y-109515518D01*
X162729502Y-109395820D01*
X162670537Y-109285506D01*
X162591185Y-109188815D01*
X162494494Y-109109463D01*
X162384180Y-109050498D01*
X162264482Y-109014188D01*
X162140000Y-109001928D01*
X161575750Y-109005000D01*
X161417000Y-109163750D01*
X161163000Y-109163750D01*
X161004250Y-109005000D01*
X160440000Y-109001928D01*
X160315518Y-109014188D01*
X160195820Y-109050498D01*
X160085506Y-109109463D01*
X159988815Y-109188815D01*
X159909463Y-109285506D01*
X159850498Y-109395820D01*
X159814188Y-109515518D01*
X159801928Y-109640000D01*
X156464000Y-109640000D01*
X156464000Y-108519630D01*
X159866579Y-105117052D01*
X160051243Y-105080320D01*
X160229210Y-105006604D01*
X160389375Y-104899585D01*
X160525585Y-104763375D01*
X160632604Y-104603210D01*
X160706320Y-104425243D01*
X160743900Y-104236315D01*
X160743900Y-104043685D01*
X160706320Y-103854757D01*
X160632604Y-103676790D01*
X160543877Y-103544000D01*
X164627928Y-103544000D01*
X164627928Y-105244000D01*
X164640188Y-105368482D01*
X164676498Y-105488180D01*
X164735463Y-105598494D01*
X164814815Y-105695185D01*
X164911506Y-105774537D01*
X165021820Y-105833502D01*
X165141518Y-105869812D01*
X165266000Y-105882072D01*
X166966000Y-105882072D01*
X167090482Y-105869812D01*
X167210180Y-105833502D01*
X167320494Y-105774537D01*
X167417185Y-105695185D01*
X167496537Y-105598494D01*
X167555502Y-105488180D01*
X167577513Y-105415620D01*
X167709368Y-105547475D01*
X167952589Y-105709990D01*
X168222842Y-105821932D01*
X168509740Y-105879000D01*
X168802260Y-105879000D01*
X169089158Y-105821932D01*
X169359411Y-105709990D01*
X169602632Y-105547475D01*
X169809475Y-105340632D01*
X169971990Y-105097411D01*
X170083932Y-104827158D01*
X170141000Y-104540260D01*
X170141000Y-104247740D01*
X170083932Y-103960842D01*
X169971990Y-103690589D01*
X169809475Y-103447368D01*
X169602632Y-103240525D01*
X169418000Y-103117158D01*
X169418000Y-101788630D01*
X169479630Y-101727000D01*
X171158577Y-101727000D01*
X171196000Y-101730686D01*
X171233423Y-101727000D01*
X171233426Y-101727000D01*
X171345378Y-101715974D01*
X171489015Y-101672402D01*
X171621392Y-101601645D01*
X171737422Y-101506422D01*
X171761284Y-101477347D01*
X172185579Y-101053052D01*
X172370243Y-101016320D01*
X172548210Y-100942604D01*
X172708375Y-100835585D01*
X172844585Y-100699375D01*
X172951604Y-100539210D01*
X173025320Y-100361243D01*
X173062900Y-100172315D01*
X173062900Y-99979685D01*
X173025320Y-99790757D01*
X172951604Y-99612790D01*
X172844585Y-99452625D01*
X172708375Y-99316415D01*
X172548210Y-99209396D01*
X172370243Y-99135680D01*
X172181315Y-99098100D01*
X171988685Y-99098100D01*
X171799757Y-99135680D01*
X171621790Y-99209396D01*
X171461625Y-99316415D01*
X171450000Y-99328040D01*
X171438375Y-99316415D01*
X171278210Y-99209396D01*
X171100243Y-99135680D01*
X170911315Y-99098100D01*
X170718685Y-99098100D01*
X170529757Y-99135680D01*
X170351790Y-99209396D01*
X170195239Y-99314000D01*
X166788423Y-99314000D01*
X166751000Y-99310314D01*
X166713577Y-99314000D01*
X166713574Y-99314000D01*
X166601622Y-99325026D01*
X166457985Y-99368598D01*
X166396364Y-99401535D01*
X166325607Y-99439355D01*
X166309438Y-99452625D01*
X166209578Y-99534578D01*
X166185716Y-99563654D01*
X165603654Y-100145716D01*
X165574578Y-100169578D01*
X165550174Y-100199315D01*
X165479355Y-100285608D01*
X165456507Y-100328355D01*
X165408598Y-100417986D01*
X165365026Y-100561623D01*
X165359280Y-100619967D01*
X165350314Y-100711000D01*
X165354000Y-100748423D01*
X165354001Y-102905928D01*
X165266000Y-102905928D01*
X165141518Y-102918188D01*
X165021820Y-102954498D01*
X164911506Y-103013463D01*
X164814815Y-103092815D01*
X164735463Y-103189506D01*
X164676498Y-103299820D01*
X164640188Y-103419518D01*
X164627928Y-103544000D01*
X160543877Y-103544000D01*
X160525585Y-103516625D01*
X160389375Y-103380415D01*
X160355710Y-103357921D01*
X161802352Y-101911279D01*
X161831422Y-101887422D01*
X161926645Y-101771392D01*
X161997402Y-101639015D01*
X162040974Y-101495378D01*
X162052000Y-101383426D01*
X162052000Y-101383424D01*
X162055686Y-101346001D01*
X162052000Y-101308578D01*
X162052000Y-96123761D01*
X162156604Y-95967210D01*
X162230320Y-95789243D01*
X162267900Y-95600315D01*
X162267900Y-95407685D01*
X178727100Y-95407685D01*
X178727100Y-95600315D01*
X178764680Y-95789243D01*
X178838396Y-95967210D01*
X178945415Y-96127375D01*
X179081625Y-96263585D01*
X179241790Y-96370604D01*
X179419757Y-96444320D01*
X179608685Y-96481900D01*
X179801315Y-96481900D01*
X179990243Y-96444320D01*
X180168210Y-96370604D01*
X180328375Y-96263585D01*
X180464585Y-96127375D01*
X180571604Y-95967210D01*
X180645320Y-95789243D01*
X180682900Y-95600315D01*
X180682900Y-95407685D01*
X180645320Y-95218757D01*
X180627049Y-95174648D01*
X184234697Y-91567000D01*
X184265344Y-91567000D01*
X184225680Y-91662757D01*
X184188948Y-91847421D01*
X182113654Y-93922716D01*
X182084578Y-93946578D01*
X182028983Y-94014322D01*
X181989355Y-94062608D01*
X181985992Y-94068900D01*
X181918598Y-94194986D01*
X181875026Y-94338623D01*
X181867445Y-94415599D01*
X181860314Y-94488000D01*
X181864000Y-94525423D01*
X181864001Y-108650368D01*
X181502499Y-109011871D01*
X181454637Y-108940241D01*
X181256039Y-108741643D01*
X181264482Y-108740812D01*
X181384180Y-108704502D01*
X181494494Y-108645537D01*
X181591185Y-108566185D01*
X181670537Y-108469494D01*
X181729502Y-108359180D01*
X181765812Y-108239482D01*
X181778072Y-108115000D01*
X181778072Y-106515000D01*
X181765812Y-106390518D01*
X181729502Y-106270820D01*
X181670537Y-106160506D01*
X181591185Y-106063815D01*
X181494494Y-105984463D01*
X181384180Y-105925498D01*
X181264482Y-105889188D01*
X181140000Y-105876928D01*
X179540000Y-105876928D01*
X179415518Y-105889188D01*
X179295820Y-105925498D01*
X179185506Y-105984463D01*
X179088815Y-106063815D01*
X179009463Y-106160506D01*
X178950498Y-106270820D01*
X178914188Y-106390518D01*
X178901928Y-106515000D01*
X178901928Y-108115000D01*
X178914188Y-108239482D01*
X178950498Y-108359180D01*
X179009463Y-108469494D01*
X179088815Y-108566185D01*
X179185506Y-108645537D01*
X179295820Y-108704502D01*
X179415518Y-108740812D01*
X179423961Y-108741643D01*
X179225363Y-108940241D01*
X179068320Y-109175273D01*
X178960147Y-109436426D01*
X178905000Y-109713665D01*
X178905000Y-109996335D01*
X178960147Y-110273574D01*
X179068320Y-110534727D01*
X179225363Y-110769759D01*
X179425241Y-110969637D01*
X179657759Y-111125000D01*
X179425241Y-111280363D01*
X179225363Y-111480241D01*
X179068320Y-111715273D01*
X178960147Y-111976426D01*
X178905000Y-112253665D01*
X178905000Y-112536335D01*
X178960147Y-112813574D01*
X179068320Y-113074727D01*
X179225363Y-113309759D01*
X179425241Y-113509637D01*
X179657759Y-113665000D01*
X179425241Y-113820363D01*
X179225363Y-114020241D01*
X179068320Y-114255273D01*
X178960147Y-114516426D01*
X178905000Y-114793665D01*
X178905000Y-115076335D01*
X178960147Y-115353574D01*
X179068320Y-115614727D01*
X179225363Y-115849759D01*
X179425241Y-116049637D01*
X179660273Y-116206680D01*
X179670865Y-116211067D01*
X179484869Y-116322615D01*
X179276481Y-116511586D01*
X179108963Y-116737580D01*
X178988754Y-116991913D01*
X178948096Y-117125961D01*
X179070085Y-117348000D01*
X180213000Y-117348000D01*
X180213000Y-117328000D01*
X180467000Y-117328000D01*
X180467000Y-117348000D01*
X181609915Y-117348000D01*
X181617790Y-117333665D01*
X186525000Y-117333665D01*
X186525000Y-117616335D01*
X186580147Y-117893574D01*
X186688320Y-118154727D01*
X186845363Y-118389759D01*
X187045241Y-118589637D01*
X187280273Y-118746680D01*
X187290865Y-118751067D01*
X187104869Y-118862615D01*
X186896481Y-119051586D01*
X186728963Y-119277580D01*
X186608754Y-119531913D01*
X186568096Y-119665961D01*
X186690085Y-119888000D01*
X187833000Y-119888000D01*
X187833000Y-119868000D01*
X188087000Y-119868000D01*
X188087000Y-119888000D01*
X189229915Y-119888000D01*
X189351904Y-119665961D01*
X189311246Y-119531913D01*
X189191037Y-119277580D01*
X189023519Y-119051586D01*
X188815131Y-118862615D01*
X188629135Y-118751067D01*
X188639727Y-118746680D01*
X188874759Y-118589637D01*
X189074637Y-118389759D01*
X189231680Y-118154727D01*
X189339853Y-117893574D01*
X189395000Y-117616335D01*
X189395000Y-117333665D01*
X189339853Y-117056426D01*
X189231680Y-116795273D01*
X189074637Y-116560241D01*
X188874759Y-116360363D01*
X188639727Y-116203320D01*
X188629135Y-116198933D01*
X188815131Y-116087385D01*
X189023519Y-115898414D01*
X189191037Y-115672420D01*
X189311246Y-115418087D01*
X189351904Y-115284039D01*
X189229915Y-115062000D01*
X188087000Y-115062000D01*
X188087000Y-115082000D01*
X187833000Y-115082000D01*
X187833000Y-115062000D01*
X186690085Y-115062000D01*
X186568096Y-115284039D01*
X186608754Y-115418087D01*
X186728963Y-115672420D01*
X186896481Y-115898414D01*
X187104869Y-116087385D01*
X187290865Y-116198933D01*
X187280273Y-116203320D01*
X187045241Y-116360363D01*
X186845363Y-116560241D01*
X186688320Y-116795273D01*
X186580147Y-117056426D01*
X186525000Y-117333665D01*
X181617790Y-117333665D01*
X181731904Y-117125961D01*
X181691246Y-116991913D01*
X181571037Y-116737580D01*
X181403519Y-116511586D01*
X181195131Y-116322615D01*
X181009135Y-116211067D01*
X181019727Y-116206680D01*
X181254759Y-116049637D01*
X181454637Y-115849759D01*
X181556707Y-115697000D01*
X181826577Y-115697000D01*
X181864000Y-115700686D01*
X181901423Y-115697000D01*
X181901426Y-115697000D01*
X182013378Y-115685974D01*
X182157015Y-115642402D01*
X182289392Y-115571645D01*
X182405422Y-115476422D01*
X182429284Y-115447346D01*
X183900352Y-113976279D01*
X183929422Y-113952422D01*
X184024645Y-113836392D01*
X184095402Y-113704015D01*
X184138974Y-113560378D01*
X184150000Y-113448426D01*
X184150000Y-113448424D01*
X184153686Y-113411001D01*
X184150000Y-113373578D01*
X184150000Y-112253665D01*
X186525000Y-112253665D01*
X186525000Y-112536335D01*
X186580147Y-112813574D01*
X186688320Y-113074727D01*
X186845363Y-113309759D01*
X187045241Y-113509637D01*
X187280273Y-113666680D01*
X187290865Y-113671067D01*
X187104869Y-113782615D01*
X186896481Y-113971586D01*
X186728963Y-114197580D01*
X186608754Y-114451913D01*
X186568096Y-114585961D01*
X186690085Y-114808000D01*
X187833000Y-114808000D01*
X187833000Y-114788000D01*
X188087000Y-114788000D01*
X188087000Y-114808000D01*
X189229915Y-114808000D01*
X189351904Y-114585961D01*
X189311246Y-114451913D01*
X189191037Y-114197580D01*
X189023519Y-113971586D01*
X188815131Y-113782615D01*
X188629135Y-113671067D01*
X188639727Y-113666680D01*
X188874759Y-113509637D01*
X189074637Y-113309759D01*
X189231680Y-113074727D01*
X189339853Y-112813574D01*
X189395000Y-112536335D01*
X189395000Y-112253665D01*
X189339853Y-111976426D01*
X189231680Y-111715273D01*
X189074637Y-111480241D01*
X188874759Y-111280363D01*
X188639727Y-111123320D01*
X188629135Y-111118933D01*
X188815131Y-111007385D01*
X189023519Y-110818414D01*
X189191037Y-110592420D01*
X189311246Y-110338087D01*
X189351904Y-110204039D01*
X189229915Y-109982000D01*
X188087000Y-109982000D01*
X188087000Y-110002000D01*
X187833000Y-110002000D01*
X187833000Y-109982000D01*
X186690085Y-109982000D01*
X186568096Y-110204039D01*
X186608754Y-110338087D01*
X186728963Y-110592420D01*
X186896481Y-110818414D01*
X187104869Y-111007385D01*
X187290865Y-111118933D01*
X187280273Y-111123320D01*
X187045241Y-111280363D01*
X186845363Y-111480241D01*
X186688320Y-111715273D01*
X186580147Y-111976426D01*
X186525000Y-112253665D01*
X184150000Y-112253665D01*
X184150000Y-96581630D01*
X186663579Y-94068052D01*
X186848243Y-94031320D01*
X187026210Y-93957604D01*
X187186375Y-93850585D01*
X187322585Y-93714375D01*
X187429604Y-93554210D01*
X187503320Y-93376243D01*
X187540900Y-93187315D01*
X187540900Y-92994685D01*
X187503320Y-92805757D01*
X187429604Y-92627790D01*
X187322585Y-92467625D01*
X187310480Y-92455520D01*
X187313375Y-92453585D01*
X187449585Y-92317375D01*
X187556604Y-92157210D01*
X187630320Y-91979243D01*
X187667900Y-91790315D01*
X187667900Y-91597685D01*
X187630320Y-91408757D01*
X187556604Y-91230790D01*
X187449585Y-91070625D01*
X187313375Y-90934415D01*
X187153210Y-90827396D01*
X186975243Y-90753680D01*
X186790579Y-90716948D01*
X186366284Y-90292653D01*
X186342422Y-90263578D01*
X186226392Y-90168355D01*
X186094015Y-90097598D01*
X185950378Y-90054026D01*
X185838426Y-90043000D01*
X185838423Y-90043000D01*
X185801000Y-90039314D01*
X185763577Y-90043000D01*
X183956490Y-90043000D01*
X183919067Y-90039314D01*
X183881644Y-90043000D01*
X183881641Y-90043000D01*
X183769689Y-90054026D01*
X183626052Y-90097598D01*
X183571436Y-90126791D01*
X183493674Y-90168355D01*
X183451286Y-90203143D01*
X183377645Y-90263578D01*
X183353783Y-90292654D01*
X179192649Y-94453788D01*
X179163579Y-94477645D01*
X179068355Y-94593675D01*
X178997598Y-94726052D01*
X178954026Y-94869689D01*
X178953772Y-94872268D01*
X178945415Y-94880625D01*
X178838396Y-95040790D01*
X178764680Y-95218757D01*
X178727100Y-95407685D01*
X162267900Y-95407685D01*
X162244227Y-95288674D01*
X162274757Y-95301320D01*
X162463685Y-95338900D01*
X162656315Y-95338900D01*
X162845243Y-95301320D01*
X163023210Y-95227604D01*
X163183375Y-95120585D01*
X163319585Y-94984375D01*
X163426604Y-94824210D01*
X163500320Y-94646243D01*
X163537900Y-94457315D01*
X163537900Y-94264685D01*
X163500320Y-94075757D01*
X163426604Y-93897790D01*
X163319585Y-93737625D01*
X163307960Y-93726000D01*
X174333577Y-93726000D01*
X174371000Y-93729686D01*
X174408423Y-93726000D01*
X174408426Y-93726000D01*
X174520378Y-93714974D01*
X174664015Y-93671402D01*
X174796392Y-93600645D01*
X174912422Y-93505422D01*
X174936284Y-93476346D01*
X179639631Y-88773000D01*
X199659239Y-88773000D01*
X199815790Y-88877604D01*
X199869859Y-88900000D01*
X197395423Y-88900000D01*
X197358000Y-88896314D01*
X197320577Y-88900000D01*
X197320574Y-88900000D01*
X197208622Y-88911026D01*
X197064985Y-88954598D01*
X197003364Y-88987535D01*
X196932607Y-89025355D01*
X196867024Y-89079178D01*
X196816578Y-89120578D01*
X196792721Y-89149648D01*
X195599833Y-90342536D01*
X195592319Y-90304758D01*
X195518603Y-90126791D01*
X195411584Y-89966626D01*
X195275374Y-89830416D01*
X195115209Y-89723397D01*
X194937242Y-89649681D01*
X194748314Y-89612101D01*
X194555684Y-89612101D01*
X194366756Y-89649681D01*
X194188789Y-89723397D01*
X194028624Y-89830416D01*
X193892414Y-89966626D01*
X193785395Y-90126791D01*
X193711679Y-90304758D01*
X193674099Y-90493686D01*
X193674099Y-90686316D01*
X193711679Y-90875244D01*
X193785395Y-91053211D01*
X193892414Y-91213376D01*
X194028624Y-91349586D01*
X194188789Y-91456605D01*
X194366756Y-91530321D01*
X194404534Y-91537835D01*
X190018422Y-95923948D01*
X189833757Y-95960680D01*
X189655790Y-96034396D01*
X189495625Y-96141415D01*
X189359415Y-96277625D01*
X189252396Y-96437790D01*
X189178680Y-96615757D01*
X189141100Y-96804685D01*
X189141100Y-96997315D01*
X189178680Y-97186243D01*
X189252396Y-97364210D01*
X189359415Y-97524375D01*
X189495625Y-97660585D01*
X189655790Y-97767604D01*
X189802158Y-97828231D01*
X187396418Y-100233971D01*
X187364436Y-100260218D01*
X187259691Y-100387851D01*
X187181858Y-100533466D01*
X187133929Y-100691467D01*
X187121800Y-100814613D01*
X187121800Y-100814619D01*
X187117746Y-100855782D01*
X187121800Y-100896945D01*
X187121801Y-106149207D01*
X187045241Y-106200363D01*
X186845363Y-106400241D01*
X186688320Y-106635273D01*
X186580147Y-106896426D01*
X186525000Y-107173665D01*
X186525000Y-107456335D01*
X186580147Y-107733574D01*
X186688320Y-107994727D01*
X186845363Y-108229759D01*
X187045241Y-108429637D01*
X187280273Y-108586680D01*
X187290865Y-108591067D01*
X187104869Y-108702615D01*
X186896481Y-108891586D01*
X186728963Y-109117580D01*
X186608754Y-109371913D01*
X186568096Y-109505961D01*
X186690085Y-109728000D01*
X187833000Y-109728000D01*
X187833000Y-109708000D01*
X188087000Y-109708000D01*
X188087000Y-109728000D01*
X189229915Y-109728000D01*
X189351904Y-109505961D01*
X189311246Y-109371913D01*
X189191037Y-109117580D01*
X189023519Y-108891586D01*
X188815131Y-108702615D01*
X188629135Y-108591067D01*
X188639727Y-108586680D01*
X188874759Y-108429637D01*
X189074637Y-108229759D01*
X189231680Y-107994727D01*
X189339853Y-107733574D01*
X189395000Y-107456335D01*
X189395000Y-107173665D01*
X189339853Y-106896426D01*
X189231680Y-106635273D01*
X189074637Y-106400241D01*
X188874759Y-106200363D01*
X188798200Y-106149208D01*
X188798200Y-101202975D01*
X195618100Y-94383076D01*
X195618100Y-94457315D01*
X195655680Y-94646243D01*
X195729396Y-94824210D01*
X195764549Y-94876820D01*
X195067654Y-95573716D01*
X195038578Y-95597578D01*
X194992786Y-95653377D01*
X194943355Y-95713608D01*
X194921953Y-95753649D01*
X194872598Y-95845986D01*
X194829026Y-95989623D01*
X194818000Y-96101574D01*
X194814314Y-96139000D01*
X194818000Y-96176424D01*
X194818000Y-96513158D01*
X194633368Y-96636525D01*
X194426525Y-96843368D01*
X194264010Y-97086589D01*
X194152068Y-97356842D01*
X194095000Y-97643740D01*
X194095000Y-97936260D01*
X194152068Y-98223158D01*
X194264010Y-98493411D01*
X194426525Y-98736632D01*
X194633368Y-98943475D01*
X194876589Y-99105990D01*
X195146842Y-99217932D01*
X195433740Y-99275000D01*
X195726260Y-99275000D01*
X196013158Y-99217932D01*
X196283411Y-99105990D01*
X196526632Y-98943475D01*
X196733475Y-98736632D01*
X196850000Y-98562240D01*
X196966525Y-98736632D01*
X197173368Y-98943475D01*
X197416589Y-99105990D01*
X197686842Y-99217932D01*
X197973740Y-99275000D01*
X198266260Y-99275000D01*
X198553158Y-99217932D01*
X198823411Y-99105990D01*
X199066632Y-98943475D01*
X199273475Y-98736632D01*
X199390000Y-98562240D01*
X199506525Y-98736632D01*
X199713368Y-98943475D01*
X199956589Y-99105990D01*
X200226842Y-99217932D01*
X200513740Y-99275000D01*
X200806260Y-99275000D01*
X201093158Y-99217932D01*
X201363411Y-99105990D01*
X201606632Y-98943475D01*
X201813475Y-98736632D01*
X201930000Y-98562240D01*
X202046525Y-98736632D01*
X202253368Y-98943475D01*
X202496589Y-99105990D01*
X202766842Y-99217932D01*
X203053740Y-99275000D01*
X203346260Y-99275000D01*
X203633158Y-99217932D01*
X203903411Y-99105990D01*
X204146632Y-98943475D01*
X204353475Y-98736632D01*
X204470000Y-98562240D01*
X204586525Y-98736632D01*
X204793368Y-98943475D01*
X205036589Y-99105990D01*
X205306842Y-99217932D01*
X205593740Y-99275000D01*
X205886260Y-99275000D01*
X206173158Y-99217932D01*
X206443411Y-99105990D01*
X206686632Y-98943475D01*
X206893475Y-98736632D01*
X207010000Y-98562240D01*
X207126525Y-98736632D01*
X207333368Y-98943475D01*
X207576589Y-99105990D01*
X207846842Y-99217932D01*
X208133740Y-99275000D01*
X208426260Y-99275000D01*
X208713158Y-99217932D01*
X208983411Y-99105990D01*
X209226632Y-98943475D01*
X209433475Y-98736632D01*
X209550000Y-98562240D01*
X209666525Y-98736632D01*
X209873368Y-98943475D01*
X210116589Y-99105990D01*
X210386842Y-99217932D01*
X210673740Y-99275000D01*
X210966260Y-99275000D01*
X211253158Y-99217932D01*
X211523411Y-99105990D01*
X211766632Y-98943475D01*
X211973475Y-98736632D01*
X212095195Y-98554466D01*
X212164822Y-98671355D01*
X212359731Y-98887588D01*
X212593080Y-99061641D01*
X212855901Y-99186825D01*
X213003110Y-99231476D01*
X213233000Y-99110155D01*
X213233000Y-97917000D01*
X213213000Y-97917000D01*
X213213000Y-97663000D01*
X213233000Y-97663000D01*
X213233000Y-96469845D01*
X213487000Y-96469845D01*
X213487000Y-97663000D01*
X213507000Y-97663000D01*
X213507000Y-97917000D01*
X213487000Y-97917000D01*
X213487000Y-99110155D01*
X213716890Y-99231476D01*
X213864099Y-99186825D01*
X214126920Y-99061641D01*
X214360269Y-98887588D01*
X214436034Y-98803534D01*
X214460498Y-98884180D01*
X214519463Y-98994494D01*
X214598815Y-99091185D01*
X214695506Y-99170537D01*
X214805820Y-99229502D01*
X214925518Y-99265812D01*
X215050000Y-99278072D01*
X216750000Y-99278072D01*
X216874482Y-99265812D01*
X216994180Y-99229502D01*
X217104494Y-99170537D01*
X217201185Y-99091185D01*
X217280537Y-98994494D01*
X217339502Y-98884180D01*
X217375812Y-98764482D01*
X217388072Y-98640000D01*
X217388072Y-96940000D01*
X217375812Y-96815518D01*
X217339502Y-96695820D01*
X217280537Y-96585506D01*
X217201185Y-96488815D01*
X217104494Y-96409463D01*
X216994180Y-96350498D01*
X216874482Y-96314188D01*
X216750000Y-96301928D01*
X215050000Y-96301928D01*
X214925518Y-96314188D01*
X214805820Y-96350498D01*
X214695506Y-96409463D01*
X214598815Y-96488815D01*
X214519463Y-96585506D01*
X214460498Y-96695820D01*
X214436034Y-96776466D01*
X214360269Y-96692412D01*
X214126920Y-96518359D01*
X213864099Y-96393175D01*
X213716890Y-96348524D01*
X213487000Y-96469845D01*
X213233000Y-96469845D01*
X213003110Y-96348524D01*
X212855901Y-96393175D01*
X212593080Y-96518359D01*
X212359731Y-96692412D01*
X212164822Y-96908645D01*
X212095195Y-97025534D01*
X211973475Y-96843368D01*
X211766632Y-96636525D01*
X211523411Y-96474010D01*
X211253158Y-96362068D01*
X210966260Y-96305000D01*
X210673740Y-96305000D01*
X210386842Y-96362068D01*
X210116589Y-96474010D01*
X209873368Y-96636525D01*
X209666525Y-96843368D01*
X209550000Y-97017760D01*
X209433475Y-96843368D01*
X209226632Y-96636525D01*
X208983411Y-96474010D01*
X208713158Y-96362068D01*
X208426260Y-96305000D01*
X208133740Y-96305000D01*
X207846842Y-96362068D01*
X207576589Y-96474010D01*
X207333368Y-96636525D01*
X207126525Y-96843368D01*
X207010000Y-97017760D01*
X206893475Y-96843368D01*
X206686632Y-96636525D01*
X206443411Y-96474010D01*
X206173158Y-96362068D01*
X205886260Y-96305000D01*
X205593740Y-96305000D01*
X205306842Y-96362068D01*
X205036589Y-96474010D01*
X204793368Y-96636525D01*
X204586525Y-96843368D01*
X204470000Y-97017760D01*
X204353475Y-96843368D01*
X204146632Y-96636525D01*
X203903411Y-96474010D01*
X203633158Y-96362068D01*
X203346260Y-96305000D01*
X203053740Y-96305000D01*
X202766842Y-96362068D01*
X202496589Y-96474010D01*
X202253368Y-96636525D01*
X202046525Y-96843368D01*
X201930000Y-97017760D01*
X201813475Y-96843368D01*
X201606632Y-96636525D01*
X201363411Y-96474010D01*
X201093158Y-96362068D01*
X200806260Y-96305000D01*
X200513740Y-96305000D01*
X200226842Y-96362068D01*
X199956589Y-96474010D01*
X199713368Y-96636525D01*
X199506525Y-96843368D01*
X199390000Y-97017760D01*
X199273475Y-96843368D01*
X199066632Y-96636525D01*
X198823411Y-96474010D01*
X198553158Y-96362068D01*
X198266260Y-96305000D01*
X197973740Y-96305000D01*
X197686842Y-96362068D01*
X197416589Y-96474010D01*
X197173368Y-96636525D01*
X196966525Y-96843368D01*
X196850000Y-97017760D01*
X196733475Y-96843368D01*
X196526632Y-96636525D01*
X196342000Y-96513158D01*
X196342000Y-96454630D01*
X197108351Y-95688279D01*
X197137422Y-95664422D01*
X197190033Y-95600315D01*
X197232645Y-95548393D01*
X197288198Y-95444459D01*
X197303402Y-95416015D01*
X197346974Y-95272378D01*
X197358000Y-95160426D01*
X197358000Y-95160423D01*
X197361686Y-95123000D01*
X197358000Y-95085577D01*
X197358000Y-94980761D01*
X197462604Y-94824210D01*
X197536320Y-94646243D01*
X197573900Y-94457315D01*
X197573900Y-94264685D01*
X197536320Y-94075757D01*
X197462604Y-93897790D01*
X197355585Y-93737625D01*
X197219375Y-93601415D01*
X197059210Y-93494396D01*
X196881243Y-93420680D01*
X196692315Y-93383100D01*
X196618076Y-93383100D01*
X198484976Y-91516200D01*
X215394280Y-91516200D01*
X215436790Y-91544604D01*
X215614757Y-91618320D01*
X215803685Y-91655900D01*
X215996315Y-91655900D01*
X216185243Y-91618320D01*
X216363210Y-91544604D01*
X216523375Y-91437585D01*
X216659585Y-91301375D01*
X216766604Y-91141210D01*
X216840320Y-90963243D01*
X216877900Y-90774315D01*
X216877900Y-90581685D01*
X216840320Y-90392757D01*
X216766604Y-90214790D01*
X216659585Y-90054625D01*
X216523375Y-89918415D01*
X216363210Y-89811396D01*
X216185243Y-89737680D01*
X215996315Y-89700100D01*
X215803685Y-89700100D01*
X215614757Y-89737680D01*
X215436790Y-89811396D01*
X215394280Y-89839800D01*
X202321830Y-89839800D01*
X205589654Y-86571976D01*
X211097500Y-86571976D01*
X211097500Y-86830024D01*
X211147842Y-87083113D01*
X211246593Y-87321518D01*
X211389956Y-87536077D01*
X211572423Y-87718544D01*
X211786982Y-87861907D01*
X212025387Y-87960658D01*
X212278476Y-88011000D01*
X212536524Y-88011000D01*
X212789613Y-87960658D01*
X213028018Y-87861907D01*
X213242577Y-87718544D01*
X213425044Y-87536077D01*
X213568407Y-87321518D01*
X213667158Y-87083113D01*
X213717500Y-86830024D01*
X213717500Y-86571976D01*
X213667158Y-86318887D01*
X213568407Y-86080482D01*
X213425044Y-85865923D01*
X213242577Y-85683456D01*
X213028018Y-85540093D01*
X212789613Y-85441342D01*
X212536524Y-85391000D01*
X212278476Y-85391000D01*
X212025387Y-85441342D01*
X211786982Y-85540093D01*
X211572423Y-85683456D01*
X211389956Y-85865923D01*
X211246593Y-86080482D01*
X211147842Y-86318887D01*
X211097500Y-86571976D01*
X205589654Y-86571976D01*
X207395353Y-84766278D01*
X207424422Y-84742422D01*
X207519645Y-84626392D01*
X207590402Y-84494015D01*
X207633974Y-84350378D01*
X207645000Y-84238426D01*
X207645000Y-84238424D01*
X207648686Y-84201001D01*
X207645000Y-84163578D01*
X207645000Y-82604400D01*
X211683705Y-82604400D01*
X211740130Y-82835621D01*
X211974308Y-82944017D01*
X212225133Y-83004645D01*
X212482965Y-83015174D01*
X212737898Y-82975200D01*
X212980133Y-82886259D01*
X213074870Y-82835621D01*
X213131295Y-82604400D01*
X212407500Y-81880605D01*
X211683705Y-82604400D01*
X207645000Y-82604400D01*
X207645000Y-81776465D01*
X211093326Y-81776465D01*
X211133300Y-82031398D01*
X211222241Y-82273633D01*
X211272879Y-82368370D01*
X211504100Y-82424795D01*
X212227895Y-81701000D01*
X212587105Y-81701000D01*
X213310900Y-82424795D01*
X213542121Y-82368370D01*
X213650517Y-82134192D01*
X213711145Y-81883367D01*
X213721674Y-81625535D01*
X213681700Y-81370602D01*
X213592759Y-81128367D01*
X213542121Y-81033630D01*
X213310900Y-80977205D01*
X212587105Y-81701000D01*
X212227895Y-81701000D01*
X211504100Y-80977205D01*
X211272879Y-81033630D01*
X211164483Y-81267808D01*
X211103855Y-81518633D01*
X211093326Y-81776465D01*
X207645000Y-81776465D01*
X207645000Y-80797600D01*
X211683705Y-80797600D01*
X212407500Y-81521395D01*
X213131295Y-80797600D01*
X213074870Y-80566379D01*
X212840692Y-80457983D01*
X212589867Y-80397355D01*
X212332035Y-80386826D01*
X212077102Y-80426800D01*
X211834867Y-80515741D01*
X211740130Y-80566379D01*
X211683705Y-80797600D01*
X207645000Y-80797600D01*
X207645000Y-70977761D01*
X207749604Y-70821210D01*
X207823320Y-70643243D01*
X207860900Y-70454315D01*
X207860900Y-70261685D01*
X207823320Y-70072757D01*
X207749604Y-69894790D01*
X207642585Y-69734625D01*
X207506375Y-69598415D01*
X207346210Y-69491396D01*
X207168243Y-69417680D01*
X206979315Y-69380100D01*
X206786685Y-69380100D01*
X206597757Y-69417680D01*
X206419790Y-69491396D01*
X206259625Y-69598415D01*
X206123415Y-69734625D01*
X206016396Y-69894790D01*
X205942680Y-70072757D01*
X205905100Y-70261685D01*
X205905100Y-70454315D01*
X205942680Y-70643243D01*
X206016396Y-70821210D01*
X206121001Y-70977762D01*
X206121000Y-83885369D01*
X201106370Y-88900000D01*
X200688141Y-88900000D01*
X200742210Y-88877604D01*
X200902375Y-88770585D01*
X201038585Y-88634375D01*
X201145604Y-88474210D01*
X201219320Y-88296243D01*
X201256900Y-88107315D01*
X201256900Y-87914685D01*
X201219320Y-87725757D01*
X201145604Y-87547790D01*
X201038585Y-87387625D01*
X200902375Y-87251415D01*
X200742210Y-87144396D01*
X200564243Y-87070680D01*
X200375315Y-87033100D01*
X200182685Y-87033100D01*
X199993757Y-87070680D01*
X199815790Y-87144396D01*
X199659239Y-87249000D01*
X192466735Y-87249000D01*
X192470603Y-87243211D01*
X192544319Y-87065244D01*
X192581899Y-86876316D01*
X192581899Y-86683686D01*
X192544319Y-86494758D01*
X192470603Y-86316791D01*
X192414616Y-86233000D01*
X200876577Y-86233000D01*
X200914000Y-86236686D01*
X200951423Y-86233000D01*
X200951426Y-86233000D01*
X201063378Y-86221974D01*
X201207015Y-86178402D01*
X201339392Y-86107645D01*
X201455422Y-86012422D01*
X201479284Y-85983346D01*
X203585353Y-83877278D01*
X203614422Y-83853422D01*
X203709645Y-83737392D01*
X203780402Y-83605015D01*
X203823974Y-83461378D01*
X203835000Y-83349426D01*
X203835000Y-83349424D01*
X203838686Y-83312001D01*
X203835000Y-83274578D01*
X203835000Y-68744423D01*
X203838686Y-68707000D01*
X203831819Y-68637279D01*
X203823974Y-68557622D01*
X203780402Y-68413985D01*
X203727479Y-68314973D01*
X203709645Y-68281607D01*
X203674857Y-68239219D01*
X203614422Y-68165578D01*
X203585346Y-68141716D01*
X200152000Y-64708370D01*
X200152000Y-62490842D01*
X200336632Y-62367475D01*
X200543475Y-62160632D01*
X200660000Y-61986240D01*
X200776525Y-62160632D01*
X200983368Y-62367475D01*
X201226589Y-62529990D01*
X201496842Y-62641932D01*
X201783740Y-62699000D01*
X202076260Y-62699000D01*
X202363158Y-62641932D01*
X202633411Y-62529990D01*
X202876632Y-62367475D01*
X203083475Y-62160632D01*
X203200000Y-61986240D01*
X203316525Y-62160632D01*
X203523368Y-62367475D01*
X203766589Y-62529990D01*
X204036842Y-62641932D01*
X204323740Y-62699000D01*
X204616260Y-62699000D01*
X204903158Y-62641932D01*
X205173411Y-62529990D01*
X205416632Y-62367475D01*
X205623475Y-62160632D01*
X205745195Y-61978466D01*
X205814822Y-62095355D01*
X206009731Y-62311588D01*
X206243080Y-62485641D01*
X206505901Y-62610825D01*
X206653110Y-62655476D01*
X206883000Y-62534155D01*
X206883000Y-61341000D01*
X206863000Y-61341000D01*
X206863000Y-61087000D01*
X206883000Y-61087000D01*
X206883000Y-59893845D01*
X207137000Y-59893845D01*
X207137000Y-61087000D01*
X207157000Y-61087000D01*
X207157000Y-61341000D01*
X207137000Y-61341000D01*
X207137000Y-62534155D01*
X207366890Y-62655476D01*
X207514099Y-62610825D01*
X207776920Y-62485641D01*
X208010269Y-62311588D01*
X208205178Y-62095355D01*
X208274805Y-61978466D01*
X208396525Y-62160632D01*
X208603368Y-62367475D01*
X208788000Y-62490842D01*
X208788001Y-66764567D01*
X208784314Y-66802000D01*
X208799027Y-66951378D01*
X208842599Y-67095015D01*
X208913355Y-67227392D01*
X208955510Y-67278757D01*
X209008579Y-67343422D01*
X209037649Y-67367279D01*
X209334948Y-67664578D01*
X209371680Y-67849243D01*
X209445396Y-68027210D01*
X209552415Y-68187375D01*
X209688625Y-68323585D01*
X209848790Y-68430604D01*
X210026757Y-68504320D01*
X210215685Y-68541900D01*
X210408315Y-68541900D01*
X210597243Y-68504320D01*
X210775210Y-68430604D01*
X210935375Y-68323585D01*
X211071585Y-68187375D01*
X211178604Y-68027210D01*
X211252320Y-67849243D01*
X211289900Y-67660315D01*
X211289900Y-67467685D01*
X211252320Y-67278757D01*
X211178604Y-67100790D01*
X211071585Y-66940625D01*
X210935375Y-66804415D01*
X210775210Y-66697396D01*
X210597243Y-66623680D01*
X210412578Y-66586948D01*
X210312000Y-66486370D01*
X210312000Y-62490842D01*
X210496632Y-62367475D01*
X210703475Y-62160632D01*
X210865990Y-61917411D01*
X210977932Y-61647158D01*
X211035000Y-61360260D01*
X211035000Y-61067740D01*
X210977932Y-60780842D01*
X210865990Y-60510589D01*
X210703475Y-60267368D01*
X210496632Y-60060525D01*
X210253411Y-59898010D01*
X209983158Y-59786068D01*
X209696260Y-59729000D01*
X209403740Y-59729000D01*
X209116842Y-59786068D01*
X208846589Y-59898010D01*
X208603368Y-60060525D01*
X208396525Y-60267368D01*
X208274805Y-60449534D01*
X208205178Y-60332645D01*
X208010269Y-60116412D01*
X207776920Y-59942359D01*
X207514099Y-59817175D01*
X207366890Y-59772524D01*
X207137000Y-59893845D01*
X206883000Y-59893845D01*
X206653110Y-59772524D01*
X206505901Y-59817175D01*
X206243080Y-59942359D01*
X206009731Y-60116412D01*
X205814822Y-60332645D01*
X205745195Y-60449534D01*
X205623475Y-60267368D01*
X205416632Y-60060525D01*
X205173411Y-59898010D01*
X204903158Y-59786068D01*
X204616260Y-59729000D01*
X204323740Y-59729000D01*
X204036842Y-59786068D01*
X203766589Y-59898010D01*
X203523368Y-60060525D01*
X203316525Y-60267368D01*
X203200000Y-60441760D01*
X203083475Y-60267368D01*
X202876632Y-60060525D01*
X202633411Y-59898010D01*
X202363158Y-59786068D01*
X202076260Y-59729000D01*
X201783740Y-59729000D01*
X201496842Y-59786068D01*
X201226589Y-59898010D01*
X200983368Y-60060525D01*
X200776525Y-60267368D01*
X200660000Y-60441760D01*
X200543475Y-60267368D01*
X200336632Y-60060525D01*
X200093411Y-59898010D01*
X199823158Y-59786068D01*
X199536260Y-59729000D01*
X199243740Y-59729000D01*
X198956842Y-59786068D01*
X198686589Y-59898010D01*
X198443368Y-60060525D01*
X198236525Y-60267368D01*
X198120000Y-60441760D01*
X198003475Y-60267368D01*
X197796632Y-60060525D01*
X197553411Y-59898010D01*
X197283158Y-59786068D01*
X196996260Y-59729000D01*
X196703740Y-59729000D01*
X196416842Y-59786068D01*
X196146589Y-59898010D01*
X195903368Y-60060525D01*
X195771513Y-60192380D01*
X195749502Y-60119820D01*
X195690537Y-60009506D01*
X195611185Y-59912815D01*
X195514494Y-59833463D01*
X195404180Y-59774498D01*
X195284482Y-59738188D01*
X195160000Y-59725928D01*
X193460000Y-59725928D01*
X193335518Y-59738188D01*
X193215820Y-59774498D01*
X193105506Y-59833463D01*
X193008815Y-59912815D01*
X192929463Y-60009506D01*
X192870498Y-60119820D01*
X192834188Y-60239518D01*
X192821928Y-60364000D01*
X192821928Y-62064000D01*
X192834188Y-62188482D01*
X192870498Y-62308180D01*
X192929463Y-62418494D01*
X193008815Y-62515185D01*
X193105506Y-62594537D01*
X193215820Y-62653502D01*
X193335518Y-62689812D01*
X193460000Y-62702072D01*
X193548001Y-62702072D01*
X193548000Y-63896239D01*
X193443396Y-64052790D01*
X193369680Y-64230757D01*
X193332100Y-64419685D01*
X193332100Y-64612315D01*
X193369680Y-64801243D01*
X193443396Y-64979210D01*
X193550415Y-65139375D01*
X193686625Y-65275585D01*
X193785274Y-65341500D01*
X193690239Y-65405000D01*
X171733631Y-65405000D01*
X170246006Y-63917375D01*
X170251168Y-63904912D01*
X170314000Y-63589033D01*
X170314000Y-63266967D01*
X180229000Y-63266967D01*
X180229000Y-63589033D01*
X180291832Y-63904912D01*
X180415082Y-64202463D01*
X180594013Y-64470252D01*
X180821748Y-64697987D01*
X181089537Y-64876918D01*
X181387088Y-65000168D01*
X181702967Y-65063000D01*
X182025033Y-65063000D01*
X182340912Y-65000168D01*
X182638463Y-64876918D01*
X182906252Y-64697987D01*
X183133987Y-64470252D01*
X183312918Y-64202463D01*
X183318080Y-64190000D01*
X186909920Y-64190000D01*
X186915082Y-64202463D01*
X187094013Y-64470252D01*
X187321748Y-64697987D01*
X187589537Y-64876918D01*
X187887088Y-65000168D01*
X188202967Y-65063000D01*
X188525033Y-65063000D01*
X188840912Y-65000168D01*
X189138463Y-64876918D01*
X189406252Y-64697987D01*
X189633987Y-64470252D01*
X189812918Y-64202463D01*
X189936168Y-63904912D01*
X189999000Y-63589033D01*
X189999000Y-63266967D01*
X189936168Y-62951088D01*
X189812918Y-62653537D01*
X189633987Y-62385748D01*
X189406252Y-62158013D01*
X189138463Y-61979082D01*
X188840912Y-61855832D01*
X188525033Y-61793000D01*
X188202967Y-61793000D01*
X187887088Y-61855832D01*
X187589537Y-61979082D01*
X187321748Y-62158013D01*
X187094013Y-62385748D01*
X186915082Y-62653537D01*
X186909920Y-62666000D01*
X183318080Y-62666000D01*
X183312918Y-62653537D01*
X183133987Y-62385748D01*
X182906252Y-62158013D01*
X182638463Y-61979082D01*
X182340912Y-61855832D01*
X182025033Y-61793000D01*
X181702967Y-61793000D01*
X181387088Y-61855832D01*
X181089537Y-61979082D01*
X180821748Y-62158013D01*
X180594013Y-62385748D01*
X180415082Y-62653537D01*
X180291832Y-62951088D01*
X180229000Y-63266967D01*
X170314000Y-63266967D01*
X170251168Y-62951088D01*
X170127918Y-62653537D01*
X169948987Y-62385748D01*
X169721252Y-62158013D01*
X169453463Y-61979082D01*
X169155912Y-61855832D01*
X168840033Y-61793000D01*
X168517967Y-61793000D01*
X168202088Y-61855832D01*
X167904537Y-61979082D01*
X167636748Y-62158013D01*
X167409013Y-62385748D01*
X167230082Y-62653537D01*
X167224920Y-62666000D01*
X163633080Y-62666000D01*
X163627918Y-62653537D01*
X163448987Y-62385748D01*
X163221252Y-62158013D01*
X162953463Y-61979082D01*
X162655912Y-61855832D01*
X162340033Y-61793000D01*
X162017967Y-61793000D01*
X161702088Y-61855832D01*
X161404537Y-61979082D01*
X161136748Y-62158013D01*
X160909013Y-62385748D01*
X160730082Y-62653537D01*
X160606832Y-62951088D01*
X160544000Y-63266967D01*
X160544000Y-63589033D01*
X160606832Y-63904912D01*
X160730082Y-64202463D01*
X160909013Y-64470252D01*
X161136748Y-64697987D01*
X161404537Y-64876918D01*
X161417001Y-64882081D01*
X161417001Y-66486370D01*
X157607000Y-62676370D01*
X157607000Y-60797072D01*
X157695000Y-60797072D01*
X157819482Y-60784812D01*
X157939180Y-60748502D01*
X158049494Y-60689537D01*
X158146185Y-60610185D01*
X158225537Y-60513494D01*
X158284502Y-60403180D01*
X158320812Y-60283482D01*
X158333072Y-60159000D01*
X158333072Y-60063413D01*
X161223192Y-60063413D01*
X161318956Y-60327814D01*
X161608571Y-60468704D01*
X161920108Y-60550384D01*
X162241595Y-60569718D01*
X162560675Y-60525961D01*
X162865088Y-60420795D01*
X163039044Y-60327814D01*
X163134808Y-60063413D01*
X167723192Y-60063413D01*
X167818956Y-60327814D01*
X168108571Y-60468704D01*
X168420108Y-60550384D01*
X168741595Y-60569718D01*
X169060675Y-60525961D01*
X169365088Y-60420795D01*
X169539044Y-60327814D01*
X169634808Y-60063413D01*
X180908192Y-60063413D01*
X181003956Y-60327814D01*
X181293571Y-60468704D01*
X181605108Y-60550384D01*
X181926595Y-60569718D01*
X182245675Y-60525961D01*
X182550088Y-60420795D01*
X182724044Y-60327814D01*
X182819808Y-60063413D01*
X187408192Y-60063413D01*
X187503956Y-60327814D01*
X187793571Y-60468704D01*
X188105108Y-60550384D01*
X188426595Y-60569718D01*
X188745675Y-60525961D01*
X189050088Y-60420795D01*
X189224044Y-60327814D01*
X189319808Y-60063413D01*
X188364000Y-59107605D01*
X187408192Y-60063413D01*
X182819808Y-60063413D01*
X181864000Y-59107605D01*
X180908192Y-60063413D01*
X169634808Y-60063413D01*
X168679000Y-59107605D01*
X167723192Y-60063413D01*
X163134808Y-60063413D01*
X162179000Y-59107605D01*
X161223192Y-60063413D01*
X158333072Y-60063413D01*
X158333072Y-58459000D01*
X158320812Y-58334518D01*
X158284502Y-58214820D01*
X158225537Y-58104506D01*
X158146185Y-58007815D01*
X158049494Y-57928463D01*
X157939180Y-57869498D01*
X157819482Y-57833188D01*
X157695000Y-57820928D01*
X155995000Y-57820928D01*
X155870518Y-57833188D01*
X155750820Y-57869498D01*
X155640506Y-57928463D01*
X155543815Y-58007815D01*
X155464463Y-58104506D01*
X155405498Y-58214820D01*
X155383487Y-58287380D01*
X155251632Y-58155525D01*
X155008411Y-57993010D01*
X154738158Y-57881068D01*
X154451260Y-57824000D01*
X154158740Y-57824000D01*
X153871842Y-57881068D01*
X153601589Y-57993010D01*
X153358368Y-58155525D01*
X153151525Y-58362368D01*
X152989010Y-58605589D01*
X152877068Y-58875842D01*
X152820000Y-59162740D01*
X152820000Y-59455260D01*
X152877068Y-59742158D01*
X152989010Y-60012411D01*
X153151525Y-60255632D01*
X153358368Y-60462475D01*
X153543001Y-60585842D01*
X153543000Y-62192577D01*
X153539314Y-62230000D01*
X153543000Y-62267423D01*
X153543000Y-62267425D01*
X153554026Y-62379377D01*
X153597321Y-62522100D01*
X153573685Y-62522100D01*
X153384757Y-62559680D01*
X153206790Y-62633396D01*
X153046625Y-62740415D01*
X152910415Y-62876625D01*
X152803396Y-63036790D01*
X152729680Y-63214757D01*
X152692100Y-63403685D01*
X152692100Y-63596315D01*
X152729680Y-63785243D01*
X152803396Y-63963210D01*
X152908000Y-64119761D01*
X152908001Y-75019567D01*
X152904314Y-75057000D01*
X152919027Y-75206378D01*
X152962599Y-75350015D01*
X153033355Y-75482392D01*
X153076355Y-75534787D01*
X153128579Y-75598422D01*
X153157649Y-75622279D01*
X157226000Y-79690631D01*
X157226001Y-85687567D01*
X157222314Y-85725000D01*
X157237027Y-85874378D01*
X157280599Y-86018015D01*
X157351355Y-86150392D01*
X157412876Y-86225355D01*
X157446579Y-86266422D01*
X157475649Y-86290279D01*
X158026948Y-86841579D01*
X158063680Y-87026243D01*
X158137396Y-87204210D01*
X158167324Y-87249000D01*
X154035761Y-87249000D01*
X153879210Y-87144396D01*
X153701243Y-87070680D01*
X153512315Y-87033100D01*
X153319685Y-87033100D01*
X153130757Y-87070680D01*
X152952790Y-87144396D01*
X152792625Y-87251415D01*
X152656415Y-87387625D01*
X152549396Y-87547790D01*
X152475680Y-87725757D01*
X152438100Y-87914685D01*
X152438100Y-88107315D01*
X152475680Y-88296243D01*
X152549396Y-88474210D01*
X152656415Y-88634375D01*
X152792625Y-88770585D01*
X152952790Y-88877604D01*
X153130757Y-88951320D01*
X153319685Y-88988900D01*
X153512315Y-88988900D01*
X153701243Y-88951320D01*
X153879210Y-88877604D01*
X154035761Y-88773000D01*
X159527239Y-88773000D01*
X159683790Y-88877604D01*
X159861757Y-88951320D01*
X160050685Y-88988900D01*
X160243315Y-88988900D01*
X160432243Y-88951320D01*
X160610210Y-88877604D01*
X160770375Y-88770585D01*
X160906585Y-88634375D01*
X161013604Y-88474210D01*
X161087320Y-88296243D01*
X161124900Y-88107315D01*
X161124900Y-87914685D01*
X161087320Y-87725757D01*
X161013604Y-87547790D01*
X160906585Y-87387625D01*
X160770375Y-87251415D01*
X160610210Y-87144396D01*
X160432243Y-87070680D01*
X160243315Y-87033100D01*
X160050685Y-87033100D01*
X159931674Y-87056773D01*
X159944320Y-87026243D01*
X159981900Y-86837315D01*
X159981900Y-86644685D01*
X159944320Y-86455757D01*
X159931674Y-86425227D01*
X160050685Y-86448900D01*
X160243315Y-86448900D01*
X160432243Y-86411320D01*
X160610210Y-86337604D01*
X160770375Y-86230585D01*
X160906585Y-86094375D01*
X161013604Y-85934210D01*
X161087320Y-85756243D01*
X161124900Y-85567315D01*
X161124900Y-85374685D01*
X161087320Y-85185757D01*
X161074674Y-85155227D01*
X161193685Y-85178900D01*
X161386315Y-85178900D01*
X161575243Y-85141320D01*
X161753210Y-85067604D01*
X161913375Y-84960585D01*
X162049585Y-84824375D01*
X162156604Y-84664210D01*
X162230320Y-84486243D01*
X162267900Y-84297315D01*
X162267900Y-84289900D01*
X162275315Y-84289900D01*
X162464243Y-84252320D01*
X162642210Y-84178604D01*
X162802375Y-84071585D01*
X162938585Y-83935375D01*
X163045604Y-83775210D01*
X163119320Y-83597243D01*
X163156900Y-83408315D01*
X163156900Y-83215685D01*
X163119320Y-83026757D01*
X163045604Y-82848790D01*
X162941000Y-82692239D01*
X162941000Y-81437685D01*
X185204100Y-81437685D01*
X185204100Y-81630315D01*
X185241680Y-81819243D01*
X185315396Y-81997210D01*
X185422415Y-82157375D01*
X185558625Y-82293585D01*
X185718790Y-82400604D01*
X185896757Y-82474320D01*
X186085685Y-82511900D01*
X186278315Y-82511900D01*
X186467243Y-82474320D01*
X186645210Y-82400604D01*
X186805375Y-82293585D01*
X186941585Y-82157375D01*
X187035648Y-82016600D01*
X193917640Y-82016600D01*
X193940625Y-82039585D01*
X194100790Y-82146604D01*
X194278757Y-82220320D01*
X194467685Y-82257900D01*
X194660315Y-82257900D01*
X194849243Y-82220320D01*
X195027210Y-82146604D01*
X195187375Y-82039585D01*
X195323585Y-81903375D01*
X195430604Y-81743210D01*
X195504320Y-81565243D01*
X195541900Y-81376315D01*
X195541900Y-81183685D01*
X195504320Y-80994757D01*
X195430604Y-80816790D01*
X195323585Y-80656625D01*
X195187375Y-80520415D01*
X195027210Y-80413396D01*
X194849243Y-80339680D01*
X194660315Y-80302100D01*
X194467685Y-80302100D01*
X194278757Y-80339680D01*
X194100790Y-80413396D01*
X193940625Y-80520415D01*
X193917640Y-80543400D01*
X186472175Y-80543400D01*
X186435999Y-80539837D01*
X186399823Y-80543400D01*
X186399814Y-80543400D01*
X186291601Y-80554058D01*
X186282274Y-80556887D01*
X186278315Y-80556100D01*
X186085685Y-80556100D01*
X185896757Y-80593680D01*
X185718790Y-80667396D01*
X185558625Y-80774415D01*
X185422415Y-80910625D01*
X185315396Y-81070790D01*
X185241680Y-81248757D01*
X185204100Y-81437685D01*
X162941000Y-81437685D01*
X162941000Y-79883000D01*
X187706000Y-79883000D01*
X187730776Y-79880560D01*
X187754601Y-79873333D01*
X187776557Y-79861597D01*
X187795803Y-79845803D01*
X187811597Y-79826557D01*
X187823333Y-79804601D01*
X187830560Y-79780776D01*
X187833000Y-79756000D01*
X187833000Y-73544656D01*
X187928757Y-73584320D01*
X188117685Y-73621900D01*
X188310315Y-73621900D01*
X188499243Y-73584320D01*
X188677210Y-73510604D01*
X188837375Y-73403585D01*
X188860360Y-73380600D01*
X191504640Y-73380600D01*
X191527625Y-73403585D01*
X191687790Y-73510604D01*
X191865757Y-73584320D01*
X192054685Y-73621900D01*
X192247315Y-73621900D01*
X192436243Y-73584320D01*
X192614210Y-73510604D01*
X192774375Y-73403585D01*
X192910585Y-73267375D01*
X193017604Y-73107210D01*
X193091320Y-72929243D01*
X193128900Y-72740315D01*
X193128900Y-72547685D01*
X193091320Y-72358757D01*
X193017604Y-72180790D01*
X192910585Y-72020625D01*
X192774375Y-71884415D01*
X192614210Y-71777396D01*
X192436243Y-71703680D01*
X192247315Y-71666100D01*
X192054685Y-71666100D01*
X191865757Y-71703680D01*
X191687790Y-71777396D01*
X191527625Y-71884415D01*
X191504640Y-71907400D01*
X188860360Y-71907400D01*
X188837375Y-71884415D01*
X188677210Y-71777396D01*
X188499243Y-71703680D01*
X188310315Y-71666100D01*
X188117685Y-71666100D01*
X187928757Y-71703680D01*
X187833000Y-71743344D01*
X187833000Y-66929000D01*
X193690239Y-66929000D01*
X193846790Y-67033604D01*
X194024757Y-67107320D01*
X194213685Y-67144900D01*
X194406315Y-67144900D01*
X194595243Y-67107320D01*
X194773210Y-67033604D01*
X194933375Y-66926585D01*
X195069585Y-66790375D01*
X195176604Y-66630210D01*
X195250320Y-66452243D01*
X195287900Y-66263315D01*
X195287900Y-66070685D01*
X195250320Y-65881757D01*
X195176604Y-65703790D01*
X195069585Y-65543625D01*
X194933375Y-65407415D01*
X194834726Y-65341500D01*
X194933375Y-65275585D01*
X195069585Y-65139375D01*
X195176604Y-64979210D01*
X195250320Y-64801243D01*
X195287900Y-64612315D01*
X195287900Y-64419685D01*
X195250320Y-64230757D01*
X195176604Y-64052790D01*
X195072000Y-63896239D01*
X195072000Y-62702072D01*
X195160000Y-62702072D01*
X195284482Y-62689812D01*
X195404180Y-62653502D01*
X195514494Y-62594537D01*
X195611185Y-62515185D01*
X195690537Y-62418494D01*
X195749502Y-62308180D01*
X195771513Y-62235620D01*
X195903368Y-62367475D01*
X196088001Y-62490843D01*
X196088000Y-65367577D01*
X196084314Y-65405000D01*
X196088000Y-65442423D01*
X196088000Y-65442425D01*
X196099026Y-65554377D01*
X196142598Y-65698014D01*
X196172959Y-65754815D01*
X196213355Y-65830392D01*
X196230683Y-65851506D01*
X196308578Y-65946422D01*
X196337654Y-65970284D01*
X201295001Y-70927632D01*
X201295000Y-82742369D01*
X200344370Y-83693000D01*
X200107796Y-83693000D01*
X200113900Y-83662315D01*
X200113900Y-83469685D01*
X200076320Y-83280757D01*
X200002604Y-83102790D01*
X199895585Y-82942625D01*
X199759375Y-82806415D01*
X199599210Y-82699396D01*
X199421243Y-82625680D01*
X199232315Y-82588100D01*
X199039685Y-82588100D01*
X198850757Y-82625680D01*
X198672790Y-82699396D01*
X198512625Y-82806415D01*
X198489640Y-82829400D01*
X198081900Y-82829400D01*
X198081900Y-82707685D01*
X198044320Y-82518757D01*
X197970604Y-82340790D01*
X197863585Y-82180625D01*
X197840600Y-82157640D01*
X197840600Y-76592360D01*
X197863585Y-76569375D01*
X197970604Y-76409210D01*
X198044320Y-76231243D01*
X198081900Y-76042315D01*
X198081900Y-75849685D01*
X198044320Y-75660757D01*
X197970604Y-75482790D01*
X197863585Y-75322625D01*
X197727375Y-75186415D01*
X197567210Y-75079396D01*
X197389243Y-75005680D01*
X197200315Y-74968100D01*
X197007685Y-74968100D01*
X196818757Y-75005680D01*
X196640790Y-75079396D01*
X196480625Y-75186415D01*
X196344415Y-75322625D01*
X196237396Y-75482790D01*
X196163680Y-75660757D01*
X196126100Y-75849685D01*
X196126100Y-76042315D01*
X196163680Y-76231243D01*
X196237396Y-76409210D01*
X196344415Y-76569375D01*
X196367401Y-76592361D01*
X196367400Y-82157640D01*
X196344415Y-82180625D01*
X196237396Y-82340790D01*
X196163680Y-82518757D01*
X196126100Y-82707685D01*
X196126100Y-82829400D01*
X190892360Y-82829400D01*
X190869375Y-82806415D01*
X190709210Y-82699396D01*
X190531243Y-82625680D01*
X190342315Y-82588100D01*
X190149685Y-82588100D01*
X189960757Y-82625680D01*
X189782790Y-82699396D01*
X189622625Y-82806415D01*
X189486415Y-82942625D01*
X189379396Y-83102790D01*
X189305680Y-83280757D01*
X189274073Y-83439655D01*
X189267426Y-83439000D01*
X189267423Y-83439000D01*
X189230000Y-83435314D01*
X189192577Y-83439000D01*
X186039761Y-83439000D01*
X185883210Y-83334396D01*
X185705243Y-83260680D01*
X185516315Y-83223100D01*
X185323685Y-83223100D01*
X185134757Y-83260680D01*
X184956790Y-83334396D01*
X184796625Y-83441415D01*
X184660415Y-83577625D01*
X184553396Y-83737790D01*
X184479680Y-83915757D01*
X184442100Y-84104685D01*
X184442100Y-84297315D01*
X184479680Y-84486243D01*
X184553396Y-84664210D01*
X184660415Y-84824375D01*
X184672040Y-84836000D01*
X184660415Y-84847625D01*
X184553396Y-85007790D01*
X184479680Y-85185757D01*
X184442100Y-85374685D01*
X184442100Y-85567315D01*
X184479680Y-85756243D01*
X184553396Y-85934210D01*
X184660415Y-86094375D01*
X184796625Y-86230585D01*
X184956790Y-86337604D01*
X185134757Y-86411320D01*
X185323685Y-86448900D01*
X185516315Y-86448900D01*
X185705243Y-86411320D01*
X185883210Y-86337604D01*
X186039761Y-86233000D01*
X190793382Y-86233000D01*
X190737395Y-86316791D01*
X190663679Y-86494758D01*
X190626099Y-86683686D01*
X190626099Y-86876316D01*
X190663679Y-87065244D01*
X190737395Y-87243211D01*
X190741263Y-87249000D01*
X179361423Y-87249000D01*
X179324000Y-87245314D01*
X179286577Y-87249000D01*
X179286574Y-87249000D01*
X179174622Y-87260026D01*
X179030985Y-87303598D01*
X178997459Y-87321518D01*
X178898607Y-87374355D01*
X178815904Y-87442228D01*
X178782578Y-87469578D01*
X178758721Y-87498648D01*
X174055370Y-92202000D01*
X163179761Y-92202000D01*
X163023210Y-92097396D01*
X162845243Y-92023680D01*
X162656315Y-91986100D01*
X162463685Y-91986100D01*
X162274757Y-92023680D01*
X162096790Y-92097396D01*
X161936625Y-92204415D01*
X161800415Y-92340625D01*
X161693396Y-92500790D01*
X161619680Y-92678757D01*
X161582100Y-92867685D01*
X161582100Y-93060315D01*
X161619680Y-93249243D01*
X161693396Y-93427210D01*
X161800415Y-93587375D01*
X161812040Y-93599000D01*
X154035761Y-93599000D01*
X153879210Y-93494396D01*
X153701243Y-93420680D01*
X153512315Y-93383100D01*
X153319685Y-93383100D01*
X153130757Y-93420680D01*
X152952790Y-93494396D01*
X152792625Y-93601415D01*
X152656415Y-93737625D01*
X152549396Y-93897790D01*
X152475680Y-94075757D01*
X152438100Y-94264685D01*
X152438100Y-94457315D01*
X152475680Y-94646243D01*
X152549396Y-94824210D01*
X152656415Y-94984375D01*
X152792625Y-95120585D01*
X152952790Y-95227604D01*
X153130757Y-95301320D01*
X153319685Y-95338900D01*
X153512315Y-95338900D01*
X153701243Y-95301320D01*
X153879210Y-95227604D01*
X154035761Y-95123000D01*
X160389344Y-95123000D01*
X160349680Y-95218757D01*
X160331940Y-95307940D01*
X160242757Y-95325680D01*
X160064790Y-95399396D01*
X159908239Y-95504000D01*
X153273761Y-95504000D01*
X153117210Y-95399396D01*
X152939243Y-95325680D01*
X152750315Y-95288100D01*
X152557685Y-95288100D01*
X152368757Y-95325680D01*
X152190790Y-95399396D01*
X152030625Y-95506415D01*
X151894415Y-95642625D01*
X151787396Y-95802790D01*
X151713680Y-95980757D01*
X151676100Y-96169685D01*
X151676100Y-96362315D01*
X151713680Y-96551243D01*
X151787396Y-96729210D01*
X151894415Y-96889375D01*
X152030625Y-97025585D01*
X152190790Y-97132604D01*
X152368757Y-97206320D01*
X152557685Y-97243900D01*
X152750315Y-97243900D01*
X152939243Y-97206320D01*
X153117210Y-97132604D01*
X153273761Y-97028000D01*
X159908239Y-97028000D01*
X160064790Y-97132604D01*
X160242757Y-97206320D01*
X160431685Y-97243900D01*
X160528000Y-97243900D01*
X160528001Y-101030368D01*
X156871422Y-104686948D01*
X156686757Y-104723680D01*
X156508790Y-104797396D01*
X156348625Y-104904415D01*
X156212415Y-105040625D01*
X156105396Y-105200790D01*
X156031680Y-105378757D01*
X155994100Y-105567685D01*
X155994100Y-105760315D01*
X156031680Y-105949243D01*
X156105396Y-106127210D01*
X156212415Y-106287375D01*
X156348625Y-106423585D01*
X156382290Y-106446079D01*
X155189649Y-107638721D01*
X155160579Y-107662578D01*
X155136722Y-107691648D01*
X155136721Y-107691649D01*
X155065355Y-107778608D01*
X154994599Y-107910985D01*
X154951027Y-108054622D01*
X154936314Y-108204000D01*
X154940001Y-108241433D01*
X154940000Y-117032369D01*
X153354370Y-118618000D01*
X151136842Y-118618000D01*
X151013475Y-118433368D01*
X150806632Y-118226525D01*
X150632240Y-118110000D01*
X150806632Y-117993475D01*
X151013475Y-117786632D01*
X151175990Y-117543411D01*
X151287932Y-117273158D01*
X151345000Y-116986260D01*
X151345000Y-116693740D01*
X151287932Y-116406842D01*
X151175990Y-116136589D01*
X151013475Y-115893368D01*
X150806632Y-115686525D01*
X150563411Y-115524010D01*
X150293158Y-115412068D01*
X150006260Y-115355000D01*
X149713740Y-115355000D01*
X149426842Y-115412068D01*
X149156589Y-115524010D01*
X148913368Y-115686525D01*
X148706525Y-115893368D01*
X148544010Y-116136589D01*
X148432068Y-116406842D01*
X148375000Y-116693740D01*
X148375000Y-116986260D01*
X148432068Y-117273158D01*
X148544010Y-117543411D01*
X148706525Y-117786632D01*
X148913368Y-117993475D01*
X149087760Y-118110000D01*
X148913368Y-118226525D01*
X148706525Y-118433368D01*
X148544010Y-118676589D01*
X148432068Y-118946842D01*
X148375000Y-119233740D01*
X148375000Y-119526260D01*
X148432068Y-119813158D01*
X148544010Y-120083411D01*
X148706525Y-120326632D01*
X148838380Y-120458487D01*
X148765820Y-120480498D01*
X148655506Y-120539463D01*
X148558815Y-120618815D01*
X148479463Y-120715506D01*
X148420498Y-120825820D01*
X148384188Y-120945518D01*
X148371928Y-121070000D01*
X127660000Y-121070000D01*
X127660000Y-120777000D01*
X134620000Y-120777000D01*
X134644776Y-120774560D01*
X134668601Y-120767333D01*
X134690557Y-120755597D01*
X134709803Y-120739803D01*
X134725597Y-120720557D01*
X134737333Y-120698601D01*
X134744560Y-120674776D01*
X134747000Y-120650000D01*
X134747000Y-113030000D01*
X134744560Y-113005224D01*
X134737333Y-112981399D01*
X134725597Y-112959443D01*
X134709803Y-112940197D01*
X134690557Y-112924403D01*
X134668601Y-112912667D01*
X134644776Y-112905440D01*
X134620000Y-112903000D01*
X127660000Y-112903000D01*
X127660000Y-107337967D01*
X130896000Y-107337967D01*
X130896000Y-107660033D01*
X130958832Y-107975912D01*
X131082082Y-108273463D01*
X131261013Y-108541252D01*
X131488748Y-108768987D01*
X131756537Y-108947918D01*
X132054088Y-109071168D01*
X132369967Y-109134000D01*
X132692033Y-109134000D01*
X133007912Y-109071168D01*
X133305463Y-108947918D01*
X133573252Y-108768987D01*
X133800987Y-108541252D01*
X133979918Y-108273463D01*
X134103168Y-107975912D01*
X134166000Y-107660033D01*
X134166000Y-107337967D01*
X137614000Y-107337967D01*
X137614000Y-107660033D01*
X137676832Y-107975912D01*
X137800082Y-108273463D01*
X137979013Y-108541252D01*
X138206748Y-108768987D01*
X138474537Y-108947918D01*
X138772088Y-109071168D01*
X139087967Y-109134000D01*
X139410033Y-109134000D01*
X139725912Y-109071168D01*
X140023463Y-108947918D01*
X140291252Y-108768987D01*
X140518987Y-108541252D01*
X140697918Y-108273463D01*
X140821168Y-107975912D01*
X140884000Y-107660033D01*
X140884000Y-107337967D01*
X140821168Y-107022088D01*
X140697918Y-106724537D01*
X140518987Y-106456748D01*
X140291252Y-106229013D01*
X140023463Y-106050082D01*
X139725912Y-105926832D01*
X139410033Y-105864000D01*
X139087967Y-105864000D01*
X138772088Y-105926832D01*
X138474537Y-106050082D01*
X138206748Y-106229013D01*
X137979013Y-106456748D01*
X137800082Y-106724537D01*
X137676832Y-107022088D01*
X137614000Y-107337967D01*
X134166000Y-107337967D01*
X134103168Y-107022088D01*
X133979918Y-106724537D01*
X133800987Y-106456748D01*
X133573252Y-106229013D01*
X133305463Y-106050082D01*
X133007912Y-105926832D01*
X132692033Y-105864000D01*
X132369967Y-105864000D01*
X132054088Y-105926832D01*
X131756537Y-106050082D01*
X131488748Y-106229013D01*
X131261013Y-106456748D01*
X131082082Y-106724537D01*
X130958832Y-107022088D01*
X130896000Y-107337967D01*
X127660000Y-107337967D01*
X127660000Y-103978967D01*
X129505000Y-103978967D01*
X129505000Y-104301033D01*
X129567832Y-104616912D01*
X129691082Y-104914463D01*
X129870013Y-105182252D01*
X130097748Y-105409987D01*
X130365537Y-105588918D01*
X130663088Y-105712168D01*
X130978967Y-105775000D01*
X131301033Y-105775000D01*
X131616912Y-105712168D01*
X131914463Y-105588918D01*
X132182252Y-105409987D01*
X132409987Y-105182252D01*
X132588918Y-104914463D01*
X132712168Y-104616912D01*
X132775000Y-104301033D01*
X132775000Y-103978967D01*
X139005000Y-103978967D01*
X139005000Y-104301033D01*
X139067832Y-104616912D01*
X139191082Y-104914463D01*
X139370013Y-105182252D01*
X139597748Y-105409987D01*
X139865537Y-105588918D01*
X140163088Y-105712168D01*
X140478967Y-105775000D01*
X140801033Y-105775000D01*
X141116912Y-105712168D01*
X141414463Y-105588918D01*
X141682252Y-105409987D01*
X141909987Y-105182252D01*
X142088918Y-104914463D01*
X142212168Y-104616912D01*
X142275000Y-104301033D01*
X142275000Y-103978967D01*
X142212168Y-103663088D01*
X142088918Y-103365537D01*
X141909987Y-103097748D01*
X141682252Y-102870013D01*
X141414463Y-102691082D01*
X141116912Y-102567832D01*
X140801033Y-102505000D01*
X140478967Y-102505000D01*
X140163088Y-102567832D01*
X139865537Y-102691082D01*
X139597748Y-102870013D01*
X139370013Y-103097748D01*
X139191082Y-103365537D01*
X139067832Y-103663088D01*
X139005000Y-103978967D01*
X132775000Y-103978967D01*
X132712168Y-103663088D01*
X132588918Y-103365537D01*
X132409987Y-103097748D01*
X132182252Y-102870013D01*
X131914463Y-102691082D01*
X131616912Y-102567832D01*
X131301033Y-102505000D01*
X130978967Y-102505000D01*
X130663088Y-102567832D01*
X130365537Y-102691082D01*
X130097748Y-102870013D01*
X129870013Y-103097748D01*
X129691082Y-103365537D01*
X129567832Y-103663088D01*
X129505000Y-103978967D01*
X127660000Y-103978967D01*
X127660000Y-100619967D01*
X130896000Y-100619967D01*
X130896000Y-100942033D01*
X130958832Y-101257912D01*
X131082082Y-101555463D01*
X131261013Y-101823252D01*
X131488748Y-102050987D01*
X131756537Y-102229918D01*
X132054088Y-102353168D01*
X132369967Y-102416000D01*
X132692033Y-102416000D01*
X133007912Y-102353168D01*
X133305463Y-102229918D01*
X133573252Y-102050987D01*
X133800987Y-101823252D01*
X133979918Y-101555463D01*
X134103168Y-101257912D01*
X134166000Y-100942033D01*
X134166000Y-100619967D01*
X137614000Y-100619967D01*
X137614000Y-100942033D01*
X137676832Y-101257912D01*
X137800082Y-101555463D01*
X137979013Y-101823252D01*
X138206748Y-102050987D01*
X138474537Y-102229918D01*
X138772088Y-102353168D01*
X139087967Y-102416000D01*
X139410033Y-102416000D01*
X139725912Y-102353168D01*
X140023463Y-102229918D01*
X140291252Y-102050987D01*
X140518987Y-101823252D01*
X140697918Y-101555463D01*
X140821168Y-101257912D01*
X140884000Y-100942033D01*
X140884000Y-100619967D01*
X140821168Y-100304088D01*
X140697918Y-100006537D01*
X140518987Y-99738748D01*
X140291252Y-99511013D01*
X140023463Y-99332082D01*
X139725912Y-99208832D01*
X139410033Y-99146000D01*
X139087967Y-99146000D01*
X138772088Y-99208832D01*
X138474537Y-99332082D01*
X138206748Y-99511013D01*
X137979013Y-99738748D01*
X137800082Y-100006537D01*
X137676832Y-100304088D01*
X137614000Y-100619967D01*
X134166000Y-100619967D01*
X134103168Y-100304088D01*
X133979918Y-100006537D01*
X133800987Y-99738748D01*
X133573252Y-99511013D01*
X133305463Y-99332082D01*
X133007912Y-99208832D01*
X132692033Y-99146000D01*
X132369967Y-99146000D01*
X132054088Y-99208832D01*
X131756537Y-99332082D01*
X131488748Y-99511013D01*
X131261013Y-99738748D01*
X131082082Y-100006537D01*
X130958832Y-100304088D01*
X130896000Y-100619967D01*
X127660000Y-100619967D01*
X127660000Y-88240890D01*
X140544524Y-88240890D01*
X140589175Y-88388099D01*
X140714359Y-88650920D01*
X140888412Y-88884269D01*
X141104645Y-89079178D01*
X141354748Y-89228157D01*
X141629109Y-89325481D01*
X141859000Y-89204814D01*
X141859000Y-88011000D01*
X142113000Y-88011000D01*
X142113000Y-89204814D01*
X142342891Y-89325481D01*
X142617252Y-89228157D01*
X142867355Y-89079178D01*
X143083588Y-88884269D01*
X143257641Y-88650920D01*
X143382825Y-88388099D01*
X143427476Y-88240890D01*
X143306155Y-88011000D01*
X142113000Y-88011000D01*
X141859000Y-88011000D01*
X140665845Y-88011000D01*
X140544524Y-88240890D01*
X127660000Y-88240890D01*
X127660000Y-84494000D01*
X129829928Y-84494000D01*
X129829928Y-86194000D01*
X129842188Y-86318482D01*
X129878498Y-86438180D01*
X129937463Y-86548494D01*
X130016815Y-86645185D01*
X130113506Y-86724537D01*
X130223820Y-86783502D01*
X130343518Y-86819812D01*
X130468000Y-86832072D01*
X132168000Y-86832072D01*
X132292482Y-86819812D01*
X132412180Y-86783502D01*
X132522494Y-86724537D01*
X132619185Y-86645185D01*
X132698537Y-86548494D01*
X132757502Y-86438180D01*
X132781966Y-86357534D01*
X132857731Y-86441588D01*
X133091080Y-86615641D01*
X133353901Y-86740825D01*
X133501110Y-86785476D01*
X133731000Y-86664155D01*
X133731000Y-85471000D01*
X133711000Y-85471000D01*
X133711000Y-85217000D01*
X133731000Y-85217000D01*
X133731000Y-84023845D01*
X133985000Y-84023845D01*
X133985000Y-85217000D01*
X134005000Y-85217000D01*
X134005000Y-85471000D01*
X133985000Y-85471000D01*
X133985000Y-86664155D01*
X134214890Y-86785476D01*
X134362099Y-86740825D01*
X134624920Y-86615641D01*
X134858269Y-86441588D01*
X135053178Y-86225355D01*
X135122805Y-86108466D01*
X135244525Y-86290632D01*
X135451368Y-86497475D01*
X135694589Y-86659990D01*
X135964842Y-86771932D01*
X136251740Y-86829000D01*
X136544260Y-86829000D01*
X136831158Y-86771932D01*
X137101411Y-86659990D01*
X137344632Y-86497475D01*
X137551475Y-86290632D01*
X137713990Y-86047411D01*
X137825932Y-85777158D01*
X137883000Y-85490260D01*
X137883000Y-85197740D01*
X137825932Y-84910842D01*
X137713990Y-84640589D01*
X137616043Y-84494000D01*
X140497928Y-84494000D01*
X140497928Y-86194000D01*
X140510188Y-86318482D01*
X140546498Y-86438180D01*
X140605463Y-86548494D01*
X140684815Y-86645185D01*
X140781506Y-86724537D01*
X140891820Y-86783502D01*
X140972466Y-86807966D01*
X140888412Y-86883731D01*
X140714359Y-87117080D01*
X140589175Y-87379901D01*
X140544524Y-87527110D01*
X140665845Y-87757000D01*
X141859000Y-87757000D01*
X141859000Y-87737000D01*
X142113000Y-87737000D01*
X142113000Y-87757000D01*
X143306155Y-87757000D01*
X143427476Y-87527110D01*
X143382825Y-87379901D01*
X143257641Y-87117080D01*
X143083588Y-86883731D01*
X142999534Y-86807966D01*
X143080180Y-86783502D01*
X143190494Y-86724537D01*
X143287185Y-86645185D01*
X143366537Y-86548494D01*
X143425502Y-86438180D01*
X143461812Y-86318482D01*
X143474072Y-86194000D01*
X143474072Y-84494000D01*
X143461812Y-84369518D01*
X143425502Y-84249820D01*
X143366537Y-84139506D01*
X143287185Y-84042815D01*
X143190494Y-83963463D01*
X143080180Y-83904498D01*
X142960482Y-83868188D01*
X142836000Y-83855928D01*
X141136000Y-83855928D01*
X141011518Y-83868188D01*
X140891820Y-83904498D01*
X140781506Y-83963463D01*
X140684815Y-84042815D01*
X140605463Y-84139506D01*
X140546498Y-84249820D01*
X140510188Y-84369518D01*
X140497928Y-84494000D01*
X137616043Y-84494000D01*
X137551475Y-84397368D01*
X137344632Y-84190525D01*
X137101411Y-84028010D01*
X136831158Y-83916068D01*
X136544260Y-83859000D01*
X136251740Y-83859000D01*
X135964842Y-83916068D01*
X135694589Y-84028010D01*
X135451368Y-84190525D01*
X135244525Y-84397368D01*
X135122805Y-84579534D01*
X135053178Y-84462645D01*
X134858269Y-84246412D01*
X134624920Y-84072359D01*
X134362099Y-83947175D01*
X134214890Y-83902524D01*
X133985000Y-84023845D01*
X133731000Y-84023845D01*
X133501110Y-83902524D01*
X133353901Y-83947175D01*
X133091080Y-84072359D01*
X132857731Y-84246412D01*
X132781966Y-84330466D01*
X132757502Y-84249820D01*
X132698537Y-84139506D01*
X132619185Y-84042815D01*
X132522494Y-83963463D01*
X132412180Y-83904498D01*
X132292482Y-83868188D01*
X132168000Y-83855928D01*
X130468000Y-83855928D01*
X130343518Y-83868188D01*
X130223820Y-83904498D01*
X130113506Y-83963463D01*
X130016815Y-84042815D01*
X129937463Y-84139506D01*
X129878498Y-84249820D01*
X129842188Y-84369518D01*
X129829928Y-84494000D01*
X127660000Y-84494000D01*
X127660000Y-77826890D01*
X128098524Y-77826890D01*
X128143175Y-77974099D01*
X128268359Y-78236920D01*
X128442412Y-78470269D01*
X128658645Y-78665178D01*
X128908748Y-78814157D01*
X129183109Y-78911481D01*
X129413000Y-78790814D01*
X129413000Y-77597000D01*
X129667000Y-77597000D01*
X129667000Y-78790814D01*
X129896891Y-78911481D01*
X130171252Y-78814157D01*
X130421355Y-78665178D01*
X130637588Y-78470269D01*
X130811641Y-78236920D01*
X130936825Y-77974099D01*
X130981476Y-77826890D01*
X130860155Y-77597000D01*
X129667000Y-77597000D01*
X129413000Y-77597000D01*
X128219845Y-77597000D01*
X128098524Y-77826890D01*
X127660000Y-77826890D01*
X127660000Y-74080000D01*
X128051928Y-74080000D01*
X128051928Y-75780000D01*
X128064188Y-75904482D01*
X128100498Y-76024180D01*
X128159463Y-76134494D01*
X128238815Y-76231185D01*
X128335506Y-76310537D01*
X128445820Y-76369502D01*
X128526466Y-76393966D01*
X128442412Y-76469731D01*
X128268359Y-76703080D01*
X128143175Y-76965901D01*
X128098524Y-77113110D01*
X128219845Y-77343000D01*
X129413000Y-77343000D01*
X129413000Y-77323000D01*
X129667000Y-77323000D01*
X129667000Y-77343000D01*
X130860155Y-77343000D01*
X130981476Y-77113110D01*
X130936825Y-76965901D01*
X130811641Y-76703080D01*
X130637588Y-76469731D01*
X130553534Y-76393966D01*
X130634180Y-76369502D01*
X130744494Y-76310537D01*
X130841185Y-76231185D01*
X130920537Y-76134494D01*
X130979502Y-76024180D01*
X131015812Y-75904482D01*
X131017957Y-75882702D01*
X136854903Y-75882702D01*
X136926486Y-76126671D01*
X137181996Y-76247571D01*
X137456184Y-76316300D01*
X137738512Y-76330217D01*
X138018130Y-76288787D01*
X138284292Y-76193603D01*
X138409514Y-76126671D01*
X138430912Y-76053740D01*
X145835000Y-76053740D01*
X145835000Y-76346260D01*
X145892068Y-76633158D01*
X146004010Y-76903411D01*
X146166525Y-77146632D01*
X146373368Y-77353475D01*
X146616589Y-77515990D01*
X146886842Y-77627932D01*
X147173740Y-77685000D01*
X147466260Y-77685000D01*
X147753158Y-77627932D01*
X148023411Y-77515990D01*
X148266632Y-77353475D01*
X148473475Y-77146632D01*
X148635990Y-76903411D01*
X148747932Y-76633158D01*
X148805000Y-76346260D01*
X148805000Y-76053740D01*
X148747932Y-75766842D01*
X148635990Y-75496589D01*
X148473475Y-75253368D01*
X148266632Y-75046525D01*
X148084466Y-74924805D01*
X148201355Y-74855178D01*
X148417588Y-74660269D01*
X148591641Y-74426920D01*
X148716825Y-74164099D01*
X148761476Y-74016890D01*
X148640155Y-73787000D01*
X147447000Y-73787000D01*
X147447000Y-73807000D01*
X147193000Y-73807000D01*
X147193000Y-73787000D01*
X145999845Y-73787000D01*
X145878524Y-74016890D01*
X145923175Y-74164099D01*
X146048359Y-74426920D01*
X146222412Y-74660269D01*
X146438645Y-74855178D01*
X146555534Y-74924805D01*
X146373368Y-75046525D01*
X146166525Y-75253368D01*
X146004010Y-75496589D01*
X145892068Y-75766842D01*
X145835000Y-76053740D01*
X138430912Y-76053740D01*
X138481097Y-75882702D01*
X137668000Y-75069605D01*
X136854903Y-75882702D01*
X131017957Y-75882702D01*
X131028072Y-75780000D01*
X131028072Y-74960512D01*
X136227783Y-74960512D01*
X136269213Y-75240130D01*
X136364397Y-75506292D01*
X136431329Y-75631514D01*
X136675298Y-75703097D01*
X137488395Y-74890000D01*
X137847605Y-74890000D01*
X138660702Y-75703097D01*
X138904671Y-75631514D01*
X139025571Y-75376004D01*
X139094300Y-75101816D01*
X139108217Y-74819488D01*
X139066787Y-74539870D01*
X138971603Y-74273708D01*
X138904671Y-74148486D01*
X138660702Y-74076903D01*
X137847605Y-74890000D01*
X137488395Y-74890000D01*
X136675298Y-74076903D01*
X136431329Y-74148486D01*
X136310429Y-74403996D01*
X136241700Y-74678184D01*
X136227783Y-74960512D01*
X131028072Y-74960512D01*
X131028072Y-74080000D01*
X131015812Y-73955518D01*
X130979502Y-73835820D01*
X130920537Y-73725506D01*
X130841185Y-73628815D01*
X130744494Y-73549463D01*
X130634180Y-73490498D01*
X130514482Y-73454188D01*
X130390000Y-73441928D01*
X128690000Y-73441928D01*
X128565518Y-73454188D01*
X128445820Y-73490498D01*
X128335506Y-73549463D01*
X128238815Y-73628815D01*
X128159463Y-73725506D01*
X128100498Y-73835820D01*
X128064188Y-73955518D01*
X128051928Y-74080000D01*
X127660000Y-74080000D01*
X127660000Y-71590000D01*
X136229928Y-71590000D01*
X136229928Y-73190000D01*
X136242188Y-73314482D01*
X136278498Y-73434180D01*
X136337463Y-73544494D01*
X136416815Y-73641185D01*
X136513506Y-73720537D01*
X136623820Y-73779502D01*
X136743518Y-73815812D01*
X136868000Y-73828072D01*
X136875215Y-73828072D01*
X136854903Y-73897298D01*
X137668000Y-74710395D01*
X138481097Y-73897298D01*
X138460785Y-73828072D01*
X138468000Y-73828072D01*
X138592482Y-73815812D01*
X138712180Y-73779502D01*
X138822494Y-73720537D01*
X138919185Y-73641185D01*
X138998537Y-73544494D01*
X139057502Y-73434180D01*
X139093812Y-73314482D01*
X139106072Y-73190000D01*
X139106072Y-71590000D01*
X139093812Y-71465518D01*
X139057502Y-71345820D01*
X138998537Y-71235506D01*
X138919185Y-71138815D01*
X138822494Y-71059463D01*
X138712180Y-71000498D01*
X138592482Y-70964188D01*
X138468000Y-70951928D01*
X136868000Y-70951928D01*
X136743518Y-70964188D01*
X136623820Y-71000498D01*
X136513506Y-71059463D01*
X136416815Y-71138815D01*
X136337463Y-71235506D01*
X136278498Y-71345820D01*
X136242188Y-71465518D01*
X136229928Y-71590000D01*
X127660000Y-71590000D01*
X127660000Y-66206000D01*
X131099928Y-66206000D01*
X131099928Y-67906000D01*
X131112188Y-68030482D01*
X131148498Y-68150180D01*
X131207463Y-68260494D01*
X131286815Y-68357185D01*
X131383506Y-68436537D01*
X131493820Y-68495502D01*
X131613518Y-68531812D01*
X131738000Y-68544072D01*
X133438000Y-68544072D01*
X133562482Y-68531812D01*
X133682180Y-68495502D01*
X133792494Y-68436537D01*
X133889185Y-68357185D01*
X133968537Y-68260494D01*
X134027502Y-68150180D01*
X134049513Y-68077620D01*
X134181368Y-68209475D01*
X134424589Y-68371990D01*
X134694842Y-68483932D01*
X134981740Y-68541000D01*
X135274260Y-68541000D01*
X135561158Y-68483932D01*
X135831411Y-68371990D01*
X136074632Y-68209475D01*
X136281475Y-68002632D01*
X136443990Y-67759411D01*
X136555932Y-67489158D01*
X136613000Y-67202260D01*
X136613000Y-66909740D01*
X136555932Y-66622842D01*
X136443990Y-66352589D01*
X136281475Y-66109368D01*
X136074632Y-65902525D01*
X135831411Y-65740010D01*
X135561158Y-65628068D01*
X135274260Y-65571000D01*
X134981740Y-65571000D01*
X134694842Y-65628068D01*
X134424589Y-65740010D01*
X134181368Y-65902525D01*
X134049513Y-66034380D01*
X134027502Y-65961820D01*
X133968537Y-65851506D01*
X133889185Y-65754815D01*
X133792494Y-65675463D01*
X133682180Y-65616498D01*
X133562482Y-65580188D01*
X133438000Y-65567928D01*
X131738000Y-65567928D01*
X131613518Y-65580188D01*
X131493820Y-65616498D01*
X131383506Y-65675463D01*
X131286815Y-65754815D01*
X131207463Y-65851506D01*
X131148498Y-65961820D01*
X131112188Y-66081518D01*
X131099928Y-66206000D01*
X127660000Y-66206000D01*
X127660000Y-65190000D01*
X145831928Y-65190000D01*
X145831928Y-66890000D01*
X145844188Y-67014482D01*
X145880498Y-67134180D01*
X145939463Y-67244494D01*
X146018815Y-67341185D01*
X146115506Y-67420537D01*
X146225820Y-67479502D01*
X146298380Y-67501513D01*
X146166525Y-67633368D01*
X146004010Y-67876589D01*
X145892068Y-68146842D01*
X145835000Y-68433740D01*
X145835000Y-68726260D01*
X145892068Y-69013158D01*
X146004010Y-69283411D01*
X146166525Y-69526632D01*
X146373368Y-69733475D01*
X146547760Y-69850000D01*
X146373368Y-69966525D01*
X146166525Y-70173368D01*
X146004010Y-70416589D01*
X145892068Y-70686842D01*
X145835000Y-70973740D01*
X145835000Y-71266260D01*
X145892068Y-71553158D01*
X146004010Y-71823411D01*
X146166525Y-72066632D01*
X146373368Y-72273475D01*
X146555534Y-72395195D01*
X146438645Y-72464822D01*
X146222412Y-72659731D01*
X146048359Y-72893080D01*
X145923175Y-73155901D01*
X145878524Y-73303110D01*
X145999845Y-73533000D01*
X147193000Y-73533000D01*
X147193000Y-73513000D01*
X147447000Y-73513000D01*
X147447000Y-73533000D01*
X148640155Y-73533000D01*
X148761476Y-73303110D01*
X148716825Y-73155901D01*
X148591641Y-72893080D01*
X148417588Y-72659731D01*
X148201355Y-72464822D01*
X148084466Y-72395195D01*
X148266632Y-72273475D01*
X148473475Y-72066632D01*
X148635990Y-71823411D01*
X148747932Y-71553158D01*
X148805000Y-71266260D01*
X148805000Y-70973740D01*
X148747932Y-70686842D01*
X148635990Y-70416589D01*
X148473475Y-70173368D01*
X148266632Y-69966525D01*
X148092240Y-69850000D01*
X148266632Y-69733475D01*
X148473475Y-69526632D01*
X148635990Y-69283411D01*
X148747932Y-69013158D01*
X148805000Y-68726260D01*
X148805000Y-68433740D01*
X148747932Y-68146842D01*
X148635990Y-67876589D01*
X148473475Y-67633368D01*
X148341620Y-67501513D01*
X148414180Y-67479502D01*
X148524494Y-67420537D01*
X148621185Y-67341185D01*
X148700537Y-67244494D01*
X148759502Y-67134180D01*
X148795812Y-67014482D01*
X148808072Y-66890000D01*
X148808072Y-65190000D01*
X148795812Y-65065518D01*
X148759502Y-64945820D01*
X148700537Y-64835506D01*
X148621185Y-64738815D01*
X148524494Y-64659463D01*
X148414180Y-64600498D01*
X148294482Y-64564188D01*
X148170000Y-64551928D01*
X146470000Y-64551928D01*
X146345518Y-64564188D01*
X146225820Y-64600498D01*
X146115506Y-64659463D01*
X146018815Y-64738815D01*
X145939463Y-64835506D01*
X145880498Y-64945820D01*
X145844188Y-65065518D01*
X145831928Y-65190000D01*
X127660000Y-65190000D01*
X127660000Y-64897000D01*
X134620000Y-64897000D01*
X134644776Y-64894560D01*
X134668601Y-64887333D01*
X134690557Y-64875597D01*
X134709803Y-64859803D01*
X134725597Y-64840557D01*
X134737333Y-64818601D01*
X134744560Y-64794776D01*
X134747000Y-64770000D01*
X134747000Y-57810000D01*
X160974442Y-57810000D01*
X160927917Y-57856525D01*
G37*
X160927917Y-57856525D02*
X161043585Y-57972193D01*
X160779186Y-58067956D01*
X160638296Y-58357571D01*
X160556616Y-58669108D01*
X160537282Y-58990595D01*
X160581039Y-59309675D01*
X160686205Y-59614088D01*
X160779186Y-59788044D01*
X161043587Y-59883808D01*
X161999395Y-58928000D01*
X161985253Y-58913858D01*
X162164858Y-58734253D01*
X162179000Y-58748395D01*
X162193143Y-58734253D01*
X162372748Y-58913858D01*
X162358605Y-58928000D01*
X163314413Y-59883808D01*
X163578814Y-59788044D01*
X163719704Y-59498429D01*
X163801384Y-59186892D01*
X163820718Y-58865405D01*
X163776961Y-58546325D01*
X163671795Y-58241912D01*
X163578814Y-58067956D01*
X163314415Y-57972193D01*
X163430083Y-57856525D01*
X163383558Y-57810000D01*
X167474442Y-57810000D01*
X167427917Y-57856525D01*
X167543585Y-57972193D01*
X167279186Y-58067956D01*
X167138296Y-58357571D01*
X167056616Y-58669108D01*
X167037282Y-58990595D01*
X167081039Y-59309675D01*
X167186205Y-59614088D01*
X167279186Y-59788044D01*
X167543587Y-59883808D01*
X168499395Y-58928000D01*
X168485253Y-58913858D01*
X168664858Y-58734253D01*
X168679000Y-58748395D01*
X168693143Y-58734253D01*
X168872748Y-58913858D01*
X168858605Y-58928000D01*
X169814413Y-59883808D01*
X170078814Y-59788044D01*
X170219704Y-59498429D01*
X170301384Y-59186892D01*
X170320718Y-58865405D01*
X170276961Y-58546325D01*
X170171795Y-58241912D01*
X170078814Y-58067956D01*
X169814415Y-57972193D01*
X169930083Y-57856525D01*
X169883558Y-57810000D01*
X180659442Y-57810000D01*
X180612917Y-57856525D01*
X180728585Y-57972193D01*
X180464186Y-58067956D01*
X180323296Y-58357571D01*
X180241616Y-58669108D01*
X180222282Y-58990595D01*
X180266039Y-59309675D01*
X180371205Y-59614088D01*
X180464186Y-59788044D01*
X180728587Y-59883808D01*
X181684395Y-58928000D01*
X181670253Y-58913858D01*
X181849858Y-58734253D01*
X181864000Y-58748395D01*
X181878143Y-58734253D01*
X182057748Y-58913858D01*
X182043605Y-58928000D01*
X182999413Y-59883808D01*
X183263814Y-59788044D01*
X183404704Y-59498429D01*
X183486384Y-59186892D01*
X183505718Y-58865405D01*
X183461961Y-58546325D01*
X183356795Y-58241912D01*
X183263814Y-58067956D01*
X182999415Y-57972193D01*
X183115083Y-57856525D01*
X183068558Y-57810000D01*
X187159442Y-57810000D01*
X187112917Y-57856525D01*
X187228585Y-57972193D01*
X186964186Y-58067956D01*
X186823296Y-58357571D01*
X186741616Y-58669108D01*
X186722282Y-58990595D01*
X186766039Y-59309675D01*
X186871205Y-59614088D01*
X186964186Y-59788044D01*
X187228587Y-59883808D01*
X188184395Y-58928000D01*
X188170253Y-58913858D01*
X188349858Y-58734253D01*
X188364000Y-58748395D01*
X188378143Y-58734253D01*
X188557748Y-58913858D01*
X188543605Y-58928000D01*
X189499413Y-59883808D01*
X189763814Y-59788044D01*
X189904704Y-59498429D01*
X189986384Y-59186892D01*
X190005718Y-58865405D01*
X189961961Y-58546325D01*
X189856795Y-58241912D01*
X189763814Y-58067956D01*
X189499415Y-57972193D01*
X189615083Y-57856525D01*
X189568558Y-57810000D01*
X211963000Y-57810000D01*
X211963000Y-64770000D01*
X211965440Y-64794776D01*
X211972667Y-64818601D01*
X211984403Y-64840557D01*
X212000197Y-64859803D01*
X212019443Y-64875597D01*
X212041399Y-64887333D01*
X212065224Y-64894560D01*
X212090000Y-64897000D01*
X219050001Y-64897000D01*
X219050000Y-112903000D01*
X212090000Y-112903000D01*
X212065224Y-112905440D01*
X212041399Y-112912667D01*
X212019443Y-112924403D01*
X212000197Y-112940197D01*
X211984403Y-112959443D01*
X211972667Y-112981399D01*
X211965440Y-113005224D01*
X211963000Y-113030000D01*
X211963000Y-120650000D01*
X211965440Y-120674776D01*
X211972667Y-120698601D01*
X211984403Y-120720557D01*
X212000197Y-120739803D01*
X212019443Y-120755597D01*
X212041399Y-120767333D01*
X212065224Y-120774560D01*
X212090000Y-120777000D01*
X219050000Y-120777000D01*
X219050000Y-126340000D01*
X127660000Y-126340000D01*
X127660000Y-122770000D01*
X148371928Y-122770000D01*
X148384188Y-122894482D01*
X148420498Y-123014180D01*
X148479463Y-123124494D01*
X148558815Y-123221185D01*
X148655506Y-123300537D01*
X148765820Y-123359502D01*
X148885518Y-123395812D01*
X149010000Y-123408072D01*
X149574250Y-123405000D01*
X149733000Y-123246250D01*
X149733000Y-122047000D01*
X149987000Y-122047000D01*
X149987000Y-123246250D01*
X150145750Y-123405000D01*
X150710000Y-123408072D01*
X150834482Y-123395812D01*
X150954180Y-123359502D01*
X151064494Y-123300537D01*
X151161185Y-123221185D01*
X151240537Y-123124494D01*
X151299502Y-123014180D01*
X151332912Y-122904039D01*
X178948096Y-122904039D01*
X178988754Y-123038087D01*
X179108963Y-123292420D01*
X179276481Y-123518414D01*
X179484869Y-123707385D01*
X179726119Y-123852070D01*
X179990960Y-123946909D01*
X180213000Y-123825624D01*
X180213000Y-122682000D01*
X180467000Y-122682000D01*
X180467000Y-123825624D01*
X180689040Y-123946909D01*
X180953881Y-123852070D01*
X181195131Y-123707385D01*
X181403519Y-123518414D01*
X181571037Y-123292420D01*
X181691246Y-123038087D01*
X181731904Y-122904039D01*
X181609915Y-122682000D01*
X180467000Y-122682000D01*
X180213000Y-122682000D01*
X179070085Y-122682000D01*
X178948096Y-122904039D01*
X151332912Y-122904039D01*
X151335812Y-122894482D01*
X151348072Y-122770000D01*
X151345000Y-122205750D01*
X151186250Y-122047000D01*
X149987000Y-122047000D01*
X149733000Y-122047000D01*
X148533750Y-122047000D01*
X148375000Y-122205750D01*
X148371928Y-122770000D01*
X127660000Y-122770000D01*
X127660000Y-121070000D01*
X148371928Y-121070000D01*
X148375000Y-121634250D01*
X148533750Y-121793000D01*
X149733000Y-121793000D01*
X149733000Y-121773000D01*
X149987000Y-121773000D01*
X149987000Y-121793000D01*
X151186250Y-121793000D01*
X151345000Y-121634250D01*
X151345730Y-121500000D01*
X159801928Y-121500000D01*
X159814188Y-121624482D01*
X159850498Y-121744180D01*
X159909463Y-121854494D01*
X159988815Y-121951185D01*
X160085506Y-122030537D01*
X160195820Y-122089502D01*
X160315518Y-122125812D01*
X160440000Y-122138072D01*
X161004250Y-122135000D01*
X161163000Y-121976250D01*
X161163000Y-120777000D01*
X161417000Y-120777000D01*
X161417000Y-121976250D01*
X161575750Y-122135000D01*
X162140000Y-122138072D01*
X162264482Y-122125812D01*
X162384180Y-122089502D01*
X162494494Y-122030537D01*
X162591185Y-121951185D01*
X162670537Y-121854494D01*
X162729502Y-121744180D01*
X162765812Y-121624482D01*
X162778072Y-121500000D01*
X162775000Y-120935750D01*
X162616250Y-120777000D01*
X161417000Y-120777000D01*
X161163000Y-120777000D01*
X159963750Y-120777000D01*
X159805000Y-120935750D01*
X159801928Y-121500000D01*
X151345730Y-121500000D01*
X151348072Y-121070000D01*
X151335812Y-120945518D01*
X151299502Y-120825820D01*
X151240537Y-120715506D01*
X151161185Y-120618815D01*
X151064494Y-120539463D01*
X150954180Y-120480498D01*
X150881620Y-120458487D01*
X151013475Y-120326632D01*
X151136842Y-120142000D01*
X153632577Y-120142000D01*
X153670000Y-120145686D01*
X153707423Y-120142000D01*
X153707426Y-120142000D01*
X153819378Y-120130974D01*
X153963015Y-120087402D01*
X154095392Y-120016645D01*
X154211422Y-119921422D01*
X154235284Y-119892346D01*
X154327630Y-119800000D01*
X159801928Y-119800000D01*
X159805000Y-120364250D01*
X159963750Y-120523000D01*
X161163000Y-120523000D01*
X161163000Y-120503000D01*
X161417000Y-120503000D01*
X161417000Y-120523000D01*
X162616250Y-120523000D01*
X162775000Y-120364250D01*
X162777670Y-119873665D01*
X178905000Y-119873665D01*
X178905000Y-120156335D01*
X178960147Y-120433574D01*
X179068320Y-120694727D01*
X179225363Y-120929759D01*
X179425241Y-121129637D01*
X179660273Y-121286680D01*
X179670865Y-121291067D01*
X179484869Y-121402615D01*
X179276481Y-121591586D01*
X179108963Y-121817580D01*
X178988754Y-122071913D01*
X178948096Y-122205961D01*
X179070085Y-122428000D01*
X180213000Y-122428000D01*
X180213000Y-122408000D01*
X180467000Y-122408000D01*
X180467000Y-122428000D01*
X181609915Y-122428000D01*
X181617790Y-122413665D01*
X186525000Y-122413665D01*
X186525000Y-122696335D01*
X186580147Y-122973574D01*
X186688320Y-123234727D01*
X186845363Y-123469759D01*
X187045241Y-123669637D01*
X187280273Y-123826680D01*
X187541426Y-123934853D01*
X187818665Y-123990000D01*
X188101335Y-123990000D01*
X188378574Y-123934853D01*
X188639727Y-123826680D01*
X188874759Y-123669637D01*
X189074637Y-123469759D01*
X189231680Y-123234727D01*
X189281794Y-123113740D01*
X204255000Y-123113740D01*
X204255000Y-123406260D01*
X204312068Y-123693158D01*
X204424010Y-123963411D01*
X204586525Y-124206632D01*
X204793368Y-124413475D01*
X205036589Y-124575990D01*
X205306842Y-124687932D01*
X205593740Y-124745000D01*
X205886260Y-124745000D01*
X206173158Y-124687932D01*
X206443411Y-124575990D01*
X206686632Y-124413475D01*
X206893475Y-124206632D01*
X207010000Y-124032240D01*
X207126525Y-124206632D01*
X207333368Y-124413475D01*
X207576589Y-124575990D01*
X207846842Y-124687932D01*
X208133740Y-124745000D01*
X208426260Y-124745000D01*
X208713158Y-124687932D01*
X208983411Y-124575990D01*
X209226632Y-124413475D01*
X209433475Y-124206632D01*
X209550000Y-124032240D01*
X209666525Y-124206632D01*
X209873368Y-124413475D01*
X210116589Y-124575990D01*
X210386842Y-124687932D01*
X210673740Y-124745000D01*
X210966260Y-124745000D01*
X211253158Y-124687932D01*
X211523411Y-124575990D01*
X211766632Y-124413475D01*
X211973475Y-124206632D01*
X212090000Y-124032240D01*
X212206525Y-124206632D01*
X212413368Y-124413475D01*
X212656589Y-124575990D01*
X212926842Y-124687932D01*
X213213740Y-124745000D01*
X213506260Y-124745000D01*
X213793158Y-124687932D01*
X214063411Y-124575990D01*
X214306632Y-124413475D01*
X214438487Y-124281620D01*
X214460498Y-124354180D01*
X214519463Y-124464494D01*
X214598815Y-124561185D01*
X214695506Y-124640537D01*
X214805820Y-124699502D01*
X214925518Y-124735812D01*
X215050000Y-124748072D01*
X216750000Y-124748072D01*
X216874482Y-124735812D01*
X216994180Y-124699502D01*
X217104494Y-124640537D01*
X217201185Y-124561185D01*
X217280537Y-124464494D01*
X217339502Y-124354180D01*
X217375812Y-124234482D01*
X217388072Y-124110000D01*
X217388072Y-122410000D01*
X217375812Y-122285518D01*
X217339502Y-122165820D01*
X217280537Y-122055506D01*
X217201185Y-121958815D01*
X217104494Y-121879463D01*
X216994180Y-121820498D01*
X216874482Y-121784188D01*
X216750000Y-121771928D01*
X215050000Y-121771928D01*
X214925518Y-121784188D01*
X214805820Y-121820498D01*
X214695506Y-121879463D01*
X214598815Y-121958815D01*
X214519463Y-122055506D01*
X214460498Y-122165820D01*
X214438487Y-122238380D01*
X214306632Y-122106525D01*
X214063411Y-121944010D01*
X213793158Y-121832068D01*
X213506260Y-121775000D01*
X213213740Y-121775000D01*
X212926842Y-121832068D01*
X212656589Y-121944010D01*
X212413368Y-122106525D01*
X212206525Y-122313368D01*
X212090000Y-122487760D01*
X211973475Y-122313368D01*
X211766632Y-122106525D01*
X211523411Y-121944010D01*
X211253158Y-121832068D01*
X210966260Y-121775000D01*
X210673740Y-121775000D01*
X210386842Y-121832068D01*
X210116589Y-121944010D01*
X209873368Y-122106525D01*
X209666525Y-122313368D01*
X209550000Y-122487760D01*
X209433475Y-122313368D01*
X209226632Y-122106525D01*
X208983411Y-121944010D01*
X208713158Y-121832068D01*
X208426260Y-121775000D01*
X208133740Y-121775000D01*
X207846842Y-121832068D01*
X207576589Y-121944010D01*
X207333368Y-122106525D01*
X207126525Y-122313368D01*
X207010000Y-122487760D01*
X206893475Y-122313368D01*
X206686632Y-122106525D01*
X206443411Y-121944010D01*
X206173158Y-121832068D01*
X205886260Y-121775000D01*
X205593740Y-121775000D01*
X205306842Y-121832068D01*
X205036589Y-121944010D01*
X204793368Y-122106525D01*
X204586525Y-122313368D01*
X204424010Y-122556589D01*
X204312068Y-122826842D01*
X204255000Y-123113740D01*
X189281794Y-123113740D01*
X189339853Y-122973574D01*
X189395000Y-122696335D01*
X189395000Y-122413665D01*
X189339853Y-122136426D01*
X189231680Y-121875273D01*
X189074637Y-121640241D01*
X188874759Y-121440363D01*
X188639727Y-121283320D01*
X188629135Y-121278933D01*
X188815131Y-121167385D01*
X189023519Y-120978414D01*
X189191037Y-120752420D01*
X189311246Y-120498087D01*
X189351904Y-120364039D01*
X189229915Y-120142000D01*
X188087000Y-120142000D01*
X188087000Y-120162000D01*
X187833000Y-120162000D01*
X187833000Y-120142000D01*
X186690085Y-120142000D01*
X186568096Y-120364039D01*
X186608754Y-120498087D01*
X186728963Y-120752420D01*
X186896481Y-120978414D01*
X187104869Y-121167385D01*
X187290865Y-121278933D01*
X187280273Y-121283320D01*
X187045241Y-121440363D01*
X186845363Y-121640241D01*
X186688320Y-121875273D01*
X186580147Y-122136426D01*
X186525000Y-122413665D01*
X181617790Y-122413665D01*
X181731904Y-122205961D01*
X181691246Y-122071913D01*
X181571037Y-121817580D01*
X181403519Y-121591586D01*
X181195131Y-121402615D01*
X181009135Y-121291067D01*
X181019727Y-121286680D01*
X181254759Y-121129637D01*
X181454637Y-120929759D01*
X181611680Y-120694727D01*
X181719853Y-120433574D01*
X181775000Y-120156335D01*
X181775000Y-119873665D01*
X181719853Y-119596426D01*
X181611680Y-119335273D01*
X181454637Y-119100241D01*
X181254759Y-118900363D01*
X181019727Y-118743320D01*
X181009135Y-118738933D01*
X181195131Y-118627385D01*
X181403519Y-118438414D01*
X181571037Y-118212420D01*
X181691246Y-117958087D01*
X181731904Y-117824039D01*
X181609915Y-117602000D01*
X180467000Y-117602000D01*
X180467000Y-117622000D01*
X180213000Y-117622000D01*
X180213000Y-117602000D01*
X179070085Y-117602000D01*
X178948096Y-117824039D01*
X178988754Y-117958087D01*
X179108963Y-118212420D01*
X179276481Y-118438414D01*
X179484869Y-118627385D01*
X179670865Y-118738933D01*
X179660273Y-118743320D01*
X179425241Y-118900363D01*
X179225363Y-119100241D01*
X179068320Y-119335273D01*
X178960147Y-119596426D01*
X178905000Y-119873665D01*
X162777670Y-119873665D01*
X162778072Y-119800000D01*
X162765812Y-119675518D01*
X162729502Y-119555820D01*
X162670537Y-119445506D01*
X162591185Y-119348815D01*
X162494494Y-119269463D01*
X162384180Y-119210498D01*
X162311620Y-119188487D01*
X162443475Y-119056632D01*
X162605990Y-118813411D01*
X162717932Y-118543158D01*
X162775000Y-118256260D01*
X162775000Y-117963740D01*
X162717932Y-117676842D01*
X162605990Y-117406589D01*
X162443475Y-117163368D01*
X162236632Y-116956525D01*
X161993411Y-116794010D01*
X161723158Y-116682068D01*
X161436260Y-116625000D01*
X161143740Y-116625000D01*
X160856842Y-116682068D01*
X160586589Y-116794010D01*
X160343368Y-116956525D01*
X160136525Y-117163368D01*
X159974010Y-117406589D01*
X159862068Y-117676842D01*
X159805000Y-117963740D01*
X159805000Y-118256260D01*
X159862068Y-118543158D01*
X159974010Y-118813411D01*
X160136525Y-119056632D01*
X160268380Y-119188487D01*
X160195820Y-119210498D01*
X160085506Y-119269463D01*
X159988815Y-119348815D01*
X159909463Y-119445506D01*
X159850498Y-119555820D01*
X159814188Y-119675518D01*
X159801928Y-119800000D01*
X154327630Y-119800000D01*
X156214353Y-117913278D01*
X156243422Y-117889422D01*
X156270772Y-117856096D01*
X156338645Y-117773393D01*
X156409401Y-117641016D01*
X156409402Y-117641015D01*
X156452974Y-117497378D01*
X156464000Y-117385426D01*
X156464000Y-117385423D01*
X156467686Y-117348000D01*
X156464000Y-117310577D01*
X156464000Y-111340000D01*
X159801928Y-111340000D01*
X159814188Y-111464482D01*
X159850498Y-111584180D01*
X159909463Y-111694494D01*
X159988815Y-111791185D01*
X160085506Y-111870537D01*
X160195820Y-111929502D01*
X160268380Y-111951513D01*
X160136525Y-112083368D01*
X159974010Y-112326589D01*
X159862068Y-112596842D01*
X159805000Y-112883740D01*
X159805000Y-113176260D01*
X159862068Y-113463158D01*
X159974010Y-113733411D01*
X160136525Y-113976632D01*
X160343368Y-114183475D01*
X160586589Y-114345990D01*
X160856842Y-114457932D01*
X161143740Y-114515000D01*
X161436260Y-114515000D01*
X161723158Y-114457932D01*
X161993411Y-114345990D01*
X162236632Y-114183475D01*
X162443475Y-113976632D01*
X162605990Y-113733411D01*
X162717932Y-113463158D01*
X162775000Y-113176260D01*
X162775000Y-112883740D01*
X162717932Y-112596842D01*
X162605990Y-112326589D01*
X162443475Y-112083368D01*
X162311620Y-111951513D01*
X162384180Y-111929502D01*
X162494494Y-111870537D01*
X162591185Y-111791185D01*
X162670537Y-111694494D01*
X162729502Y-111584180D01*
X162765812Y-111464482D01*
X162778072Y-111340000D01*
X162775000Y-110775750D01*
X162616250Y-110617000D01*
X161417000Y-110617000D01*
X161417000Y-110637000D01*
X161163000Y-110637000D01*
X161163000Y-110617000D01*
X159963750Y-110617000D01*
X159805000Y-110775750D01*
X159801928Y-111340000D01*
X156464000Y-111340000D01*
X156464000Y-109640000D01*
X159801928Y-109640000D01*
X159805000Y-110204250D01*
X159963750Y-110363000D01*
X161163000Y-110363000D01*
X161163000Y-109163750D01*
X161417000Y-109163750D01*
X161417000Y-110363000D01*
X162616250Y-110363000D01*
X162775000Y-110204250D01*
X162778072Y-109640000D01*
X162765812Y-109515518D01*
X162729502Y-109395820D01*
X162670537Y-109285506D01*
X162591185Y-109188815D01*
X162494494Y-109109463D01*
X162384180Y-109050498D01*
X162264482Y-109014188D01*
X162140000Y-109001928D01*
X161575750Y-109005000D01*
X161417000Y-109163750D01*
X161163000Y-109163750D01*
X161004250Y-109005000D01*
X160440000Y-109001928D01*
X160315518Y-109014188D01*
X160195820Y-109050498D01*
X160085506Y-109109463D01*
X159988815Y-109188815D01*
X159909463Y-109285506D01*
X159850498Y-109395820D01*
X159814188Y-109515518D01*
X159801928Y-109640000D01*
X156464000Y-109640000D01*
X156464000Y-108519630D01*
X159866579Y-105117052D01*
X160051243Y-105080320D01*
X160229210Y-105006604D01*
X160389375Y-104899585D01*
X160525585Y-104763375D01*
X160632604Y-104603210D01*
X160706320Y-104425243D01*
X160743900Y-104236315D01*
X160743900Y-104043685D01*
X160706320Y-103854757D01*
X160632604Y-103676790D01*
X160543877Y-103544000D01*
X164627928Y-103544000D01*
X164627928Y-105244000D01*
X164640188Y-105368482D01*
X164676498Y-105488180D01*
X164735463Y-105598494D01*
X164814815Y-105695185D01*
X164911506Y-105774537D01*
X165021820Y-105833502D01*
X165141518Y-105869812D01*
X165266000Y-105882072D01*
X166966000Y-105882072D01*
X167090482Y-105869812D01*
X167210180Y-105833502D01*
X167320494Y-105774537D01*
X167417185Y-105695185D01*
X167496537Y-105598494D01*
X167555502Y-105488180D01*
X167577513Y-105415620D01*
X167709368Y-105547475D01*
X167952589Y-105709990D01*
X168222842Y-105821932D01*
X168509740Y-105879000D01*
X168802260Y-105879000D01*
X169089158Y-105821932D01*
X169359411Y-105709990D01*
X169602632Y-105547475D01*
X169809475Y-105340632D01*
X169971990Y-105097411D01*
X170083932Y-104827158D01*
X170141000Y-104540260D01*
X170141000Y-104247740D01*
X170083932Y-103960842D01*
X169971990Y-103690589D01*
X169809475Y-103447368D01*
X169602632Y-103240525D01*
X169418000Y-103117158D01*
X169418000Y-101788630D01*
X169479630Y-101727000D01*
X171158577Y-101727000D01*
X171196000Y-101730686D01*
X171233423Y-101727000D01*
X171233426Y-101727000D01*
X171345378Y-101715974D01*
X171489015Y-101672402D01*
X171621392Y-101601645D01*
X171737422Y-101506422D01*
X171761284Y-101477347D01*
X172185579Y-101053052D01*
X172370243Y-101016320D01*
X172548210Y-100942604D01*
X172708375Y-100835585D01*
X172844585Y-100699375D01*
X172951604Y-100539210D01*
X173025320Y-100361243D01*
X173062900Y-100172315D01*
X173062900Y-99979685D01*
X173025320Y-99790757D01*
X172951604Y-99612790D01*
X172844585Y-99452625D01*
X172708375Y-99316415D01*
X172548210Y-99209396D01*
X172370243Y-99135680D01*
X172181315Y-99098100D01*
X171988685Y-99098100D01*
X171799757Y-99135680D01*
X171621790Y-99209396D01*
X171461625Y-99316415D01*
X171450000Y-99328040D01*
X171438375Y-99316415D01*
X171278210Y-99209396D01*
X171100243Y-99135680D01*
X170911315Y-99098100D01*
X170718685Y-99098100D01*
X170529757Y-99135680D01*
X170351790Y-99209396D01*
X170195239Y-99314000D01*
X166788423Y-99314000D01*
X166751000Y-99310314D01*
X166713577Y-99314000D01*
X166713574Y-99314000D01*
X166601622Y-99325026D01*
X166457985Y-99368598D01*
X166396364Y-99401535D01*
X166325607Y-99439355D01*
X166309438Y-99452625D01*
X166209578Y-99534578D01*
X166185716Y-99563654D01*
X165603654Y-100145716D01*
X165574578Y-100169578D01*
X165550174Y-100199315D01*
X165479355Y-100285608D01*
X165456507Y-100328355D01*
X165408598Y-100417986D01*
X165365026Y-100561623D01*
X165359280Y-100619967D01*
X165350314Y-100711000D01*
X165354000Y-100748423D01*
X165354001Y-102905928D01*
X165266000Y-102905928D01*
X165141518Y-102918188D01*
X165021820Y-102954498D01*
X164911506Y-103013463D01*
X164814815Y-103092815D01*
X164735463Y-103189506D01*
X164676498Y-103299820D01*
X164640188Y-103419518D01*
X164627928Y-103544000D01*
X160543877Y-103544000D01*
X160525585Y-103516625D01*
X160389375Y-103380415D01*
X160355710Y-103357921D01*
X161802352Y-101911279D01*
X161831422Y-101887422D01*
X161926645Y-101771392D01*
X161997402Y-101639015D01*
X162040974Y-101495378D01*
X162052000Y-101383426D01*
X162052000Y-101383424D01*
X162055686Y-101346001D01*
X162052000Y-101308578D01*
X162052000Y-96123761D01*
X162156604Y-95967210D01*
X162230320Y-95789243D01*
X162267900Y-95600315D01*
X162267900Y-95407685D01*
X178727100Y-95407685D01*
X178727100Y-95600315D01*
X178764680Y-95789243D01*
X178838396Y-95967210D01*
X178945415Y-96127375D01*
X179081625Y-96263585D01*
X179241790Y-96370604D01*
X179419757Y-96444320D01*
X179608685Y-96481900D01*
X179801315Y-96481900D01*
X179990243Y-96444320D01*
X180168210Y-96370604D01*
X180328375Y-96263585D01*
X180464585Y-96127375D01*
X180571604Y-95967210D01*
X180645320Y-95789243D01*
X180682900Y-95600315D01*
X180682900Y-95407685D01*
X180645320Y-95218757D01*
X180627049Y-95174648D01*
X184234697Y-91567000D01*
X184265344Y-91567000D01*
X184225680Y-91662757D01*
X184188948Y-91847421D01*
X182113654Y-93922716D01*
X182084578Y-93946578D01*
X182028983Y-94014322D01*
X181989355Y-94062608D01*
X181985992Y-94068900D01*
X181918598Y-94194986D01*
X181875026Y-94338623D01*
X181867445Y-94415599D01*
X181860314Y-94488000D01*
X181864000Y-94525423D01*
X181864001Y-108650368D01*
X181502499Y-109011871D01*
X181454637Y-108940241D01*
X181256039Y-108741643D01*
X181264482Y-108740812D01*
X181384180Y-108704502D01*
X181494494Y-108645537D01*
X181591185Y-108566185D01*
X181670537Y-108469494D01*
X181729502Y-108359180D01*
X181765812Y-108239482D01*
X181778072Y-108115000D01*
X181778072Y-106515000D01*
X181765812Y-106390518D01*
X181729502Y-106270820D01*
X181670537Y-106160506D01*
X181591185Y-106063815D01*
X181494494Y-105984463D01*
X181384180Y-105925498D01*
X181264482Y-105889188D01*
X181140000Y-105876928D01*
X179540000Y-105876928D01*
X179415518Y-105889188D01*
X179295820Y-105925498D01*
X179185506Y-105984463D01*
X179088815Y-106063815D01*
X179009463Y-106160506D01*
X178950498Y-106270820D01*
X178914188Y-106390518D01*
X178901928Y-106515000D01*
X178901928Y-108115000D01*
X178914188Y-108239482D01*
X178950498Y-108359180D01*
X179009463Y-108469494D01*
X179088815Y-108566185D01*
X179185506Y-108645537D01*
X179295820Y-108704502D01*
X179415518Y-108740812D01*
X179423961Y-108741643D01*
X179225363Y-108940241D01*
X179068320Y-109175273D01*
X178960147Y-109436426D01*
X178905000Y-109713665D01*
X178905000Y-109996335D01*
X178960147Y-110273574D01*
X179068320Y-110534727D01*
X179225363Y-110769759D01*
X179425241Y-110969637D01*
X179657759Y-111125000D01*
X179425241Y-111280363D01*
X179225363Y-111480241D01*
X179068320Y-111715273D01*
X178960147Y-111976426D01*
X178905000Y-112253665D01*
X178905000Y-112536335D01*
X178960147Y-112813574D01*
X179068320Y-113074727D01*
X179225363Y-113309759D01*
X179425241Y-113509637D01*
X179657759Y-113665000D01*
X179425241Y-113820363D01*
X179225363Y-114020241D01*
X179068320Y-114255273D01*
X178960147Y-114516426D01*
X178905000Y-114793665D01*
X178905000Y-115076335D01*
X178960147Y-115353574D01*
X179068320Y-115614727D01*
X179225363Y-115849759D01*
X179425241Y-116049637D01*
X179660273Y-116206680D01*
X179670865Y-116211067D01*
X179484869Y-116322615D01*
X179276481Y-116511586D01*
X179108963Y-116737580D01*
X178988754Y-116991913D01*
X178948096Y-117125961D01*
X179070085Y-117348000D01*
X180213000Y-117348000D01*
X180213000Y-117328000D01*
X180467000Y-117328000D01*
X180467000Y-117348000D01*
X181609915Y-117348000D01*
X181617790Y-117333665D01*
X186525000Y-117333665D01*
X186525000Y-117616335D01*
X186580147Y-117893574D01*
X186688320Y-118154727D01*
X186845363Y-118389759D01*
X187045241Y-118589637D01*
X187280273Y-118746680D01*
X187290865Y-118751067D01*
X187104869Y-118862615D01*
X186896481Y-119051586D01*
X186728963Y-119277580D01*
X186608754Y-119531913D01*
X186568096Y-119665961D01*
X186690085Y-119888000D01*
X187833000Y-119888000D01*
X187833000Y-119868000D01*
X188087000Y-119868000D01*
X188087000Y-119888000D01*
X189229915Y-119888000D01*
X189351904Y-119665961D01*
X189311246Y-119531913D01*
X189191037Y-119277580D01*
X189023519Y-119051586D01*
X188815131Y-118862615D01*
X188629135Y-118751067D01*
X188639727Y-118746680D01*
X188874759Y-118589637D01*
X189074637Y-118389759D01*
X189231680Y-118154727D01*
X189339853Y-117893574D01*
X189395000Y-117616335D01*
X189395000Y-117333665D01*
X189339853Y-117056426D01*
X189231680Y-116795273D01*
X189074637Y-116560241D01*
X188874759Y-116360363D01*
X188639727Y-116203320D01*
X188629135Y-116198933D01*
X188815131Y-116087385D01*
X189023519Y-115898414D01*
X189191037Y-115672420D01*
X189311246Y-115418087D01*
X189351904Y-115284039D01*
X189229915Y-115062000D01*
X188087000Y-115062000D01*
X188087000Y-115082000D01*
X187833000Y-115082000D01*
X187833000Y-115062000D01*
X186690085Y-115062000D01*
X186568096Y-115284039D01*
X186608754Y-115418087D01*
X186728963Y-115672420D01*
X186896481Y-115898414D01*
X187104869Y-116087385D01*
X187290865Y-116198933D01*
X187280273Y-116203320D01*
X187045241Y-116360363D01*
X186845363Y-116560241D01*
X186688320Y-116795273D01*
X186580147Y-117056426D01*
X186525000Y-117333665D01*
X181617790Y-117333665D01*
X181731904Y-117125961D01*
X181691246Y-116991913D01*
X181571037Y-116737580D01*
X181403519Y-116511586D01*
X181195131Y-116322615D01*
X181009135Y-116211067D01*
X181019727Y-116206680D01*
X181254759Y-116049637D01*
X181454637Y-115849759D01*
X181556707Y-115697000D01*
X181826577Y-115697000D01*
X181864000Y-115700686D01*
X181901423Y-115697000D01*
X181901426Y-115697000D01*
X182013378Y-115685974D01*
X182157015Y-115642402D01*
X182289392Y-115571645D01*
X182405422Y-115476422D01*
X182429284Y-115447346D01*
X183900352Y-113976279D01*
X183929422Y-113952422D01*
X184024645Y-113836392D01*
X184095402Y-113704015D01*
X184138974Y-113560378D01*
X184150000Y-113448426D01*
X184150000Y-113448424D01*
X184153686Y-113411001D01*
X184150000Y-113373578D01*
X184150000Y-112253665D01*
X186525000Y-112253665D01*
X186525000Y-112536335D01*
X186580147Y-112813574D01*
X186688320Y-113074727D01*
X186845363Y-113309759D01*
X187045241Y-113509637D01*
X187280273Y-113666680D01*
X187290865Y-113671067D01*
X187104869Y-113782615D01*
X186896481Y-113971586D01*
X186728963Y-114197580D01*
X186608754Y-114451913D01*
X186568096Y-114585961D01*
X186690085Y-114808000D01*
X187833000Y-114808000D01*
X187833000Y-114788000D01*
X188087000Y-114788000D01*
X188087000Y-114808000D01*
X189229915Y-114808000D01*
X189351904Y-114585961D01*
X189311246Y-114451913D01*
X189191037Y-114197580D01*
X189023519Y-113971586D01*
X188815131Y-113782615D01*
X188629135Y-113671067D01*
X188639727Y-113666680D01*
X188874759Y-113509637D01*
X189074637Y-113309759D01*
X189231680Y-113074727D01*
X189339853Y-112813574D01*
X189395000Y-112536335D01*
X189395000Y-112253665D01*
X189339853Y-111976426D01*
X189231680Y-111715273D01*
X189074637Y-111480241D01*
X188874759Y-111280363D01*
X188639727Y-111123320D01*
X188629135Y-111118933D01*
X188815131Y-111007385D01*
X189023519Y-110818414D01*
X189191037Y-110592420D01*
X189311246Y-110338087D01*
X189351904Y-110204039D01*
X189229915Y-109982000D01*
X188087000Y-109982000D01*
X188087000Y-110002000D01*
X187833000Y-110002000D01*
X187833000Y-109982000D01*
X186690085Y-109982000D01*
X186568096Y-110204039D01*
X186608754Y-110338087D01*
X186728963Y-110592420D01*
X186896481Y-110818414D01*
X187104869Y-111007385D01*
X187290865Y-111118933D01*
X187280273Y-111123320D01*
X187045241Y-111280363D01*
X186845363Y-111480241D01*
X186688320Y-111715273D01*
X186580147Y-111976426D01*
X186525000Y-112253665D01*
X184150000Y-112253665D01*
X184150000Y-96581630D01*
X186663579Y-94068052D01*
X186848243Y-94031320D01*
X187026210Y-93957604D01*
X187186375Y-93850585D01*
X187322585Y-93714375D01*
X187429604Y-93554210D01*
X187503320Y-93376243D01*
X187540900Y-93187315D01*
X187540900Y-92994685D01*
X187503320Y-92805757D01*
X187429604Y-92627790D01*
X187322585Y-92467625D01*
X187310480Y-92455520D01*
X187313375Y-92453585D01*
X187449585Y-92317375D01*
X187556604Y-92157210D01*
X187630320Y-91979243D01*
X187667900Y-91790315D01*
X187667900Y-91597685D01*
X187630320Y-91408757D01*
X187556604Y-91230790D01*
X187449585Y-91070625D01*
X187313375Y-90934415D01*
X187153210Y-90827396D01*
X186975243Y-90753680D01*
X186790579Y-90716948D01*
X186366284Y-90292653D01*
X186342422Y-90263578D01*
X186226392Y-90168355D01*
X186094015Y-90097598D01*
X185950378Y-90054026D01*
X185838426Y-90043000D01*
X185838423Y-90043000D01*
X185801000Y-90039314D01*
X185763577Y-90043000D01*
X183956490Y-90043000D01*
X183919067Y-90039314D01*
X183881644Y-90043000D01*
X183881641Y-90043000D01*
X183769689Y-90054026D01*
X183626052Y-90097598D01*
X183571436Y-90126791D01*
X183493674Y-90168355D01*
X183451286Y-90203143D01*
X183377645Y-90263578D01*
X183353783Y-90292654D01*
X179192649Y-94453788D01*
X179163579Y-94477645D01*
X179068355Y-94593675D01*
X178997598Y-94726052D01*
X178954026Y-94869689D01*
X178953772Y-94872268D01*
X178945415Y-94880625D01*
X178838396Y-95040790D01*
X178764680Y-95218757D01*
X178727100Y-95407685D01*
X162267900Y-95407685D01*
X162244227Y-95288674D01*
X162274757Y-95301320D01*
X162463685Y-95338900D01*
X162656315Y-95338900D01*
X162845243Y-95301320D01*
X163023210Y-95227604D01*
X163183375Y-95120585D01*
X163319585Y-94984375D01*
X163426604Y-94824210D01*
X163500320Y-94646243D01*
X163537900Y-94457315D01*
X163537900Y-94264685D01*
X163500320Y-94075757D01*
X163426604Y-93897790D01*
X163319585Y-93737625D01*
X163307960Y-93726000D01*
X174333577Y-93726000D01*
X174371000Y-93729686D01*
X174408423Y-93726000D01*
X174408426Y-93726000D01*
X174520378Y-93714974D01*
X174664015Y-93671402D01*
X174796392Y-93600645D01*
X174912422Y-93505422D01*
X174936284Y-93476346D01*
X179639631Y-88773000D01*
X199659239Y-88773000D01*
X199815790Y-88877604D01*
X199869859Y-88900000D01*
X197395423Y-88900000D01*
X197358000Y-88896314D01*
X197320577Y-88900000D01*
X197320574Y-88900000D01*
X197208622Y-88911026D01*
X197064985Y-88954598D01*
X197003364Y-88987535D01*
X196932607Y-89025355D01*
X196867024Y-89079178D01*
X196816578Y-89120578D01*
X196792721Y-89149648D01*
X195599833Y-90342536D01*
X195592319Y-90304758D01*
X195518603Y-90126791D01*
X195411584Y-89966626D01*
X195275374Y-89830416D01*
X195115209Y-89723397D01*
X194937242Y-89649681D01*
X194748314Y-89612101D01*
X194555684Y-89612101D01*
X194366756Y-89649681D01*
X194188789Y-89723397D01*
X194028624Y-89830416D01*
X193892414Y-89966626D01*
X193785395Y-90126791D01*
X193711679Y-90304758D01*
X193674099Y-90493686D01*
X193674099Y-90686316D01*
X193711679Y-90875244D01*
X193785395Y-91053211D01*
X193892414Y-91213376D01*
X194028624Y-91349586D01*
X194188789Y-91456605D01*
X194366756Y-91530321D01*
X194404534Y-91537835D01*
X190018422Y-95923948D01*
X189833757Y-95960680D01*
X189655790Y-96034396D01*
X189495625Y-96141415D01*
X189359415Y-96277625D01*
X189252396Y-96437790D01*
X189178680Y-96615757D01*
X189141100Y-96804685D01*
X189141100Y-96997315D01*
X189178680Y-97186243D01*
X189252396Y-97364210D01*
X189359415Y-97524375D01*
X189495625Y-97660585D01*
X189655790Y-97767604D01*
X189802158Y-97828231D01*
X187396418Y-100233971D01*
X187364436Y-100260218D01*
X187259691Y-100387851D01*
X187181858Y-100533466D01*
X187133929Y-100691467D01*
X187121800Y-100814613D01*
X187121800Y-100814619D01*
X187117746Y-100855782D01*
X187121800Y-100896945D01*
X187121801Y-106149207D01*
X187045241Y-106200363D01*
X186845363Y-106400241D01*
X186688320Y-106635273D01*
X186580147Y-106896426D01*
X186525000Y-107173665D01*
X186525000Y-107456335D01*
X186580147Y-107733574D01*
X186688320Y-107994727D01*
X186845363Y-108229759D01*
X187045241Y-108429637D01*
X187280273Y-108586680D01*
X187290865Y-108591067D01*
X187104869Y-108702615D01*
X186896481Y-108891586D01*
X186728963Y-109117580D01*
X186608754Y-109371913D01*
X186568096Y-109505961D01*
X186690085Y-109728000D01*
X187833000Y-109728000D01*
X187833000Y-109708000D01*
X188087000Y-109708000D01*
X188087000Y-109728000D01*
X189229915Y-109728000D01*
X189351904Y-109505961D01*
X189311246Y-109371913D01*
X189191037Y-109117580D01*
X189023519Y-108891586D01*
X188815131Y-108702615D01*
X188629135Y-108591067D01*
X188639727Y-108586680D01*
X188874759Y-108429637D01*
X189074637Y-108229759D01*
X189231680Y-107994727D01*
X189339853Y-107733574D01*
X189395000Y-107456335D01*
X189395000Y-107173665D01*
X189339853Y-106896426D01*
X189231680Y-106635273D01*
X189074637Y-106400241D01*
X188874759Y-106200363D01*
X188798200Y-106149208D01*
X188798200Y-101202975D01*
X195618100Y-94383076D01*
X195618100Y-94457315D01*
X195655680Y-94646243D01*
X195729396Y-94824210D01*
X195764549Y-94876820D01*
X195067654Y-95573716D01*
X195038578Y-95597578D01*
X194992786Y-95653377D01*
X194943355Y-95713608D01*
X194921953Y-95753649D01*
X194872598Y-95845986D01*
X194829026Y-95989623D01*
X194818000Y-96101574D01*
X194814314Y-96139000D01*
X194818000Y-96176424D01*
X194818000Y-96513158D01*
X194633368Y-96636525D01*
X194426525Y-96843368D01*
X194264010Y-97086589D01*
X194152068Y-97356842D01*
X194095000Y-97643740D01*
X194095000Y-97936260D01*
X194152068Y-98223158D01*
X194264010Y-98493411D01*
X194426525Y-98736632D01*
X194633368Y-98943475D01*
X194876589Y-99105990D01*
X195146842Y-99217932D01*
X195433740Y-99275000D01*
X195726260Y-99275000D01*
X196013158Y-99217932D01*
X196283411Y-99105990D01*
X196526632Y-98943475D01*
X196733475Y-98736632D01*
X196850000Y-98562240D01*
X196966525Y-98736632D01*
X197173368Y-98943475D01*
X197416589Y-99105990D01*
X197686842Y-99217932D01*
X197973740Y-99275000D01*
X198266260Y-99275000D01*
X198553158Y-99217932D01*
X198823411Y-99105990D01*
X199066632Y-98943475D01*
X199273475Y-98736632D01*
X199390000Y-98562240D01*
X199506525Y-98736632D01*
X199713368Y-98943475D01*
X199956589Y-99105990D01*
X200226842Y-99217932D01*
X200513740Y-99275000D01*
X200806260Y-99275000D01*
X201093158Y-99217932D01*
X201363411Y-99105990D01*
X201606632Y-98943475D01*
X201813475Y-98736632D01*
X201930000Y-98562240D01*
X202046525Y-98736632D01*
X202253368Y-98943475D01*
X202496589Y-99105990D01*
X202766842Y-99217932D01*
X203053740Y-99275000D01*
X203346260Y-99275000D01*
X203633158Y-99217932D01*
X203903411Y-99105990D01*
X204146632Y-98943475D01*
X204353475Y-98736632D01*
X204470000Y-98562240D01*
X204586525Y-98736632D01*
X204793368Y-98943475D01*
X205036589Y-99105990D01*
X205306842Y-99217932D01*
X205593740Y-99275000D01*
X205886260Y-99275000D01*
X206173158Y-99217932D01*
X206443411Y-99105990D01*
X206686632Y-98943475D01*
X206893475Y-98736632D01*
X207010000Y-98562240D01*
X207126525Y-98736632D01*
X207333368Y-98943475D01*
X207576589Y-99105990D01*
X207846842Y-99217932D01*
X208133740Y-99275000D01*
X208426260Y-99275000D01*
X208713158Y-99217932D01*
X208983411Y-99105990D01*
X209226632Y-98943475D01*
X209433475Y-98736632D01*
X209550000Y-98562240D01*
X209666525Y-98736632D01*
X209873368Y-98943475D01*
X210116589Y-99105990D01*
X210386842Y-99217932D01*
X210673740Y-99275000D01*
X210966260Y-99275000D01*
X211253158Y-99217932D01*
X211523411Y-99105990D01*
X211766632Y-98943475D01*
X211973475Y-98736632D01*
X212095195Y-98554466D01*
X212164822Y-98671355D01*
X212359731Y-98887588D01*
X212593080Y-99061641D01*
X212855901Y-99186825D01*
X213003110Y-99231476D01*
X213233000Y-99110155D01*
X213233000Y-97917000D01*
X213213000Y-97917000D01*
X213213000Y-97663000D01*
X213233000Y-97663000D01*
X213233000Y-96469845D01*
X213487000Y-96469845D01*
X213487000Y-97663000D01*
X213507000Y-97663000D01*
X213507000Y-97917000D01*
X213487000Y-97917000D01*
X213487000Y-99110155D01*
X213716890Y-99231476D01*
X213864099Y-99186825D01*
X214126920Y-99061641D01*
X214360269Y-98887588D01*
X214436034Y-98803534D01*
X214460498Y-98884180D01*
X214519463Y-98994494D01*
X214598815Y-99091185D01*
X214695506Y-99170537D01*
X214805820Y-99229502D01*
X214925518Y-99265812D01*
X215050000Y-99278072D01*
X216750000Y-99278072D01*
X216874482Y-99265812D01*
X216994180Y-99229502D01*
X217104494Y-99170537D01*
X217201185Y-99091185D01*
X217280537Y-98994494D01*
X217339502Y-98884180D01*
X217375812Y-98764482D01*
X217388072Y-98640000D01*
X217388072Y-96940000D01*
X217375812Y-96815518D01*
X217339502Y-96695820D01*
X217280537Y-96585506D01*
X217201185Y-96488815D01*
X217104494Y-96409463D01*
X216994180Y-96350498D01*
X216874482Y-96314188D01*
X216750000Y-96301928D01*
X215050000Y-96301928D01*
X214925518Y-96314188D01*
X214805820Y-96350498D01*
X214695506Y-96409463D01*
X214598815Y-96488815D01*
X214519463Y-96585506D01*
X214460498Y-96695820D01*
X214436034Y-96776466D01*
X214360269Y-96692412D01*
X214126920Y-96518359D01*
X213864099Y-96393175D01*
X213716890Y-96348524D01*
X213487000Y-96469845D01*
X213233000Y-96469845D01*
X213003110Y-96348524D01*
X212855901Y-96393175D01*
X212593080Y-96518359D01*
X212359731Y-96692412D01*
X212164822Y-96908645D01*
X212095195Y-97025534D01*
X211973475Y-96843368D01*
X211766632Y-96636525D01*
X211523411Y-96474010D01*
X211253158Y-96362068D01*
X210966260Y-96305000D01*
X210673740Y-96305000D01*
X210386842Y-96362068D01*
X210116589Y-96474010D01*
X209873368Y-96636525D01*
X209666525Y-96843368D01*
X209550000Y-97017760D01*
X209433475Y-96843368D01*
X209226632Y-96636525D01*
X208983411Y-96474010D01*
X208713158Y-96362068D01*
X208426260Y-96305000D01*
X208133740Y-96305000D01*
X207846842Y-96362068D01*
X207576589Y-96474010D01*
X207333368Y-96636525D01*
X207126525Y-96843368D01*
X207010000Y-97017760D01*
X206893475Y-96843368D01*
X206686632Y-96636525D01*
X206443411Y-96474010D01*
X206173158Y-96362068D01*
X205886260Y-96305000D01*
X205593740Y-96305000D01*
X205306842Y-96362068D01*
X205036589Y-96474010D01*
X204793368Y-96636525D01*
X204586525Y-96843368D01*
X204470000Y-97017760D01*
X204353475Y-96843368D01*
X204146632Y-96636525D01*
X203903411Y-96474010D01*
X203633158Y-96362068D01*
X203346260Y-96305000D01*
X203053740Y-96305000D01*
X202766842Y-96362068D01*
X202496589Y-96474010D01*
X202253368Y-96636525D01*
X202046525Y-96843368D01*
X201930000Y-97017760D01*
X201813475Y-96843368D01*
X201606632Y-96636525D01*
X201363411Y-96474010D01*
X201093158Y-96362068D01*
X200806260Y-96305000D01*
X200513740Y-96305000D01*
X200226842Y-96362068D01*
X199956589Y-96474010D01*
X199713368Y-96636525D01*
X199506525Y-96843368D01*
X199390000Y-97017760D01*
X199273475Y-96843368D01*
X199066632Y-96636525D01*
X198823411Y-96474010D01*
X198553158Y-96362068D01*
X198266260Y-96305000D01*
X197973740Y-96305000D01*
X197686842Y-96362068D01*
X197416589Y-96474010D01*
X197173368Y-96636525D01*
X196966525Y-96843368D01*
X196850000Y-97017760D01*
X196733475Y-96843368D01*
X196526632Y-96636525D01*
X196342000Y-96513158D01*
X196342000Y-96454630D01*
X197108351Y-95688279D01*
X197137422Y-95664422D01*
X197190033Y-95600315D01*
X197232645Y-95548393D01*
X197288198Y-95444459D01*
X197303402Y-95416015D01*
X197346974Y-95272378D01*
X197358000Y-95160426D01*
X197358000Y-95160423D01*
X197361686Y-95123000D01*
X197358000Y-95085577D01*
X197358000Y-94980761D01*
X197462604Y-94824210D01*
X197536320Y-94646243D01*
X197573900Y-94457315D01*
X197573900Y-94264685D01*
X197536320Y-94075757D01*
X197462604Y-93897790D01*
X197355585Y-93737625D01*
X197219375Y-93601415D01*
X197059210Y-93494396D01*
X196881243Y-93420680D01*
X196692315Y-93383100D01*
X196618076Y-93383100D01*
X198484976Y-91516200D01*
X215394280Y-91516200D01*
X215436790Y-91544604D01*
X215614757Y-91618320D01*
X215803685Y-91655900D01*
X215996315Y-91655900D01*
X216185243Y-91618320D01*
X216363210Y-91544604D01*
X216523375Y-91437585D01*
X216659585Y-91301375D01*
X216766604Y-91141210D01*
X216840320Y-90963243D01*
X216877900Y-90774315D01*
X216877900Y-90581685D01*
X216840320Y-90392757D01*
X216766604Y-90214790D01*
X216659585Y-90054625D01*
X216523375Y-89918415D01*
X216363210Y-89811396D01*
X216185243Y-89737680D01*
X215996315Y-89700100D01*
X215803685Y-89700100D01*
X215614757Y-89737680D01*
X215436790Y-89811396D01*
X215394280Y-89839800D01*
X202321830Y-89839800D01*
X205589654Y-86571976D01*
X211097500Y-86571976D01*
X211097500Y-86830024D01*
X211147842Y-87083113D01*
X211246593Y-87321518D01*
X211389956Y-87536077D01*
X211572423Y-87718544D01*
X211786982Y-87861907D01*
X212025387Y-87960658D01*
X212278476Y-88011000D01*
X212536524Y-88011000D01*
X212789613Y-87960658D01*
X213028018Y-87861907D01*
X213242577Y-87718544D01*
X213425044Y-87536077D01*
X213568407Y-87321518D01*
X213667158Y-87083113D01*
X213717500Y-86830024D01*
X213717500Y-86571976D01*
X213667158Y-86318887D01*
X213568407Y-86080482D01*
X213425044Y-85865923D01*
X213242577Y-85683456D01*
X213028018Y-85540093D01*
X212789613Y-85441342D01*
X212536524Y-85391000D01*
X212278476Y-85391000D01*
X212025387Y-85441342D01*
X211786982Y-85540093D01*
X211572423Y-85683456D01*
X211389956Y-85865923D01*
X211246593Y-86080482D01*
X211147842Y-86318887D01*
X211097500Y-86571976D01*
X205589654Y-86571976D01*
X207395353Y-84766278D01*
X207424422Y-84742422D01*
X207519645Y-84626392D01*
X207590402Y-84494015D01*
X207633974Y-84350378D01*
X207645000Y-84238426D01*
X207645000Y-84238424D01*
X207648686Y-84201001D01*
X207645000Y-84163578D01*
X207645000Y-82604400D01*
X211683705Y-82604400D01*
X211740130Y-82835621D01*
X211974308Y-82944017D01*
X212225133Y-83004645D01*
X212482965Y-83015174D01*
X212737898Y-82975200D01*
X212980133Y-82886259D01*
X213074870Y-82835621D01*
X213131295Y-82604400D01*
X212407500Y-81880605D01*
X211683705Y-82604400D01*
X207645000Y-82604400D01*
X207645000Y-81776465D01*
X211093326Y-81776465D01*
X211133300Y-82031398D01*
X211222241Y-82273633D01*
X211272879Y-82368370D01*
X211504100Y-82424795D01*
X212227895Y-81701000D01*
X212587105Y-81701000D01*
X213310900Y-82424795D01*
X213542121Y-82368370D01*
X213650517Y-82134192D01*
X213711145Y-81883367D01*
X213721674Y-81625535D01*
X213681700Y-81370602D01*
X213592759Y-81128367D01*
X213542121Y-81033630D01*
X213310900Y-80977205D01*
X212587105Y-81701000D01*
X212227895Y-81701000D01*
X211504100Y-80977205D01*
X211272879Y-81033630D01*
X211164483Y-81267808D01*
X211103855Y-81518633D01*
X211093326Y-81776465D01*
X207645000Y-81776465D01*
X207645000Y-80797600D01*
X211683705Y-80797600D01*
X212407500Y-81521395D01*
X213131295Y-80797600D01*
X213074870Y-80566379D01*
X212840692Y-80457983D01*
X212589867Y-80397355D01*
X212332035Y-80386826D01*
X212077102Y-80426800D01*
X211834867Y-80515741D01*
X211740130Y-80566379D01*
X211683705Y-80797600D01*
X207645000Y-80797600D01*
X207645000Y-70977761D01*
X207749604Y-70821210D01*
X207823320Y-70643243D01*
X207860900Y-70454315D01*
X207860900Y-70261685D01*
X207823320Y-70072757D01*
X207749604Y-69894790D01*
X207642585Y-69734625D01*
X207506375Y-69598415D01*
X207346210Y-69491396D01*
X207168243Y-69417680D01*
X206979315Y-69380100D01*
X206786685Y-69380100D01*
X206597757Y-69417680D01*
X206419790Y-69491396D01*
X206259625Y-69598415D01*
X206123415Y-69734625D01*
X206016396Y-69894790D01*
X205942680Y-70072757D01*
X205905100Y-70261685D01*
X205905100Y-70454315D01*
X205942680Y-70643243D01*
X206016396Y-70821210D01*
X206121001Y-70977762D01*
X206121000Y-83885369D01*
X201106370Y-88900000D01*
X200688141Y-88900000D01*
X200742210Y-88877604D01*
X200902375Y-88770585D01*
X201038585Y-88634375D01*
X201145604Y-88474210D01*
X201219320Y-88296243D01*
X201256900Y-88107315D01*
X201256900Y-87914685D01*
X201219320Y-87725757D01*
X201145604Y-87547790D01*
X201038585Y-87387625D01*
X200902375Y-87251415D01*
X200742210Y-87144396D01*
X200564243Y-87070680D01*
X200375315Y-87033100D01*
X200182685Y-87033100D01*
X199993757Y-87070680D01*
X199815790Y-87144396D01*
X199659239Y-87249000D01*
X192466735Y-87249000D01*
X192470603Y-87243211D01*
X192544319Y-87065244D01*
X192581899Y-86876316D01*
X192581899Y-86683686D01*
X192544319Y-86494758D01*
X192470603Y-86316791D01*
X192414616Y-86233000D01*
X200876577Y-86233000D01*
X200914000Y-86236686D01*
X200951423Y-86233000D01*
X200951426Y-86233000D01*
X201063378Y-86221974D01*
X201207015Y-86178402D01*
X201339392Y-86107645D01*
X201455422Y-86012422D01*
X201479284Y-85983346D01*
X203585353Y-83877278D01*
X203614422Y-83853422D01*
X203709645Y-83737392D01*
X203780402Y-83605015D01*
X203823974Y-83461378D01*
X203835000Y-83349426D01*
X203835000Y-83349424D01*
X203838686Y-83312001D01*
X203835000Y-83274578D01*
X203835000Y-68744423D01*
X203838686Y-68707000D01*
X203831819Y-68637279D01*
X203823974Y-68557622D01*
X203780402Y-68413985D01*
X203727479Y-68314973D01*
X203709645Y-68281607D01*
X203674857Y-68239219D01*
X203614422Y-68165578D01*
X203585346Y-68141716D01*
X200152000Y-64708370D01*
X200152000Y-62490842D01*
X200336632Y-62367475D01*
X200543475Y-62160632D01*
X200660000Y-61986240D01*
X200776525Y-62160632D01*
X200983368Y-62367475D01*
X201226589Y-62529990D01*
X201496842Y-62641932D01*
X201783740Y-62699000D01*
X202076260Y-62699000D01*
X202363158Y-62641932D01*
X202633411Y-62529990D01*
X202876632Y-62367475D01*
X203083475Y-62160632D01*
X203200000Y-61986240D01*
X203316525Y-62160632D01*
X203523368Y-62367475D01*
X203766589Y-62529990D01*
X204036842Y-62641932D01*
X204323740Y-62699000D01*
X204616260Y-62699000D01*
X204903158Y-62641932D01*
X205173411Y-62529990D01*
X205416632Y-62367475D01*
X205623475Y-62160632D01*
X205745195Y-61978466D01*
X205814822Y-62095355D01*
X206009731Y-62311588D01*
X206243080Y-62485641D01*
X206505901Y-62610825D01*
X206653110Y-62655476D01*
X206883000Y-62534155D01*
X206883000Y-61341000D01*
X206863000Y-61341000D01*
X206863000Y-61087000D01*
X206883000Y-61087000D01*
X206883000Y-59893845D01*
X207137000Y-59893845D01*
X207137000Y-61087000D01*
X207157000Y-61087000D01*
X207157000Y-61341000D01*
X207137000Y-61341000D01*
X207137000Y-62534155D01*
X207366890Y-62655476D01*
X207514099Y-62610825D01*
X207776920Y-62485641D01*
X208010269Y-62311588D01*
X208205178Y-62095355D01*
X208274805Y-61978466D01*
X208396525Y-62160632D01*
X208603368Y-62367475D01*
X208788000Y-62490842D01*
X208788001Y-66764567D01*
X208784314Y-66802000D01*
X208799027Y-66951378D01*
X208842599Y-67095015D01*
X208913355Y-67227392D01*
X208955510Y-67278757D01*
X209008579Y-67343422D01*
X209037649Y-67367279D01*
X209334948Y-67664578D01*
X209371680Y-67849243D01*
X209445396Y-68027210D01*
X209552415Y-68187375D01*
X209688625Y-68323585D01*
X209848790Y-68430604D01*
X210026757Y-68504320D01*
X210215685Y-68541900D01*
X210408315Y-68541900D01*
X210597243Y-68504320D01*
X210775210Y-68430604D01*
X210935375Y-68323585D01*
X211071585Y-68187375D01*
X211178604Y-68027210D01*
X211252320Y-67849243D01*
X211289900Y-67660315D01*
X211289900Y-67467685D01*
X211252320Y-67278757D01*
X211178604Y-67100790D01*
X211071585Y-66940625D01*
X210935375Y-66804415D01*
X210775210Y-66697396D01*
X210597243Y-66623680D01*
X210412578Y-66586948D01*
X210312000Y-66486370D01*
X210312000Y-62490842D01*
X210496632Y-62367475D01*
X210703475Y-62160632D01*
X210865990Y-61917411D01*
X210977932Y-61647158D01*
X211035000Y-61360260D01*
X211035000Y-61067740D01*
X210977932Y-60780842D01*
X210865990Y-60510589D01*
X210703475Y-60267368D01*
X210496632Y-60060525D01*
X210253411Y-59898010D01*
X209983158Y-59786068D01*
X209696260Y-59729000D01*
X209403740Y-59729000D01*
X209116842Y-59786068D01*
X208846589Y-59898010D01*
X208603368Y-60060525D01*
X208396525Y-60267368D01*
X208274805Y-60449534D01*
X208205178Y-60332645D01*
X208010269Y-60116412D01*
X207776920Y-59942359D01*
X207514099Y-59817175D01*
X207366890Y-59772524D01*
X207137000Y-59893845D01*
X206883000Y-59893845D01*
X206653110Y-59772524D01*
X206505901Y-59817175D01*
X206243080Y-59942359D01*
X206009731Y-60116412D01*
X205814822Y-60332645D01*
X205745195Y-60449534D01*
X205623475Y-60267368D01*
X205416632Y-60060525D01*
X205173411Y-59898010D01*
X204903158Y-59786068D01*
X204616260Y-59729000D01*
X204323740Y-59729000D01*
X204036842Y-59786068D01*
X203766589Y-59898010D01*
X203523368Y-60060525D01*
X203316525Y-60267368D01*
X203200000Y-60441760D01*
X203083475Y-60267368D01*
X202876632Y-60060525D01*
X202633411Y-59898010D01*
X202363158Y-59786068D01*
X202076260Y-59729000D01*
X201783740Y-59729000D01*
X201496842Y-59786068D01*
X201226589Y-59898010D01*
X200983368Y-60060525D01*
X200776525Y-60267368D01*
X200660000Y-60441760D01*
X200543475Y-60267368D01*
X200336632Y-60060525D01*
X200093411Y-59898010D01*
X199823158Y-59786068D01*
X199536260Y-59729000D01*
X199243740Y-59729000D01*
X198956842Y-59786068D01*
X198686589Y-59898010D01*
X198443368Y-60060525D01*
X198236525Y-60267368D01*
X198120000Y-60441760D01*
X198003475Y-60267368D01*
X197796632Y-60060525D01*
X197553411Y-59898010D01*
X197283158Y-59786068D01*
X196996260Y-59729000D01*
X196703740Y-59729000D01*
X196416842Y-59786068D01*
X196146589Y-59898010D01*
X195903368Y-60060525D01*
X195771513Y-60192380D01*
X195749502Y-60119820D01*
X195690537Y-60009506D01*
X195611185Y-59912815D01*
X195514494Y-59833463D01*
X195404180Y-59774498D01*
X195284482Y-59738188D01*
X195160000Y-59725928D01*
X193460000Y-59725928D01*
X193335518Y-59738188D01*
X193215820Y-59774498D01*
X193105506Y-59833463D01*
X193008815Y-59912815D01*
X192929463Y-60009506D01*
X192870498Y-60119820D01*
X192834188Y-60239518D01*
X192821928Y-60364000D01*
X192821928Y-62064000D01*
X192834188Y-62188482D01*
X192870498Y-62308180D01*
X192929463Y-62418494D01*
X193008815Y-62515185D01*
X193105506Y-62594537D01*
X193215820Y-62653502D01*
X193335518Y-62689812D01*
X193460000Y-62702072D01*
X193548001Y-62702072D01*
X193548000Y-63896239D01*
X193443396Y-64052790D01*
X193369680Y-64230757D01*
X193332100Y-64419685D01*
X193332100Y-64612315D01*
X193369680Y-64801243D01*
X193443396Y-64979210D01*
X193550415Y-65139375D01*
X193686625Y-65275585D01*
X193785274Y-65341500D01*
X193690239Y-65405000D01*
X171733631Y-65405000D01*
X170246006Y-63917375D01*
X170251168Y-63904912D01*
X170314000Y-63589033D01*
X170314000Y-63266967D01*
X180229000Y-63266967D01*
X180229000Y-63589033D01*
X180291832Y-63904912D01*
X180415082Y-64202463D01*
X180594013Y-64470252D01*
X180821748Y-64697987D01*
X181089537Y-64876918D01*
X181387088Y-65000168D01*
X181702967Y-65063000D01*
X182025033Y-65063000D01*
X182340912Y-65000168D01*
X182638463Y-64876918D01*
X182906252Y-64697987D01*
X183133987Y-64470252D01*
X183312918Y-64202463D01*
X183318080Y-64190000D01*
X186909920Y-64190000D01*
X186915082Y-64202463D01*
X187094013Y-64470252D01*
X187321748Y-64697987D01*
X187589537Y-64876918D01*
X187887088Y-65000168D01*
X188202967Y-65063000D01*
X188525033Y-65063000D01*
X188840912Y-65000168D01*
X189138463Y-64876918D01*
X189406252Y-64697987D01*
X189633987Y-64470252D01*
X189812918Y-64202463D01*
X189936168Y-63904912D01*
X189999000Y-63589033D01*
X189999000Y-63266967D01*
X189936168Y-62951088D01*
X189812918Y-62653537D01*
X189633987Y-62385748D01*
X189406252Y-62158013D01*
X189138463Y-61979082D01*
X188840912Y-61855832D01*
X188525033Y-61793000D01*
X188202967Y-61793000D01*
X187887088Y-61855832D01*
X187589537Y-61979082D01*
X187321748Y-62158013D01*
X187094013Y-62385748D01*
X186915082Y-62653537D01*
X186909920Y-62666000D01*
X183318080Y-62666000D01*
X183312918Y-62653537D01*
X183133987Y-62385748D01*
X182906252Y-62158013D01*
X182638463Y-61979082D01*
X182340912Y-61855832D01*
X182025033Y-61793000D01*
X181702967Y-61793000D01*
X181387088Y-61855832D01*
X181089537Y-61979082D01*
X180821748Y-62158013D01*
X180594013Y-62385748D01*
X180415082Y-62653537D01*
X180291832Y-62951088D01*
X180229000Y-63266967D01*
X170314000Y-63266967D01*
X170251168Y-62951088D01*
X170127918Y-62653537D01*
X169948987Y-62385748D01*
X169721252Y-62158013D01*
X169453463Y-61979082D01*
X169155912Y-61855832D01*
X168840033Y-61793000D01*
X168517967Y-61793000D01*
X168202088Y-61855832D01*
X167904537Y-61979082D01*
X167636748Y-62158013D01*
X167409013Y-62385748D01*
X167230082Y-62653537D01*
X167224920Y-62666000D01*
X163633080Y-62666000D01*
X163627918Y-62653537D01*
X163448987Y-62385748D01*
X163221252Y-62158013D01*
X162953463Y-61979082D01*
X162655912Y-61855832D01*
X162340033Y-61793000D01*
X162017967Y-61793000D01*
X161702088Y-61855832D01*
X161404537Y-61979082D01*
X161136748Y-62158013D01*
X160909013Y-62385748D01*
X160730082Y-62653537D01*
X160606832Y-62951088D01*
X160544000Y-63266967D01*
X160544000Y-63589033D01*
X160606832Y-63904912D01*
X160730082Y-64202463D01*
X160909013Y-64470252D01*
X161136748Y-64697987D01*
X161404537Y-64876918D01*
X161417001Y-64882081D01*
X161417001Y-66486370D01*
X157607000Y-62676370D01*
X157607000Y-60797072D01*
X157695000Y-60797072D01*
X157819482Y-60784812D01*
X157939180Y-60748502D01*
X158049494Y-60689537D01*
X158146185Y-60610185D01*
X158225537Y-60513494D01*
X158284502Y-60403180D01*
X158320812Y-60283482D01*
X158333072Y-60159000D01*
X158333072Y-60063413D01*
X161223192Y-60063413D01*
X161318956Y-60327814D01*
X161608571Y-60468704D01*
X161920108Y-60550384D01*
X162241595Y-60569718D01*
X162560675Y-60525961D01*
X162865088Y-60420795D01*
X163039044Y-60327814D01*
X163134808Y-60063413D01*
X167723192Y-60063413D01*
X167818956Y-60327814D01*
X168108571Y-60468704D01*
X168420108Y-60550384D01*
X168741595Y-60569718D01*
X169060675Y-60525961D01*
X169365088Y-60420795D01*
X169539044Y-60327814D01*
X169634808Y-60063413D01*
X180908192Y-60063413D01*
X181003956Y-60327814D01*
X181293571Y-60468704D01*
X181605108Y-60550384D01*
X181926595Y-60569718D01*
X182245675Y-60525961D01*
X182550088Y-60420795D01*
X182724044Y-60327814D01*
X182819808Y-60063413D01*
X187408192Y-60063413D01*
X187503956Y-60327814D01*
X187793571Y-60468704D01*
X188105108Y-60550384D01*
X188426595Y-60569718D01*
X188745675Y-60525961D01*
X189050088Y-60420795D01*
X189224044Y-60327814D01*
X189319808Y-60063413D01*
X188364000Y-59107605D01*
X187408192Y-60063413D01*
X182819808Y-60063413D01*
X181864000Y-59107605D01*
X180908192Y-60063413D01*
X169634808Y-60063413D01*
X168679000Y-59107605D01*
X167723192Y-60063413D01*
X163134808Y-60063413D01*
X162179000Y-59107605D01*
X161223192Y-60063413D01*
X158333072Y-60063413D01*
X158333072Y-58459000D01*
X158320812Y-58334518D01*
X158284502Y-58214820D01*
X158225537Y-58104506D01*
X158146185Y-58007815D01*
X158049494Y-57928463D01*
X157939180Y-57869498D01*
X157819482Y-57833188D01*
X157695000Y-57820928D01*
X155995000Y-57820928D01*
X155870518Y-57833188D01*
X155750820Y-57869498D01*
X155640506Y-57928463D01*
X155543815Y-58007815D01*
X155464463Y-58104506D01*
X155405498Y-58214820D01*
X155383487Y-58287380D01*
X155251632Y-58155525D01*
X155008411Y-57993010D01*
X154738158Y-57881068D01*
X154451260Y-57824000D01*
X154158740Y-57824000D01*
X153871842Y-57881068D01*
X153601589Y-57993010D01*
X153358368Y-58155525D01*
X153151525Y-58362368D01*
X152989010Y-58605589D01*
X152877068Y-58875842D01*
X152820000Y-59162740D01*
X152820000Y-59455260D01*
X152877068Y-59742158D01*
X152989010Y-60012411D01*
X153151525Y-60255632D01*
X153358368Y-60462475D01*
X153543001Y-60585842D01*
X153543000Y-62192577D01*
X153539314Y-62230000D01*
X153543000Y-62267423D01*
X153543000Y-62267425D01*
X153554026Y-62379377D01*
X153597321Y-62522100D01*
X153573685Y-62522100D01*
X153384757Y-62559680D01*
X153206790Y-62633396D01*
X153046625Y-62740415D01*
X152910415Y-62876625D01*
X152803396Y-63036790D01*
X152729680Y-63214757D01*
X152692100Y-63403685D01*
X152692100Y-63596315D01*
X152729680Y-63785243D01*
X152803396Y-63963210D01*
X152908000Y-64119761D01*
X152908001Y-75019567D01*
X152904314Y-75057000D01*
X152919027Y-75206378D01*
X152962599Y-75350015D01*
X153033355Y-75482392D01*
X153076355Y-75534787D01*
X153128579Y-75598422D01*
X153157649Y-75622279D01*
X157226000Y-79690631D01*
X157226001Y-85687567D01*
X157222314Y-85725000D01*
X157237027Y-85874378D01*
X157280599Y-86018015D01*
X157351355Y-86150392D01*
X157412876Y-86225355D01*
X157446579Y-86266422D01*
X157475649Y-86290279D01*
X158026948Y-86841579D01*
X158063680Y-87026243D01*
X158137396Y-87204210D01*
X158167324Y-87249000D01*
X154035761Y-87249000D01*
X153879210Y-87144396D01*
X153701243Y-87070680D01*
X153512315Y-87033100D01*
X153319685Y-87033100D01*
X153130757Y-87070680D01*
X152952790Y-87144396D01*
X152792625Y-87251415D01*
X152656415Y-87387625D01*
X152549396Y-87547790D01*
X152475680Y-87725757D01*
X152438100Y-87914685D01*
X152438100Y-88107315D01*
X152475680Y-88296243D01*
X152549396Y-88474210D01*
X152656415Y-88634375D01*
X152792625Y-88770585D01*
X152952790Y-88877604D01*
X153130757Y-88951320D01*
X153319685Y-88988900D01*
X153512315Y-88988900D01*
X153701243Y-88951320D01*
X153879210Y-88877604D01*
X154035761Y-88773000D01*
X159527239Y-88773000D01*
X159683790Y-88877604D01*
X159861757Y-88951320D01*
X160050685Y-88988900D01*
X160243315Y-88988900D01*
X160432243Y-88951320D01*
X160610210Y-88877604D01*
X160770375Y-88770585D01*
X160906585Y-88634375D01*
X161013604Y-88474210D01*
X161087320Y-88296243D01*
X161124900Y-88107315D01*
X161124900Y-87914685D01*
X161087320Y-87725757D01*
X161013604Y-87547790D01*
X160906585Y-87387625D01*
X160770375Y-87251415D01*
X160610210Y-87144396D01*
X160432243Y-87070680D01*
X160243315Y-87033100D01*
X160050685Y-87033100D01*
X159931674Y-87056773D01*
X159944320Y-87026243D01*
X159981900Y-86837315D01*
X159981900Y-86644685D01*
X159944320Y-86455757D01*
X159931674Y-86425227D01*
X160050685Y-86448900D01*
X160243315Y-86448900D01*
X160432243Y-86411320D01*
X160610210Y-86337604D01*
X160770375Y-86230585D01*
X160906585Y-86094375D01*
X161013604Y-85934210D01*
X161087320Y-85756243D01*
X161124900Y-85567315D01*
X161124900Y-85374685D01*
X161087320Y-85185757D01*
X161074674Y-85155227D01*
X161193685Y-85178900D01*
X161386315Y-85178900D01*
X161575243Y-85141320D01*
X161753210Y-85067604D01*
X161913375Y-84960585D01*
X162049585Y-84824375D01*
X162156604Y-84664210D01*
X162230320Y-84486243D01*
X162267900Y-84297315D01*
X162267900Y-84289900D01*
X162275315Y-84289900D01*
X162464243Y-84252320D01*
X162642210Y-84178604D01*
X162802375Y-84071585D01*
X162938585Y-83935375D01*
X163045604Y-83775210D01*
X163119320Y-83597243D01*
X163156900Y-83408315D01*
X163156900Y-83215685D01*
X163119320Y-83026757D01*
X163045604Y-82848790D01*
X162941000Y-82692239D01*
X162941000Y-81437685D01*
X185204100Y-81437685D01*
X185204100Y-81630315D01*
X185241680Y-81819243D01*
X185315396Y-81997210D01*
X185422415Y-82157375D01*
X185558625Y-82293585D01*
X185718790Y-82400604D01*
X185896757Y-82474320D01*
X186085685Y-82511900D01*
X186278315Y-82511900D01*
X186467243Y-82474320D01*
X186645210Y-82400604D01*
X186805375Y-82293585D01*
X186941585Y-82157375D01*
X187035648Y-82016600D01*
X193917640Y-82016600D01*
X193940625Y-82039585D01*
X194100790Y-82146604D01*
X194278757Y-82220320D01*
X194467685Y-82257900D01*
X194660315Y-82257900D01*
X194849243Y-82220320D01*
X195027210Y-82146604D01*
X195187375Y-82039585D01*
X195323585Y-81903375D01*
X195430604Y-81743210D01*
X195504320Y-81565243D01*
X195541900Y-81376315D01*
X195541900Y-81183685D01*
X195504320Y-80994757D01*
X195430604Y-80816790D01*
X195323585Y-80656625D01*
X195187375Y-80520415D01*
X195027210Y-80413396D01*
X194849243Y-80339680D01*
X194660315Y-80302100D01*
X194467685Y-80302100D01*
X194278757Y-80339680D01*
X194100790Y-80413396D01*
X193940625Y-80520415D01*
X193917640Y-80543400D01*
X186472175Y-80543400D01*
X186435999Y-80539837D01*
X186399823Y-80543400D01*
X186399814Y-80543400D01*
X186291601Y-80554058D01*
X186282274Y-80556887D01*
X186278315Y-80556100D01*
X186085685Y-80556100D01*
X185896757Y-80593680D01*
X185718790Y-80667396D01*
X185558625Y-80774415D01*
X185422415Y-80910625D01*
X185315396Y-81070790D01*
X185241680Y-81248757D01*
X185204100Y-81437685D01*
X162941000Y-81437685D01*
X162941000Y-79883000D01*
X187706000Y-79883000D01*
X187730776Y-79880560D01*
X187754601Y-79873333D01*
X187776557Y-79861597D01*
X187795803Y-79845803D01*
X187811597Y-79826557D01*
X187823333Y-79804601D01*
X187830560Y-79780776D01*
X187833000Y-79756000D01*
X187833000Y-73544656D01*
X187928757Y-73584320D01*
X188117685Y-73621900D01*
X188310315Y-73621900D01*
X188499243Y-73584320D01*
X188677210Y-73510604D01*
X188837375Y-73403585D01*
X188860360Y-73380600D01*
X191504640Y-73380600D01*
X191527625Y-73403585D01*
X191687790Y-73510604D01*
X191865757Y-73584320D01*
X192054685Y-73621900D01*
X192247315Y-73621900D01*
X192436243Y-73584320D01*
X192614210Y-73510604D01*
X192774375Y-73403585D01*
X192910585Y-73267375D01*
X193017604Y-73107210D01*
X193091320Y-72929243D01*
X193128900Y-72740315D01*
X193128900Y-72547685D01*
X193091320Y-72358757D01*
X193017604Y-72180790D01*
X192910585Y-72020625D01*
X192774375Y-71884415D01*
X192614210Y-71777396D01*
X192436243Y-71703680D01*
X192247315Y-71666100D01*
X192054685Y-71666100D01*
X191865757Y-71703680D01*
X191687790Y-71777396D01*
X191527625Y-71884415D01*
X191504640Y-71907400D01*
X188860360Y-71907400D01*
X188837375Y-71884415D01*
X188677210Y-71777396D01*
X188499243Y-71703680D01*
X188310315Y-71666100D01*
X188117685Y-71666100D01*
X187928757Y-71703680D01*
X187833000Y-71743344D01*
X187833000Y-66929000D01*
X193690239Y-66929000D01*
X193846790Y-67033604D01*
X194024757Y-67107320D01*
X194213685Y-67144900D01*
X194406315Y-67144900D01*
X194595243Y-67107320D01*
X194773210Y-67033604D01*
X194933375Y-66926585D01*
X195069585Y-66790375D01*
X195176604Y-66630210D01*
X195250320Y-66452243D01*
X195287900Y-66263315D01*
X195287900Y-66070685D01*
X195250320Y-65881757D01*
X195176604Y-65703790D01*
X195069585Y-65543625D01*
X194933375Y-65407415D01*
X194834726Y-65341500D01*
X194933375Y-65275585D01*
X195069585Y-65139375D01*
X195176604Y-64979210D01*
X195250320Y-64801243D01*
X195287900Y-64612315D01*
X195287900Y-64419685D01*
X195250320Y-64230757D01*
X195176604Y-64052790D01*
X195072000Y-63896239D01*
X195072000Y-62702072D01*
X195160000Y-62702072D01*
X195284482Y-62689812D01*
X195404180Y-62653502D01*
X195514494Y-62594537D01*
X195611185Y-62515185D01*
X195690537Y-62418494D01*
X195749502Y-62308180D01*
X195771513Y-62235620D01*
X195903368Y-62367475D01*
X196088001Y-62490843D01*
X196088000Y-65367577D01*
X196084314Y-65405000D01*
X196088000Y-65442423D01*
X196088000Y-65442425D01*
X196099026Y-65554377D01*
X196142598Y-65698014D01*
X196172959Y-65754815D01*
X196213355Y-65830392D01*
X196230683Y-65851506D01*
X196308578Y-65946422D01*
X196337654Y-65970284D01*
X201295001Y-70927632D01*
X201295000Y-82742369D01*
X200344370Y-83693000D01*
X200107796Y-83693000D01*
X200113900Y-83662315D01*
X200113900Y-83469685D01*
X200076320Y-83280757D01*
X200002604Y-83102790D01*
X199895585Y-82942625D01*
X199759375Y-82806415D01*
X199599210Y-82699396D01*
X199421243Y-82625680D01*
X199232315Y-82588100D01*
X199039685Y-82588100D01*
X198850757Y-82625680D01*
X198672790Y-82699396D01*
X198512625Y-82806415D01*
X198489640Y-82829400D01*
X198081900Y-82829400D01*
X198081900Y-82707685D01*
X198044320Y-82518757D01*
X197970604Y-82340790D01*
X197863585Y-82180625D01*
X197840600Y-82157640D01*
X197840600Y-76592360D01*
X197863585Y-76569375D01*
X197970604Y-76409210D01*
X198044320Y-76231243D01*
X198081900Y-76042315D01*
X198081900Y-75849685D01*
X198044320Y-75660757D01*
X197970604Y-75482790D01*
X197863585Y-75322625D01*
X197727375Y-75186415D01*
X197567210Y-75079396D01*
X197389243Y-75005680D01*
X197200315Y-74968100D01*
X197007685Y-74968100D01*
X196818757Y-75005680D01*
X196640790Y-75079396D01*
X196480625Y-75186415D01*
X196344415Y-75322625D01*
X196237396Y-75482790D01*
X196163680Y-75660757D01*
X196126100Y-75849685D01*
X196126100Y-76042315D01*
X196163680Y-76231243D01*
X196237396Y-76409210D01*
X196344415Y-76569375D01*
X196367401Y-76592361D01*
X196367400Y-82157640D01*
X196344415Y-82180625D01*
X196237396Y-82340790D01*
X196163680Y-82518757D01*
X196126100Y-82707685D01*
X196126100Y-82829400D01*
X190892360Y-82829400D01*
X190869375Y-82806415D01*
X190709210Y-82699396D01*
X190531243Y-82625680D01*
X190342315Y-82588100D01*
X190149685Y-82588100D01*
X189960757Y-82625680D01*
X189782790Y-82699396D01*
X189622625Y-82806415D01*
X189486415Y-82942625D01*
X189379396Y-83102790D01*
X189305680Y-83280757D01*
X189274073Y-83439655D01*
X189267426Y-83439000D01*
X189267423Y-83439000D01*
X189230000Y-83435314D01*
X189192577Y-83439000D01*
X186039761Y-83439000D01*
X185883210Y-83334396D01*
X185705243Y-83260680D01*
X185516315Y-83223100D01*
X185323685Y-83223100D01*
X185134757Y-83260680D01*
X184956790Y-83334396D01*
X184796625Y-83441415D01*
X184660415Y-83577625D01*
X184553396Y-83737790D01*
X184479680Y-83915757D01*
X184442100Y-84104685D01*
X184442100Y-84297315D01*
X184479680Y-84486243D01*
X184553396Y-84664210D01*
X184660415Y-84824375D01*
X184672040Y-84836000D01*
X184660415Y-84847625D01*
X184553396Y-85007790D01*
X184479680Y-85185757D01*
X184442100Y-85374685D01*
X184442100Y-85567315D01*
X184479680Y-85756243D01*
X184553396Y-85934210D01*
X184660415Y-86094375D01*
X184796625Y-86230585D01*
X184956790Y-86337604D01*
X185134757Y-86411320D01*
X185323685Y-86448900D01*
X185516315Y-86448900D01*
X185705243Y-86411320D01*
X185883210Y-86337604D01*
X186039761Y-86233000D01*
X190793382Y-86233000D01*
X190737395Y-86316791D01*
X190663679Y-86494758D01*
X190626099Y-86683686D01*
X190626099Y-86876316D01*
X190663679Y-87065244D01*
X190737395Y-87243211D01*
X190741263Y-87249000D01*
X179361423Y-87249000D01*
X179324000Y-87245314D01*
X179286577Y-87249000D01*
X179286574Y-87249000D01*
X179174622Y-87260026D01*
X179030985Y-87303598D01*
X178997459Y-87321518D01*
X178898607Y-87374355D01*
X178815904Y-87442228D01*
X178782578Y-87469578D01*
X178758721Y-87498648D01*
X174055370Y-92202000D01*
X163179761Y-92202000D01*
X163023210Y-92097396D01*
X162845243Y-92023680D01*
X162656315Y-91986100D01*
X162463685Y-91986100D01*
X162274757Y-92023680D01*
X162096790Y-92097396D01*
X161936625Y-92204415D01*
X161800415Y-92340625D01*
X161693396Y-92500790D01*
X161619680Y-92678757D01*
X161582100Y-92867685D01*
X161582100Y-93060315D01*
X161619680Y-93249243D01*
X161693396Y-93427210D01*
X161800415Y-93587375D01*
X161812040Y-93599000D01*
X154035761Y-93599000D01*
X153879210Y-93494396D01*
X153701243Y-93420680D01*
X153512315Y-93383100D01*
X153319685Y-93383100D01*
X153130757Y-93420680D01*
X152952790Y-93494396D01*
X152792625Y-93601415D01*
X152656415Y-93737625D01*
X152549396Y-93897790D01*
X152475680Y-94075757D01*
X152438100Y-94264685D01*
X152438100Y-94457315D01*
X152475680Y-94646243D01*
X152549396Y-94824210D01*
X152656415Y-94984375D01*
X152792625Y-95120585D01*
X152952790Y-95227604D01*
X153130757Y-95301320D01*
X153319685Y-95338900D01*
X153512315Y-95338900D01*
X153701243Y-95301320D01*
X153879210Y-95227604D01*
X154035761Y-95123000D01*
X160389344Y-95123000D01*
X160349680Y-95218757D01*
X160331940Y-95307940D01*
X160242757Y-95325680D01*
X160064790Y-95399396D01*
X159908239Y-95504000D01*
X153273761Y-95504000D01*
X153117210Y-95399396D01*
X152939243Y-95325680D01*
X152750315Y-95288100D01*
X152557685Y-95288100D01*
X152368757Y-95325680D01*
X152190790Y-95399396D01*
X152030625Y-95506415D01*
X151894415Y-95642625D01*
X151787396Y-95802790D01*
X151713680Y-95980757D01*
X151676100Y-96169685D01*
X151676100Y-96362315D01*
X151713680Y-96551243D01*
X151787396Y-96729210D01*
X151894415Y-96889375D01*
X152030625Y-97025585D01*
X152190790Y-97132604D01*
X152368757Y-97206320D01*
X152557685Y-97243900D01*
X152750315Y-97243900D01*
X152939243Y-97206320D01*
X153117210Y-97132604D01*
X153273761Y-97028000D01*
X159908239Y-97028000D01*
X160064790Y-97132604D01*
X160242757Y-97206320D01*
X160431685Y-97243900D01*
X160528000Y-97243900D01*
X160528001Y-101030368D01*
X156871422Y-104686948D01*
X156686757Y-104723680D01*
X156508790Y-104797396D01*
X156348625Y-104904415D01*
X156212415Y-105040625D01*
X156105396Y-105200790D01*
X156031680Y-105378757D01*
X155994100Y-105567685D01*
X155994100Y-105760315D01*
X156031680Y-105949243D01*
X156105396Y-106127210D01*
X156212415Y-106287375D01*
X156348625Y-106423585D01*
X156382290Y-106446079D01*
X155189649Y-107638721D01*
X155160579Y-107662578D01*
X155136722Y-107691648D01*
X155136721Y-107691649D01*
X155065355Y-107778608D01*
X154994599Y-107910985D01*
X154951027Y-108054622D01*
X154936314Y-108204000D01*
X154940001Y-108241433D01*
X154940000Y-117032369D01*
X153354370Y-118618000D01*
X151136842Y-118618000D01*
X151013475Y-118433368D01*
X150806632Y-118226525D01*
X150632240Y-118110000D01*
X150806632Y-117993475D01*
X151013475Y-117786632D01*
X151175990Y-117543411D01*
X151287932Y-117273158D01*
X151345000Y-116986260D01*
X151345000Y-116693740D01*
X151287932Y-116406842D01*
X151175990Y-116136589D01*
X151013475Y-115893368D01*
X150806632Y-115686525D01*
X150563411Y-115524010D01*
X150293158Y-115412068D01*
X150006260Y-115355000D01*
X149713740Y-115355000D01*
X149426842Y-115412068D01*
X149156589Y-115524010D01*
X148913368Y-115686525D01*
X148706525Y-115893368D01*
X148544010Y-116136589D01*
X148432068Y-116406842D01*
X148375000Y-116693740D01*
X148375000Y-116986260D01*
X148432068Y-117273158D01*
X148544010Y-117543411D01*
X148706525Y-117786632D01*
X148913368Y-117993475D01*
X149087760Y-118110000D01*
X148913368Y-118226525D01*
X148706525Y-118433368D01*
X148544010Y-118676589D01*
X148432068Y-118946842D01*
X148375000Y-119233740D01*
X148375000Y-119526260D01*
X148432068Y-119813158D01*
X148544010Y-120083411D01*
X148706525Y-120326632D01*
X148838380Y-120458487D01*
X148765820Y-120480498D01*
X148655506Y-120539463D01*
X148558815Y-120618815D01*
X148479463Y-120715506D01*
X148420498Y-120825820D01*
X148384188Y-120945518D01*
X148371928Y-121070000D01*
X127660000Y-121070000D01*
X127660000Y-120777000D01*
X134620000Y-120777000D01*
X134644776Y-120774560D01*
X134668601Y-120767333D01*
X134690557Y-120755597D01*
X134709803Y-120739803D01*
X134725597Y-120720557D01*
X134737333Y-120698601D01*
X134744560Y-120674776D01*
X134747000Y-120650000D01*
X134747000Y-113030000D01*
X134744560Y-113005224D01*
X134737333Y-112981399D01*
X134725597Y-112959443D01*
X134709803Y-112940197D01*
X134690557Y-112924403D01*
X134668601Y-112912667D01*
X134644776Y-112905440D01*
X134620000Y-112903000D01*
X127660000Y-112903000D01*
X127660000Y-107337967D01*
X130896000Y-107337967D01*
X130896000Y-107660033D01*
X130958832Y-107975912D01*
X131082082Y-108273463D01*
X131261013Y-108541252D01*
X131488748Y-108768987D01*
X131756537Y-108947918D01*
X132054088Y-109071168D01*
X132369967Y-109134000D01*
X132692033Y-109134000D01*
X133007912Y-109071168D01*
X133305463Y-108947918D01*
X133573252Y-108768987D01*
X133800987Y-108541252D01*
X133979918Y-108273463D01*
X134103168Y-107975912D01*
X134166000Y-107660033D01*
X134166000Y-107337967D01*
X137614000Y-107337967D01*
X137614000Y-107660033D01*
X137676832Y-107975912D01*
X137800082Y-108273463D01*
X137979013Y-108541252D01*
X138206748Y-108768987D01*
X138474537Y-108947918D01*
X138772088Y-109071168D01*
X139087967Y-109134000D01*
X139410033Y-109134000D01*
X139725912Y-109071168D01*
X140023463Y-108947918D01*
X140291252Y-108768987D01*
X140518987Y-108541252D01*
X140697918Y-108273463D01*
X140821168Y-107975912D01*
X140884000Y-107660033D01*
X140884000Y-107337967D01*
X140821168Y-107022088D01*
X140697918Y-106724537D01*
X140518987Y-106456748D01*
X140291252Y-106229013D01*
X140023463Y-106050082D01*
X139725912Y-105926832D01*
X139410033Y-105864000D01*
X139087967Y-105864000D01*
X138772088Y-105926832D01*
X138474537Y-106050082D01*
X138206748Y-106229013D01*
X137979013Y-106456748D01*
X137800082Y-106724537D01*
X137676832Y-107022088D01*
X137614000Y-107337967D01*
X134166000Y-107337967D01*
X134103168Y-107022088D01*
X133979918Y-106724537D01*
X133800987Y-106456748D01*
X133573252Y-106229013D01*
X133305463Y-106050082D01*
X133007912Y-105926832D01*
X132692033Y-105864000D01*
X132369967Y-105864000D01*
X132054088Y-105926832D01*
X131756537Y-106050082D01*
X131488748Y-106229013D01*
X131261013Y-106456748D01*
X131082082Y-106724537D01*
X130958832Y-107022088D01*
X130896000Y-107337967D01*
X127660000Y-107337967D01*
X127660000Y-103978967D01*
X129505000Y-103978967D01*
X129505000Y-104301033D01*
X129567832Y-104616912D01*
X129691082Y-104914463D01*
X129870013Y-105182252D01*
X130097748Y-105409987D01*
X130365537Y-105588918D01*
X130663088Y-105712168D01*
X130978967Y-105775000D01*
X131301033Y-105775000D01*
X131616912Y-105712168D01*
X131914463Y-105588918D01*
X132182252Y-105409987D01*
X132409987Y-105182252D01*
X132588918Y-104914463D01*
X132712168Y-104616912D01*
X132775000Y-104301033D01*
X132775000Y-103978967D01*
X139005000Y-103978967D01*
X139005000Y-104301033D01*
X139067832Y-104616912D01*
X139191082Y-104914463D01*
X139370013Y-105182252D01*
X139597748Y-105409987D01*
X139865537Y-105588918D01*
X140163088Y-105712168D01*
X140478967Y-105775000D01*
X140801033Y-105775000D01*
X141116912Y-105712168D01*
X141414463Y-105588918D01*
X141682252Y-105409987D01*
X141909987Y-105182252D01*
X142088918Y-104914463D01*
X142212168Y-104616912D01*
X142275000Y-104301033D01*
X142275000Y-103978967D01*
X142212168Y-103663088D01*
X142088918Y-103365537D01*
X141909987Y-103097748D01*
X141682252Y-102870013D01*
X141414463Y-102691082D01*
X141116912Y-102567832D01*
X140801033Y-102505000D01*
X140478967Y-102505000D01*
X140163088Y-102567832D01*
X139865537Y-102691082D01*
X139597748Y-102870013D01*
X139370013Y-103097748D01*
X139191082Y-103365537D01*
X139067832Y-103663088D01*
X139005000Y-103978967D01*
X132775000Y-103978967D01*
X132712168Y-103663088D01*
X132588918Y-103365537D01*
X132409987Y-103097748D01*
X132182252Y-102870013D01*
X131914463Y-102691082D01*
X131616912Y-102567832D01*
X131301033Y-102505000D01*
X130978967Y-102505000D01*
X130663088Y-102567832D01*
X130365537Y-102691082D01*
X130097748Y-102870013D01*
X129870013Y-103097748D01*
X129691082Y-103365537D01*
X129567832Y-103663088D01*
X129505000Y-103978967D01*
X127660000Y-103978967D01*
X127660000Y-100619967D01*
X130896000Y-100619967D01*
X130896000Y-100942033D01*
X130958832Y-101257912D01*
X131082082Y-101555463D01*
X131261013Y-101823252D01*
X131488748Y-102050987D01*
X131756537Y-102229918D01*
X132054088Y-102353168D01*
X132369967Y-102416000D01*
X132692033Y-102416000D01*
X133007912Y-102353168D01*
X133305463Y-102229918D01*
X133573252Y-102050987D01*
X133800987Y-101823252D01*
X133979918Y-101555463D01*
X134103168Y-101257912D01*
X134166000Y-100942033D01*
X134166000Y-100619967D01*
X137614000Y-100619967D01*
X137614000Y-100942033D01*
X137676832Y-101257912D01*
X137800082Y-101555463D01*
X137979013Y-101823252D01*
X138206748Y-102050987D01*
X138474537Y-102229918D01*
X138772088Y-102353168D01*
X139087967Y-102416000D01*
X139410033Y-102416000D01*
X139725912Y-102353168D01*
X140023463Y-102229918D01*
X140291252Y-102050987D01*
X140518987Y-101823252D01*
X140697918Y-101555463D01*
X140821168Y-101257912D01*
X140884000Y-100942033D01*
X140884000Y-100619967D01*
X140821168Y-100304088D01*
X140697918Y-100006537D01*
X140518987Y-99738748D01*
X140291252Y-99511013D01*
X140023463Y-99332082D01*
X139725912Y-99208832D01*
X139410033Y-99146000D01*
X139087967Y-99146000D01*
X138772088Y-99208832D01*
X138474537Y-99332082D01*
X138206748Y-99511013D01*
X137979013Y-99738748D01*
X137800082Y-100006537D01*
X137676832Y-100304088D01*
X137614000Y-100619967D01*
X134166000Y-100619967D01*
X134103168Y-100304088D01*
X133979918Y-100006537D01*
X133800987Y-99738748D01*
X133573252Y-99511013D01*
X133305463Y-99332082D01*
X133007912Y-99208832D01*
X132692033Y-99146000D01*
X132369967Y-99146000D01*
X132054088Y-99208832D01*
X131756537Y-99332082D01*
X131488748Y-99511013D01*
X131261013Y-99738748D01*
X131082082Y-100006537D01*
X130958832Y-100304088D01*
X130896000Y-100619967D01*
X127660000Y-100619967D01*
X127660000Y-88240890D01*
X140544524Y-88240890D01*
X140589175Y-88388099D01*
X140714359Y-88650920D01*
X140888412Y-88884269D01*
X141104645Y-89079178D01*
X141354748Y-89228157D01*
X141629109Y-89325481D01*
X141859000Y-89204814D01*
X141859000Y-88011000D01*
X142113000Y-88011000D01*
X142113000Y-89204814D01*
X142342891Y-89325481D01*
X142617252Y-89228157D01*
X142867355Y-89079178D01*
X143083588Y-88884269D01*
X143257641Y-88650920D01*
X143382825Y-88388099D01*
X143427476Y-88240890D01*
X143306155Y-88011000D01*
X142113000Y-88011000D01*
X141859000Y-88011000D01*
X140665845Y-88011000D01*
X140544524Y-88240890D01*
X127660000Y-88240890D01*
X127660000Y-84494000D01*
X129829928Y-84494000D01*
X129829928Y-86194000D01*
X129842188Y-86318482D01*
X129878498Y-86438180D01*
X129937463Y-86548494D01*
X130016815Y-86645185D01*
X130113506Y-86724537D01*
X130223820Y-86783502D01*
X130343518Y-86819812D01*
X130468000Y-86832072D01*
X132168000Y-86832072D01*
X132292482Y-86819812D01*
X132412180Y-86783502D01*
X132522494Y-86724537D01*
X132619185Y-86645185D01*
X132698537Y-86548494D01*
X132757502Y-86438180D01*
X132781966Y-86357534D01*
X132857731Y-86441588D01*
X133091080Y-86615641D01*
X133353901Y-86740825D01*
X133501110Y-86785476D01*
X133731000Y-86664155D01*
X133731000Y-85471000D01*
X133711000Y-85471000D01*
X133711000Y-85217000D01*
X133731000Y-85217000D01*
X133731000Y-84023845D01*
X133985000Y-84023845D01*
X133985000Y-85217000D01*
X134005000Y-85217000D01*
X134005000Y-85471000D01*
X133985000Y-85471000D01*
X133985000Y-86664155D01*
X134214890Y-86785476D01*
X134362099Y-86740825D01*
X134624920Y-86615641D01*
X134858269Y-86441588D01*
X135053178Y-86225355D01*
X135122805Y-86108466D01*
X135244525Y-86290632D01*
X135451368Y-86497475D01*
X135694589Y-86659990D01*
X135964842Y-86771932D01*
X136251740Y-86829000D01*
X136544260Y-86829000D01*
X136831158Y-86771932D01*
X137101411Y-86659990D01*
X137344632Y-86497475D01*
X137551475Y-86290632D01*
X137713990Y-86047411D01*
X137825932Y-85777158D01*
X137883000Y-85490260D01*
X137883000Y-85197740D01*
X137825932Y-84910842D01*
X137713990Y-84640589D01*
X137616043Y-84494000D01*
X140497928Y-84494000D01*
X140497928Y-86194000D01*
X140510188Y-86318482D01*
X140546498Y-86438180D01*
X140605463Y-86548494D01*
X140684815Y-86645185D01*
X140781506Y-86724537D01*
X140891820Y-86783502D01*
X140972466Y-86807966D01*
X140888412Y-86883731D01*
X140714359Y-87117080D01*
X140589175Y-87379901D01*
X140544524Y-87527110D01*
X140665845Y-87757000D01*
X141859000Y-87757000D01*
X141859000Y-87737000D01*
X142113000Y-87737000D01*
X142113000Y-87757000D01*
X143306155Y-87757000D01*
X143427476Y-87527110D01*
X143382825Y-87379901D01*
X143257641Y-87117080D01*
X143083588Y-86883731D01*
X142999534Y-86807966D01*
X143080180Y-86783502D01*
X143190494Y-86724537D01*
X143287185Y-86645185D01*
X143366537Y-86548494D01*
X143425502Y-86438180D01*
X143461812Y-86318482D01*
X143474072Y-86194000D01*
X143474072Y-84494000D01*
X143461812Y-84369518D01*
X143425502Y-84249820D01*
X143366537Y-84139506D01*
X143287185Y-84042815D01*
X143190494Y-83963463D01*
X143080180Y-83904498D01*
X142960482Y-83868188D01*
X142836000Y-83855928D01*
X141136000Y-83855928D01*
X141011518Y-83868188D01*
X140891820Y-83904498D01*
X140781506Y-83963463D01*
X140684815Y-84042815D01*
X140605463Y-84139506D01*
X140546498Y-84249820D01*
X140510188Y-84369518D01*
X140497928Y-84494000D01*
X137616043Y-84494000D01*
X137551475Y-84397368D01*
X137344632Y-84190525D01*
X137101411Y-84028010D01*
X136831158Y-83916068D01*
X136544260Y-83859000D01*
X136251740Y-83859000D01*
X135964842Y-83916068D01*
X135694589Y-84028010D01*
X135451368Y-84190525D01*
X135244525Y-84397368D01*
X135122805Y-84579534D01*
X135053178Y-84462645D01*
X134858269Y-84246412D01*
X134624920Y-84072359D01*
X134362099Y-83947175D01*
X134214890Y-83902524D01*
X133985000Y-84023845D01*
X133731000Y-84023845D01*
X133501110Y-83902524D01*
X133353901Y-83947175D01*
X133091080Y-84072359D01*
X132857731Y-84246412D01*
X132781966Y-84330466D01*
X132757502Y-84249820D01*
X132698537Y-84139506D01*
X132619185Y-84042815D01*
X132522494Y-83963463D01*
X132412180Y-83904498D01*
X132292482Y-83868188D01*
X132168000Y-83855928D01*
X130468000Y-83855928D01*
X130343518Y-83868188D01*
X130223820Y-83904498D01*
X130113506Y-83963463D01*
X130016815Y-84042815D01*
X129937463Y-84139506D01*
X129878498Y-84249820D01*
X129842188Y-84369518D01*
X129829928Y-84494000D01*
X127660000Y-84494000D01*
X127660000Y-77826890D01*
X128098524Y-77826890D01*
X128143175Y-77974099D01*
X128268359Y-78236920D01*
X128442412Y-78470269D01*
X128658645Y-78665178D01*
X128908748Y-78814157D01*
X129183109Y-78911481D01*
X129413000Y-78790814D01*
X129413000Y-77597000D01*
X129667000Y-77597000D01*
X129667000Y-78790814D01*
X129896891Y-78911481D01*
X130171252Y-78814157D01*
X130421355Y-78665178D01*
X130637588Y-78470269D01*
X130811641Y-78236920D01*
X130936825Y-77974099D01*
X130981476Y-77826890D01*
X130860155Y-77597000D01*
X129667000Y-77597000D01*
X129413000Y-77597000D01*
X128219845Y-77597000D01*
X128098524Y-77826890D01*
X127660000Y-77826890D01*
X127660000Y-74080000D01*
X128051928Y-74080000D01*
X128051928Y-75780000D01*
X128064188Y-75904482D01*
X128100498Y-76024180D01*
X128159463Y-76134494D01*
X128238815Y-76231185D01*
X128335506Y-76310537D01*
X128445820Y-76369502D01*
X128526466Y-76393966D01*
X128442412Y-76469731D01*
X128268359Y-76703080D01*
X128143175Y-76965901D01*
X128098524Y-77113110D01*
X128219845Y-77343000D01*
X129413000Y-77343000D01*
X129413000Y-77323000D01*
X129667000Y-77323000D01*
X129667000Y-77343000D01*
X130860155Y-77343000D01*
X130981476Y-77113110D01*
X130936825Y-76965901D01*
X130811641Y-76703080D01*
X130637588Y-76469731D01*
X130553534Y-76393966D01*
X130634180Y-76369502D01*
X130744494Y-76310537D01*
X130841185Y-76231185D01*
X130920537Y-76134494D01*
X130979502Y-76024180D01*
X131015812Y-75904482D01*
X131017957Y-75882702D01*
X136854903Y-75882702D01*
X136926486Y-76126671D01*
X137181996Y-76247571D01*
X137456184Y-76316300D01*
X137738512Y-76330217D01*
X138018130Y-76288787D01*
X138284292Y-76193603D01*
X138409514Y-76126671D01*
X138430912Y-76053740D01*
X145835000Y-76053740D01*
X145835000Y-76346260D01*
X145892068Y-76633158D01*
X146004010Y-76903411D01*
X146166525Y-77146632D01*
X146373368Y-77353475D01*
X146616589Y-77515990D01*
X146886842Y-77627932D01*
X147173740Y-77685000D01*
X147466260Y-77685000D01*
X147753158Y-77627932D01*
X148023411Y-77515990D01*
X148266632Y-77353475D01*
X148473475Y-77146632D01*
X148635990Y-76903411D01*
X148747932Y-76633158D01*
X148805000Y-76346260D01*
X148805000Y-76053740D01*
X148747932Y-75766842D01*
X148635990Y-75496589D01*
X148473475Y-75253368D01*
X148266632Y-75046525D01*
X148084466Y-74924805D01*
X148201355Y-74855178D01*
X148417588Y-74660269D01*
X148591641Y-74426920D01*
X148716825Y-74164099D01*
X148761476Y-74016890D01*
X148640155Y-73787000D01*
X147447000Y-73787000D01*
X147447000Y-73807000D01*
X147193000Y-73807000D01*
X147193000Y-73787000D01*
X145999845Y-73787000D01*
X145878524Y-74016890D01*
X145923175Y-74164099D01*
X146048359Y-74426920D01*
X146222412Y-74660269D01*
X146438645Y-74855178D01*
X146555534Y-74924805D01*
X146373368Y-75046525D01*
X146166525Y-75253368D01*
X146004010Y-75496589D01*
X145892068Y-75766842D01*
X145835000Y-76053740D01*
X138430912Y-76053740D01*
X138481097Y-75882702D01*
X137668000Y-75069605D01*
X136854903Y-75882702D01*
X131017957Y-75882702D01*
X131028072Y-75780000D01*
X131028072Y-74960512D01*
X136227783Y-74960512D01*
X136269213Y-75240130D01*
X136364397Y-75506292D01*
X136431329Y-75631514D01*
X136675298Y-75703097D01*
X137488395Y-74890000D01*
X137847605Y-74890000D01*
X138660702Y-75703097D01*
X138904671Y-75631514D01*
X139025571Y-75376004D01*
X139094300Y-75101816D01*
X139108217Y-74819488D01*
X139066787Y-74539870D01*
X138971603Y-74273708D01*
X138904671Y-74148486D01*
X138660702Y-74076903D01*
X137847605Y-74890000D01*
X137488395Y-74890000D01*
X136675298Y-74076903D01*
X136431329Y-74148486D01*
X136310429Y-74403996D01*
X136241700Y-74678184D01*
X136227783Y-74960512D01*
X131028072Y-74960512D01*
X131028072Y-74080000D01*
X131015812Y-73955518D01*
X130979502Y-73835820D01*
X130920537Y-73725506D01*
X130841185Y-73628815D01*
X130744494Y-73549463D01*
X130634180Y-73490498D01*
X130514482Y-73454188D01*
X130390000Y-73441928D01*
X128690000Y-73441928D01*
X128565518Y-73454188D01*
X128445820Y-73490498D01*
X128335506Y-73549463D01*
X128238815Y-73628815D01*
X128159463Y-73725506D01*
X128100498Y-73835820D01*
X128064188Y-73955518D01*
X128051928Y-74080000D01*
X127660000Y-74080000D01*
X127660000Y-71590000D01*
X136229928Y-71590000D01*
X136229928Y-73190000D01*
X136242188Y-73314482D01*
X136278498Y-73434180D01*
X136337463Y-73544494D01*
X136416815Y-73641185D01*
X136513506Y-73720537D01*
X136623820Y-73779502D01*
X136743518Y-73815812D01*
X136868000Y-73828072D01*
X136875215Y-73828072D01*
X136854903Y-73897298D01*
X137668000Y-74710395D01*
X138481097Y-73897298D01*
X138460785Y-73828072D01*
X138468000Y-73828072D01*
X138592482Y-73815812D01*
X138712180Y-73779502D01*
X138822494Y-73720537D01*
X138919185Y-73641185D01*
X138998537Y-73544494D01*
X139057502Y-73434180D01*
X139093812Y-73314482D01*
X139106072Y-73190000D01*
X139106072Y-71590000D01*
X139093812Y-71465518D01*
X139057502Y-71345820D01*
X138998537Y-71235506D01*
X138919185Y-71138815D01*
X138822494Y-71059463D01*
X138712180Y-71000498D01*
X138592482Y-70964188D01*
X138468000Y-70951928D01*
X136868000Y-70951928D01*
X136743518Y-70964188D01*
X136623820Y-71000498D01*
X136513506Y-71059463D01*
X136416815Y-71138815D01*
X136337463Y-71235506D01*
X136278498Y-71345820D01*
X136242188Y-71465518D01*
X136229928Y-71590000D01*
X127660000Y-71590000D01*
X127660000Y-66206000D01*
X131099928Y-66206000D01*
X131099928Y-67906000D01*
X131112188Y-68030482D01*
X131148498Y-68150180D01*
X131207463Y-68260494D01*
X131286815Y-68357185D01*
X131383506Y-68436537D01*
X131493820Y-68495502D01*
X131613518Y-68531812D01*
X131738000Y-68544072D01*
X133438000Y-68544072D01*
X133562482Y-68531812D01*
X133682180Y-68495502D01*
X133792494Y-68436537D01*
X133889185Y-68357185D01*
X133968537Y-68260494D01*
X134027502Y-68150180D01*
X134049513Y-68077620D01*
X134181368Y-68209475D01*
X134424589Y-68371990D01*
X134694842Y-68483932D01*
X134981740Y-68541000D01*
X135274260Y-68541000D01*
X135561158Y-68483932D01*
X135831411Y-68371990D01*
X136074632Y-68209475D01*
X136281475Y-68002632D01*
X136443990Y-67759411D01*
X136555932Y-67489158D01*
X136613000Y-67202260D01*
X136613000Y-66909740D01*
X136555932Y-66622842D01*
X136443990Y-66352589D01*
X136281475Y-66109368D01*
X136074632Y-65902525D01*
X135831411Y-65740010D01*
X135561158Y-65628068D01*
X135274260Y-65571000D01*
X134981740Y-65571000D01*
X134694842Y-65628068D01*
X134424589Y-65740010D01*
X134181368Y-65902525D01*
X134049513Y-66034380D01*
X134027502Y-65961820D01*
X133968537Y-65851506D01*
X133889185Y-65754815D01*
X133792494Y-65675463D01*
X133682180Y-65616498D01*
X133562482Y-65580188D01*
X133438000Y-65567928D01*
X131738000Y-65567928D01*
X131613518Y-65580188D01*
X131493820Y-65616498D01*
X131383506Y-65675463D01*
X131286815Y-65754815D01*
X131207463Y-65851506D01*
X131148498Y-65961820D01*
X131112188Y-66081518D01*
X131099928Y-66206000D01*
X127660000Y-66206000D01*
X127660000Y-65190000D01*
X145831928Y-65190000D01*
X145831928Y-66890000D01*
X145844188Y-67014482D01*
X145880498Y-67134180D01*
X145939463Y-67244494D01*
X146018815Y-67341185D01*
X146115506Y-67420537D01*
X146225820Y-67479502D01*
X146298380Y-67501513D01*
X146166525Y-67633368D01*
X146004010Y-67876589D01*
X145892068Y-68146842D01*
X145835000Y-68433740D01*
X145835000Y-68726260D01*
X145892068Y-69013158D01*
X146004010Y-69283411D01*
X146166525Y-69526632D01*
X146373368Y-69733475D01*
X146547760Y-69850000D01*
X146373368Y-69966525D01*
X146166525Y-70173368D01*
X146004010Y-70416589D01*
X145892068Y-70686842D01*
X145835000Y-70973740D01*
X145835000Y-71266260D01*
X145892068Y-71553158D01*
X146004010Y-71823411D01*
X146166525Y-72066632D01*
X146373368Y-72273475D01*
X146555534Y-72395195D01*
X146438645Y-72464822D01*
X146222412Y-72659731D01*
X146048359Y-72893080D01*
X145923175Y-73155901D01*
X145878524Y-73303110D01*
X145999845Y-73533000D01*
X147193000Y-73533000D01*
X147193000Y-73513000D01*
X147447000Y-73513000D01*
X147447000Y-73533000D01*
X148640155Y-73533000D01*
X148761476Y-73303110D01*
X148716825Y-73155901D01*
X148591641Y-72893080D01*
X148417588Y-72659731D01*
X148201355Y-72464822D01*
X148084466Y-72395195D01*
X148266632Y-72273475D01*
X148473475Y-72066632D01*
X148635990Y-71823411D01*
X148747932Y-71553158D01*
X148805000Y-71266260D01*
X148805000Y-70973740D01*
X148747932Y-70686842D01*
X148635990Y-70416589D01*
X148473475Y-70173368D01*
X148266632Y-69966525D01*
X148092240Y-69850000D01*
X148266632Y-69733475D01*
X148473475Y-69526632D01*
X148635990Y-69283411D01*
X148747932Y-69013158D01*
X148805000Y-68726260D01*
X148805000Y-68433740D01*
X148747932Y-68146842D01*
X148635990Y-67876589D01*
X148473475Y-67633368D01*
X148341620Y-67501513D01*
X148414180Y-67479502D01*
X148524494Y-67420537D01*
X148621185Y-67341185D01*
X148700537Y-67244494D01*
X148759502Y-67134180D01*
X148795812Y-67014482D01*
X148808072Y-66890000D01*
X148808072Y-65190000D01*
X148795812Y-65065518D01*
X148759502Y-64945820D01*
X148700537Y-64835506D01*
X148621185Y-64738815D01*
X148524494Y-64659463D01*
X148414180Y-64600498D01*
X148294482Y-64564188D01*
X148170000Y-64551928D01*
X146470000Y-64551928D01*
X146345518Y-64564188D01*
X146225820Y-64600498D01*
X146115506Y-64659463D01*
X146018815Y-64738815D01*
X145939463Y-64835506D01*
X145880498Y-64945820D01*
X145844188Y-65065518D01*
X145831928Y-65190000D01*
X127660000Y-65190000D01*
X127660000Y-64897000D01*
X134620000Y-64897000D01*
X134644776Y-64894560D01*
X134668601Y-64887333D01*
X134690557Y-64875597D01*
X134709803Y-64859803D01*
X134725597Y-64840557D01*
X134737333Y-64818601D01*
X134744560Y-64794776D01*
X134747000Y-64770000D01*
X134747000Y-57810000D01*
X160974442Y-57810000D01*
X160927917Y-57856525D01*
G36*
X159385001Y-68387631D02*
G01*
X159385000Y-84851239D01*
X159280396Y-85007790D01*
X159206680Y-85185757D01*
X159169100Y-85374685D01*
X159169100Y-85567315D01*
X159206680Y-85756243D01*
X159219326Y-85786773D01*
X159104579Y-85763948D01*
X158750000Y-85409370D01*
X158750000Y-79412422D01*
X158753686Y-79374999D01*
X158750000Y-79337574D01*
X158738974Y-79225622D01*
X158695402Y-79081985D01*
X158624645Y-78949608D01*
X158529422Y-78833578D01*
X158500353Y-78809722D01*
X154432000Y-74741370D01*
X154432000Y-64119761D01*
X154536604Y-63963210D01*
X154610320Y-63785243D01*
X154638905Y-63641535D01*
X159385001Y-68387631D01*
G37*
X159385001Y-68387631D02*
X159385000Y-84851239D01*
X159280396Y-85007790D01*
X159206680Y-85185757D01*
X159169100Y-85374685D01*
X159169100Y-85567315D01*
X159206680Y-85756243D01*
X159219326Y-85786773D01*
X159104579Y-85763948D01*
X158750000Y-85409370D01*
X158750000Y-79412422D01*
X158753686Y-79374999D01*
X158750000Y-79337574D01*
X158738974Y-79225622D01*
X158695402Y-79081985D01*
X158624645Y-78949608D01*
X158529422Y-78833578D01*
X158500353Y-78809722D01*
X154432000Y-74741370D01*
X154432000Y-64119761D01*
X154536604Y-63963210D01*
X154610320Y-63785243D01*
X154638905Y-63641535D01*
X159385001Y-68387631D01*
M02*
