G04 #@! TF.GenerationSoftware,KiCad,Pcbnew,(5.1.5)-3*
G04 #@! TF.CreationDate,2022-03-10T20:17:17-05:00*
G04 #@! TF.ProjectId,wearer,77656172-6572-42e6-9b69-6361645f7063,rev?*
G04 #@! TF.SameCoordinates,Original*
G04 #@! TF.FileFunction,Soldermask,Top*
G04 #@! TF.FilePolarity,Negative*
%FSLAX46Y46*%
G04 Gerber Fmt 4.6, Leading zero omitted, Abs format (unit mm)*
G04 Created by KiCad (PCBNEW (5.1.5)-3) date 2022-03-10 20:17:17*
%MOMM*%
%LPD*%
G04 APERTURE LIST*
%ADD10C,0.100000*%
G04 APERTURE END LIST*
D10*
G36*
X208542754Y-122393817D02*
G01*
X208706689Y-122461721D01*
X208854227Y-122560303D01*
X208979697Y-122685773D01*
X209078279Y-122833311D01*
X209146183Y-122997246D01*
X209180800Y-123171279D01*
X209180800Y-123348721D01*
X209146183Y-123522754D01*
X209078279Y-123686689D01*
X208979697Y-123834227D01*
X208854227Y-123959697D01*
X208706689Y-124058279D01*
X208542754Y-124126183D01*
X208368721Y-124160800D01*
X208191279Y-124160800D01*
X208017246Y-124126183D01*
X207853311Y-124058279D01*
X207705773Y-123959697D01*
X207580303Y-123834227D01*
X207481721Y-123686689D01*
X207413817Y-123522754D01*
X207379200Y-123348721D01*
X207379200Y-123171279D01*
X207413817Y-122997246D01*
X207481721Y-122833311D01*
X207580303Y-122685773D01*
X207705773Y-122560303D01*
X207853311Y-122461721D01*
X208017246Y-122393817D01*
X208191279Y-122359200D01*
X208368721Y-122359200D01*
X208542754Y-122393817D01*
G37*
G36*
X213622754Y-122393817D02*
G01*
X213786689Y-122461721D01*
X213934227Y-122560303D01*
X214059697Y-122685773D01*
X214158279Y-122833311D01*
X214226183Y-122997246D01*
X214260800Y-123171279D01*
X214260800Y-123348721D01*
X214226183Y-123522754D01*
X214158279Y-123686689D01*
X214059697Y-123834227D01*
X213934227Y-123959697D01*
X213786689Y-124058279D01*
X213622754Y-124126183D01*
X213448721Y-124160800D01*
X213271279Y-124160800D01*
X213097246Y-124126183D01*
X212933311Y-124058279D01*
X212785773Y-123959697D01*
X212660303Y-123834227D01*
X212561721Y-123686689D01*
X212493817Y-123522754D01*
X212459200Y-123348721D01*
X212459200Y-123171279D01*
X212493817Y-122997246D01*
X212561721Y-122833311D01*
X212660303Y-122685773D01*
X212785773Y-122560303D01*
X212933311Y-122461721D01*
X213097246Y-122393817D01*
X213271279Y-122359200D01*
X213448721Y-122359200D01*
X213622754Y-122393817D01*
G37*
G36*
X206002754Y-122393817D02*
G01*
X206166689Y-122461721D01*
X206314227Y-122560303D01*
X206439697Y-122685773D01*
X206538279Y-122833311D01*
X206606183Y-122997246D01*
X206640800Y-123171279D01*
X206640800Y-123348721D01*
X206606183Y-123522754D01*
X206538279Y-123686689D01*
X206439697Y-123834227D01*
X206314227Y-123959697D01*
X206166689Y-124058279D01*
X206002754Y-124126183D01*
X205828721Y-124160800D01*
X205651279Y-124160800D01*
X205477246Y-124126183D01*
X205313311Y-124058279D01*
X205165773Y-123959697D01*
X205040303Y-123834227D01*
X204941721Y-123686689D01*
X204873817Y-123522754D01*
X204839200Y-123348721D01*
X204839200Y-123171279D01*
X204873817Y-122997246D01*
X204941721Y-122833311D01*
X205040303Y-122685773D01*
X205165773Y-122560303D01*
X205313311Y-122461721D01*
X205477246Y-122393817D01*
X205651279Y-122359200D01*
X205828721Y-122359200D01*
X206002754Y-122393817D01*
G37*
G36*
X216800800Y-124160800D02*
G01*
X214999200Y-124160800D01*
X214999200Y-122359200D01*
X216800800Y-122359200D01*
X216800800Y-124160800D01*
G37*
G36*
X211082754Y-122393817D02*
G01*
X211246689Y-122461721D01*
X211394227Y-122560303D01*
X211519697Y-122685773D01*
X211618279Y-122833311D01*
X211686183Y-122997246D01*
X211720800Y-123171279D01*
X211720800Y-123348721D01*
X211686183Y-123522754D01*
X211618279Y-123686689D01*
X211519697Y-123834227D01*
X211394227Y-123959697D01*
X211246689Y-124058279D01*
X211082754Y-124126183D01*
X210908721Y-124160800D01*
X210731279Y-124160800D01*
X210557246Y-124126183D01*
X210393311Y-124058279D01*
X210245773Y-123959697D01*
X210120303Y-123834227D01*
X210021721Y-123686689D01*
X209953817Y-123522754D01*
X209919200Y-123348721D01*
X209919200Y-123171279D01*
X209953817Y-122997246D01*
X210021721Y-122833311D01*
X210120303Y-122685773D01*
X210245773Y-122560303D01*
X210393311Y-122461721D01*
X210557246Y-122393817D01*
X210731279Y-122359200D01*
X210908721Y-122359200D01*
X211082754Y-122393817D01*
G37*
G36*
X188208169Y-121736895D02*
G01*
X188363005Y-121801031D01*
X188502354Y-121894140D01*
X188620860Y-122012646D01*
X188713969Y-122151995D01*
X188778105Y-122306831D01*
X188810800Y-122471203D01*
X188810800Y-122638797D01*
X188778105Y-122803169D01*
X188713969Y-122958005D01*
X188620860Y-123097354D01*
X188502354Y-123215860D01*
X188363005Y-123308969D01*
X188208169Y-123373105D01*
X188043797Y-123405800D01*
X187876203Y-123405800D01*
X187711831Y-123373105D01*
X187556995Y-123308969D01*
X187417646Y-123215860D01*
X187299140Y-123097354D01*
X187206031Y-122958005D01*
X187141895Y-122803169D01*
X187109200Y-122638797D01*
X187109200Y-122471203D01*
X187141895Y-122306831D01*
X187206031Y-122151995D01*
X187299140Y-122012646D01*
X187417646Y-121894140D01*
X187556995Y-121801031D01*
X187711831Y-121736895D01*
X187876203Y-121704200D01*
X188043797Y-121704200D01*
X188208169Y-121736895D01*
G37*
G36*
X180588169Y-121736895D02*
G01*
X180743005Y-121801031D01*
X180882354Y-121894140D01*
X181000860Y-122012646D01*
X181093969Y-122151995D01*
X181158105Y-122306831D01*
X181190800Y-122471203D01*
X181190800Y-122638797D01*
X181158105Y-122803169D01*
X181093969Y-122958005D01*
X181000860Y-123097354D01*
X180882354Y-123215860D01*
X180743005Y-123308969D01*
X180588169Y-123373105D01*
X180423797Y-123405800D01*
X180256203Y-123405800D01*
X180091831Y-123373105D01*
X179936995Y-123308969D01*
X179797646Y-123215860D01*
X179679140Y-123097354D01*
X179586031Y-122958005D01*
X179521895Y-122803169D01*
X179489200Y-122638797D01*
X179489200Y-122471203D01*
X179521895Y-122306831D01*
X179586031Y-122151995D01*
X179679140Y-122012646D01*
X179797646Y-121894140D01*
X179936995Y-121801031D01*
X180091831Y-121736895D01*
X180256203Y-121704200D01*
X180423797Y-121704200D01*
X180588169Y-121736895D01*
G37*
G36*
X150760800Y-122820800D02*
G01*
X148959200Y-122820800D01*
X148959200Y-121019200D01*
X150760800Y-121019200D01*
X150760800Y-122820800D01*
G37*
G36*
X177084857Y-121054117D02*
G01*
X177130465Y-121067952D01*
X177172504Y-121090422D01*
X177209344Y-121120656D01*
X177239578Y-121157496D01*
X177262048Y-121199535D01*
X177275883Y-121245143D01*
X177280800Y-121295065D01*
X177280800Y-122054935D01*
X177275883Y-122104857D01*
X177262048Y-122150465D01*
X177239578Y-122192504D01*
X177209344Y-122229344D01*
X177172504Y-122259578D01*
X177130465Y-122282048D01*
X177084857Y-122295883D01*
X177034935Y-122300800D01*
X176025065Y-122300800D01*
X175975143Y-122295883D01*
X175929535Y-122282048D01*
X175887496Y-122259578D01*
X175850656Y-122229344D01*
X175820422Y-122192504D01*
X175797952Y-122150465D01*
X175784117Y-122104857D01*
X175779200Y-122054935D01*
X175779200Y-121295065D01*
X175784117Y-121245143D01*
X175797952Y-121199535D01*
X175820422Y-121157496D01*
X175850656Y-121120656D01*
X175887496Y-121090422D01*
X175929535Y-121067952D01*
X175975143Y-121054117D01*
X176025065Y-121049200D01*
X177034935Y-121049200D01*
X177084857Y-121054117D01*
G37*
G36*
X172004857Y-121054117D02*
G01*
X172050465Y-121067952D01*
X172092504Y-121090422D01*
X172129344Y-121120656D01*
X172159578Y-121157496D01*
X172182048Y-121199535D01*
X172195883Y-121245143D01*
X172200800Y-121295065D01*
X172200800Y-122054935D01*
X172195883Y-122104857D01*
X172182048Y-122150465D01*
X172159578Y-122192504D01*
X172129344Y-122229344D01*
X172092504Y-122259578D01*
X172050465Y-122282048D01*
X172004857Y-122295883D01*
X171954935Y-122300800D01*
X170945065Y-122300800D01*
X170895143Y-122295883D01*
X170849535Y-122282048D01*
X170807496Y-122259578D01*
X170770656Y-122229344D01*
X170740422Y-122192504D01*
X170717952Y-122150465D01*
X170704117Y-122104857D01*
X170699200Y-122054935D01*
X170699200Y-121295065D01*
X170704117Y-121245143D01*
X170717952Y-121199535D01*
X170740422Y-121157496D01*
X170770656Y-121120656D01*
X170807496Y-121090422D01*
X170849535Y-121067952D01*
X170895143Y-121054117D01*
X170945065Y-121049200D01*
X171954935Y-121049200D01*
X172004857Y-121054117D01*
G37*
G36*
X166924857Y-121054117D02*
G01*
X166970465Y-121067952D01*
X167012504Y-121090422D01*
X167049344Y-121120656D01*
X167079578Y-121157496D01*
X167102048Y-121199535D01*
X167115883Y-121245143D01*
X167120800Y-121295065D01*
X167120800Y-122054935D01*
X167115883Y-122104857D01*
X167102048Y-122150465D01*
X167079578Y-122192504D01*
X167049344Y-122229344D01*
X167012504Y-122259578D01*
X166970465Y-122282048D01*
X166924857Y-122295883D01*
X166874935Y-122300800D01*
X165865065Y-122300800D01*
X165815143Y-122295883D01*
X165769535Y-122282048D01*
X165727496Y-122259578D01*
X165690656Y-122229344D01*
X165660422Y-122192504D01*
X165637952Y-122150465D01*
X165624117Y-122104857D01*
X165619200Y-122054935D01*
X165619200Y-121295065D01*
X165624117Y-121245143D01*
X165637952Y-121199535D01*
X165660422Y-121157496D01*
X165690656Y-121120656D01*
X165727496Y-121090422D01*
X165769535Y-121067952D01*
X165815143Y-121054117D01*
X165865065Y-121049200D01*
X166874935Y-121049200D01*
X166924857Y-121054117D01*
G37*
G36*
X162190800Y-121550800D02*
G01*
X160389200Y-121550800D01*
X160389200Y-119749200D01*
X162190800Y-119749200D01*
X162190800Y-121550800D01*
G37*
G36*
X180588169Y-119196895D02*
G01*
X180743005Y-119261031D01*
X180882354Y-119354140D01*
X181000860Y-119472646D01*
X181093969Y-119611995D01*
X181158105Y-119766831D01*
X181190800Y-119931203D01*
X181190800Y-120098797D01*
X181158105Y-120263169D01*
X181093969Y-120418005D01*
X181000860Y-120557354D01*
X180882354Y-120675860D01*
X180743005Y-120768969D01*
X180588169Y-120833105D01*
X180423797Y-120865800D01*
X180256203Y-120865800D01*
X180091831Y-120833105D01*
X179936995Y-120768969D01*
X179797646Y-120675860D01*
X179679140Y-120557354D01*
X179586031Y-120418005D01*
X179521895Y-120263169D01*
X179489200Y-120098797D01*
X179489200Y-119931203D01*
X179521895Y-119766831D01*
X179586031Y-119611995D01*
X179679140Y-119472646D01*
X179797646Y-119354140D01*
X179936995Y-119261031D01*
X180091831Y-119196895D01*
X180256203Y-119164200D01*
X180423797Y-119164200D01*
X180588169Y-119196895D01*
G37*
G36*
X188208169Y-119196895D02*
G01*
X188363005Y-119261031D01*
X188502354Y-119354140D01*
X188620860Y-119472646D01*
X188713969Y-119611995D01*
X188778105Y-119766831D01*
X188810800Y-119931203D01*
X188810800Y-120098797D01*
X188778105Y-120263169D01*
X188713969Y-120418005D01*
X188620860Y-120557354D01*
X188502354Y-120675860D01*
X188363005Y-120768969D01*
X188208169Y-120833105D01*
X188043797Y-120865800D01*
X187876203Y-120865800D01*
X187711831Y-120833105D01*
X187556995Y-120768969D01*
X187417646Y-120675860D01*
X187299140Y-120557354D01*
X187206031Y-120418005D01*
X187141895Y-120263169D01*
X187109200Y-120098797D01*
X187109200Y-119931203D01*
X187141895Y-119766831D01*
X187206031Y-119611995D01*
X187299140Y-119472646D01*
X187417646Y-119354140D01*
X187556995Y-119261031D01*
X187711831Y-119196895D01*
X187876203Y-119164200D01*
X188043797Y-119164200D01*
X188208169Y-119196895D01*
G37*
G36*
X150122754Y-118513817D02*
G01*
X150286689Y-118581721D01*
X150434227Y-118680303D01*
X150559697Y-118805773D01*
X150658279Y-118953311D01*
X150726183Y-119117246D01*
X150760800Y-119291279D01*
X150760800Y-119468721D01*
X150726183Y-119642754D01*
X150658279Y-119806689D01*
X150559697Y-119954227D01*
X150434227Y-120079697D01*
X150286689Y-120178279D01*
X150122754Y-120246183D01*
X149948721Y-120280800D01*
X149771279Y-120280800D01*
X149597246Y-120246183D01*
X149433311Y-120178279D01*
X149285773Y-120079697D01*
X149160303Y-119954227D01*
X149061721Y-119806689D01*
X148993817Y-119642754D01*
X148959200Y-119468721D01*
X148959200Y-119291279D01*
X148993817Y-119117246D01*
X149061721Y-118953311D01*
X149160303Y-118805773D01*
X149285773Y-118680303D01*
X149433311Y-118581721D01*
X149597246Y-118513817D01*
X149771279Y-118479200D01*
X149948721Y-118479200D01*
X150122754Y-118513817D01*
G37*
G36*
X177084857Y-119004117D02*
G01*
X177130465Y-119017952D01*
X177172504Y-119040422D01*
X177209344Y-119070656D01*
X177239578Y-119107496D01*
X177262048Y-119149535D01*
X177275883Y-119195143D01*
X177280800Y-119245065D01*
X177280800Y-120004935D01*
X177275883Y-120054857D01*
X177262048Y-120100465D01*
X177239578Y-120142504D01*
X177209344Y-120179344D01*
X177172504Y-120209578D01*
X177130465Y-120232048D01*
X177084857Y-120245883D01*
X177034935Y-120250800D01*
X176025065Y-120250800D01*
X175975143Y-120245883D01*
X175929535Y-120232048D01*
X175887496Y-120209578D01*
X175850656Y-120179344D01*
X175820422Y-120142504D01*
X175797952Y-120100465D01*
X175784117Y-120054857D01*
X175779200Y-120004935D01*
X175779200Y-119245065D01*
X175784117Y-119195143D01*
X175797952Y-119149535D01*
X175820422Y-119107496D01*
X175850656Y-119070656D01*
X175887496Y-119040422D01*
X175929535Y-119017952D01*
X175975143Y-119004117D01*
X176025065Y-118999200D01*
X177034935Y-118999200D01*
X177084857Y-119004117D01*
G37*
G36*
X166924857Y-119004117D02*
G01*
X166970465Y-119017952D01*
X167012504Y-119040422D01*
X167049344Y-119070656D01*
X167079578Y-119107496D01*
X167102048Y-119149535D01*
X167115883Y-119195143D01*
X167120800Y-119245065D01*
X167120800Y-120004935D01*
X167115883Y-120054857D01*
X167102048Y-120100465D01*
X167079578Y-120142504D01*
X167049344Y-120179344D01*
X167012504Y-120209578D01*
X166970465Y-120232048D01*
X166924857Y-120245883D01*
X166874935Y-120250800D01*
X165865065Y-120250800D01*
X165815143Y-120245883D01*
X165769535Y-120232048D01*
X165727496Y-120209578D01*
X165690656Y-120179344D01*
X165660422Y-120142504D01*
X165637952Y-120100465D01*
X165624117Y-120054857D01*
X165619200Y-120004935D01*
X165619200Y-119245065D01*
X165624117Y-119195143D01*
X165637952Y-119149535D01*
X165660422Y-119107496D01*
X165690656Y-119070656D01*
X165727496Y-119040422D01*
X165769535Y-119017952D01*
X165815143Y-119004117D01*
X165865065Y-118999200D01*
X166874935Y-118999200D01*
X166924857Y-119004117D01*
G37*
G36*
X172004857Y-119004117D02*
G01*
X172050465Y-119017952D01*
X172092504Y-119040422D01*
X172129344Y-119070656D01*
X172159578Y-119107496D01*
X172182048Y-119149535D01*
X172195883Y-119195143D01*
X172200800Y-119245065D01*
X172200800Y-120004935D01*
X172195883Y-120054857D01*
X172182048Y-120100465D01*
X172159578Y-120142504D01*
X172129344Y-120179344D01*
X172092504Y-120209578D01*
X172050465Y-120232048D01*
X172004857Y-120245883D01*
X171954935Y-120250800D01*
X170945065Y-120250800D01*
X170895143Y-120245883D01*
X170849535Y-120232048D01*
X170807496Y-120209578D01*
X170770656Y-120179344D01*
X170740422Y-120142504D01*
X170717952Y-120100465D01*
X170704117Y-120054857D01*
X170699200Y-120004935D01*
X170699200Y-119245065D01*
X170704117Y-119195143D01*
X170717952Y-119149535D01*
X170740422Y-119107496D01*
X170770656Y-119070656D01*
X170807496Y-119040422D01*
X170849535Y-119017952D01*
X170895143Y-119004117D01*
X170945065Y-118999200D01*
X171954935Y-118999200D01*
X172004857Y-119004117D01*
G37*
G36*
X161552754Y-117243817D02*
G01*
X161716689Y-117311721D01*
X161864227Y-117410303D01*
X161989697Y-117535773D01*
X162088279Y-117683311D01*
X162156183Y-117847246D01*
X162190800Y-118021279D01*
X162190800Y-118198721D01*
X162156183Y-118372754D01*
X162088279Y-118536689D01*
X161989697Y-118684227D01*
X161864227Y-118809697D01*
X161716689Y-118908279D01*
X161552754Y-118976183D01*
X161378721Y-119010800D01*
X161201279Y-119010800D01*
X161027246Y-118976183D01*
X160863311Y-118908279D01*
X160715773Y-118809697D01*
X160590303Y-118684227D01*
X160491721Y-118536689D01*
X160423817Y-118372754D01*
X160389200Y-118198721D01*
X160389200Y-118021279D01*
X160423817Y-117847246D01*
X160491721Y-117683311D01*
X160590303Y-117535773D01*
X160715773Y-117410303D01*
X160863311Y-117311721D01*
X161027246Y-117243817D01*
X161201279Y-117209200D01*
X161378721Y-117209200D01*
X161552754Y-117243817D01*
G37*
G36*
X131291521Y-115252639D02*
G01*
X131591947Y-115377080D01*
X131862324Y-115557740D01*
X132092260Y-115787676D01*
X132272920Y-116058053D01*
X132397361Y-116358479D01*
X132460800Y-116677410D01*
X132460800Y-117002590D01*
X132397361Y-117321521D01*
X132272920Y-117621947D01*
X132092260Y-117892324D01*
X131862324Y-118122260D01*
X131591947Y-118302920D01*
X131291521Y-118427361D01*
X130972590Y-118490800D01*
X130647410Y-118490800D01*
X130328479Y-118427361D01*
X130028053Y-118302920D01*
X129757676Y-118122260D01*
X129527740Y-117892324D01*
X129347080Y-117621947D01*
X129222639Y-117321521D01*
X129159200Y-117002590D01*
X129159200Y-116677410D01*
X129222639Y-116358479D01*
X129347080Y-116058053D01*
X129527740Y-115787676D01*
X129757676Y-115557740D01*
X130028053Y-115377080D01*
X130328479Y-115252639D01*
X130647410Y-115189200D01*
X130972590Y-115189200D01*
X131291521Y-115252639D01*
G37*
G36*
X216381521Y-115252639D02*
G01*
X216681947Y-115377080D01*
X216952324Y-115557740D01*
X217182260Y-115787676D01*
X217362920Y-116058053D01*
X217487361Y-116358479D01*
X217550800Y-116677410D01*
X217550800Y-117002590D01*
X217487361Y-117321521D01*
X217362920Y-117621947D01*
X217182260Y-117892324D01*
X216952324Y-118122260D01*
X216681947Y-118302920D01*
X216381521Y-118427361D01*
X216062590Y-118490800D01*
X215737410Y-118490800D01*
X215418479Y-118427361D01*
X215118053Y-118302920D01*
X214847676Y-118122260D01*
X214617740Y-117892324D01*
X214437080Y-117621947D01*
X214312639Y-117321521D01*
X214249200Y-117002590D01*
X214249200Y-116677410D01*
X214312639Y-116358479D01*
X214437080Y-116058053D01*
X214617740Y-115787676D01*
X214847676Y-115557740D01*
X215118053Y-115377080D01*
X215418479Y-115252639D01*
X215737410Y-115189200D01*
X216062590Y-115189200D01*
X216381521Y-115252639D01*
G37*
G36*
X180588169Y-116656895D02*
G01*
X180743005Y-116721031D01*
X180882354Y-116814140D01*
X181000860Y-116932646D01*
X181093969Y-117071995D01*
X181158105Y-117226831D01*
X181190800Y-117391203D01*
X181190800Y-117558797D01*
X181158105Y-117723169D01*
X181093969Y-117878005D01*
X181000860Y-118017354D01*
X180882354Y-118135860D01*
X180743005Y-118228969D01*
X180588169Y-118293105D01*
X180423797Y-118325800D01*
X180256203Y-118325800D01*
X180091831Y-118293105D01*
X179936995Y-118228969D01*
X179797646Y-118135860D01*
X179679140Y-118017354D01*
X179586031Y-117878005D01*
X179521895Y-117723169D01*
X179489200Y-117558797D01*
X179489200Y-117391203D01*
X179521895Y-117226831D01*
X179586031Y-117071995D01*
X179679140Y-116932646D01*
X179797646Y-116814140D01*
X179936995Y-116721031D01*
X180091831Y-116656895D01*
X180256203Y-116624200D01*
X180423797Y-116624200D01*
X180588169Y-116656895D01*
G37*
G36*
X188208169Y-116656895D02*
G01*
X188363005Y-116721031D01*
X188502354Y-116814140D01*
X188620860Y-116932646D01*
X188713969Y-117071995D01*
X188778105Y-117226831D01*
X188810800Y-117391203D01*
X188810800Y-117558797D01*
X188778105Y-117723169D01*
X188713969Y-117878005D01*
X188620860Y-118017354D01*
X188502354Y-118135860D01*
X188363005Y-118228969D01*
X188208169Y-118293105D01*
X188043797Y-118325800D01*
X187876203Y-118325800D01*
X187711831Y-118293105D01*
X187556995Y-118228969D01*
X187417646Y-118135860D01*
X187299140Y-118017354D01*
X187206031Y-117878005D01*
X187141895Y-117723169D01*
X187109200Y-117558797D01*
X187109200Y-117391203D01*
X187141895Y-117226831D01*
X187206031Y-117071995D01*
X187299140Y-116932646D01*
X187417646Y-116814140D01*
X187556995Y-116721031D01*
X187711831Y-116656895D01*
X187876203Y-116624200D01*
X188043797Y-116624200D01*
X188208169Y-116656895D01*
G37*
G36*
X150122754Y-115973817D02*
G01*
X150286689Y-116041721D01*
X150434227Y-116140303D01*
X150559697Y-116265773D01*
X150658279Y-116413311D01*
X150726183Y-116577246D01*
X150760800Y-116751279D01*
X150760800Y-116928721D01*
X150726183Y-117102754D01*
X150658279Y-117266689D01*
X150559697Y-117414227D01*
X150434227Y-117539697D01*
X150286689Y-117638279D01*
X150122754Y-117706183D01*
X149948721Y-117740800D01*
X149771279Y-117740800D01*
X149597246Y-117706183D01*
X149433311Y-117638279D01*
X149285773Y-117539697D01*
X149160303Y-117414227D01*
X149061721Y-117266689D01*
X148993817Y-117102754D01*
X148959200Y-116928721D01*
X148959200Y-116751279D01*
X148993817Y-116577246D01*
X149061721Y-116413311D01*
X149160303Y-116265773D01*
X149285773Y-116140303D01*
X149433311Y-116041721D01*
X149597246Y-115973817D01*
X149771279Y-115939200D01*
X149948721Y-115939200D01*
X150122754Y-115973817D01*
G37*
G36*
X188208169Y-114116895D02*
G01*
X188363005Y-114181031D01*
X188502354Y-114274140D01*
X188620860Y-114392646D01*
X188713969Y-114531995D01*
X188778105Y-114686831D01*
X188810800Y-114851203D01*
X188810800Y-115018797D01*
X188778105Y-115183169D01*
X188713969Y-115338005D01*
X188620860Y-115477354D01*
X188502354Y-115595860D01*
X188363005Y-115688969D01*
X188208169Y-115753105D01*
X188043797Y-115785800D01*
X187876203Y-115785800D01*
X187711831Y-115753105D01*
X187556995Y-115688969D01*
X187417646Y-115595860D01*
X187299140Y-115477354D01*
X187206031Y-115338005D01*
X187141895Y-115183169D01*
X187109200Y-115018797D01*
X187109200Y-114851203D01*
X187141895Y-114686831D01*
X187206031Y-114531995D01*
X187299140Y-114392646D01*
X187417646Y-114274140D01*
X187556995Y-114181031D01*
X187711831Y-114116895D01*
X187876203Y-114084200D01*
X188043797Y-114084200D01*
X188208169Y-114116895D01*
G37*
G36*
X180588169Y-114116895D02*
G01*
X180743005Y-114181031D01*
X180882354Y-114274140D01*
X181000860Y-114392646D01*
X181093969Y-114531995D01*
X181158105Y-114686831D01*
X181190800Y-114851203D01*
X181190800Y-115018797D01*
X181158105Y-115183169D01*
X181093969Y-115338005D01*
X181000860Y-115477354D01*
X180882354Y-115595860D01*
X180743005Y-115688969D01*
X180588169Y-115753105D01*
X180423797Y-115785800D01*
X180256203Y-115785800D01*
X180091831Y-115753105D01*
X179936995Y-115688969D01*
X179797646Y-115595860D01*
X179679140Y-115477354D01*
X179586031Y-115338005D01*
X179521895Y-115183169D01*
X179489200Y-115018797D01*
X179489200Y-114851203D01*
X179521895Y-114686831D01*
X179586031Y-114531995D01*
X179679140Y-114392646D01*
X179797646Y-114274140D01*
X179936995Y-114181031D01*
X180091831Y-114116895D01*
X180256203Y-114084200D01*
X180423797Y-114084200D01*
X180588169Y-114116895D01*
G37*
G36*
X172004857Y-113434117D02*
G01*
X172050465Y-113447952D01*
X172092504Y-113470422D01*
X172129344Y-113500656D01*
X172159578Y-113537496D01*
X172182048Y-113579535D01*
X172195883Y-113625143D01*
X172200800Y-113675065D01*
X172200800Y-114434935D01*
X172195883Y-114484857D01*
X172182048Y-114530465D01*
X172159578Y-114572504D01*
X172129344Y-114609344D01*
X172092504Y-114639578D01*
X172050465Y-114662048D01*
X172004857Y-114675883D01*
X171954935Y-114680800D01*
X170945065Y-114680800D01*
X170895143Y-114675883D01*
X170849535Y-114662048D01*
X170807496Y-114639578D01*
X170770656Y-114609344D01*
X170740422Y-114572504D01*
X170717952Y-114530465D01*
X170704117Y-114484857D01*
X170699200Y-114434935D01*
X170699200Y-113675065D01*
X170704117Y-113625143D01*
X170717952Y-113579535D01*
X170740422Y-113537496D01*
X170770656Y-113500656D01*
X170807496Y-113470422D01*
X170849535Y-113447952D01*
X170895143Y-113434117D01*
X170945065Y-113429200D01*
X171954935Y-113429200D01*
X172004857Y-113434117D01*
G37*
G36*
X177084857Y-113434117D02*
G01*
X177130465Y-113447952D01*
X177172504Y-113470422D01*
X177209344Y-113500656D01*
X177239578Y-113537496D01*
X177262048Y-113579535D01*
X177275883Y-113625143D01*
X177280800Y-113675065D01*
X177280800Y-114434935D01*
X177275883Y-114484857D01*
X177262048Y-114530465D01*
X177239578Y-114572504D01*
X177209344Y-114609344D01*
X177172504Y-114639578D01*
X177130465Y-114662048D01*
X177084857Y-114675883D01*
X177034935Y-114680800D01*
X176025065Y-114680800D01*
X175975143Y-114675883D01*
X175929535Y-114662048D01*
X175887496Y-114639578D01*
X175850656Y-114609344D01*
X175820422Y-114572504D01*
X175797952Y-114530465D01*
X175784117Y-114484857D01*
X175779200Y-114434935D01*
X175779200Y-113675065D01*
X175784117Y-113625143D01*
X175797952Y-113579535D01*
X175820422Y-113537496D01*
X175850656Y-113500656D01*
X175887496Y-113470422D01*
X175929535Y-113447952D01*
X175975143Y-113434117D01*
X176025065Y-113429200D01*
X177034935Y-113429200D01*
X177084857Y-113434117D01*
G37*
G36*
X166924857Y-113434117D02*
G01*
X166970465Y-113447952D01*
X167012504Y-113470422D01*
X167049344Y-113500656D01*
X167079578Y-113537496D01*
X167102048Y-113579535D01*
X167115883Y-113625143D01*
X167120800Y-113675065D01*
X167120800Y-114434935D01*
X167115883Y-114484857D01*
X167102048Y-114530465D01*
X167079578Y-114572504D01*
X167049344Y-114609344D01*
X167012504Y-114639578D01*
X166970465Y-114662048D01*
X166924857Y-114675883D01*
X166874935Y-114680800D01*
X165865065Y-114680800D01*
X165815143Y-114675883D01*
X165769535Y-114662048D01*
X165727496Y-114639578D01*
X165690656Y-114609344D01*
X165660422Y-114572504D01*
X165637952Y-114530465D01*
X165624117Y-114484857D01*
X165619200Y-114434935D01*
X165619200Y-113675065D01*
X165624117Y-113625143D01*
X165637952Y-113579535D01*
X165660422Y-113537496D01*
X165690656Y-113500656D01*
X165727496Y-113470422D01*
X165769535Y-113447952D01*
X165815143Y-113434117D01*
X165865065Y-113429200D01*
X166874935Y-113429200D01*
X166924857Y-113434117D01*
G37*
G36*
X161552754Y-112163817D02*
G01*
X161716689Y-112231721D01*
X161864227Y-112330303D01*
X161989697Y-112455773D01*
X162088279Y-112603311D01*
X162156183Y-112767246D01*
X162190800Y-112941279D01*
X162190800Y-113118721D01*
X162156183Y-113292754D01*
X162088279Y-113456689D01*
X161989697Y-113604227D01*
X161864227Y-113729697D01*
X161716689Y-113828279D01*
X161552754Y-113896183D01*
X161378721Y-113930800D01*
X161201279Y-113930800D01*
X161027246Y-113896183D01*
X160863311Y-113828279D01*
X160715773Y-113729697D01*
X160590303Y-113604227D01*
X160491721Y-113456689D01*
X160423817Y-113292754D01*
X160389200Y-113118721D01*
X160389200Y-112941279D01*
X160423817Y-112767246D01*
X160491721Y-112603311D01*
X160590303Y-112455773D01*
X160715773Y-112330303D01*
X160863311Y-112231721D01*
X161027246Y-112163817D01*
X161201279Y-112129200D01*
X161378721Y-112129200D01*
X161552754Y-112163817D01*
G37*
G36*
X180588169Y-111576895D02*
G01*
X180743005Y-111641031D01*
X180882354Y-111734140D01*
X181000860Y-111852646D01*
X181093969Y-111991995D01*
X181158105Y-112146831D01*
X181190800Y-112311203D01*
X181190800Y-112478797D01*
X181158105Y-112643169D01*
X181093969Y-112798005D01*
X181000860Y-112937354D01*
X180882354Y-113055860D01*
X180743005Y-113148969D01*
X180588169Y-113213105D01*
X180423797Y-113245800D01*
X180256203Y-113245800D01*
X180091831Y-113213105D01*
X179936995Y-113148969D01*
X179797646Y-113055860D01*
X179679140Y-112937354D01*
X179586031Y-112798005D01*
X179521895Y-112643169D01*
X179489200Y-112478797D01*
X179489200Y-112311203D01*
X179521895Y-112146831D01*
X179586031Y-111991995D01*
X179679140Y-111852646D01*
X179797646Y-111734140D01*
X179936995Y-111641031D01*
X180091831Y-111576895D01*
X180256203Y-111544200D01*
X180423797Y-111544200D01*
X180588169Y-111576895D01*
G37*
G36*
X188208169Y-111576895D02*
G01*
X188363005Y-111641031D01*
X188502354Y-111734140D01*
X188620860Y-111852646D01*
X188713969Y-111991995D01*
X188778105Y-112146831D01*
X188810800Y-112311203D01*
X188810800Y-112478797D01*
X188778105Y-112643169D01*
X188713969Y-112798005D01*
X188620860Y-112937354D01*
X188502354Y-113055860D01*
X188363005Y-113148969D01*
X188208169Y-113213105D01*
X188043797Y-113245800D01*
X187876203Y-113245800D01*
X187711831Y-113213105D01*
X187556995Y-113148969D01*
X187417646Y-113055860D01*
X187299140Y-112937354D01*
X187206031Y-112798005D01*
X187141895Y-112643169D01*
X187109200Y-112478797D01*
X187109200Y-112311203D01*
X187141895Y-112146831D01*
X187206031Y-111991995D01*
X187299140Y-111852646D01*
X187417646Y-111734140D01*
X187556995Y-111641031D01*
X187711831Y-111576895D01*
X187876203Y-111544200D01*
X188043797Y-111544200D01*
X188208169Y-111576895D01*
G37*
G36*
X172004857Y-111384117D02*
G01*
X172050465Y-111397952D01*
X172092504Y-111420422D01*
X172129344Y-111450656D01*
X172159578Y-111487496D01*
X172182048Y-111529535D01*
X172195883Y-111575143D01*
X172200800Y-111625065D01*
X172200800Y-112384935D01*
X172195883Y-112434857D01*
X172182048Y-112480465D01*
X172159578Y-112522504D01*
X172129344Y-112559344D01*
X172092504Y-112589578D01*
X172050465Y-112612048D01*
X172004857Y-112625883D01*
X171954935Y-112630800D01*
X170945065Y-112630800D01*
X170895143Y-112625883D01*
X170849535Y-112612048D01*
X170807496Y-112589578D01*
X170770656Y-112559344D01*
X170740422Y-112522504D01*
X170717952Y-112480465D01*
X170704117Y-112434857D01*
X170699200Y-112384935D01*
X170699200Y-111625065D01*
X170704117Y-111575143D01*
X170717952Y-111529535D01*
X170740422Y-111487496D01*
X170770656Y-111450656D01*
X170807496Y-111420422D01*
X170849535Y-111397952D01*
X170895143Y-111384117D01*
X170945065Y-111379200D01*
X171954935Y-111379200D01*
X172004857Y-111384117D01*
G37*
G36*
X177084857Y-111384117D02*
G01*
X177130465Y-111397952D01*
X177172504Y-111420422D01*
X177209344Y-111450656D01*
X177239578Y-111487496D01*
X177262048Y-111529535D01*
X177275883Y-111575143D01*
X177280800Y-111625065D01*
X177280800Y-112384935D01*
X177275883Y-112434857D01*
X177262048Y-112480465D01*
X177239578Y-112522504D01*
X177209344Y-112559344D01*
X177172504Y-112589578D01*
X177130465Y-112612048D01*
X177084857Y-112625883D01*
X177034935Y-112630800D01*
X176025065Y-112630800D01*
X175975143Y-112625883D01*
X175929535Y-112612048D01*
X175887496Y-112589578D01*
X175850656Y-112559344D01*
X175820422Y-112522504D01*
X175797952Y-112480465D01*
X175784117Y-112434857D01*
X175779200Y-112384935D01*
X175779200Y-111625065D01*
X175784117Y-111575143D01*
X175797952Y-111529535D01*
X175820422Y-111487496D01*
X175850656Y-111450656D01*
X175887496Y-111420422D01*
X175929535Y-111397952D01*
X175975143Y-111384117D01*
X176025065Y-111379200D01*
X177034935Y-111379200D01*
X177084857Y-111384117D01*
G37*
G36*
X166924857Y-111384117D02*
G01*
X166970465Y-111397952D01*
X167012504Y-111420422D01*
X167049344Y-111450656D01*
X167079578Y-111487496D01*
X167102048Y-111529535D01*
X167115883Y-111575143D01*
X167120800Y-111625065D01*
X167120800Y-112384935D01*
X167115883Y-112434857D01*
X167102048Y-112480465D01*
X167079578Y-112522504D01*
X167049344Y-112559344D01*
X167012504Y-112589578D01*
X166970465Y-112612048D01*
X166924857Y-112625883D01*
X166874935Y-112630800D01*
X165865065Y-112630800D01*
X165815143Y-112625883D01*
X165769535Y-112612048D01*
X165727496Y-112589578D01*
X165690656Y-112559344D01*
X165660422Y-112522504D01*
X165637952Y-112480465D01*
X165624117Y-112434857D01*
X165619200Y-112384935D01*
X165619200Y-111625065D01*
X165624117Y-111575143D01*
X165637952Y-111529535D01*
X165660422Y-111487496D01*
X165690656Y-111450656D01*
X165727496Y-111420422D01*
X165769535Y-111397952D01*
X165815143Y-111384117D01*
X165865065Y-111379200D01*
X166874935Y-111379200D01*
X166924857Y-111384117D01*
G37*
G36*
X154478857Y-110894117D02*
G01*
X154524465Y-110907952D01*
X154566504Y-110930422D01*
X154603344Y-110960656D01*
X154633578Y-110997496D01*
X154656048Y-111039535D01*
X154669883Y-111085143D01*
X154674800Y-111135065D01*
X154674800Y-111894935D01*
X154669883Y-111944857D01*
X154656048Y-111990465D01*
X154633578Y-112032504D01*
X154603344Y-112069344D01*
X154566504Y-112099578D01*
X154524465Y-112122048D01*
X154478857Y-112135883D01*
X154428935Y-112140800D01*
X153419065Y-112140800D01*
X153369143Y-112135883D01*
X153323535Y-112122048D01*
X153281496Y-112099578D01*
X153244656Y-112069344D01*
X153214422Y-112032504D01*
X153191952Y-111990465D01*
X153178117Y-111944857D01*
X153173200Y-111894935D01*
X153173200Y-111135065D01*
X153178117Y-111085143D01*
X153191952Y-111039535D01*
X153214422Y-110997496D01*
X153244656Y-110960656D01*
X153281496Y-110930422D01*
X153323535Y-110907952D01*
X153369143Y-110894117D01*
X153419065Y-110889200D01*
X154428935Y-110889200D01*
X154478857Y-110894117D01*
G37*
G36*
X150528900Y-111879700D02*
G01*
X149151100Y-111879700D01*
X149151100Y-111000300D01*
X150528900Y-111000300D01*
X150528900Y-111879700D01*
G37*
G36*
X162190800Y-111390800D02*
G01*
X160389200Y-111390800D01*
X160389200Y-109589200D01*
X162190800Y-109589200D01*
X162190800Y-111390800D01*
G37*
G36*
X148028900Y-110929700D02*
G01*
X146651100Y-110929700D01*
X146651100Y-110050300D01*
X148028900Y-110050300D01*
X148028900Y-110929700D01*
G37*
G36*
X188208169Y-109036895D02*
G01*
X188363005Y-109101031D01*
X188502354Y-109194140D01*
X188620860Y-109312646D01*
X188713969Y-109451995D01*
X188778105Y-109606831D01*
X188810800Y-109771203D01*
X188810800Y-109938797D01*
X188778105Y-110103169D01*
X188713969Y-110258005D01*
X188620860Y-110397354D01*
X188502354Y-110515860D01*
X188363005Y-110608969D01*
X188208169Y-110673105D01*
X188043797Y-110705800D01*
X187876203Y-110705800D01*
X187711831Y-110673105D01*
X187556995Y-110608969D01*
X187417646Y-110515860D01*
X187299140Y-110397354D01*
X187206031Y-110258005D01*
X187141895Y-110103169D01*
X187109200Y-109938797D01*
X187109200Y-109771203D01*
X187141895Y-109606831D01*
X187206031Y-109451995D01*
X187299140Y-109312646D01*
X187417646Y-109194140D01*
X187556995Y-109101031D01*
X187711831Y-109036895D01*
X187876203Y-109004200D01*
X188043797Y-109004200D01*
X188208169Y-109036895D01*
G37*
G36*
X180588169Y-109036895D02*
G01*
X180743005Y-109101031D01*
X180882354Y-109194140D01*
X181000860Y-109312646D01*
X181093969Y-109451995D01*
X181158105Y-109606831D01*
X181190800Y-109771203D01*
X181190800Y-109938797D01*
X181158105Y-110103169D01*
X181093969Y-110258005D01*
X181000860Y-110397354D01*
X180882354Y-110515860D01*
X180743005Y-110608969D01*
X180588169Y-110673105D01*
X180423797Y-110705800D01*
X180256203Y-110705800D01*
X180091831Y-110673105D01*
X179936995Y-110608969D01*
X179797646Y-110515860D01*
X179679140Y-110397354D01*
X179586031Y-110258005D01*
X179521895Y-110103169D01*
X179489200Y-109938797D01*
X179489200Y-109771203D01*
X179521895Y-109606831D01*
X179586031Y-109451995D01*
X179679140Y-109312646D01*
X179797646Y-109194140D01*
X179936995Y-109101031D01*
X180091831Y-109036895D01*
X180256203Y-109004200D01*
X180423797Y-109004200D01*
X180588169Y-109036895D01*
G37*
G36*
X154478857Y-108844117D02*
G01*
X154524465Y-108857952D01*
X154566504Y-108880422D01*
X154603344Y-108910656D01*
X154633578Y-108947496D01*
X154656048Y-108989535D01*
X154669883Y-109035143D01*
X154674800Y-109085065D01*
X154674800Y-109844935D01*
X154669883Y-109894857D01*
X154656048Y-109940465D01*
X154633578Y-109982504D01*
X154603344Y-110019344D01*
X154566504Y-110049578D01*
X154524465Y-110072048D01*
X154478857Y-110085883D01*
X154428935Y-110090800D01*
X153419065Y-110090800D01*
X153369143Y-110085883D01*
X153323535Y-110072048D01*
X153281496Y-110049578D01*
X153244656Y-110019344D01*
X153214422Y-109982504D01*
X153191952Y-109940465D01*
X153178117Y-109894857D01*
X153173200Y-109844935D01*
X153173200Y-109085065D01*
X153178117Y-109035143D01*
X153191952Y-108989535D01*
X153214422Y-108947496D01*
X153244656Y-108910656D01*
X153281496Y-108880422D01*
X153323535Y-108857952D01*
X153369143Y-108844117D01*
X153419065Y-108839200D01*
X154428935Y-108839200D01*
X154478857Y-108844117D01*
G37*
G36*
X150528900Y-109979700D02*
G01*
X149151100Y-109979700D01*
X149151100Y-109100300D01*
X150528900Y-109100300D01*
X150528900Y-109979700D01*
G37*
G36*
X139555508Y-106488582D02*
G01*
X139746741Y-106567793D01*
X139918847Y-106682791D01*
X140065209Y-106829153D01*
X140180207Y-107001259D01*
X140259418Y-107192492D01*
X140299800Y-107395505D01*
X140299800Y-107602495D01*
X140259418Y-107805508D01*
X140180207Y-107996741D01*
X140065209Y-108168847D01*
X139918847Y-108315209D01*
X139746741Y-108430207D01*
X139555508Y-108509418D01*
X139352495Y-108549800D01*
X139145505Y-108549800D01*
X138942492Y-108509418D01*
X138751259Y-108430207D01*
X138579153Y-108315209D01*
X138432791Y-108168847D01*
X138317793Y-107996741D01*
X138238582Y-107805508D01*
X138198200Y-107602495D01*
X138198200Y-107395505D01*
X138238582Y-107192492D01*
X138317793Y-107001259D01*
X138432791Y-106829153D01*
X138579153Y-106682791D01*
X138751259Y-106567793D01*
X138942492Y-106488582D01*
X139145505Y-106448200D01*
X139352495Y-106448200D01*
X139555508Y-106488582D01*
G37*
G36*
X132837508Y-106488582D02*
G01*
X133028741Y-106567793D01*
X133200847Y-106682791D01*
X133347209Y-106829153D01*
X133462207Y-107001259D01*
X133541418Y-107192492D01*
X133581800Y-107395505D01*
X133581800Y-107602495D01*
X133541418Y-107805508D01*
X133462207Y-107996741D01*
X133347209Y-108168847D01*
X133200847Y-108315209D01*
X133028741Y-108430207D01*
X132837508Y-108509418D01*
X132634495Y-108549800D01*
X132427505Y-108549800D01*
X132224492Y-108509418D01*
X132033259Y-108430207D01*
X131861153Y-108315209D01*
X131714791Y-108168847D01*
X131599793Y-107996741D01*
X131520582Y-107805508D01*
X131480200Y-107602495D01*
X131480200Y-107395505D01*
X131520582Y-107192492D01*
X131599793Y-107001259D01*
X131714791Y-106829153D01*
X131861153Y-106682791D01*
X132033259Y-106567793D01*
X132224492Y-106488582D01*
X132427505Y-106448200D01*
X132634495Y-106448200D01*
X132837508Y-106488582D01*
G37*
G36*
X188208169Y-106496895D02*
G01*
X188363005Y-106561031D01*
X188502354Y-106654140D01*
X188620860Y-106772646D01*
X188713969Y-106911995D01*
X188778105Y-107066831D01*
X188810800Y-107231203D01*
X188810800Y-107398797D01*
X188778105Y-107563169D01*
X188713969Y-107718005D01*
X188620860Y-107857354D01*
X188502354Y-107975860D01*
X188363005Y-108068969D01*
X188208169Y-108133105D01*
X188043797Y-108165800D01*
X187876203Y-108165800D01*
X187711831Y-108133105D01*
X187556995Y-108068969D01*
X187417646Y-107975860D01*
X187299140Y-107857354D01*
X187206031Y-107718005D01*
X187141895Y-107563169D01*
X187109200Y-107398797D01*
X187109200Y-107231203D01*
X187141895Y-107066831D01*
X187206031Y-106911995D01*
X187299140Y-106772646D01*
X187417646Y-106654140D01*
X187556995Y-106561031D01*
X187711831Y-106496895D01*
X187876203Y-106464200D01*
X188043797Y-106464200D01*
X188208169Y-106496895D01*
G37*
G36*
X181190800Y-108165800D02*
G01*
X179489200Y-108165800D01*
X179489200Y-106464200D01*
X181190800Y-106464200D01*
X181190800Y-108165800D01*
G37*
G36*
X167016800Y-105294800D02*
G01*
X165215200Y-105294800D01*
X165215200Y-103493200D01*
X167016800Y-103493200D01*
X167016800Y-105294800D01*
G37*
G36*
X168918754Y-103527817D02*
G01*
X169082689Y-103595721D01*
X169230227Y-103694303D01*
X169355697Y-103819773D01*
X169454279Y-103967311D01*
X169522183Y-104131246D01*
X169556800Y-104305279D01*
X169556800Y-104482721D01*
X169522183Y-104656754D01*
X169454279Y-104820689D01*
X169355697Y-104968227D01*
X169230227Y-105093697D01*
X169082689Y-105192279D01*
X168918754Y-105260183D01*
X168744721Y-105294800D01*
X168567279Y-105294800D01*
X168393246Y-105260183D01*
X168229311Y-105192279D01*
X168081773Y-105093697D01*
X167956303Y-104968227D01*
X167857721Y-104820689D01*
X167789817Y-104656754D01*
X167755200Y-104482721D01*
X167755200Y-104305279D01*
X167789817Y-104131246D01*
X167857721Y-103967311D01*
X167956303Y-103819773D01*
X168081773Y-103694303D01*
X168229311Y-103595721D01*
X168393246Y-103527817D01*
X168567279Y-103493200D01*
X168744721Y-103493200D01*
X168918754Y-103527817D01*
G37*
G36*
X131446508Y-103129582D02*
G01*
X131637741Y-103208793D01*
X131809847Y-103323791D01*
X131956209Y-103470153D01*
X132071207Y-103642259D01*
X132150418Y-103833492D01*
X132190800Y-104036505D01*
X132190800Y-104243495D01*
X132150418Y-104446508D01*
X132071207Y-104637741D01*
X131956209Y-104809847D01*
X131809847Y-104956209D01*
X131637741Y-105071207D01*
X131446508Y-105150418D01*
X131243495Y-105190800D01*
X131036505Y-105190800D01*
X130833492Y-105150418D01*
X130642259Y-105071207D01*
X130470153Y-104956209D01*
X130323791Y-104809847D01*
X130208793Y-104637741D01*
X130129582Y-104446508D01*
X130089200Y-104243495D01*
X130089200Y-104036505D01*
X130129582Y-103833492D01*
X130208793Y-103642259D01*
X130323791Y-103470153D01*
X130470153Y-103323791D01*
X130642259Y-103208793D01*
X130833492Y-103129582D01*
X131036505Y-103089200D01*
X131243495Y-103089200D01*
X131446508Y-103129582D01*
G37*
G36*
X140946508Y-103129582D02*
G01*
X141137741Y-103208793D01*
X141309847Y-103323791D01*
X141456209Y-103470153D01*
X141571207Y-103642259D01*
X141650418Y-103833492D01*
X141690800Y-104036505D01*
X141690800Y-104243495D01*
X141650418Y-104446508D01*
X141571207Y-104637741D01*
X141456209Y-104809847D01*
X141309847Y-104956209D01*
X141137741Y-105071207D01*
X140946508Y-105150418D01*
X140743495Y-105190800D01*
X140536505Y-105190800D01*
X140333492Y-105150418D01*
X140142259Y-105071207D01*
X139970153Y-104956209D01*
X139823791Y-104809847D01*
X139708793Y-104637741D01*
X139629582Y-104446508D01*
X139589200Y-104243495D01*
X139589200Y-104036505D01*
X139629582Y-103833492D01*
X139708793Y-103642259D01*
X139823791Y-103470153D01*
X139970153Y-103323791D01*
X140142259Y-103208793D01*
X140333492Y-103129582D01*
X140536505Y-103089200D01*
X140743495Y-103089200D01*
X140946508Y-103129582D01*
G37*
G36*
X148629857Y-103394117D02*
G01*
X148675465Y-103407952D01*
X148717504Y-103430422D01*
X148754344Y-103460656D01*
X148784578Y-103497496D01*
X148807048Y-103539535D01*
X148820883Y-103585143D01*
X148825800Y-103635065D01*
X148825800Y-104644935D01*
X148820883Y-104694857D01*
X148807048Y-104740465D01*
X148784578Y-104782504D01*
X148754344Y-104819344D01*
X148717504Y-104849578D01*
X148675465Y-104872048D01*
X148629857Y-104885883D01*
X148579935Y-104890800D01*
X147820065Y-104890800D01*
X147770143Y-104885883D01*
X147724535Y-104872048D01*
X147682496Y-104849578D01*
X147645656Y-104819344D01*
X147615422Y-104782504D01*
X147592952Y-104740465D01*
X147579117Y-104694857D01*
X147574200Y-104644935D01*
X147574200Y-103635065D01*
X147579117Y-103585143D01*
X147592952Y-103539535D01*
X147615422Y-103497496D01*
X147645656Y-103460656D01*
X147682496Y-103430422D01*
X147724535Y-103407952D01*
X147770143Y-103394117D01*
X147820065Y-103389200D01*
X148579935Y-103389200D01*
X148629857Y-103394117D01*
G37*
G36*
X153201857Y-103394117D02*
G01*
X153247465Y-103407952D01*
X153289504Y-103430422D01*
X153326344Y-103460656D01*
X153356578Y-103497496D01*
X153379048Y-103539535D01*
X153392883Y-103585143D01*
X153397800Y-103635065D01*
X153397800Y-104644935D01*
X153392883Y-104694857D01*
X153379048Y-104740465D01*
X153356578Y-104782504D01*
X153326344Y-104819344D01*
X153289504Y-104849578D01*
X153247465Y-104872048D01*
X153201857Y-104885883D01*
X153151935Y-104890800D01*
X152392065Y-104890800D01*
X152342143Y-104885883D01*
X152296535Y-104872048D01*
X152254496Y-104849578D01*
X152217656Y-104819344D01*
X152187422Y-104782504D01*
X152164952Y-104740465D01*
X152151117Y-104694857D01*
X152146200Y-104644935D01*
X152146200Y-103635065D01*
X152151117Y-103585143D01*
X152164952Y-103539535D01*
X152187422Y-103497496D01*
X152217656Y-103460656D01*
X152254496Y-103430422D01*
X152296535Y-103407952D01*
X152342143Y-103394117D01*
X152392065Y-103389200D01*
X153151935Y-103389200D01*
X153201857Y-103394117D01*
G37*
G36*
X155251857Y-103394117D02*
G01*
X155297465Y-103407952D01*
X155339504Y-103430422D01*
X155376344Y-103460656D01*
X155406578Y-103497496D01*
X155429048Y-103539535D01*
X155442883Y-103585143D01*
X155447800Y-103635065D01*
X155447800Y-104644935D01*
X155442883Y-104694857D01*
X155429048Y-104740465D01*
X155406578Y-104782504D01*
X155376344Y-104819344D01*
X155339504Y-104849578D01*
X155297465Y-104872048D01*
X155251857Y-104885883D01*
X155201935Y-104890800D01*
X154442065Y-104890800D01*
X154392143Y-104885883D01*
X154346535Y-104872048D01*
X154304496Y-104849578D01*
X154267656Y-104819344D01*
X154237422Y-104782504D01*
X154214952Y-104740465D01*
X154201117Y-104694857D01*
X154196200Y-104644935D01*
X154196200Y-103635065D01*
X154201117Y-103585143D01*
X154214952Y-103539535D01*
X154237422Y-103497496D01*
X154267656Y-103460656D01*
X154304496Y-103430422D01*
X154346535Y-103407952D01*
X154392143Y-103394117D01*
X154442065Y-103389200D01*
X155201935Y-103389200D01*
X155251857Y-103394117D01*
G37*
G36*
X150679857Y-103394117D02*
G01*
X150725465Y-103407952D01*
X150767504Y-103430422D01*
X150804344Y-103460656D01*
X150834578Y-103497496D01*
X150857048Y-103539535D01*
X150870883Y-103585143D01*
X150875800Y-103635065D01*
X150875800Y-104644935D01*
X150870883Y-104694857D01*
X150857048Y-104740465D01*
X150834578Y-104782504D01*
X150804344Y-104819344D01*
X150767504Y-104849578D01*
X150725465Y-104872048D01*
X150679857Y-104885883D01*
X150629935Y-104890800D01*
X149870065Y-104890800D01*
X149820143Y-104885883D01*
X149774535Y-104872048D01*
X149732496Y-104849578D01*
X149695656Y-104819344D01*
X149665422Y-104782504D01*
X149642952Y-104740465D01*
X149629117Y-104694857D01*
X149624200Y-104644935D01*
X149624200Y-103635065D01*
X149629117Y-103585143D01*
X149642952Y-103539535D01*
X149665422Y-103497496D01*
X149695656Y-103460656D01*
X149732496Y-103430422D01*
X149774535Y-103407952D01*
X149820143Y-103394117D01*
X149870065Y-103389200D01*
X150629935Y-103389200D01*
X150679857Y-103394117D01*
G37*
G36*
X132837508Y-99770582D02*
G01*
X133028741Y-99849793D01*
X133200847Y-99964791D01*
X133347209Y-100111153D01*
X133462207Y-100283259D01*
X133541418Y-100474492D01*
X133581800Y-100677505D01*
X133581800Y-100884495D01*
X133541418Y-101087508D01*
X133462207Y-101278741D01*
X133347209Y-101450847D01*
X133200847Y-101597209D01*
X133028741Y-101712207D01*
X132837508Y-101791418D01*
X132634495Y-101831800D01*
X132427505Y-101831800D01*
X132224492Y-101791418D01*
X132033259Y-101712207D01*
X131861153Y-101597209D01*
X131714791Y-101450847D01*
X131599793Y-101278741D01*
X131520582Y-101087508D01*
X131480200Y-100884495D01*
X131480200Y-100677505D01*
X131520582Y-100474492D01*
X131599793Y-100283259D01*
X131714791Y-100111153D01*
X131861153Y-99964791D01*
X132033259Y-99849793D01*
X132224492Y-99770582D01*
X132427505Y-99730200D01*
X132634495Y-99730200D01*
X132837508Y-99770582D01*
G37*
G36*
X139555508Y-99770582D02*
G01*
X139746741Y-99849793D01*
X139918847Y-99964791D01*
X140065209Y-100111153D01*
X140180207Y-100283259D01*
X140259418Y-100474492D01*
X140299800Y-100677505D01*
X140299800Y-100884495D01*
X140259418Y-101087508D01*
X140180207Y-101278741D01*
X140065209Y-101450847D01*
X139918847Y-101597209D01*
X139746741Y-101712207D01*
X139555508Y-101791418D01*
X139352495Y-101831800D01*
X139145505Y-101831800D01*
X138942492Y-101791418D01*
X138751259Y-101712207D01*
X138579153Y-101597209D01*
X138432791Y-101450847D01*
X138317793Y-101278741D01*
X138238582Y-101087508D01*
X138198200Y-100884495D01*
X138198200Y-100677505D01*
X138238582Y-100474492D01*
X138317793Y-100283259D01*
X138432791Y-100111153D01*
X138579153Y-99964791D01*
X138751259Y-99849793D01*
X138942492Y-99770582D01*
X139145505Y-99730200D01*
X139352495Y-99730200D01*
X139555508Y-99770582D01*
G37*
G36*
X150679857Y-98314117D02*
G01*
X150725465Y-98327952D01*
X150767504Y-98350422D01*
X150804344Y-98380656D01*
X150834578Y-98417496D01*
X150857048Y-98459535D01*
X150870883Y-98505143D01*
X150875800Y-98555065D01*
X150875800Y-99564935D01*
X150870883Y-99614857D01*
X150857048Y-99660465D01*
X150834578Y-99702504D01*
X150804344Y-99739344D01*
X150767504Y-99769578D01*
X150725465Y-99792048D01*
X150679857Y-99805883D01*
X150629935Y-99810800D01*
X149870065Y-99810800D01*
X149820143Y-99805883D01*
X149774535Y-99792048D01*
X149732496Y-99769578D01*
X149695656Y-99739344D01*
X149665422Y-99702504D01*
X149642952Y-99660465D01*
X149629117Y-99614857D01*
X149624200Y-99564935D01*
X149624200Y-98555065D01*
X149629117Y-98505143D01*
X149642952Y-98459535D01*
X149665422Y-98417496D01*
X149695656Y-98380656D01*
X149732496Y-98350422D01*
X149774535Y-98327952D01*
X149820143Y-98314117D01*
X149870065Y-98309200D01*
X150629935Y-98309200D01*
X150679857Y-98314117D01*
G37*
G36*
X148629857Y-98314117D02*
G01*
X148675465Y-98327952D01*
X148717504Y-98350422D01*
X148754344Y-98380656D01*
X148784578Y-98417496D01*
X148807048Y-98459535D01*
X148820883Y-98505143D01*
X148825800Y-98555065D01*
X148825800Y-99564935D01*
X148820883Y-99614857D01*
X148807048Y-99660465D01*
X148784578Y-99702504D01*
X148754344Y-99739344D01*
X148717504Y-99769578D01*
X148675465Y-99792048D01*
X148629857Y-99805883D01*
X148579935Y-99810800D01*
X147820065Y-99810800D01*
X147770143Y-99805883D01*
X147724535Y-99792048D01*
X147682496Y-99769578D01*
X147645656Y-99739344D01*
X147615422Y-99702504D01*
X147592952Y-99660465D01*
X147579117Y-99614857D01*
X147574200Y-99564935D01*
X147574200Y-98555065D01*
X147579117Y-98505143D01*
X147592952Y-98459535D01*
X147615422Y-98417496D01*
X147645656Y-98380656D01*
X147682496Y-98350422D01*
X147724535Y-98327952D01*
X147770143Y-98314117D01*
X147820065Y-98309200D01*
X148579935Y-98309200D01*
X148629857Y-98314117D01*
G37*
G36*
X155251857Y-98314117D02*
G01*
X155297465Y-98327952D01*
X155339504Y-98350422D01*
X155376344Y-98380656D01*
X155406578Y-98417496D01*
X155429048Y-98459535D01*
X155442883Y-98505143D01*
X155447800Y-98555065D01*
X155447800Y-99564935D01*
X155442883Y-99614857D01*
X155429048Y-99660465D01*
X155406578Y-99702504D01*
X155376344Y-99739344D01*
X155339504Y-99769578D01*
X155297465Y-99792048D01*
X155251857Y-99805883D01*
X155201935Y-99810800D01*
X154442065Y-99810800D01*
X154392143Y-99805883D01*
X154346535Y-99792048D01*
X154304496Y-99769578D01*
X154267656Y-99739344D01*
X154237422Y-99702504D01*
X154214952Y-99660465D01*
X154201117Y-99614857D01*
X154196200Y-99564935D01*
X154196200Y-98555065D01*
X154201117Y-98505143D01*
X154214952Y-98459535D01*
X154237422Y-98417496D01*
X154267656Y-98380656D01*
X154304496Y-98350422D01*
X154346535Y-98327952D01*
X154392143Y-98314117D01*
X154442065Y-98309200D01*
X155201935Y-98309200D01*
X155251857Y-98314117D01*
G37*
G36*
X153201857Y-98314117D02*
G01*
X153247465Y-98327952D01*
X153289504Y-98350422D01*
X153326344Y-98380656D01*
X153356578Y-98417496D01*
X153379048Y-98459535D01*
X153392883Y-98505143D01*
X153397800Y-98555065D01*
X153397800Y-99564935D01*
X153392883Y-99614857D01*
X153379048Y-99660465D01*
X153356578Y-99702504D01*
X153326344Y-99739344D01*
X153289504Y-99769578D01*
X153247465Y-99792048D01*
X153201857Y-99805883D01*
X153151935Y-99810800D01*
X152392065Y-99810800D01*
X152342143Y-99805883D01*
X152296535Y-99792048D01*
X152254496Y-99769578D01*
X152217656Y-99739344D01*
X152187422Y-99702504D01*
X152164952Y-99660465D01*
X152151117Y-99614857D01*
X152146200Y-99564935D01*
X152146200Y-98555065D01*
X152151117Y-98505143D01*
X152164952Y-98459535D01*
X152187422Y-98417496D01*
X152217656Y-98380656D01*
X152254496Y-98350422D01*
X152296535Y-98327952D01*
X152342143Y-98314117D01*
X152392065Y-98309200D01*
X153151935Y-98309200D01*
X153201857Y-98314117D01*
G37*
G36*
X171345801Y-98990801D02*
G01*
X170344201Y-98990801D01*
X170344201Y-96889201D01*
X171345801Y-96889201D01*
X171345801Y-98990801D01*
G37*
G36*
X178965801Y-98990801D02*
G01*
X177964201Y-98990801D01*
X177964201Y-96889201D01*
X178965801Y-96889201D01*
X178965801Y-98990801D01*
G37*
G36*
X176425801Y-98990801D02*
G01*
X175424201Y-98990801D01*
X175424201Y-96889201D01*
X176425801Y-96889201D01*
X176425801Y-98990801D01*
G37*
G36*
X175155801Y-98990801D02*
G01*
X174154201Y-98990801D01*
X174154201Y-96889201D01*
X175155801Y-96889201D01*
X175155801Y-98990801D01*
G37*
G36*
X180235801Y-98990801D02*
G01*
X179234201Y-98990801D01*
X179234201Y-96889201D01*
X180235801Y-96889201D01*
X180235801Y-98990801D01*
G37*
G36*
X173885801Y-98990801D02*
G01*
X172884201Y-98990801D01*
X172884201Y-96889201D01*
X173885801Y-96889201D01*
X173885801Y-98990801D01*
G37*
G36*
X172615801Y-98990801D02*
G01*
X171614201Y-98990801D01*
X171614201Y-96889201D01*
X172615801Y-96889201D01*
X172615801Y-98990801D01*
G37*
G36*
X170075801Y-98990801D02*
G01*
X169074201Y-98990801D01*
X169074201Y-96889201D01*
X170075801Y-96889201D01*
X170075801Y-98990801D01*
G37*
G36*
X168805801Y-98990801D02*
G01*
X167804201Y-98990801D01*
X167804201Y-96889201D01*
X168805801Y-96889201D01*
X168805801Y-98990801D01*
G37*
G36*
X177695801Y-98990801D02*
G01*
X176694201Y-98990801D01*
X176694201Y-96889201D01*
X177695801Y-96889201D01*
X177695801Y-98990801D01*
G37*
G36*
X216800800Y-98690800D02*
G01*
X214999200Y-98690800D01*
X214999200Y-96889200D01*
X216800800Y-96889200D01*
X216800800Y-98690800D01*
G37*
G36*
X206002754Y-96923817D02*
G01*
X206166689Y-96991721D01*
X206314227Y-97090303D01*
X206439697Y-97215773D01*
X206538279Y-97363311D01*
X206606183Y-97527246D01*
X206640800Y-97701279D01*
X206640800Y-97878721D01*
X206606183Y-98052754D01*
X206538279Y-98216689D01*
X206439697Y-98364227D01*
X206314227Y-98489697D01*
X206166689Y-98588279D01*
X206002754Y-98656183D01*
X205828721Y-98690800D01*
X205651279Y-98690800D01*
X205477246Y-98656183D01*
X205313311Y-98588279D01*
X205165773Y-98489697D01*
X205040303Y-98364227D01*
X204941721Y-98216689D01*
X204873817Y-98052754D01*
X204839200Y-97878721D01*
X204839200Y-97701279D01*
X204873817Y-97527246D01*
X204941721Y-97363311D01*
X205040303Y-97215773D01*
X205165773Y-97090303D01*
X205313311Y-96991721D01*
X205477246Y-96923817D01*
X205651279Y-96889200D01*
X205828721Y-96889200D01*
X206002754Y-96923817D01*
G37*
G36*
X203462754Y-96923817D02*
G01*
X203626689Y-96991721D01*
X203774227Y-97090303D01*
X203899697Y-97215773D01*
X203998279Y-97363311D01*
X204066183Y-97527246D01*
X204100800Y-97701279D01*
X204100800Y-97878721D01*
X204066183Y-98052754D01*
X203998279Y-98216689D01*
X203899697Y-98364227D01*
X203774227Y-98489697D01*
X203626689Y-98588279D01*
X203462754Y-98656183D01*
X203288721Y-98690800D01*
X203111279Y-98690800D01*
X202937246Y-98656183D01*
X202773311Y-98588279D01*
X202625773Y-98489697D01*
X202500303Y-98364227D01*
X202401721Y-98216689D01*
X202333817Y-98052754D01*
X202299200Y-97878721D01*
X202299200Y-97701279D01*
X202333817Y-97527246D01*
X202401721Y-97363311D01*
X202500303Y-97215773D01*
X202625773Y-97090303D01*
X202773311Y-96991721D01*
X202937246Y-96923817D01*
X203111279Y-96889200D01*
X203288721Y-96889200D01*
X203462754Y-96923817D01*
G37*
G36*
X213622754Y-96923817D02*
G01*
X213786689Y-96991721D01*
X213934227Y-97090303D01*
X214059697Y-97215773D01*
X214158279Y-97363311D01*
X214226183Y-97527246D01*
X214260800Y-97701279D01*
X214260800Y-97878721D01*
X214226183Y-98052754D01*
X214158279Y-98216689D01*
X214059697Y-98364227D01*
X213934227Y-98489697D01*
X213786689Y-98588279D01*
X213622754Y-98656183D01*
X213448721Y-98690800D01*
X213271279Y-98690800D01*
X213097246Y-98656183D01*
X212933311Y-98588279D01*
X212785773Y-98489697D01*
X212660303Y-98364227D01*
X212561721Y-98216689D01*
X212493817Y-98052754D01*
X212459200Y-97878721D01*
X212459200Y-97701279D01*
X212493817Y-97527246D01*
X212561721Y-97363311D01*
X212660303Y-97215773D01*
X212785773Y-97090303D01*
X212933311Y-96991721D01*
X213097246Y-96923817D01*
X213271279Y-96889200D01*
X213448721Y-96889200D01*
X213622754Y-96923817D01*
G37*
G36*
X195842754Y-96923817D02*
G01*
X196006689Y-96991721D01*
X196154227Y-97090303D01*
X196279697Y-97215773D01*
X196378279Y-97363311D01*
X196446183Y-97527246D01*
X196480800Y-97701279D01*
X196480800Y-97878721D01*
X196446183Y-98052754D01*
X196378279Y-98216689D01*
X196279697Y-98364227D01*
X196154227Y-98489697D01*
X196006689Y-98588279D01*
X195842754Y-98656183D01*
X195668721Y-98690800D01*
X195491279Y-98690800D01*
X195317246Y-98656183D01*
X195153311Y-98588279D01*
X195005773Y-98489697D01*
X194880303Y-98364227D01*
X194781721Y-98216689D01*
X194713817Y-98052754D01*
X194679200Y-97878721D01*
X194679200Y-97701279D01*
X194713817Y-97527246D01*
X194781721Y-97363311D01*
X194880303Y-97215773D01*
X195005773Y-97090303D01*
X195153311Y-96991721D01*
X195317246Y-96923817D01*
X195491279Y-96889200D01*
X195668721Y-96889200D01*
X195842754Y-96923817D01*
G37*
G36*
X200922754Y-96923817D02*
G01*
X201086689Y-96991721D01*
X201234227Y-97090303D01*
X201359697Y-97215773D01*
X201458279Y-97363311D01*
X201526183Y-97527246D01*
X201560800Y-97701279D01*
X201560800Y-97878721D01*
X201526183Y-98052754D01*
X201458279Y-98216689D01*
X201359697Y-98364227D01*
X201234227Y-98489697D01*
X201086689Y-98588279D01*
X200922754Y-98656183D01*
X200748721Y-98690800D01*
X200571279Y-98690800D01*
X200397246Y-98656183D01*
X200233311Y-98588279D01*
X200085773Y-98489697D01*
X199960303Y-98364227D01*
X199861721Y-98216689D01*
X199793817Y-98052754D01*
X199759200Y-97878721D01*
X199759200Y-97701279D01*
X199793817Y-97527246D01*
X199861721Y-97363311D01*
X199960303Y-97215773D01*
X200085773Y-97090303D01*
X200233311Y-96991721D01*
X200397246Y-96923817D01*
X200571279Y-96889200D01*
X200748721Y-96889200D01*
X200922754Y-96923817D01*
G37*
G36*
X211082754Y-96923817D02*
G01*
X211246689Y-96991721D01*
X211394227Y-97090303D01*
X211519697Y-97215773D01*
X211618279Y-97363311D01*
X211686183Y-97527246D01*
X211720800Y-97701279D01*
X211720800Y-97878721D01*
X211686183Y-98052754D01*
X211618279Y-98216689D01*
X211519697Y-98364227D01*
X211394227Y-98489697D01*
X211246689Y-98588279D01*
X211082754Y-98656183D01*
X210908721Y-98690800D01*
X210731279Y-98690800D01*
X210557246Y-98656183D01*
X210393311Y-98588279D01*
X210245773Y-98489697D01*
X210120303Y-98364227D01*
X210021721Y-98216689D01*
X209953817Y-98052754D01*
X209919200Y-97878721D01*
X209919200Y-97701279D01*
X209953817Y-97527246D01*
X210021721Y-97363311D01*
X210120303Y-97215773D01*
X210245773Y-97090303D01*
X210393311Y-96991721D01*
X210557246Y-96923817D01*
X210731279Y-96889200D01*
X210908721Y-96889200D01*
X211082754Y-96923817D01*
G37*
G36*
X208542754Y-96923817D02*
G01*
X208706689Y-96991721D01*
X208854227Y-97090303D01*
X208979697Y-97215773D01*
X209078279Y-97363311D01*
X209146183Y-97527246D01*
X209180800Y-97701279D01*
X209180800Y-97878721D01*
X209146183Y-98052754D01*
X209078279Y-98216689D01*
X208979697Y-98364227D01*
X208854227Y-98489697D01*
X208706689Y-98588279D01*
X208542754Y-98656183D01*
X208368721Y-98690800D01*
X208191279Y-98690800D01*
X208017246Y-98656183D01*
X207853311Y-98588279D01*
X207705773Y-98489697D01*
X207580303Y-98364227D01*
X207481721Y-98216689D01*
X207413817Y-98052754D01*
X207379200Y-97878721D01*
X207379200Y-97701279D01*
X207413817Y-97527246D01*
X207481721Y-97363311D01*
X207580303Y-97215773D01*
X207705773Y-97090303D01*
X207853311Y-96991721D01*
X208017246Y-96923817D01*
X208191279Y-96889200D01*
X208368721Y-96889200D01*
X208542754Y-96923817D01*
G37*
G36*
X198382754Y-96923817D02*
G01*
X198546689Y-96991721D01*
X198694227Y-97090303D01*
X198819697Y-97215773D01*
X198918279Y-97363311D01*
X198986183Y-97527246D01*
X199020800Y-97701279D01*
X199020800Y-97878721D01*
X198986183Y-98052754D01*
X198918279Y-98216689D01*
X198819697Y-98364227D01*
X198694227Y-98489697D01*
X198546689Y-98588279D01*
X198382754Y-98656183D01*
X198208721Y-98690800D01*
X198031279Y-98690800D01*
X197857246Y-98656183D01*
X197693311Y-98588279D01*
X197545773Y-98489697D01*
X197420303Y-98364227D01*
X197321721Y-98216689D01*
X197253817Y-98052754D01*
X197219200Y-97878721D01*
X197219200Y-97701279D01*
X197253817Y-97527246D01*
X197321721Y-97363311D01*
X197420303Y-97215773D01*
X197545773Y-97090303D01*
X197693311Y-96991721D01*
X197857246Y-96923817D01*
X198031279Y-96889200D01*
X198208721Y-96889200D01*
X198382754Y-96923817D01*
G37*
G36*
X183570801Y-97440801D02*
G01*
X181469201Y-97440801D01*
X181469201Y-96439201D01*
X183570801Y-96439201D01*
X183570801Y-97440801D01*
G37*
G36*
X166570801Y-97440801D02*
G01*
X164469201Y-97440801D01*
X164469201Y-96439201D01*
X166570801Y-96439201D01*
X166570801Y-97440801D01*
G37*
G36*
X150679857Y-95520117D02*
G01*
X150725465Y-95533952D01*
X150767504Y-95556422D01*
X150804344Y-95586656D01*
X150834578Y-95623496D01*
X150857048Y-95665535D01*
X150870883Y-95711143D01*
X150875800Y-95761065D01*
X150875800Y-96770935D01*
X150870883Y-96820857D01*
X150857048Y-96866465D01*
X150834578Y-96908504D01*
X150804344Y-96945344D01*
X150767504Y-96975578D01*
X150725465Y-96998048D01*
X150679857Y-97011883D01*
X150629935Y-97016800D01*
X149870065Y-97016800D01*
X149820143Y-97011883D01*
X149774535Y-96998048D01*
X149732496Y-96975578D01*
X149695656Y-96945344D01*
X149665422Y-96908504D01*
X149642952Y-96866465D01*
X149629117Y-96820857D01*
X149624200Y-96770935D01*
X149624200Y-95761065D01*
X149629117Y-95711143D01*
X149642952Y-95665535D01*
X149665422Y-95623496D01*
X149695656Y-95586656D01*
X149732496Y-95556422D01*
X149774535Y-95533952D01*
X149820143Y-95520117D01*
X149870065Y-95515200D01*
X150629935Y-95515200D01*
X150679857Y-95520117D01*
G37*
G36*
X148629857Y-95520117D02*
G01*
X148675465Y-95533952D01*
X148717504Y-95556422D01*
X148754344Y-95586656D01*
X148784578Y-95623496D01*
X148807048Y-95665535D01*
X148820883Y-95711143D01*
X148825800Y-95761065D01*
X148825800Y-96770935D01*
X148820883Y-96820857D01*
X148807048Y-96866465D01*
X148784578Y-96908504D01*
X148754344Y-96945344D01*
X148717504Y-96975578D01*
X148675465Y-96998048D01*
X148629857Y-97011883D01*
X148579935Y-97016800D01*
X147820065Y-97016800D01*
X147770143Y-97011883D01*
X147724535Y-96998048D01*
X147682496Y-96975578D01*
X147645656Y-96945344D01*
X147615422Y-96908504D01*
X147592952Y-96866465D01*
X147579117Y-96820857D01*
X147574200Y-96770935D01*
X147574200Y-95761065D01*
X147579117Y-95711143D01*
X147592952Y-95665535D01*
X147615422Y-95623496D01*
X147645656Y-95586656D01*
X147682496Y-95556422D01*
X147724535Y-95533952D01*
X147770143Y-95520117D01*
X147820065Y-95515200D01*
X148579935Y-95515200D01*
X148629857Y-95520117D01*
G37*
G36*
X183570801Y-96170801D02*
G01*
X181469201Y-96170801D01*
X181469201Y-95169201D01*
X183570801Y-95169201D01*
X183570801Y-96170801D01*
G37*
G36*
X166570801Y-96170801D02*
G01*
X164469201Y-96170801D01*
X164469201Y-95169201D01*
X166570801Y-95169201D01*
X166570801Y-96170801D01*
G37*
G36*
X166570801Y-94900801D02*
G01*
X164469201Y-94900801D01*
X164469201Y-93899201D01*
X166570801Y-93899201D01*
X166570801Y-94900801D01*
G37*
G36*
X183570801Y-94900801D02*
G01*
X181469201Y-94900801D01*
X181469201Y-93899201D01*
X183570801Y-93899201D01*
X183570801Y-94900801D01*
G37*
G36*
X216338857Y-92726117D02*
G01*
X216384465Y-92739952D01*
X216426504Y-92762422D01*
X216463344Y-92792656D01*
X216493578Y-92829496D01*
X216516048Y-92871535D01*
X216529883Y-92917143D01*
X216534800Y-92967065D01*
X216534800Y-93976935D01*
X216529883Y-94026857D01*
X216516048Y-94072465D01*
X216493578Y-94114504D01*
X216463344Y-94151344D01*
X216426504Y-94181578D01*
X216384465Y-94204048D01*
X216338857Y-94217883D01*
X216288935Y-94222800D01*
X215529065Y-94222800D01*
X215479143Y-94217883D01*
X215433535Y-94204048D01*
X215391496Y-94181578D01*
X215354656Y-94151344D01*
X215324422Y-94114504D01*
X215301952Y-94072465D01*
X215288117Y-94026857D01*
X215283200Y-93976935D01*
X215283200Y-92967065D01*
X215288117Y-92917143D01*
X215301952Y-92871535D01*
X215324422Y-92829496D01*
X215354656Y-92792656D01*
X215391496Y-92762422D01*
X215433535Y-92739952D01*
X215479143Y-92726117D01*
X215529065Y-92721200D01*
X216288935Y-92721200D01*
X216338857Y-92726117D01*
G37*
G36*
X214288857Y-92726117D02*
G01*
X214334465Y-92739952D01*
X214376504Y-92762422D01*
X214413344Y-92792656D01*
X214443578Y-92829496D01*
X214466048Y-92871535D01*
X214479883Y-92917143D01*
X214484800Y-92967065D01*
X214484800Y-93976935D01*
X214479883Y-94026857D01*
X214466048Y-94072465D01*
X214443578Y-94114504D01*
X214413344Y-94151344D01*
X214376504Y-94181578D01*
X214334465Y-94204048D01*
X214288857Y-94217883D01*
X214238935Y-94222800D01*
X213479065Y-94222800D01*
X213429143Y-94217883D01*
X213383535Y-94204048D01*
X213341496Y-94181578D01*
X213304656Y-94151344D01*
X213274422Y-94114504D01*
X213251952Y-94072465D01*
X213238117Y-94026857D01*
X213233200Y-93976935D01*
X213233200Y-92967065D01*
X213238117Y-92917143D01*
X213251952Y-92871535D01*
X213274422Y-92829496D01*
X213304656Y-92792656D01*
X213341496Y-92762422D01*
X213383535Y-92739952D01*
X213429143Y-92726117D01*
X213479065Y-92721200D01*
X214238935Y-92721200D01*
X214288857Y-92726117D01*
G37*
G36*
X166570801Y-93630801D02*
G01*
X164469201Y-93630801D01*
X164469201Y-92629201D01*
X166570801Y-92629201D01*
X166570801Y-93630801D01*
G37*
G36*
X183570801Y-93630801D02*
G01*
X181469201Y-93630801D01*
X181469201Y-92629201D01*
X183570801Y-92629201D01*
X183570801Y-93630801D01*
G37*
G36*
X148974615Y-91464149D02*
G01*
X149030304Y-91481042D01*
X149081627Y-91508475D01*
X149126609Y-91545391D01*
X149163525Y-91590373D01*
X149190958Y-91641696D01*
X149207851Y-91697385D01*
X149213800Y-91757786D01*
X149213800Y-92664214D01*
X149207851Y-92724615D01*
X149190958Y-92780304D01*
X149163525Y-92831627D01*
X149126609Y-92876609D01*
X149081627Y-92913525D01*
X149030304Y-92940958D01*
X148974615Y-92957851D01*
X148914214Y-92963800D01*
X148011786Y-92963800D01*
X147951385Y-92957851D01*
X147895696Y-92940958D01*
X147844373Y-92913525D01*
X147799391Y-92876609D01*
X147762475Y-92831627D01*
X147735042Y-92780304D01*
X147718149Y-92724615D01*
X147712200Y-92664214D01*
X147712200Y-91757786D01*
X147718149Y-91697385D01*
X147735042Y-91641696D01*
X147762475Y-91590373D01*
X147799391Y-91545391D01*
X147844373Y-91508475D01*
X147895696Y-91481042D01*
X147951385Y-91464149D01*
X148011786Y-91458200D01*
X148914214Y-91458200D01*
X148974615Y-91464149D01*
G37*
G36*
X153970857Y-91463117D02*
G01*
X154016465Y-91476952D01*
X154058504Y-91499422D01*
X154095344Y-91529656D01*
X154125578Y-91566496D01*
X154148048Y-91608535D01*
X154161883Y-91654143D01*
X154166800Y-91704065D01*
X154166800Y-92463935D01*
X154161883Y-92513857D01*
X154148048Y-92559465D01*
X154125578Y-92601504D01*
X154095344Y-92638344D01*
X154058504Y-92668578D01*
X154016465Y-92691048D01*
X153970857Y-92704883D01*
X153920935Y-92709800D01*
X152911065Y-92709800D01*
X152861143Y-92704883D01*
X152815535Y-92691048D01*
X152773496Y-92668578D01*
X152736656Y-92638344D01*
X152706422Y-92601504D01*
X152683952Y-92559465D01*
X152670117Y-92513857D01*
X152665200Y-92463935D01*
X152665200Y-91704065D01*
X152670117Y-91654143D01*
X152683952Y-91608535D01*
X152706422Y-91566496D01*
X152736656Y-91529656D01*
X152773496Y-91499422D01*
X152815535Y-91476952D01*
X152861143Y-91463117D01*
X152911065Y-91458200D01*
X153920935Y-91458200D01*
X153970857Y-91463117D01*
G37*
G36*
X166570801Y-92360801D02*
G01*
X164469201Y-92360801D01*
X164469201Y-91359201D01*
X166570801Y-91359201D01*
X166570801Y-92360801D01*
G37*
G36*
X183570801Y-92360801D02*
G01*
X181469201Y-92360801D01*
X181469201Y-91359201D01*
X183570801Y-91359201D01*
X183570801Y-92360801D01*
G37*
G36*
X183570801Y-91090801D02*
G01*
X181469201Y-91090801D01*
X181469201Y-90089201D01*
X183570801Y-90089201D01*
X183570801Y-91090801D01*
G37*
G36*
X166570801Y-91090801D02*
G01*
X164469201Y-91090801D01*
X164469201Y-90089201D01*
X166570801Y-90089201D01*
X166570801Y-91090801D01*
G37*
G36*
X153970857Y-89413117D02*
G01*
X154016465Y-89426952D01*
X154058504Y-89449422D01*
X154095344Y-89479656D01*
X154125578Y-89516496D01*
X154148048Y-89558535D01*
X154161883Y-89604143D01*
X154166800Y-89654065D01*
X154166800Y-90413935D01*
X154161883Y-90463857D01*
X154148048Y-90509465D01*
X154125578Y-90551504D01*
X154095344Y-90588344D01*
X154058504Y-90618578D01*
X154016465Y-90641048D01*
X153970857Y-90654883D01*
X153920935Y-90659800D01*
X152911065Y-90659800D01*
X152861143Y-90654883D01*
X152815535Y-90641048D01*
X152773496Y-90618578D01*
X152736656Y-90588344D01*
X152706422Y-90551504D01*
X152683952Y-90509465D01*
X152670117Y-90463857D01*
X152665200Y-90413935D01*
X152665200Y-89654065D01*
X152670117Y-89604143D01*
X152683952Y-89558535D01*
X152706422Y-89516496D01*
X152736656Y-89479656D01*
X152773496Y-89449422D01*
X152815535Y-89426952D01*
X152861143Y-89413117D01*
X152911065Y-89408200D01*
X153920935Y-89408200D01*
X153970857Y-89413117D01*
G37*
G36*
X148974615Y-89160149D02*
G01*
X149030304Y-89177042D01*
X149081627Y-89204475D01*
X149126609Y-89241391D01*
X149163525Y-89286373D01*
X149190958Y-89337696D01*
X149207851Y-89393385D01*
X149213800Y-89453786D01*
X149213800Y-90360214D01*
X149207851Y-90420615D01*
X149190958Y-90476304D01*
X149163525Y-90527627D01*
X149126609Y-90572609D01*
X149081627Y-90609525D01*
X149030304Y-90636958D01*
X148974615Y-90653851D01*
X148914214Y-90659800D01*
X148011786Y-90659800D01*
X147951385Y-90653851D01*
X147895696Y-90636958D01*
X147844373Y-90609525D01*
X147799391Y-90572609D01*
X147762475Y-90527627D01*
X147735042Y-90476304D01*
X147718149Y-90420615D01*
X147712200Y-90360214D01*
X147712200Y-89453786D01*
X147718149Y-89393385D01*
X147735042Y-89337696D01*
X147762475Y-89286373D01*
X147799391Y-89241391D01*
X147844373Y-89204475D01*
X147895696Y-89177042D01*
X147951385Y-89160149D01*
X148011786Y-89154200D01*
X148914214Y-89154200D01*
X148974615Y-89160149D01*
G37*
G36*
X175570801Y-90480801D02*
G01*
X170469201Y-90480801D01*
X170469201Y-85379201D01*
X175570801Y-85379201D01*
X175570801Y-90480801D01*
G37*
G36*
X183570801Y-89820801D02*
G01*
X181469201Y-89820801D01*
X181469201Y-88819201D01*
X183570801Y-88819201D01*
X183570801Y-89820801D01*
G37*
G36*
X166570801Y-89820801D02*
G01*
X164469201Y-89820801D01*
X164469201Y-88819201D01*
X166570801Y-88819201D01*
X166570801Y-89820801D01*
G37*
G36*
X142248754Y-87017817D02*
G01*
X142412689Y-87085721D01*
X142560227Y-87184303D01*
X142685697Y-87309773D01*
X142784279Y-87457311D01*
X142852183Y-87621246D01*
X142886800Y-87795279D01*
X142886800Y-87972721D01*
X142852183Y-88146754D01*
X142784279Y-88310689D01*
X142685697Y-88458227D01*
X142560227Y-88583697D01*
X142412689Y-88682279D01*
X142248754Y-88750183D01*
X142074721Y-88784800D01*
X141897279Y-88784800D01*
X141723246Y-88750183D01*
X141559311Y-88682279D01*
X141411773Y-88583697D01*
X141286303Y-88458227D01*
X141187721Y-88310689D01*
X141119817Y-88146754D01*
X141085200Y-87972721D01*
X141085200Y-87795279D01*
X141119817Y-87621246D01*
X141187721Y-87457311D01*
X141286303Y-87309773D01*
X141411773Y-87184303D01*
X141559311Y-87085721D01*
X141723246Y-87017817D01*
X141897279Y-86983200D01*
X142074721Y-86983200D01*
X142248754Y-87017817D01*
G37*
G36*
X202795357Y-87265117D02*
G01*
X202840965Y-87278952D01*
X202883004Y-87301422D01*
X202919844Y-87331656D01*
X202950078Y-87368496D01*
X202972548Y-87410535D01*
X202986383Y-87456143D01*
X202991300Y-87506065D01*
X202991300Y-88515935D01*
X202986383Y-88565857D01*
X202972548Y-88611465D01*
X202950078Y-88653504D01*
X202919844Y-88690344D01*
X202883004Y-88720578D01*
X202840965Y-88743048D01*
X202795357Y-88756883D01*
X202745435Y-88761800D01*
X201985565Y-88761800D01*
X201935643Y-88756883D01*
X201890035Y-88743048D01*
X201847996Y-88720578D01*
X201811156Y-88690344D01*
X201780922Y-88653504D01*
X201758452Y-88611465D01*
X201744617Y-88565857D01*
X201739700Y-88515935D01*
X201739700Y-87506065D01*
X201744617Y-87456143D01*
X201758452Y-87410535D01*
X201780922Y-87368496D01*
X201811156Y-87331656D01*
X201847996Y-87301422D01*
X201890035Y-87278952D01*
X201935643Y-87265117D01*
X201985565Y-87260200D01*
X202745435Y-87260200D01*
X202795357Y-87265117D01*
G37*
G36*
X204845357Y-87265117D02*
G01*
X204890965Y-87278952D01*
X204933004Y-87301422D01*
X204969844Y-87331656D01*
X205000078Y-87368496D01*
X205022548Y-87410535D01*
X205036383Y-87456143D01*
X205041300Y-87506065D01*
X205041300Y-88515935D01*
X205036383Y-88565857D01*
X205022548Y-88611465D01*
X205000078Y-88653504D01*
X204969844Y-88690344D01*
X204933004Y-88720578D01*
X204890965Y-88743048D01*
X204845357Y-88756883D01*
X204795435Y-88761800D01*
X204035565Y-88761800D01*
X203985643Y-88756883D01*
X203940035Y-88743048D01*
X203897996Y-88720578D01*
X203861156Y-88690344D01*
X203830922Y-88653504D01*
X203808452Y-88611465D01*
X203794617Y-88565857D01*
X203789700Y-88515935D01*
X203789700Y-87506065D01*
X203794617Y-87456143D01*
X203808452Y-87410535D01*
X203830922Y-87368496D01*
X203861156Y-87331656D01*
X203897996Y-87301422D01*
X203940035Y-87278952D01*
X203985643Y-87265117D01*
X204035565Y-87260200D01*
X204795435Y-87260200D01*
X204845357Y-87265117D01*
G37*
G36*
X183570801Y-88550801D02*
G01*
X181469201Y-88550801D01*
X181469201Y-87549201D01*
X183570801Y-87549201D01*
X183570801Y-88550801D01*
G37*
G36*
X166570801Y-88550801D02*
G01*
X164469201Y-88550801D01*
X164469201Y-87549201D01*
X166570801Y-87549201D01*
X166570801Y-88550801D01*
G37*
G36*
X212619209Y-86003092D02*
G01*
X212715038Y-86042786D01*
X212751295Y-86057804D01*
X212870171Y-86137234D01*
X212971266Y-86238329D01*
X213050696Y-86357205D01*
X213105408Y-86489291D01*
X213133300Y-86629515D01*
X213133300Y-86772485D01*
X213105408Y-86912709D01*
X213074833Y-86986523D01*
X213050696Y-87044795D01*
X212971266Y-87163671D01*
X212870171Y-87264766D01*
X212757736Y-87339892D01*
X212751295Y-87344196D01*
X212619209Y-87398908D01*
X212478985Y-87426800D01*
X212336015Y-87426800D01*
X212195791Y-87398908D01*
X212063705Y-87344196D01*
X212057264Y-87339892D01*
X211944829Y-87264766D01*
X211843734Y-87163671D01*
X211764304Y-87044795D01*
X211740167Y-86986523D01*
X211709592Y-86912709D01*
X211681700Y-86772485D01*
X211681700Y-86629515D01*
X211709592Y-86489291D01*
X211764304Y-86357205D01*
X211843734Y-86238329D01*
X211944829Y-86137234D01*
X212063705Y-86057804D01*
X212099962Y-86042786D01*
X212195791Y-86003092D01*
X212336015Y-85975200D01*
X212478985Y-85975200D01*
X212619209Y-86003092D01*
G37*
G36*
X166570801Y-87280801D02*
G01*
X164469201Y-87280801D01*
X164469201Y-86279201D01*
X166570801Y-86279201D01*
X166570801Y-87280801D01*
G37*
G36*
X183570801Y-87280801D02*
G01*
X181469201Y-87280801D01*
X181469201Y-86279201D01*
X183570801Y-86279201D01*
X183570801Y-87280801D01*
G37*
G36*
X148974615Y-85749149D02*
G01*
X149030304Y-85766042D01*
X149081627Y-85793475D01*
X149126609Y-85830391D01*
X149163525Y-85875373D01*
X149190958Y-85926696D01*
X149207851Y-85982385D01*
X149213800Y-86042786D01*
X149213800Y-86949214D01*
X149207851Y-87009615D01*
X149190958Y-87065304D01*
X149163525Y-87116627D01*
X149126609Y-87161609D01*
X149081627Y-87198525D01*
X149030304Y-87225958D01*
X148974615Y-87242851D01*
X148914214Y-87248800D01*
X148011786Y-87248800D01*
X147951385Y-87242851D01*
X147895696Y-87225958D01*
X147844373Y-87198525D01*
X147799391Y-87161609D01*
X147762475Y-87116627D01*
X147735042Y-87065304D01*
X147718149Y-87009615D01*
X147712200Y-86949214D01*
X147712200Y-86042786D01*
X147718149Y-85982385D01*
X147735042Y-85926696D01*
X147762475Y-85875373D01*
X147799391Y-85830391D01*
X147844373Y-85793475D01*
X147895696Y-85766042D01*
X147951385Y-85749149D01*
X148011786Y-85743200D01*
X148914214Y-85743200D01*
X148974615Y-85749149D01*
G37*
G36*
X153970857Y-85748117D02*
G01*
X154016465Y-85761952D01*
X154058504Y-85784422D01*
X154095344Y-85814656D01*
X154125578Y-85851496D01*
X154148048Y-85893535D01*
X154161883Y-85939143D01*
X154166800Y-85989065D01*
X154166800Y-86748935D01*
X154161883Y-86798857D01*
X154148048Y-86844465D01*
X154125578Y-86886504D01*
X154095344Y-86923344D01*
X154058504Y-86953578D01*
X154016465Y-86976048D01*
X153970857Y-86989883D01*
X153920935Y-86994800D01*
X152911065Y-86994800D01*
X152861143Y-86989883D01*
X152815535Y-86976048D01*
X152773496Y-86953578D01*
X152736656Y-86923344D01*
X152706422Y-86886504D01*
X152683952Y-86844465D01*
X152670117Y-86798857D01*
X152665200Y-86748935D01*
X152665200Y-85989065D01*
X152670117Y-85939143D01*
X152683952Y-85893535D01*
X152706422Y-85851496D01*
X152736656Y-85814656D01*
X152773496Y-85784422D01*
X152815535Y-85761952D01*
X152861143Y-85748117D01*
X152911065Y-85743200D01*
X153920935Y-85743200D01*
X153970857Y-85748117D01*
G37*
G36*
X134120754Y-84477817D02*
G01*
X134284689Y-84545721D01*
X134432227Y-84644303D01*
X134557697Y-84769773D01*
X134656279Y-84917311D01*
X134724183Y-85081246D01*
X134758800Y-85255279D01*
X134758800Y-85432721D01*
X134724183Y-85606754D01*
X134656279Y-85770689D01*
X134557697Y-85918227D01*
X134432227Y-86043697D01*
X134284689Y-86142279D01*
X134120754Y-86210183D01*
X133946721Y-86244800D01*
X133769279Y-86244800D01*
X133595246Y-86210183D01*
X133431311Y-86142279D01*
X133283773Y-86043697D01*
X133158303Y-85918227D01*
X133059721Y-85770689D01*
X132991817Y-85606754D01*
X132957200Y-85432721D01*
X132957200Y-85255279D01*
X132991817Y-85081246D01*
X133059721Y-84917311D01*
X133158303Y-84769773D01*
X133283773Y-84644303D01*
X133431311Y-84545721D01*
X133595246Y-84477817D01*
X133769279Y-84443200D01*
X133946721Y-84443200D01*
X134120754Y-84477817D01*
G37*
G36*
X132218800Y-86244800D02*
G01*
X130417200Y-86244800D01*
X130417200Y-84443200D01*
X132218800Y-84443200D01*
X132218800Y-86244800D01*
G37*
G36*
X136660754Y-84477817D02*
G01*
X136824689Y-84545721D01*
X136972227Y-84644303D01*
X137097697Y-84769773D01*
X137196279Y-84917311D01*
X137264183Y-85081246D01*
X137298800Y-85255279D01*
X137298800Y-85432721D01*
X137264183Y-85606754D01*
X137196279Y-85770689D01*
X137097697Y-85918227D01*
X136972227Y-86043697D01*
X136824689Y-86142279D01*
X136660754Y-86210183D01*
X136486721Y-86244800D01*
X136309279Y-86244800D01*
X136135246Y-86210183D01*
X135971311Y-86142279D01*
X135823773Y-86043697D01*
X135698303Y-85918227D01*
X135599721Y-85770689D01*
X135531817Y-85606754D01*
X135497200Y-85432721D01*
X135497200Y-85255279D01*
X135531817Y-85081246D01*
X135599721Y-84917311D01*
X135698303Y-84769773D01*
X135823773Y-84644303D01*
X135971311Y-84545721D01*
X136135246Y-84477817D01*
X136309279Y-84443200D01*
X136486721Y-84443200D01*
X136660754Y-84477817D01*
G37*
G36*
X142886800Y-86244800D02*
G01*
X141085200Y-86244800D01*
X141085200Y-84443200D01*
X142886800Y-84443200D01*
X142886800Y-86244800D01*
G37*
G36*
X166570801Y-86010801D02*
G01*
X164469201Y-86010801D01*
X164469201Y-85009201D01*
X166570801Y-85009201D01*
X166570801Y-86010801D01*
G37*
G36*
X183570801Y-86010801D02*
G01*
X181469201Y-86010801D01*
X181469201Y-85009201D01*
X183570801Y-85009201D01*
X183570801Y-86010801D01*
G37*
G36*
X153970857Y-83698117D02*
G01*
X154016465Y-83711952D01*
X154058504Y-83734422D01*
X154095344Y-83764656D01*
X154125578Y-83801496D01*
X154148048Y-83843535D01*
X154161883Y-83889143D01*
X154166800Y-83939065D01*
X154166800Y-84698935D01*
X154161883Y-84748857D01*
X154148048Y-84794465D01*
X154125578Y-84836504D01*
X154095344Y-84873344D01*
X154058504Y-84903578D01*
X154016465Y-84926048D01*
X153970857Y-84939883D01*
X153920935Y-84944800D01*
X152911065Y-84944800D01*
X152861143Y-84939883D01*
X152815535Y-84926048D01*
X152773496Y-84903578D01*
X152736656Y-84873344D01*
X152706422Y-84836504D01*
X152683952Y-84794465D01*
X152670117Y-84748857D01*
X152665200Y-84698935D01*
X152665200Y-83939065D01*
X152670117Y-83889143D01*
X152683952Y-83843535D01*
X152706422Y-83801496D01*
X152736656Y-83764656D01*
X152773496Y-83734422D01*
X152815535Y-83711952D01*
X152861143Y-83698117D01*
X152911065Y-83693200D01*
X153920935Y-83693200D01*
X153970857Y-83698117D01*
G37*
G36*
X148974615Y-83445149D02*
G01*
X149030304Y-83462042D01*
X149081627Y-83489475D01*
X149126609Y-83526391D01*
X149163525Y-83571373D01*
X149190958Y-83622696D01*
X149207851Y-83678385D01*
X149213800Y-83738786D01*
X149213800Y-84645214D01*
X149207851Y-84705615D01*
X149190958Y-84761304D01*
X149163525Y-84812627D01*
X149126609Y-84857609D01*
X149081627Y-84894525D01*
X149030304Y-84921958D01*
X148974615Y-84938851D01*
X148914214Y-84944800D01*
X148011786Y-84944800D01*
X147951385Y-84938851D01*
X147895696Y-84921958D01*
X147844373Y-84894525D01*
X147799391Y-84857609D01*
X147762475Y-84812627D01*
X147735042Y-84761304D01*
X147718149Y-84705615D01*
X147712200Y-84645214D01*
X147712200Y-83738786D01*
X147718149Y-83678385D01*
X147735042Y-83622696D01*
X147762475Y-83571373D01*
X147799391Y-83526391D01*
X147844373Y-83489475D01*
X147895696Y-83462042D01*
X147951385Y-83445149D01*
X148011786Y-83439200D01*
X148914214Y-83439200D01*
X148974615Y-83445149D01*
G37*
G36*
X166570801Y-84740801D02*
G01*
X164469201Y-84740801D01*
X164469201Y-83739201D01*
X166570801Y-83739201D01*
X166570801Y-84740801D01*
G37*
G36*
X183570801Y-84740801D02*
G01*
X181469201Y-84740801D01*
X181469201Y-83739201D01*
X183570801Y-83739201D01*
X183570801Y-84740801D01*
G37*
G36*
X166570801Y-83470801D02*
G01*
X164469201Y-83470801D01*
X164469201Y-82469201D01*
X166570801Y-82469201D01*
X166570801Y-83470801D01*
G37*
G36*
X183570801Y-83470801D02*
G01*
X181469201Y-83470801D01*
X181469201Y-82469201D01*
X183570801Y-82469201D01*
X183570801Y-83470801D01*
G37*
G36*
X212619209Y-81003092D02*
G01*
X212751295Y-81057804D01*
X212870171Y-81137234D01*
X212971266Y-81238329D01*
X213050696Y-81357205D01*
X213105408Y-81489292D01*
X213133300Y-81629515D01*
X213133300Y-81772485D01*
X213105408Y-81912708D01*
X213050696Y-82044795D01*
X212971266Y-82163671D01*
X212870171Y-82264766D01*
X212831549Y-82290572D01*
X212751295Y-82344196D01*
X212619209Y-82398908D01*
X212478985Y-82426800D01*
X212336015Y-82426800D01*
X212195791Y-82398908D01*
X212063705Y-82344196D01*
X211983451Y-82290572D01*
X211944829Y-82264766D01*
X211843734Y-82163671D01*
X211764304Y-82044795D01*
X211709592Y-81912708D01*
X211681700Y-81772485D01*
X211681700Y-81629515D01*
X211709592Y-81489292D01*
X211764304Y-81357205D01*
X211843734Y-81238329D01*
X211944829Y-81137234D01*
X212063705Y-81057804D01*
X212195791Y-81003092D01*
X212336015Y-80975200D01*
X212478985Y-80975200D01*
X212619209Y-81003092D01*
G37*
G36*
X161844857Y-81049117D02*
G01*
X161890465Y-81062952D01*
X161932504Y-81085422D01*
X161969344Y-81115656D01*
X161999578Y-81152496D01*
X162022048Y-81194535D01*
X162035883Y-81240143D01*
X162040800Y-81290065D01*
X162040800Y-82049935D01*
X162035883Y-82099857D01*
X162022048Y-82145465D01*
X161999578Y-82187504D01*
X161969344Y-82224344D01*
X161932504Y-82254578D01*
X161890465Y-82277048D01*
X161844857Y-82290883D01*
X161794935Y-82295800D01*
X160785065Y-82295800D01*
X160735143Y-82290883D01*
X160689535Y-82277048D01*
X160647496Y-82254578D01*
X160610656Y-82224344D01*
X160580422Y-82187504D01*
X160557952Y-82145465D01*
X160544117Y-82099857D01*
X160539200Y-82049935D01*
X160539200Y-81290065D01*
X160544117Y-81240143D01*
X160557952Y-81194535D01*
X160580422Y-81152496D01*
X160610656Y-81115656D01*
X160647496Y-81085422D01*
X160689535Y-81062952D01*
X160735143Y-81049117D01*
X160785065Y-81044200D01*
X161794935Y-81044200D01*
X161844857Y-81049117D01*
G37*
G36*
X159177857Y-81049117D02*
G01*
X159223465Y-81062952D01*
X159265504Y-81085422D01*
X159302344Y-81115656D01*
X159332578Y-81152496D01*
X159355048Y-81194535D01*
X159368883Y-81240143D01*
X159373800Y-81290065D01*
X159373800Y-82049935D01*
X159368883Y-82099857D01*
X159355048Y-82145465D01*
X159332578Y-82187504D01*
X159302344Y-82224344D01*
X159265504Y-82254578D01*
X159223465Y-82277048D01*
X159177857Y-82290883D01*
X159127935Y-82295800D01*
X158118065Y-82295800D01*
X158068143Y-82290883D01*
X158022535Y-82277048D01*
X157980496Y-82254578D01*
X157943656Y-82224344D01*
X157913422Y-82187504D01*
X157890952Y-82145465D01*
X157877117Y-82099857D01*
X157872200Y-82049935D01*
X157872200Y-81290065D01*
X157877117Y-81240143D01*
X157890952Y-81194535D01*
X157913422Y-81152496D01*
X157943656Y-81115656D01*
X157980496Y-81085422D01*
X158022535Y-81062952D01*
X158068143Y-81049117D01*
X158118065Y-81044200D01*
X159127935Y-81044200D01*
X159177857Y-81049117D01*
G37*
G36*
X183570801Y-82200801D02*
G01*
X181469201Y-82200801D01*
X181469201Y-81199201D01*
X183570801Y-81199201D01*
X183570801Y-82200801D01*
G37*
G36*
X166570801Y-82200801D02*
G01*
X164469201Y-82200801D01*
X164469201Y-81199201D01*
X166570801Y-81199201D01*
X166570801Y-82200801D01*
G37*
G36*
X201588857Y-79899117D02*
G01*
X201634465Y-79912952D01*
X201676504Y-79935422D01*
X201713344Y-79965656D01*
X201743578Y-80002496D01*
X201766048Y-80044535D01*
X201779883Y-80090143D01*
X201784800Y-80140065D01*
X201784800Y-81149935D01*
X201779883Y-81199857D01*
X201766048Y-81245465D01*
X201743578Y-81287504D01*
X201713344Y-81324344D01*
X201676504Y-81354578D01*
X201634465Y-81377048D01*
X201588857Y-81390883D01*
X201538935Y-81395800D01*
X200779065Y-81395800D01*
X200729143Y-81390883D01*
X200683535Y-81377048D01*
X200641496Y-81354578D01*
X200604656Y-81324344D01*
X200574422Y-81287504D01*
X200551952Y-81245465D01*
X200538117Y-81199857D01*
X200533200Y-81149935D01*
X200533200Y-80140065D01*
X200538117Y-80090143D01*
X200551952Y-80044535D01*
X200574422Y-80002496D01*
X200604656Y-79965656D01*
X200641496Y-79935422D01*
X200683535Y-79912952D01*
X200729143Y-79899117D01*
X200779065Y-79894200D01*
X201538935Y-79894200D01*
X201588857Y-79899117D01*
G37*
G36*
X203638857Y-79899117D02*
G01*
X203684465Y-79912952D01*
X203726504Y-79935422D01*
X203763344Y-79965656D01*
X203793578Y-80002496D01*
X203816048Y-80044535D01*
X203829883Y-80090143D01*
X203834800Y-80140065D01*
X203834800Y-81149935D01*
X203829883Y-81199857D01*
X203816048Y-81245465D01*
X203793578Y-81287504D01*
X203763344Y-81324344D01*
X203726504Y-81354578D01*
X203684465Y-81377048D01*
X203638857Y-81390883D01*
X203588935Y-81395800D01*
X202829065Y-81395800D01*
X202779143Y-81390883D01*
X202733535Y-81377048D01*
X202691496Y-81354578D01*
X202654656Y-81324344D01*
X202624422Y-81287504D01*
X202601952Y-81245465D01*
X202588117Y-81199857D01*
X202583200Y-81149935D01*
X202583200Y-80140065D01*
X202588117Y-80090143D01*
X202601952Y-80044535D01*
X202624422Y-80002496D01*
X202654656Y-79965656D01*
X202691496Y-79935422D01*
X202733535Y-79912952D01*
X202779143Y-79899117D01*
X202829065Y-79894200D01*
X203588935Y-79894200D01*
X203638857Y-79899117D01*
G37*
G36*
X198070089Y-78735175D02*
G01*
X198071065Y-78745085D01*
X198073956Y-78754615D01*
X198078650Y-78763397D01*
X198084968Y-78771095D01*
X198092666Y-78777413D01*
X198101448Y-78782107D01*
X198110978Y-78784998D01*
X198120888Y-78785974D01*
X198716900Y-78785974D01*
X198716900Y-80218026D01*
X198120888Y-80218026D01*
X198110978Y-80219002D01*
X198101448Y-80221893D01*
X198092666Y-80226587D01*
X198084968Y-80232905D01*
X198078650Y-80240603D01*
X198073956Y-80249385D01*
X198071065Y-80258915D01*
X198070089Y-80268825D01*
X198070089Y-81356200D01*
X196137911Y-81356200D01*
X196137911Y-80268825D01*
X196136935Y-80258915D01*
X196134044Y-80249385D01*
X196129350Y-80240603D01*
X196123032Y-80232905D01*
X196115334Y-80226587D01*
X196106552Y-80221893D01*
X196097022Y-80219002D01*
X196087112Y-80218026D01*
X195491100Y-80218026D01*
X195491100Y-78785974D01*
X196087112Y-78785974D01*
X196097022Y-78784998D01*
X196106552Y-78782107D01*
X196115334Y-78777413D01*
X196123032Y-78771095D01*
X196129350Y-78763397D01*
X196134044Y-78754615D01*
X196136935Y-78745085D01*
X196137435Y-78739999D01*
X196532500Y-78739999D01*
X196532500Y-80264001D01*
X196533476Y-80273911D01*
X196536367Y-80283441D01*
X196541061Y-80292223D01*
X196547379Y-80299921D01*
X196555077Y-80306239D01*
X196563859Y-80310933D01*
X196573389Y-80313824D01*
X196583299Y-80314800D01*
X197624701Y-80314800D01*
X197634611Y-80313824D01*
X197644141Y-80310933D01*
X197652923Y-80306239D01*
X197660621Y-80299921D01*
X197666939Y-80292223D01*
X197671633Y-80283441D01*
X197674524Y-80273911D01*
X197675500Y-80264001D01*
X197675500Y-78739999D01*
X197674524Y-78730089D01*
X197671633Y-78720559D01*
X197666939Y-78711777D01*
X197660621Y-78704079D01*
X197652923Y-78697761D01*
X197644141Y-78693067D01*
X197634611Y-78690176D01*
X197624701Y-78689200D01*
X196583299Y-78689200D01*
X196573389Y-78690176D01*
X196563859Y-78693067D01*
X196555077Y-78697761D01*
X196547379Y-78704079D01*
X196541061Y-78711777D01*
X196536367Y-78720559D01*
X196533476Y-78730089D01*
X196532500Y-78739999D01*
X196137435Y-78739999D01*
X196137911Y-78735175D01*
X196137911Y-77647800D01*
X198070089Y-77647800D01*
X198070089Y-78735175D01*
G37*
G36*
X183570801Y-80930801D02*
G01*
X181469201Y-80930801D01*
X181469201Y-79929201D01*
X183570801Y-79929201D01*
X183570801Y-80930801D01*
G37*
G36*
X166570801Y-80930801D02*
G01*
X164469201Y-80930801D01*
X164469201Y-79929201D01*
X166570801Y-79929201D01*
X166570801Y-80930801D01*
G37*
G36*
X161844857Y-78999117D02*
G01*
X161890465Y-79012952D01*
X161932504Y-79035422D01*
X161969344Y-79065656D01*
X161999578Y-79102496D01*
X162022048Y-79144535D01*
X162035883Y-79190143D01*
X162040800Y-79240065D01*
X162040800Y-79999935D01*
X162035883Y-80049857D01*
X162022048Y-80095465D01*
X161999578Y-80137504D01*
X161969344Y-80174344D01*
X161932504Y-80204578D01*
X161890465Y-80227048D01*
X161844857Y-80240883D01*
X161794935Y-80245800D01*
X160785065Y-80245800D01*
X160735143Y-80240883D01*
X160689535Y-80227048D01*
X160647496Y-80204578D01*
X160610656Y-80174344D01*
X160580422Y-80137504D01*
X160557952Y-80095465D01*
X160544117Y-80049857D01*
X160539200Y-79999935D01*
X160539200Y-79240065D01*
X160544117Y-79190143D01*
X160557952Y-79144535D01*
X160580422Y-79102496D01*
X160610656Y-79065656D01*
X160647496Y-79035422D01*
X160689535Y-79012952D01*
X160735143Y-78999117D01*
X160785065Y-78994200D01*
X161794935Y-78994200D01*
X161844857Y-78999117D01*
G37*
G36*
X159177857Y-78999117D02*
G01*
X159223465Y-79012952D01*
X159265504Y-79035422D01*
X159302344Y-79065656D01*
X159332578Y-79102496D01*
X159355048Y-79144535D01*
X159368883Y-79190143D01*
X159373800Y-79240065D01*
X159373800Y-79999935D01*
X159368883Y-80049857D01*
X159355048Y-80095465D01*
X159332578Y-80137504D01*
X159302344Y-80174344D01*
X159265504Y-80204578D01*
X159223465Y-80227048D01*
X159177857Y-80240883D01*
X159127935Y-80245800D01*
X158118065Y-80245800D01*
X158068143Y-80240883D01*
X158022535Y-80227048D01*
X157980496Y-80204578D01*
X157943656Y-80174344D01*
X157913422Y-80137504D01*
X157890952Y-80095465D01*
X157877117Y-80049857D01*
X157872200Y-79999935D01*
X157872200Y-79240065D01*
X157877117Y-79190143D01*
X157890952Y-79144535D01*
X157913422Y-79102496D01*
X157943656Y-79065656D01*
X157980496Y-79035422D01*
X158022535Y-79012952D01*
X158068143Y-78999117D01*
X158118065Y-78994200D01*
X159127935Y-78994200D01*
X159177857Y-78999117D01*
G37*
G36*
X190539857Y-77994117D02*
G01*
X190585465Y-78007952D01*
X190627504Y-78030422D01*
X190664344Y-78060656D01*
X190694578Y-78097496D01*
X190717048Y-78139535D01*
X190730883Y-78185143D01*
X190735800Y-78235065D01*
X190735800Y-79244935D01*
X190730883Y-79294857D01*
X190717048Y-79340465D01*
X190694578Y-79382504D01*
X190664344Y-79419344D01*
X190627504Y-79449578D01*
X190585465Y-79472048D01*
X190539857Y-79485883D01*
X190489935Y-79490800D01*
X189730065Y-79490800D01*
X189680143Y-79485883D01*
X189634535Y-79472048D01*
X189592496Y-79449578D01*
X189555656Y-79419344D01*
X189525422Y-79382504D01*
X189502952Y-79340465D01*
X189489117Y-79294857D01*
X189484200Y-79244935D01*
X189484200Y-78235065D01*
X189489117Y-78185143D01*
X189502952Y-78139535D01*
X189525422Y-78097496D01*
X189555656Y-78060656D01*
X189592496Y-78030422D01*
X189634535Y-78007952D01*
X189680143Y-77994117D01*
X189730065Y-77989200D01*
X190489935Y-77989200D01*
X190539857Y-77994117D01*
G37*
G36*
X192589857Y-77994117D02*
G01*
X192635465Y-78007952D01*
X192677504Y-78030422D01*
X192714344Y-78060656D01*
X192744578Y-78097496D01*
X192767048Y-78139535D01*
X192780883Y-78185143D01*
X192785800Y-78235065D01*
X192785800Y-79244935D01*
X192780883Y-79294857D01*
X192767048Y-79340465D01*
X192744578Y-79382504D01*
X192714344Y-79419344D01*
X192677504Y-79449578D01*
X192635465Y-79472048D01*
X192589857Y-79485883D01*
X192539935Y-79490800D01*
X191780065Y-79490800D01*
X191730143Y-79485883D01*
X191684535Y-79472048D01*
X191642496Y-79449578D01*
X191605656Y-79419344D01*
X191575422Y-79382504D01*
X191552952Y-79340465D01*
X191539117Y-79294857D01*
X191534200Y-79244935D01*
X191534200Y-78235065D01*
X191539117Y-78185143D01*
X191552952Y-78139535D01*
X191575422Y-78097496D01*
X191605656Y-78060656D01*
X191642496Y-78030422D01*
X191684535Y-78007952D01*
X191730143Y-77994117D01*
X191780065Y-77989200D01*
X192539935Y-77989200D01*
X192589857Y-77994117D01*
G37*
G36*
X129802754Y-76603817D02*
G01*
X129966689Y-76671721D01*
X130114227Y-76770303D01*
X130239697Y-76895773D01*
X130338279Y-77043311D01*
X130406183Y-77207246D01*
X130440800Y-77381279D01*
X130440800Y-77558721D01*
X130406183Y-77732754D01*
X130338279Y-77896689D01*
X130239697Y-78044227D01*
X130114227Y-78169697D01*
X129966689Y-78268279D01*
X129802754Y-78336183D01*
X129628721Y-78370800D01*
X129451279Y-78370800D01*
X129277246Y-78336183D01*
X129113311Y-78268279D01*
X128965773Y-78169697D01*
X128840303Y-78044227D01*
X128741721Y-77896689D01*
X128673817Y-77732754D01*
X128639200Y-77558721D01*
X128639200Y-77381279D01*
X128673817Y-77207246D01*
X128741721Y-77043311D01*
X128840303Y-76895773D01*
X128965773Y-76770303D01*
X129113311Y-76671721D01*
X129277246Y-76603817D01*
X129451279Y-76569200D01*
X129628721Y-76569200D01*
X129802754Y-76603817D01*
G37*
G36*
X201588857Y-76470117D02*
G01*
X201634465Y-76483952D01*
X201676504Y-76506422D01*
X201713344Y-76536656D01*
X201743578Y-76573496D01*
X201766048Y-76615535D01*
X201779883Y-76661143D01*
X201784800Y-76711065D01*
X201784800Y-77720935D01*
X201779883Y-77770857D01*
X201766048Y-77816465D01*
X201743578Y-77858504D01*
X201713344Y-77895344D01*
X201676504Y-77925578D01*
X201634465Y-77948048D01*
X201588857Y-77961883D01*
X201538935Y-77966800D01*
X200779065Y-77966800D01*
X200729143Y-77961883D01*
X200683535Y-77948048D01*
X200641496Y-77925578D01*
X200604656Y-77895344D01*
X200574422Y-77858504D01*
X200551952Y-77816465D01*
X200538117Y-77770857D01*
X200533200Y-77720935D01*
X200533200Y-76711065D01*
X200538117Y-76661143D01*
X200551952Y-76615535D01*
X200574422Y-76573496D01*
X200604656Y-76536656D01*
X200641496Y-76506422D01*
X200683535Y-76483952D01*
X200729143Y-76470117D01*
X200779065Y-76465200D01*
X201538935Y-76465200D01*
X201588857Y-76470117D01*
G37*
G36*
X203638857Y-76470117D02*
G01*
X203684465Y-76483952D01*
X203726504Y-76506422D01*
X203763344Y-76536656D01*
X203793578Y-76573496D01*
X203816048Y-76615535D01*
X203829883Y-76661143D01*
X203834800Y-76711065D01*
X203834800Y-77720935D01*
X203829883Y-77770857D01*
X203816048Y-77816465D01*
X203793578Y-77858504D01*
X203763344Y-77895344D01*
X203726504Y-77925578D01*
X203684465Y-77948048D01*
X203638857Y-77961883D01*
X203588935Y-77966800D01*
X202829065Y-77966800D01*
X202779143Y-77961883D01*
X202733535Y-77948048D01*
X202691496Y-77925578D01*
X202654656Y-77895344D01*
X202624422Y-77858504D01*
X202601952Y-77816465D01*
X202588117Y-77770857D01*
X202583200Y-77720935D01*
X202583200Y-76711065D01*
X202588117Y-76661143D01*
X202601952Y-76615535D01*
X202624422Y-76573496D01*
X202654656Y-76536656D01*
X202691496Y-76506422D01*
X202733535Y-76483952D01*
X202779143Y-76470117D01*
X202829065Y-76465200D01*
X203588935Y-76465200D01*
X203638857Y-76470117D01*
G37*
G36*
X147582754Y-75333817D02*
G01*
X147746689Y-75401721D01*
X147894227Y-75500303D01*
X148019697Y-75625773D01*
X148118279Y-75773311D01*
X148186183Y-75937246D01*
X148220800Y-76111279D01*
X148220800Y-76288721D01*
X148186183Y-76462754D01*
X148118279Y-76626689D01*
X148019697Y-76774227D01*
X147894227Y-76899697D01*
X147746689Y-76998279D01*
X147582754Y-77066183D01*
X147408721Y-77100800D01*
X147231279Y-77100800D01*
X147057246Y-77066183D01*
X146893311Y-76998279D01*
X146745773Y-76899697D01*
X146620303Y-76774227D01*
X146521721Y-76626689D01*
X146453817Y-76462754D01*
X146419200Y-76288721D01*
X146419200Y-76111279D01*
X146453817Y-75937246D01*
X146521721Y-75773311D01*
X146620303Y-75625773D01*
X146745773Y-75500303D01*
X146893311Y-75401721D01*
X147057246Y-75333817D01*
X147231279Y-75299200D01*
X147408721Y-75299200D01*
X147582754Y-75333817D01*
G37*
G36*
X130440800Y-75830800D02*
G01*
X128639200Y-75830800D01*
X128639200Y-74029200D01*
X130440800Y-74029200D01*
X130440800Y-75830800D01*
G37*
G36*
X137916169Y-74071895D02*
G01*
X138071005Y-74136031D01*
X138210354Y-74229140D01*
X138328860Y-74347646D01*
X138421969Y-74486995D01*
X138486105Y-74641831D01*
X138518800Y-74806203D01*
X138518800Y-74973797D01*
X138486105Y-75138169D01*
X138421969Y-75293005D01*
X138328860Y-75432354D01*
X138210354Y-75550860D01*
X138071005Y-75643969D01*
X137916169Y-75708105D01*
X137751797Y-75740800D01*
X137584203Y-75740800D01*
X137419831Y-75708105D01*
X137264995Y-75643969D01*
X137125646Y-75550860D01*
X137007140Y-75432354D01*
X136914031Y-75293005D01*
X136849895Y-75138169D01*
X136817200Y-74973797D01*
X136817200Y-74806203D01*
X136849895Y-74641831D01*
X136914031Y-74486995D01*
X137007140Y-74347646D01*
X137125646Y-74229140D01*
X137264995Y-74136031D01*
X137419831Y-74071895D01*
X137584203Y-74039200D01*
X137751797Y-74039200D01*
X137916169Y-74071895D01*
G37*
G36*
X192589857Y-74184117D02*
G01*
X192635465Y-74197952D01*
X192677504Y-74220422D01*
X192714344Y-74250656D01*
X192744578Y-74287496D01*
X192767048Y-74329535D01*
X192780883Y-74375143D01*
X192785800Y-74425065D01*
X192785800Y-75434935D01*
X192780883Y-75484857D01*
X192767048Y-75530465D01*
X192744578Y-75572504D01*
X192714344Y-75609344D01*
X192677504Y-75639578D01*
X192635465Y-75662048D01*
X192589857Y-75675883D01*
X192539935Y-75680800D01*
X191780065Y-75680800D01*
X191730143Y-75675883D01*
X191684535Y-75662048D01*
X191642496Y-75639578D01*
X191605656Y-75609344D01*
X191575422Y-75572504D01*
X191552952Y-75530465D01*
X191539117Y-75484857D01*
X191534200Y-75434935D01*
X191534200Y-74425065D01*
X191539117Y-74375143D01*
X191552952Y-74329535D01*
X191575422Y-74287496D01*
X191605656Y-74250656D01*
X191642496Y-74220422D01*
X191684535Y-74197952D01*
X191730143Y-74184117D01*
X191780065Y-74179200D01*
X192539935Y-74179200D01*
X192589857Y-74184117D01*
G37*
G36*
X190539857Y-74184117D02*
G01*
X190585465Y-74197952D01*
X190627504Y-74220422D01*
X190664344Y-74250656D01*
X190694578Y-74287496D01*
X190717048Y-74329535D01*
X190730883Y-74375143D01*
X190735800Y-74425065D01*
X190735800Y-75434935D01*
X190730883Y-75484857D01*
X190717048Y-75530465D01*
X190694578Y-75572504D01*
X190664344Y-75609344D01*
X190627504Y-75639578D01*
X190585465Y-75662048D01*
X190539857Y-75675883D01*
X190489935Y-75680800D01*
X189730065Y-75680800D01*
X189680143Y-75675883D01*
X189634535Y-75662048D01*
X189592496Y-75639578D01*
X189555656Y-75609344D01*
X189525422Y-75572504D01*
X189502952Y-75530465D01*
X189489117Y-75484857D01*
X189484200Y-75434935D01*
X189484200Y-74425065D01*
X189489117Y-74375143D01*
X189502952Y-74329535D01*
X189525422Y-74287496D01*
X189555656Y-74250656D01*
X189592496Y-74220422D01*
X189634535Y-74197952D01*
X189680143Y-74184117D01*
X189730065Y-74179200D01*
X190489935Y-74179200D01*
X190539857Y-74184117D01*
G37*
G36*
X147582754Y-72793817D02*
G01*
X147746689Y-72861721D01*
X147894227Y-72960303D01*
X148019697Y-73085773D01*
X148118279Y-73233311D01*
X148186183Y-73397246D01*
X148220800Y-73571279D01*
X148220800Y-73748721D01*
X148186183Y-73922754D01*
X148118279Y-74086689D01*
X148019697Y-74234227D01*
X147894227Y-74359697D01*
X147746689Y-74458279D01*
X147582754Y-74526183D01*
X147408721Y-74560800D01*
X147231279Y-74560800D01*
X147057246Y-74526183D01*
X146893311Y-74458279D01*
X146745773Y-74359697D01*
X146620303Y-74234227D01*
X146521721Y-74086689D01*
X146453817Y-73922754D01*
X146419200Y-73748721D01*
X146419200Y-73571279D01*
X146453817Y-73397246D01*
X146521721Y-73233311D01*
X146620303Y-73085773D01*
X146745773Y-72960303D01*
X146893311Y-72861721D01*
X147057246Y-72793817D01*
X147231279Y-72759200D01*
X147408721Y-72759200D01*
X147582754Y-72793817D01*
G37*
G36*
X143810857Y-72540117D02*
G01*
X143856465Y-72553952D01*
X143898504Y-72576422D01*
X143935344Y-72606656D01*
X143965578Y-72643496D01*
X143988048Y-72685535D01*
X144001883Y-72731143D01*
X144006800Y-72781065D01*
X144006800Y-73540935D01*
X144001883Y-73590857D01*
X143988048Y-73636465D01*
X143965578Y-73678504D01*
X143935344Y-73715344D01*
X143898504Y-73745578D01*
X143856465Y-73768048D01*
X143810857Y-73781883D01*
X143760935Y-73786800D01*
X142751065Y-73786800D01*
X142701143Y-73781883D01*
X142655535Y-73768048D01*
X142613496Y-73745578D01*
X142576656Y-73715344D01*
X142546422Y-73678504D01*
X142523952Y-73636465D01*
X142510117Y-73590857D01*
X142505200Y-73540935D01*
X142505200Y-72781065D01*
X142510117Y-72731143D01*
X142523952Y-72685535D01*
X142546422Y-72643496D01*
X142576656Y-72606656D01*
X142613496Y-72576422D01*
X142655535Y-72553952D01*
X142701143Y-72540117D01*
X142751065Y-72535200D01*
X143760935Y-72535200D01*
X143810857Y-72540117D01*
G37*
G36*
X138518800Y-73240800D02*
G01*
X136817200Y-73240800D01*
X136817200Y-71539200D01*
X138518800Y-71539200D01*
X138518800Y-73240800D01*
G37*
G36*
X147582754Y-70253817D02*
G01*
X147746689Y-70321721D01*
X147894227Y-70420303D01*
X148019697Y-70545773D01*
X148118279Y-70693311D01*
X148186183Y-70857246D01*
X148220800Y-71031279D01*
X148220800Y-71208721D01*
X148186183Y-71382754D01*
X148118279Y-71546689D01*
X148019697Y-71694227D01*
X147894227Y-71819697D01*
X147746689Y-71918279D01*
X147582754Y-71986183D01*
X147408721Y-72020800D01*
X147231279Y-72020800D01*
X147057246Y-71986183D01*
X146893311Y-71918279D01*
X146745773Y-71819697D01*
X146620303Y-71694227D01*
X146521721Y-71546689D01*
X146453817Y-71382754D01*
X146419200Y-71208721D01*
X146419200Y-71031279D01*
X146453817Y-70857246D01*
X146521721Y-70693311D01*
X146620303Y-70545773D01*
X146745773Y-70420303D01*
X146893311Y-70321721D01*
X147057246Y-70253817D01*
X147231279Y-70219200D01*
X147408721Y-70219200D01*
X147582754Y-70253817D01*
G37*
G36*
X143810857Y-70490117D02*
G01*
X143856465Y-70503952D01*
X143898504Y-70526422D01*
X143935344Y-70556656D01*
X143965578Y-70593496D01*
X143988048Y-70635535D01*
X144001883Y-70681143D01*
X144006800Y-70731065D01*
X144006800Y-71490935D01*
X144001883Y-71540857D01*
X143988048Y-71586465D01*
X143965578Y-71628504D01*
X143935344Y-71665344D01*
X143898504Y-71695578D01*
X143856465Y-71718048D01*
X143810857Y-71731883D01*
X143760935Y-71736800D01*
X142751065Y-71736800D01*
X142701143Y-71731883D01*
X142655535Y-71718048D01*
X142613496Y-71695578D01*
X142576656Y-71665344D01*
X142546422Y-71628504D01*
X142523952Y-71586465D01*
X142510117Y-71540857D01*
X142505200Y-71490935D01*
X142505200Y-70731065D01*
X142510117Y-70681143D01*
X142523952Y-70635535D01*
X142546422Y-70593496D01*
X142576656Y-70556656D01*
X142613496Y-70526422D01*
X142655535Y-70503952D01*
X142701143Y-70490117D01*
X142751065Y-70485200D01*
X143760935Y-70485200D01*
X143810857Y-70490117D01*
G37*
G36*
X213202800Y-70573300D02*
G01*
X212501200Y-70573300D01*
X212501200Y-69494700D01*
X213202800Y-69494700D01*
X213202800Y-70573300D01*
G37*
G36*
X147582754Y-67713817D02*
G01*
X147746689Y-67781721D01*
X147894227Y-67880303D01*
X148019697Y-68005773D01*
X148118279Y-68153311D01*
X148186183Y-68317246D01*
X148220800Y-68491279D01*
X148220800Y-68668721D01*
X148186183Y-68842754D01*
X148118279Y-69006689D01*
X148019697Y-69154227D01*
X147894227Y-69279697D01*
X147746689Y-69378279D01*
X147582754Y-69446183D01*
X147408721Y-69480800D01*
X147231279Y-69480800D01*
X147057246Y-69446183D01*
X146893311Y-69378279D01*
X146745773Y-69279697D01*
X146620303Y-69154227D01*
X146521721Y-69006689D01*
X146453817Y-68842754D01*
X146419200Y-68668721D01*
X146419200Y-68491279D01*
X146453817Y-68317246D01*
X146521721Y-68153311D01*
X146620303Y-68005773D01*
X146745773Y-67880303D01*
X146893311Y-67781721D01*
X147057246Y-67713817D01*
X147231279Y-67679200D01*
X147408721Y-67679200D01*
X147582754Y-67713817D01*
G37*
G36*
X203415300Y-68610800D02*
G01*
X202336700Y-68610800D01*
X202336700Y-67909200D01*
X203415300Y-67909200D01*
X203415300Y-68610800D01*
G37*
G36*
X209226857Y-67072117D02*
G01*
X209272465Y-67085952D01*
X209314504Y-67108422D01*
X209351344Y-67138656D01*
X209381578Y-67175496D01*
X209404048Y-67217535D01*
X209417883Y-67263143D01*
X209422800Y-67313065D01*
X209422800Y-68322935D01*
X209417883Y-68372857D01*
X209404048Y-68418465D01*
X209381578Y-68460504D01*
X209351344Y-68497344D01*
X209314504Y-68527578D01*
X209272465Y-68550048D01*
X209226857Y-68563883D01*
X209176935Y-68568800D01*
X208417065Y-68568800D01*
X208367143Y-68563883D01*
X208321535Y-68550048D01*
X208279496Y-68527578D01*
X208242656Y-68497344D01*
X208212422Y-68460504D01*
X208189952Y-68418465D01*
X208176117Y-68372857D01*
X208171200Y-68322935D01*
X208171200Y-67313065D01*
X208176117Y-67263143D01*
X208189952Y-67217535D01*
X208212422Y-67175496D01*
X208242656Y-67138656D01*
X208279496Y-67108422D01*
X208321535Y-67085952D01*
X208367143Y-67072117D01*
X208417065Y-67067200D01*
X209176935Y-67067200D01*
X209226857Y-67072117D01*
G37*
G36*
X207176857Y-67072117D02*
G01*
X207222465Y-67085952D01*
X207264504Y-67108422D01*
X207301344Y-67138656D01*
X207331578Y-67175496D01*
X207354048Y-67217535D01*
X207367883Y-67263143D01*
X207372800Y-67313065D01*
X207372800Y-68322935D01*
X207367883Y-68372857D01*
X207354048Y-68418465D01*
X207331578Y-68460504D01*
X207301344Y-68497344D01*
X207264504Y-68527578D01*
X207222465Y-68550048D01*
X207176857Y-68563883D01*
X207126935Y-68568800D01*
X206367065Y-68568800D01*
X206317143Y-68563883D01*
X206271535Y-68550048D01*
X206229496Y-68527578D01*
X206192656Y-68497344D01*
X206162422Y-68460504D01*
X206139952Y-68418465D01*
X206126117Y-68372857D01*
X206121200Y-68322935D01*
X206121200Y-67313065D01*
X206126117Y-67263143D01*
X206139952Y-67217535D01*
X206162422Y-67175496D01*
X206192656Y-67138656D01*
X206229496Y-67108422D01*
X206271535Y-67085952D01*
X206317143Y-67072117D01*
X206367065Y-67067200D01*
X207126935Y-67067200D01*
X207176857Y-67072117D01*
G37*
G36*
X214152800Y-68173300D02*
G01*
X213451200Y-68173300D01*
X213451200Y-67094700D01*
X214152800Y-67094700D01*
X214152800Y-68173300D01*
G37*
G36*
X212252800Y-68173300D02*
G01*
X211551200Y-68173300D01*
X211551200Y-67094700D01*
X212252800Y-67094700D01*
X212252800Y-68173300D01*
G37*
G36*
X135390754Y-66189817D02*
G01*
X135554689Y-66257721D01*
X135702227Y-66356303D01*
X135827697Y-66481773D01*
X135926279Y-66629311D01*
X135994183Y-66793246D01*
X136028800Y-66967279D01*
X136028800Y-67144721D01*
X135994183Y-67318754D01*
X135926279Y-67482689D01*
X135827697Y-67630227D01*
X135702227Y-67755697D01*
X135554689Y-67854279D01*
X135390754Y-67922183D01*
X135216721Y-67956800D01*
X135039279Y-67956800D01*
X134865246Y-67922183D01*
X134701311Y-67854279D01*
X134553773Y-67755697D01*
X134428303Y-67630227D01*
X134329721Y-67482689D01*
X134261817Y-67318754D01*
X134227200Y-67144721D01*
X134227200Y-66967279D01*
X134261817Y-66793246D01*
X134329721Y-66629311D01*
X134428303Y-66481773D01*
X134553773Y-66356303D01*
X134701311Y-66257721D01*
X134865246Y-66189817D01*
X135039279Y-66155200D01*
X135216721Y-66155200D01*
X135390754Y-66189817D01*
G37*
G36*
X133488800Y-67956800D02*
G01*
X131687200Y-67956800D01*
X131687200Y-66155200D01*
X133488800Y-66155200D01*
X133488800Y-67956800D01*
G37*
G36*
X142794857Y-66444117D02*
G01*
X142840465Y-66457952D01*
X142882504Y-66480422D01*
X142919344Y-66510656D01*
X142949578Y-66547496D01*
X142972048Y-66589535D01*
X142985883Y-66635143D01*
X142990800Y-66685065D01*
X142990800Y-67444935D01*
X142985883Y-67494857D01*
X142972048Y-67540465D01*
X142949578Y-67582504D01*
X142919344Y-67619344D01*
X142882504Y-67649578D01*
X142840465Y-67672048D01*
X142794857Y-67685883D01*
X142744935Y-67690800D01*
X141735065Y-67690800D01*
X141685143Y-67685883D01*
X141639535Y-67672048D01*
X141597496Y-67649578D01*
X141560656Y-67619344D01*
X141530422Y-67582504D01*
X141507952Y-67540465D01*
X141494117Y-67494857D01*
X141489200Y-67444935D01*
X141489200Y-66685065D01*
X141494117Y-66635143D01*
X141507952Y-66589535D01*
X141530422Y-66547496D01*
X141560656Y-66510656D01*
X141597496Y-66480422D01*
X141639535Y-66457952D01*
X141685143Y-66444117D01*
X141735065Y-66439200D01*
X142744935Y-66439200D01*
X142794857Y-66444117D01*
G37*
G36*
X201015300Y-67660800D02*
G01*
X199936700Y-67660800D01*
X199936700Y-66959200D01*
X201015300Y-66959200D01*
X201015300Y-67660800D01*
G37*
G36*
X148220800Y-66940800D02*
G01*
X146419200Y-66940800D01*
X146419200Y-65139200D01*
X148220800Y-65139200D01*
X148220800Y-66940800D01*
G37*
G36*
X203415300Y-66710800D02*
G01*
X202336700Y-66710800D01*
X202336700Y-66009200D01*
X203415300Y-66009200D01*
X203415300Y-66710800D01*
G37*
G36*
X178354857Y-64666117D02*
G01*
X178400465Y-64679952D01*
X178442504Y-64702422D01*
X178479344Y-64732656D01*
X178509578Y-64769496D01*
X178532048Y-64811535D01*
X178545883Y-64857143D01*
X178550800Y-64907065D01*
X178550800Y-65666935D01*
X178545883Y-65716857D01*
X178532048Y-65762465D01*
X178509578Y-65804504D01*
X178479344Y-65841344D01*
X178442504Y-65871578D01*
X178400465Y-65894048D01*
X178354857Y-65907883D01*
X178304935Y-65912800D01*
X177295065Y-65912800D01*
X177245143Y-65907883D01*
X177199535Y-65894048D01*
X177157496Y-65871578D01*
X177120656Y-65841344D01*
X177090422Y-65804504D01*
X177067952Y-65762465D01*
X177054117Y-65716857D01*
X177049200Y-65666935D01*
X177049200Y-64907065D01*
X177054117Y-64857143D01*
X177067952Y-64811535D01*
X177090422Y-64769496D01*
X177120656Y-64732656D01*
X177157496Y-64702422D01*
X177199535Y-64679952D01*
X177245143Y-64666117D01*
X177295065Y-64661200D01*
X178304935Y-64661200D01*
X178354857Y-64666117D01*
G37*
G36*
X173020857Y-64666117D02*
G01*
X173066465Y-64679952D01*
X173108504Y-64702422D01*
X173145344Y-64732656D01*
X173175578Y-64769496D01*
X173198048Y-64811535D01*
X173211883Y-64857143D01*
X173216800Y-64907065D01*
X173216800Y-65666935D01*
X173211883Y-65716857D01*
X173198048Y-65762465D01*
X173175578Y-65804504D01*
X173145344Y-65841344D01*
X173108504Y-65871578D01*
X173066465Y-65894048D01*
X173020857Y-65907883D01*
X172970935Y-65912800D01*
X171961065Y-65912800D01*
X171911143Y-65907883D01*
X171865535Y-65894048D01*
X171823496Y-65871578D01*
X171786656Y-65841344D01*
X171756422Y-65804504D01*
X171733952Y-65762465D01*
X171720117Y-65716857D01*
X171715200Y-65666935D01*
X171715200Y-64907065D01*
X171720117Y-64857143D01*
X171733952Y-64811535D01*
X171756422Y-64769496D01*
X171786656Y-64732656D01*
X171823496Y-64702422D01*
X171865535Y-64679952D01*
X171911143Y-64666117D01*
X171961065Y-64661200D01*
X172970935Y-64661200D01*
X173020857Y-64666117D01*
G37*
G36*
X142794857Y-64394117D02*
G01*
X142840465Y-64407952D01*
X142882504Y-64430422D01*
X142919344Y-64460656D01*
X142949578Y-64497496D01*
X142972048Y-64539535D01*
X142985883Y-64585143D01*
X142990800Y-64635065D01*
X142990800Y-65394935D01*
X142985883Y-65444857D01*
X142972048Y-65490465D01*
X142949578Y-65532504D01*
X142919344Y-65569344D01*
X142882504Y-65599578D01*
X142840465Y-65622048D01*
X142794857Y-65635883D01*
X142744935Y-65640800D01*
X141735065Y-65640800D01*
X141685143Y-65635883D01*
X141639535Y-65622048D01*
X141597496Y-65599578D01*
X141560656Y-65569344D01*
X141530422Y-65532504D01*
X141507952Y-65490465D01*
X141494117Y-65444857D01*
X141489200Y-65394935D01*
X141489200Y-64635065D01*
X141494117Y-64585143D01*
X141507952Y-64539535D01*
X141530422Y-64497496D01*
X141560656Y-64460656D01*
X141597496Y-64430422D01*
X141639535Y-64407952D01*
X141685143Y-64394117D01*
X141735065Y-64389200D01*
X142744935Y-64389200D01*
X142794857Y-64394117D01*
G37*
G36*
X209226857Y-63770117D02*
G01*
X209272465Y-63783952D01*
X209314504Y-63806422D01*
X209351344Y-63836656D01*
X209381578Y-63873496D01*
X209404048Y-63915535D01*
X209417883Y-63961143D01*
X209422800Y-64011065D01*
X209422800Y-65020935D01*
X209417883Y-65070857D01*
X209404048Y-65116465D01*
X209381578Y-65158504D01*
X209351344Y-65195344D01*
X209314504Y-65225578D01*
X209272465Y-65248048D01*
X209226857Y-65261883D01*
X209176935Y-65266800D01*
X208417065Y-65266800D01*
X208367143Y-65261883D01*
X208321535Y-65248048D01*
X208279496Y-65225578D01*
X208242656Y-65195344D01*
X208212422Y-65158504D01*
X208189952Y-65116465D01*
X208176117Y-65070857D01*
X208171200Y-65020935D01*
X208171200Y-64011065D01*
X208176117Y-63961143D01*
X208189952Y-63915535D01*
X208212422Y-63873496D01*
X208242656Y-63836656D01*
X208279496Y-63806422D01*
X208321535Y-63783952D01*
X208367143Y-63770117D01*
X208417065Y-63765200D01*
X209176935Y-63765200D01*
X209226857Y-63770117D01*
G37*
G36*
X207176857Y-63770117D02*
G01*
X207222465Y-63783952D01*
X207264504Y-63806422D01*
X207301344Y-63836656D01*
X207331578Y-63873496D01*
X207354048Y-63915535D01*
X207367883Y-63961143D01*
X207372800Y-64011065D01*
X207372800Y-65020935D01*
X207367883Y-65070857D01*
X207354048Y-65116465D01*
X207331578Y-65158504D01*
X207301344Y-65195344D01*
X207264504Y-65225578D01*
X207222465Y-65248048D01*
X207176857Y-65261883D01*
X207126935Y-65266800D01*
X206367065Y-65266800D01*
X206317143Y-65261883D01*
X206271535Y-65248048D01*
X206229496Y-65225578D01*
X206192656Y-65195344D01*
X206162422Y-65158504D01*
X206139952Y-65116465D01*
X206126117Y-65070857D01*
X206121200Y-65020935D01*
X206121200Y-64011065D01*
X206126117Y-63961143D01*
X206139952Y-63915535D01*
X206162422Y-63873496D01*
X206192656Y-63836656D01*
X206229496Y-63806422D01*
X206271535Y-63783952D01*
X206317143Y-63770117D01*
X206367065Y-63765200D01*
X207126935Y-63765200D01*
X207176857Y-63770117D01*
G37*
G36*
X168985508Y-62417582D02*
G01*
X169176741Y-62496793D01*
X169348847Y-62611791D01*
X169495209Y-62758153D01*
X169610207Y-62930259D01*
X169689418Y-63121492D01*
X169729800Y-63324505D01*
X169729800Y-63531495D01*
X169689418Y-63734508D01*
X169610207Y-63925741D01*
X169495209Y-64097847D01*
X169348847Y-64244209D01*
X169176741Y-64359207D01*
X168985508Y-64438418D01*
X168782495Y-64478800D01*
X168575505Y-64478800D01*
X168372492Y-64438418D01*
X168181259Y-64359207D01*
X168009153Y-64244209D01*
X167862791Y-64097847D01*
X167747793Y-63925741D01*
X167668582Y-63734508D01*
X167628200Y-63531495D01*
X167628200Y-63324505D01*
X167668582Y-63121492D01*
X167747793Y-62930259D01*
X167862791Y-62758153D01*
X168009153Y-62611791D01*
X168181259Y-62496793D01*
X168372492Y-62417582D01*
X168575505Y-62377200D01*
X168782495Y-62377200D01*
X168985508Y-62417582D01*
G37*
G36*
X162485508Y-62417582D02*
G01*
X162676741Y-62496793D01*
X162848847Y-62611791D01*
X162995209Y-62758153D01*
X163110207Y-62930259D01*
X163189418Y-63121492D01*
X163229800Y-63324505D01*
X163229800Y-63531495D01*
X163189418Y-63734508D01*
X163110207Y-63925741D01*
X162995209Y-64097847D01*
X162848847Y-64244209D01*
X162676741Y-64359207D01*
X162485508Y-64438418D01*
X162282495Y-64478800D01*
X162075505Y-64478800D01*
X161872492Y-64438418D01*
X161681259Y-64359207D01*
X161509153Y-64244209D01*
X161362791Y-64097847D01*
X161247793Y-63925741D01*
X161168582Y-63734508D01*
X161128200Y-63531495D01*
X161128200Y-63324505D01*
X161168582Y-63121492D01*
X161247793Y-62930259D01*
X161362791Y-62758153D01*
X161509153Y-62611791D01*
X161681259Y-62496793D01*
X161872492Y-62417582D01*
X162075505Y-62377200D01*
X162282495Y-62377200D01*
X162485508Y-62417582D01*
G37*
G36*
X188670508Y-62417582D02*
G01*
X188861741Y-62496793D01*
X189033847Y-62611791D01*
X189180209Y-62758153D01*
X189295207Y-62930259D01*
X189374418Y-63121492D01*
X189414800Y-63324505D01*
X189414800Y-63531495D01*
X189374418Y-63734508D01*
X189295207Y-63925741D01*
X189180209Y-64097847D01*
X189033847Y-64244209D01*
X188861741Y-64359207D01*
X188670508Y-64438418D01*
X188467495Y-64478800D01*
X188260505Y-64478800D01*
X188057492Y-64438418D01*
X187866259Y-64359207D01*
X187694153Y-64244209D01*
X187547791Y-64097847D01*
X187432793Y-63925741D01*
X187353582Y-63734508D01*
X187313200Y-63531495D01*
X187313200Y-63324505D01*
X187353582Y-63121492D01*
X187432793Y-62930259D01*
X187547791Y-62758153D01*
X187694153Y-62611791D01*
X187866259Y-62496793D01*
X188057492Y-62417582D01*
X188260505Y-62377200D01*
X188467495Y-62377200D01*
X188670508Y-62417582D01*
G37*
G36*
X182170508Y-62417582D02*
G01*
X182361741Y-62496793D01*
X182533847Y-62611791D01*
X182680209Y-62758153D01*
X182795207Y-62930259D01*
X182874418Y-63121492D01*
X182914800Y-63324505D01*
X182914800Y-63531495D01*
X182874418Y-63734508D01*
X182795207Y-63925741D01*
X182680209Y-64097847D01*
X182533847Y-64244209D01*
X182361741Y-64359207D01*
X182170508Y-64438418D01*
X181967495Y-64478800D01*
X181760505Y-64478800D01*
X181557492Y-64438418D01*
X181366259Y-64359207D01*
X181194153Y-64244209D01*
X181047791Y-64097847D01*
X180932793Y-63925741D01*
X180853582Y-63734508D01*
X180813200Y-63531495D01*
X180813200Y-63324505D01*
X180853582Y-63121492D01*
X180932793Y-62930259D01*
X181047791Y-62758153D01*
X181194153Y-62611791D01*
X181366259Y-62496793D01*
X181557492Y-62417582D01*
X181760505Y-62377200D01*
X181967495Y-62377200D01*
X182170508Y-62417582D01*
G37*
G36*
X178354857Y-62616117D02*
G01*
X178400465Y-62629952D01*
X178442504Y-62652422D01*
X178479344Y-62682656D01*
X178509578Y-62719496D01*
X178532048Y-62761535D01*
X178545883Y-62807143D01*
X178550800Y-62857065D01*
X178550800Y-63616935D01*
X178545883Y-63666857D01*
X178532048Y-63712465D01*
X178509578Y-63754504D01*
X178479344Y-63791344D01*
X178442504Y-63821578D01*
X178400465Y-63844048D01*
X178354857Y-63857883D01*
X178304935Y-63862800D01*
X177295065Y-63862800D01*
X177245143Y-63857883D01*
X177199535Y-63844048D01*
X177157496Y-63821578D01*
X177120656Y-63791344D01*
X177090422Y-63754504D01*
X177067952Y-63712465D01*
X177054117Y-63666857D01*
X177049200Y-63616935D01*
X177049200Y-62857065D01*
X177054117Y-62807143D01*
X177067952Y-62761535D01*
X177090422Y-62719496D01*
X177120656Y-62682656D01*
X177157496Y-62652422D01*
X177199535Y-62629952D01*
X177245143Y-62616117D01*
X177295065Y-62611200D01*
X178304935Y-62611200D01*
X178354857Y-62616117D01*
G37*
G36*
X173020857Y-62616117D02*
G01*
X173066465Y-62629952D01*
X173108504Y-62652422D01*
X173145344Y-62682656D01*
X173175578Y-62719496D01*
X173198048Y-62761535D01*
X173211883Y-62807143D01*
X173216800Y-62857065D01*
X173216800Y-63616935D01*
X173211883Y-63666857D01*
X173198048Y-63712465D01*
X173175578Y-63754504D01*
X173145344Y-63791344D01*
X173108504Y-63821578D01*
X173066465Y-63844048D01*
X173020857Y-63857883D01*
X172970935Y-63862800D01*
X171961065Y-63862800D01*
X171911143Y-63857883D01*
X171865535Y-63844048D01*
X171823496Y-63821578D01*
X171786656Y-63791344D01*
X171756422Y-63754504D01*
X171733952Y-63712465D01*
X171720117Y-63666857D01*
X171715200Y-63616935D01*
X171715200Y-62857065D01*
X171720117Y-62807143D01*
X171733952Y-62761535D01*
X171756422Y-62719496D01*
X171786656Y-62682656D01*
X171823496Y-62652422D01*
X171865535Y-62629952D01*
X171911143Y-62616117D01*
X171961065Y-62611200D01*
X172970935Y-62611200D01*
X173020857Y-62616117D01*
G37*
G36*
X137834857Y-61484117D02*
G01*
X137880465Y-61497952D01*
X137922504Y-61520422D01*
X137959344Y-61550656D01*
X137989578Y-61587496D01*
X138012048Y-61629535D01*
X138025883Y-61675143D01*
X138030800Y-61725065D01*
X138030800Y-62734935D01*
X138025883Y-62784857D01*
X138012048Y-62830465D01*
X137989578Y-62872504D01*
X137959344Y-62909344D01*
X137922504Y-62939578D01*
X137880465Y-62962048D01*
X137834857Y-62975883D01*
X137784935Y-62980800D01*
X137025065Y-62980800D01*
X136975143Y-62975883D01*
X136929535Y-62962048D01*
X136887496Y-62939578D01*
X136850656Y-62909344D01*
X136820422Y-62872504D01*
X136797952Y-62830465D01*
X136784117Y-62784857D01*
X136779200Y-62734935D01*
X136779200Y-61725065D01*
X136784117Y-61675143D01*
X136797952Y-61629535D01*
X136820422Y-61587496D01*
X136850656Y-61550656D01*
X136887496Y-61520422D01*
X136929535Y-61497952D01*
X136975143Y-61484117D01*
X137025065Y-61479200D01*
X137784935Y-61479200D01*
X137834857Y-61484117D01*
G37*
G36*
X139884857Y-61484117D02*
G01*
X139930465Y-61497952D01*
X139972504Y-61520422D01*
X140009344Y-61550656D01*
X140039578Y-61587496D01*
X140062048Y-61629535D01*
X140075883Y-61675143D01*
X140080800Y-61725065D01*
X140080800Y-62734935D01*
X140075883Y-62784857D01*
X140062048Y-62830465D01*
X140039578Y-62872504D01*
X140009344Y-62909344D01*
X139972504Y-62939578D01*
X139930465Y-62962048D01*
X139884857Y-62975883D01*
X139834935Y-62980800D01*
X139075065Y-62980800D01*
X139025143Y-62975883D01*
X138979535Y-62962048D01*
X138937496Y-62939578D01*
X138900656Y-62909344D01*
X138870422Y-62872504D01*
X138847952Y-62830465D01*
X138834117Y-62784857D01*
X138829200Y-62734935D01*
X138829200Y-61725065D01*
X138834117Y-61675143D01*
X138847952Y-61629535D01*
X138870422Y-61587496D01*
X138900656Y-61550656D01*
X138937496Y-61520422D01*
X138979535Y-61497952D01*
X139025143Y-61484117D01*
X139075065Y-61479200D01*
X139834935Y-61479200D01*
X139884857Y-61484117D01*
G37*
G36*
X131291521Y-59372639D02*
G01*
X131591947Y-59497080D01*
X131862324Y-59677740D01*
X132092260Y-59907676D01*
X132272920Y-60178053D01*
X132397361Y-60478479D01*
X132460800Y-60797410D01*
X132460800Y-61122590D01*
X132397361Y-61441521D01*
X132272920Y-61741947D01*
X132092260Y-62012324D01*
X131862324Y-62242260D01*
X131591947Y-62422920D01*
X131291521Y-62547361D01*
X130972590Y-62610800D01*
X130647410Y-62610800D01*
X130328479Y-62547361D01*
X130028053Y-62422920D01*
X129757676Y-62242260D01*
X129527740Y-62012324D01*
X129347080Y-61741947D01*
X129222639Y-61441521D01*
X129159200Y-61122590D01*
X129159200Y-60797410D01*
X129222639Y-60478479D01*
X129347080Y-60178053D01*
X129527740Y-59907676D01*
X129757676Y-59677740D01*
X130028053Y-59497080D01*
X130328479Y-59372639D01*
X130647410Y-59309200D01*
X130972590Y-59309200D01*
X131291521Y-59372639D01*
G37*
G36*
X216381521Y-59372639D02*
G01*
X216681947Y-59497080D01*
X216952324Y-59677740D01*
X217182260Y-59907676D01*
X217362920Y-60178053D01*
X217487361Y-60478479D01*
X217550800Y-60797410D01*
X217550800Y-61122590D01*
X217487361Y-61441521D01*
X217362920Y-61741947D01*
X217182260Y-62012324D01*
X216952324Y-62242260D01*
X216681947Y-62422920D01*
X216381521Y-62547361D01*
X216062590Y-62610800D01*
X215737410Y-62610800D01*
X215418479Y-62547361D01*
X215118053Y-62422920D01*
X214847676Y-62242260D01*
X214617740Y-62012324D01*
X214437080Y-61741947D01*
X214312639Y-61441521D01*
X214249200Y-61122590D01*
X214249200Y-60797410D01*
X214312639Y-60478479D01*
X214437080Y-60178053D01*
X214617740Y-59907676D01*
X214847676Y-59677740D01*
X215118053Y-59497080D01*
X215418479Y-59372639D01*
X215737410Y-59309200D01*
X216062590Y-59309200D01*
X216381521Y-59372639D01*
G37*
G36*
X197112754Y-60347817D02*
G01*
X197276689Y-60415721D01*
X197424227Y-60514303D01*
X197549697Y-60639773D01*
X197648279Y-60787311D01*
X197716183Y-60951246D01*
X197750800Y-61125279D01*
X197750800Y-61302721D01*
X197716183Y-61476754D01*
X197648279Y-61640689D01*
X197549697Y-61788227D01*
X197424227Y-61913697D01*
X197276689Y-62012279D01*
X197112754Y-62080183D01*
X196938721Y-62114800D01*
X196761279Y-62114800D01*
X196587246Y-62080183D01*
X196423311Y-62012279D01*
X196275773Y-61913697D01*
X196150303Y-61788227D01*
X196051721Y-61640689D01*
X195983817Y-61476754D01*
X195949200Y-61302721D01*
X195949200Y-61125279D01*
X195983817Y-60951246D01*
X196051721Y-60787311D01*
X196150303Y-60639773D01*
X196275773Y-60514303D01*
X196423311Y-60415721D01*
X196587246Y-60347817D01*
X196761279Y-60313200D01*
X196938721Y-60313200D01*
X197112754Y-60347817D01*
G37*
G36*
X199652754Y-60347817D02*
G01*
X199816689Y-60415721D01*
X199964227Y-60514303D01*
X200089697Y-60639773D01*
X200188279Y-60787311D01*
X200256183Y-60951246D01*
X200290800Y-61125279D01*
X200290800Y-61302721D01*
X200256183Y-61476754D01*
X200188279Y-61640689D01*
X200089697Y-61788227D01*
X199964227Y-61913697D01*
X199816689Y-62012279D01*
X199652754Y-62080183D01*
X199478721Y-62114800D01*
X199301279Y-62114800D01*
X199127246Y-62080183D01*
X198963311Y-62012279D01*
X198815773Y-61913697D01*
X198690303Y-61788227D01*
X198591721Y-61640689D01*
X198523817Y-61476754D01*
X198489200Y-61302721D01*
X198489200Y-61125279D01*
X198523817Y-60951246D01*
X198591721Y-60787311D01*
X198690303Y-60639773D01*
X198815773Y-60514303D01*
X198963311Y-60415721D01*
X199127246Y-60347817D01*
X199301279Y-60313200D01*
X199478721Y-60313200D01*
X199652754Y-60347817D01*
G37*
G36*
X207272754Y-60347817D02*
G01*
X207436689Y-60415721D01*
X207584227Y-60514303D01*
X207709697Y-60639773D01*
X207808279Y-60787311D01*
X207876183Y-60951246D01*
X207910800Y-61125279D01*
X207910800Y-61302721D01*
X207876183Y-61476754D01*
X207808279Y-61640689D01*
X207709697Y-61788227D01*
X207584227Y-61913697D01*
X207436689Y-62012279D01*
X207272754Y-62080183D01*
X207098721Y-62114800D01*
X206921279Y-62114800D01*
X206747246Y-62080183D01*
X206583311Y-62012279D01*
X206435773Y-61913697D01*
X206310303Y-61788227D01*
X206211721Y-61640689D01*
X206143817Y-61476754D01*
X206109200Y-61302721D01*
X206109200Y-61125279D01*
X206143817Y-60951246D01*
X206211721Y-60787311D01*
X206310303Y-60639773D01*
X206435773Y-60514303D01*
X206583311Y-60415721D01*
X206747246Y-60347817D01*
X206921279Y-60313200D01*
X207098721Y-60313200D01*
X207272754Y-60347817D01*
G37*
G36*
X195210800Y-62114800D02*
G01*
X193409200Y-62114800D01*
X193409200Y-60313200D01*
X195210800Y-60313200D01*
X195210800Y-62114800D01*
G37*
G36*
X202192754Y-60347817D02*
G01*
X202356689Y-60415721D01*
X202504227Y-60514303D01*
X202629697Y-60639773D01*
X202728279Y-60787311D01*
X202796183Y-60951246D01*
X202830800Y-61125279D01*
X202830800Y-61302721D01*
X202796183Y-61476754D01*
X202728279Y-61640689D01*
X202629697Y-61788227D01*
X202504227Y-61913697D01*
X202356689Y-62012279D01*
X202192754Y-62080183D01*
X202018721Y-62114800D01*
X201841279Y-62114800D01*
X201667246Y-62080183D01*
X201503311Y-62012279D01*
X201355773Y-61913697D01*
X201230303Y-61788227D01*
X201131721Y-61640689D01*
X201063817Y-61476754D01*
X201029200Y-61302721D01*
X201029200Y-61125279D01*
X201063817Y-60951246D01*
X201131721Y-60787311D01*
X201230303Y-60639773D01*
X201355773Y-60514303D01*
X201503311Y-60415721D01*
X201667246Y-60347817D01*
X201841279Y-60313200D01*
X202018721Y-60313200D01*
X202192754Y-60347817D01*
G37*
G36*
X204732754Y-60347817D02*
G01*
X204896689Y-60415721D01*
X205044227Y-60514303D01*
X205169697Y-60639773D01*
X205268279Y-60787311D01*
X205336183Y-60951246D01*
X205370800Y-61125279D01*
X205370800Y-61302721D01*
X205336183Y-61476754D01*
X205268279Y-61640689D01*
X205169697Y-61788227D01*
X205044227Y-61913697D01*
X204896689Y-62012279D01*
X204732754Y-62080183D01*
X204558721Y-62114800D01*
X204381279Y-62114800D01*
X204207246Y-62080183D01*
X204043311Y-62012279D01*
X203895773Y-61913697D01*
X203770303Y-61788227D01*
X203671721Y-61640689D01*
X203603817Y-61476754D01*
X203569200Y-61302721D01*
X203569200Y-61125279D01*
X203603817Y-60951246D01*
X203671721Y-60787311D01*
X203770303Y-60639773D01*
X203895773Y-60514303D01*
X204043311Y-60415721D01*
X204207246Y-60347817D01*
X204381279Y-60313200D01*
X204558721Y-60313200D01*
X204732754Y-60347817D01*
G37*
G36*
X209812754Y-60347817D02*
G01*
X209976689Y-60415721D01*
X210124227Y-60514303D01*
X210249697Y-60639773D01*
X210348279Y-60787311D01*
X210416183Y-60951246D01*
X210450800Y-61125279D01*
X210450800Y-61302721D01*
X210416183Y-61476754D01*
X210348279Y-61640689D01*
X210249697Y-61788227D01*
X210124227Y-61913697D01*
X209976689Y-62012279D01*
X209812754Y-62080183D01*
X209638721Y-62114800D01*
X209461279Y-62114800D01*
X209287246Y-62080183D01*
X209123311Y-62012279D01*
X208975773Y-61913697D01*
X208850303Y-61788227D01*
X208751721Y-61640689D01*
X208683817Y-61476754D01*
X208649200Y-61302721D01*
X208649200Y-61125279D01*
X208683817Y-60951246D01*
X208751721Y-60787311D01*
X208850303Y-60639773D01*
X208975773Y-60514303D01*
X209123311Y-60415721D01*
X209287246Y-60347817D01*
X209461279Y-60313200D01*
X209638721Y-60313200D01*
X209812754Y-60347817D01*
G37*
G36*
X145080857Y-60602117D02*
G01*
X145126465Y-60615952D01*
X145168504Y-60638422D01*
X145205344Y-60668656D01*
X145235578Y-60705496D01*
X145258048Y-60747535D01*
X145271883Y-60793143D01*
X145276800Y-60843065D01*
X145276800Y-61602935D01*
X145271883Y-61652857D01*
X145258048Y-61698465D01*
X145235578Y-61740504D01*
X145205344Y-61777344D01*
X145168504Y-61807578D01*
X145126465Y-61830048D01*
X145080857Y-61843883D01*
X145030935Y-61848800D01*
X144021065Y-61848800D01*
X143971143Y-61843883D01*
X143925535Y-61830048D01*
X143883496Y-61807578D01*
X143846656Y-61777344D01*
X143816422Y-61740504D01*
X143793952Y-61698465D01*
X143780117Y-61652857D01*
X143775200Y-61602935D01*
X143775200Y-60843065D01*
X143780117Y-60793143D01*
X143793952Y-60747535D01*
X143816422Y-60705496D01*
X143846656Y-60668656D01*
X143883496Y-60638422D01*
X143925535Y-60615952D01*
X143971143Y-60602117D01*
X144021065Y-60597200D01*
X145030935Y-60597200D01*
X145080857Y-60602117D01*
G37*
G36*
X178354857Y-60348117D02*
G01*
X178400465Y-60361952D01*
X178442504Y-60384422D01*
X178479344Y-60414656D01*
X178509578Y-60451496D01*
X178532048Y-60493535D01*
X178545883Y-60539143D01*
X178550800Y-60589065D01*
X178550800Y-61348935D01*
X178545883Y-61398857D01*
X178532048Y-61444465D01*
X178509578Y-61486504D01*
X178479344Y-61523344D01*
X178442504Y-61553578D01*
X178400465Y-61576048D01*
X178354857Y-61589883D01*
X178304935Y-61594800D01*
X177295065Y-61594800D01*
X177245143Y-61589883D01*
X177199535Y-61576048D01*
X177157496Y-61553578D01*
X177120656Y-61523344D01*
X177090422Y-61486504D01*
X177067952Y-61444465D01*
X177054117Y-61398857D01*
X177049200Y-61348935D01*
X177049200Y-60589065D01*
X177054117Y-60539143D01*
X177067952Y-60493535D01*
X177090422Y-60451496D01*
X177120656Y-60414656D01*
X177157496Y-60384422D01*
X177199535Y-60361952D01*
X177245143Y-60348117D01*
X177295065Y-60343200D01*
X178304935Y-60343200D01*
X178354857Y-60348117D01*
G37*
G36*
X173020857Y-60221117D02*
G01*
X173066465Y-60234952D01*
X173108504Y-60257422D01*
X173145344Y-60287656D01*
X173175578Y-60324496D01*
X173198048Y-60366535D01*
X173211883Y-60412143D01*
X173216800Y-60462065D01*
X173216800Y-61221935D01*
X173211883Y-61271857D01*
X173198048Y-61317465D01*
X173175578Y-61359504D01*
X173145344Y-61396344D01*
X173108504Y-61426578D01*
X173066465Y-61449048D01*
X173020857Y-61462883D01*
X172970935Y-61467800D01*
X171961065Y-61467800D01*
X171911143Y-61462883D01*
X171865535Y-61449048D01*
X171823496Y-61426578D01*
X171786656Y-61396344D01*
X171756422Y-61359504D01*
X171733952Y-61317465D01*
X171720117Y-61271857D01*
X171715200Y-61221935D01*
X171715200Y-60462065D01*
X171720117Y-60412143D01*
X171733952Y-60366535D01*
X171756422Y-60324496D01*
X171786656Y-60287656D01*
X171823496Y-60257422D01*
X171865535Y-60234952D01*
X171911143Y-60221117D01*
X171961065Y-60216200D01*
X172970935Y-60216200D01*
X173020857Y-60221117D01*
G37*
G36*
X154567754Y-58442817D02*
G01*
X154731689Y-58510721D01*
X154879227Y-58609303D01*
X155004697Y-58734773D01*
X155103279Y-58882311D01*
X155171183Y-59046246D01*
X155205800Y-59220279D01*
X155205800Y-59397721D01*
X155171183Y-59571754D01*
X155103279Y-59735689D01*
X155004697Y-59883227D01*
X154879227Y-60008697D01*
X154731689Y-60107279D01*
X154567754Y-60175183D01*
X154393721Y-60209800D01*
X154216279Y-60209800D01*
X154042246Y-60175183D01*
X153878311Y-60107279D01*
X153730773Y-60008697D01*
X153605303Y-59883227D01*
X153506721Y-59735689D01*
X153438817Y-59571754D01*
X153404200Y-59397721D01*
X153404200Y-59220279D01*
X153438817Y-59046246D01*
X153506721Y-58882311D01*
X153605303Y-58734773D01*
X153730773Y-58609303D01*
X153878311Y-58510721D01*
X154042246Y-58442817D01*
X154216279Y-58408200D01*
X154393721Y-58408200D01*
X154567754Y-58442817D01*
G37*
G36*
X157745800Y-60209800D02*
G01*
X155944200Y-60209800D01*
X155944200Y-58408200D01*
X157745800Y-58408200D01*
X157745800Y-60209800D01*
G37*
G36*
X162485508Y-57917582D02*
G01*
X162676741Y-57996793D01*
X162848847Y-58111791D01*
X162995209Y-58258153D01*
X163110207Y-58430259D01*
X163189418Y-58621492D01*
X163229800Y-58824505D01*
X163229800Y-59031495D01*
X163189418Y-59234508D01*
X163110207Y-59425741D01*
X162995209Y-59597847D01*
X162848847Y-59744209D01*
X162676741Y-59859207D01*
X162485508Y-59938418D01*
X162282495Y-59978800D01*
X162075505Y-59978800D01*
X161872492Y-59938418D01*
X161681259Y-59859207D01*
X161509153Y-59744209D01*
X161362791Y-59597847D01*
X161247793Y-59425741D01*
X161168582Y-59234508D01*
X161128200Y-59031495D01*
X161128200Y-58824505D01*
X161168582Y-58621492D01*
X161247793Y-58430259D01*
X161362791Y-58258153D01*
X161509153Y-58111791D01*
X161681259Y-57996793D01*
X161872492Y-57917582D01*
X162075505Y-57877200D01*
X162282495Y-57877200D01*
X162485508Y-57917582D01*
G37*
G36*
X188670508Y-57917582D02*
G01*
X188861741Y-57996793D01*
X189033847Y-58111791D01*
X189180209Y-58258153D01*
X189295207Y-58430259D01*
X189374418Y-58621492D01*
X189414800Y-58824505D01*
X189414800Y-59031495D01*
X189374418Y-59234508D01*
X189295207Y-59425741D01*
X189180209Y-59597847D01*
X189033847Y-59744209D01*
X188861741Y-59859207D01*
X188670508Y-59938418D01*
X188467495Y-59978800D01*
X188260505Y-59978800D01*
X188057492Y-59938418D01*
X187866259Y-59859207D01*
X187694153Y-59744209D01*
X187547791Y-59597847D01*
X187432793Y-59425741D01*
X187353582Y-59234508D01*
X187313200Y-59031495D01*
X187313200Y-58824505D01*
X187353582Y-58621492D01*
X187432793Y-58430259D01*
X187547791Y-58258153D01*
X187694153Y-58111791D01*
X187866259Y-57996793D01*
X188057492Y-57917582D01*
X188260505Y-57877200D01*
X188467495Y-57877200D01*
X188670508Y-57917582D01*
G37*
G36*
X182170508Y-57917582D02*
G01*
X182361741Y-57996793D01*
X182533847Y-58111791D01*
X182680209Y-58258153D01*
X182795207Y-58430259D01*
X182874418Y-58621492D01*
X182914800Y-58824505D01*
X182914800Y-59031495D01*
X182874418Y-59234508D01*
X182795207Y-59425741D01*
X182680209Y-59597847D01*
X182533847Y-59744209D01*
X182361741Y-59859207D01*
X182170508Y-59938418D01*
X181967495Y-59978800D01*
X181760505Y-59978800D01*
X181557492Y-59938418D01*
X181366259Y-59859207D01*
X181194153Y-59744209D01*
X181047791Y-59597847D01*
X180932793Y-59425741D01*
X180853582Y-59234508D01*
X180813200Y-59031495D01*
X180813200Y-58824505D01*
X180853582Y-58621492D01*
X180932793Y-58430259D01*
X181047791Y-58258153D01*
X181194153Y-58111791D01*
X181366259Y-57996793D01*
X181557492Y-57917582D01*
X181760505Y-57877200D01*
X181967495Y-57877200D01*
X182170508Y-57917582D01*
G37*
G36*
X168985508Y-57917582D02*
G01*
X169176741Y-57996793D01*
X169348847Y-58111791D01*
X169495209Y-58258153D01*
X169610207Y-58430259D01*
X169689418Y-58621492D01*
X169729800Y-58824505D01*
X169729800Y-59031495D01*
X169689418Y-59234508D01*
X169610207Y-59425741D01*
X169495209Y-59597847D01*
X169348847Y-59744209D01*
X169176741Y-59859207D01*
X168985508Y-59938418D01*
X168782495Y-59978800D01*
X168575505Y-59978800D01*
X168372492Y-59938418D01*
X168181259Y-59859207D01*
X168009153Y-59744209D01*
X167862791Y-59597847D01*
X167747793Y-59425741D01*
X167668582Y-59234508D01*
X167628200Y-59031495D01*
X167628200Y-58824505D01*
X167668582Y-58621492D01*
X167747793Y-58430259D01*
X167862791Y-58258153D01*
X168009153Y-58111791D01*
X168181259Y-57996793D01*
X168372492Y-57917582D01*
X168575505Y-57877200D01*
X168782495Y-57877200D01*
X168985508Y-57917582D01*
G37*
G36*
X145080857Y-58552117D02*
G01*
X145126465Y-58565952D01*
X145168504Y-58588422D01*
X145205344Y-58618656D01*
X145235578Y-58655496D01*
X145258048Y-58697535D01*
X145271883Y-58743143D01*
X145276800Y-58793065D01*
X145276800Y-59552935D01*
X145271883Y-59602857D01*
X145258048Y-59648465D01*
X145235578Y-59690504D01*
X145205344Y-59727344D01*
X145168504Y-59757578D01*
X145126465Y-59780048D01*
X145080857Y-59793883D01*
X145030935Y-59798800D01*
X144021065Y-59798800D01*
X143971143Y-59793883D01*
X143925535Y-59780048D01*
X143883496Y-59757578D01*
X143846656Y-59727344D01*
X143816422Y-59690504D01*
X143793952Y-59648465D01*
X143780117Y-59602857D01*
X143775200Y-59552935D01*
X143775200Y-58793065D01*
X143780117Y-58743143D01*
X143793952Y-58697535D01*
X143816422Y-58655496D01*
X143846656Y-58618656D01*
X143883496Y-58588422D01*
X143925535Y-58565952D01*
X143971143Y-58552117D01*
X144021065Y-58547200D01*
X145030935Y-58547200D01*
X145080857Y-58552117D01*
G37*
G36*
X178354857Y-58298117D02*
G01*
X178400465Y-58311952D01*
X178442504Y-58334422D01*
X178479344Y-58364656D01*
X178509578Y-58401496D01*
X178532048Y-58443535D01*
X178545883Y-58489143D01*
X178550800Y-58539065D01*
X178550800Y-59298935D01*
X178545883Y-59348857D01*
X178532048Y-59394465D01*
X178509578Y-59436504D01*
X178479344Y-59473344D01*
X178442504Y-59503578D01*
X178400465Y-59526048D01*
X178354857Y-59539883D01*
X178304935Y-59544800D01*
X177295065Y-59544800D01*
X177245143Y-59539883D01*
X177199535Y-59526048D01*
X177157496Y-59503578D01*
X177120656Y-59473344D01*
X177090422Y-59436504D01*
X177067952Y-59394465D01*
X177054117Y-59348857D01*
X177049200Y-59298935D01*
X177049200Y-58539065D01*
X177054117Y-58489143D01*
X177067952Y-58443535D01*
X177090422Y-58401496D01*
X177120656Y-58364656D01*
X177157496Y-58334422D01*
X177199535Y-58311952D01*
X177245143Y-58298117D01*
X177295065Y-58293200D01*
X178304935Y-58293200D01*
X178354857Y-58298117D01*
G37*
G36*
X173020857Y-58171117D02*
G01*
X173066465Y-58184952D01*
X173108504Y-58207422D01*
X173145344Y-58237656D01*
X173175578Y-58274496D01*
X173198048Y-58316535D01*
X173211883Y-58362143D01*
X173216800Y-58412065D01*
X173216800Y-59171935D01*
X173211883Y-59221857D01*
X173198048Y-59267465D01*
X173175578Y-59309504D01*
X173145344Y-59346344D01*
X173108504Y-59376578D01*
X173066465Y-59399048D01*
X173020857Y-59412883D01*
X172970935Y-59417800D01*
X171961065Y-59417800D01*
X171911143Y-59412883D01*
X171865535Y-59399048D01*
X171823496Y-59376578D01*
X171786656Y-59346344D01*
X171756422Y-59309504D01*
X171733952Y-59267465D01*
X171720117Y-59221857D01*
X171715200Y-59171935D01*
X171715200Y-58412065D01*
X171720117Y-58362143D01*
X171733952Y-58316535D01*
X171756422Y-58274496D01*
X171786656Y-58237656D01*
X171823496Y-58207422D01*
X171865535Y-58184952D01*
X171911143Y-58171117D01*
X171961065Y-58166200D01*
X172970935Y-58166200D01*
X173020857Y-58171117D01*
G37*
M02*
