G04 #@! TF.GenerationSoftware,KiCad,Pcbnew,(5.1.5)-3*
G04 #@! TF.CreationDate,2022-03-10T20:17:17-05:00*
G04 #@! TF.ProjectId,wearer,77656172-6572-42e6-9b69-6361645f7063,rev?*
G04 #@! TF.SameCoordinates,Original*
G04 #@! TF.FileFunction,Legend,Bot*
G04 #@! TF.FilePolarity,Positive*
%FSLAX46Y46*%
G04 Gerber Fmt 4.6, Leading zero omitted, Abs format (unit mm)*
G04 Created by KiCad (PCBNEW (5.1.5)-3) date 2022-03-10 20:17:17*
%MOMM*%
%LPD*%
G04 APERTURE LIST*
%ADD10C,0.150000*%
G04 APERTURE END LIST*
D10*
X210992404Y-109548380D02*
X210992404Y-108548380D01*
X210611452Y-108548380D01*
X210516214Y-108596000D01*
X210468595Y-108643619D01*
X210420976Y-108738857D01*
X210420976Y-108881714D01*
X210468595Y-108976952D01*
X210516214Y-109024571D01*
X210611452Y-109072190D01*
X210992404Y-109072190D01*
X209563833Y-108881714D02*
X209563833Y-109548380D01*
X209992404Y-108881714D02*
X209992404Y-109405523D01*
X209944785Y-109500761D01*
X209849547Y-109548380D01*
X209706690Y-109548380D01*
X209611452Y-109500761D01*
X209563833Y-109453142D01*
X209087642Y-109548380D02*
X209087642Y-108881714D01*
X209087642Y-109072190D02*
X209040023Y-108976952D01*
X208992404Y-108929333D01*
X208897166Y-108881714D01*
X208801928Y-108881714D01*
X208040023Y-109548380D02*
X208040023Y-108548380D01*
X208040023Y-109500761D02*
X208135261Y-109548380D01*
X208325738Y-109548380D01*
X208420976Y-109500761D01*
X208468595Y-109453142D01*
X208516214Y-109357904D01*
X208516214Y-109072190D01*
X208468595Y-108976952D01*
X208420976Y-108929333D01*
X208325738Y-108881714D01*
X208135261Y-108881714D01*
X208040023Y-108929333D01*
X207135261Y-108881714D02*
X207135261Y-109548380D01*
X207563833Y-108881714D02*
X207563833Y-109405523D01*
X207516214Y-109500761D01*
X207420976Y-109548380D01*
X207278119Y-109548380D01*
X207182880Y-109500761D01*
X207135261Y-109453142D01*
X206278119Y-109500761D02*
X206373357Y-109548380D01*
X206563833Y-109548380D01*
X206659071Y-109500761D01*
X206706690Y-109405523D01*
X206706690Y-109024571D01*
X206659071Y-108929333D01*
X206563833Y-108881714D01*
X206373357Y-108881714D01*
X206278119Y-108929333D01*
X206230500Y-109024571D01*
X206230500Y-109119809D01*
X206706690Y-109215047D01*
X205040023Y-108548380D02*
X205040023Y-109357904D01*
X204992404Y-109453142D01*
X204944785Y-109500761D01*
X204849547Y-109548380D01*
X204659071Y-109548380D01*
X204563833Y-109500761D01*
X204516214Y-109453142D01*
X204468595Y-109357904D01*
X204468595Y-108548380D01*
X203992404Y-108881714D02*
X203992404Y-109548380D01*
X203992404Y-108976952D02*
X203944785Y-108929333D01*
X203849547Y-108881714D01*
X203706690Y-108881714D01*
X203611452Y-108929333D01*
X203563833Y-109024571D01*
X203563833Y-109548380D01*
X203087642Y-109548380D02*
X203087642Y-108881714D01*
X203087642Y-108548380D02*
X203135261Y-108596000D01*
X203087642Y-108643619D01*
X203040023Y-108596000D01*
X203087642Y-108548380D01*
X203087642Y-108643619D01*
X202706690Y-108881714D02*
X202468595Y-109548380D01*
X202230500Y-108881714D01*
X201468595Y-109500761D02*
X201563833Y-109548380D01*
X201754309Y-109548380D01*
X201849547Y-109500761D01*
X201897166Y-109405523D01*
X201897166Y-109024571D01*
X201849547Y-108929333D01*
X201754309Y-108881714D01*
X201563833Y-108881714D01*
X201468595Y-108929333D01*
X201420976Y-109024571D01*
X201420976Y-109119809D01*
X201897166Y-109215047D01*
X200992404Y-109548380D02*
X200992404Y-108881714D01*
X200992404Y-109072190D02*
X200944785Y-108976952D01*
X200897166Y-108929333D01*
X200801928Y-108881714D01*
X200706690Y-108881714D01*
X200420976Y-109500761D02*
X200325738Y-109548380D01*
X200135261Y-109548380D01*
X200040023Y-109500761D01*
X199992404Y-109405523D01*
X199992404Y-109357904D01*
X200040023Y-109262666D01*
X200135261Y-109215047D01*
X200278119Y-109215047D01*
X200373357Y-109167428D01*
X200420976Y-109072190D01*
X200420976Y-109024571D01*
X200373357Y-108929333D01*
X200278119Y-108881714D01*
X200135261Y-108881714D01*
X200040023Y-108929333D01*
X199563833Y-109548380D02*
X199563833Y-108881714D01*
X199563833Y-108548380D02*
X199611452Y-108596000D01*
X199563833Y-108643619D01*
X199516214Y-108596000D01*
X199563833Y-108548380D01*
X199563833Y-108643619D01*
X199230500Y-108881714D02*
X198849547Y-108881714D01*
X199087642Y-108548380D02*
X199087642Y-109405523D01*
X199040023Y-109500761D01*
X198944785Y-109548380D01*
X198849547Y-109548380D01*
X198611452Y-108881714D02*
X198373357Y-109548380D01*
X198135261Y-108881714D02*
X198373357Y-109548380D01*
X198468595Y-109786476D01*
X198516214Y-109834095D01*
X198611452Y-109881714D01*
X210992404Y-110674571D02*
X210659071Y-110674571D01*
X210516214Y-111198380D02*
X210992404Y-111198380D01*
X210992404Y-110198380D01*
X210516214Y-110198380D01*
X209516214Y-111103142D02*
X209563833Y-111150761D01*
X209706690Y-111198380D01*
X209801928Y-111198380D01*
X209944785Y-111150761D01*
X210040023Y-111055523D01*
X210087642Y-110960285D01*
X210135261Y-110769809D01*
X210135261Y-110626952D01*
X210087642Y-110436476D01*
X210040023Y-110341238D01*
X209944785Y-110246000D01*
X209801928Y-110198380D01*
X209706690Y-110198380D01*
X209563833Y-110246000D01*
X209516214Y-110293619D01*
X209087642Y-110674571D02*
X208754309Y-110674571D01*
X208611452Y-111198380D02*
X209087642Y-111198380D01*
X209087642Y-110198380D01*
X208611452Y-110198380D01*
X207754309Y-110531714D02*
X207754309Y-111198380D01*
X207992404Y-110150761D02*
X208230500Y-110865047D01*
X207611452Y-110865047D01*
X207325738Y-110198380D02*
X206659071Y-110198380D01*
X207087642Y-111198380D01*
X206373357Y-110198380D02*
X205706690Y-110198380D01*
X206135261Y-111198380D01*
X204706690Y-110198380D02*
X204135261Y-110198380D01*
X204420976Y-111198380D02*
X204420976Y-110198380D01*
X203420976Y-111150761D02*
X203516214Y-111198380D01*
X203706690Y-111198380D01*
X203801928Y-111150761D01*
X203849547Y-111055523D01*
X203849547Y-110674571D01*
X203801928Y-110579333D01*
X203706690Y-110531714D01*
X203516214Y-110531714D01*
X203420976Y-110579333D01*
X203373357Y-110674571D01*
X203373357Y-110769809D01*
X203849547Y-110865047D01*
X202516214Y-111198380D02*
X202516214Y-110674571D01*
X202563833Y-110579333D01*
X202659071Y-110531714D01*
X202849547Y-110531714D01*
X202944785Y-110579333D01*
X202516214Y-111150761D02*
X202611452Y-111198380D01*
X202849547Y-111198380D01*
X202944785Y-111150761D01*
X202992404Y-111055523D01*
X202992404Y-110960285D01*
X202944785Y-110865047D01*
X202849547Y-110817428D01*
X202611452Y-110817428D01*
X202516214Y-110769809D01*
X202040023Y-111198380D02*
X202040023Y-110531714D01*
X202040023Y-110626952D02*
X201992404Y-110579333D01*
X201897166Y-110531714D01*
X201754309Y-110531714D01*
X201659071Y-110579333D01*
X201611452Y-110674571D01*
X201611452Y-111198380D01*
X201611452Y-110674571D02*
X201563833Y-110579333D01*
X201468595Y-110531714D01*
X201325738Y-110531714D01*
X201230500Y-110579333D01*
X201182880Y-110674571D01*
X201182880Y-111198380D01*
X199420976Y-111198380D02*
X199992404Y-111198380D01*
X199706690Y-111198380D02*
X199706690Y-110198380D01*
X199801928Y-110341238D01*
X199897166Y-110436476D01*
X199992404Y-110484095D01*
X198944785Y-111198380D02*
X198754309Y-111198380D01*
X198659071Y-111150761D01*
X198611452Y-111103142D01*
X198516214Y-110960285D01*
X198468595Y-110769809D01*
X198468595Y-110388857D01*
X198516214Y-110293619D01*
X198563833Y-110246000D01*
X198659071Y-110198380D01*
X198849547Y-110198380D01*
X198944785Y-110246000D01*
X198992404Y-110293619D01*
X199040023Y-110388857D01*
X199040023Y-110626952D01*
X198992404Y-110722190D01*
X198944785Y-110769809D01*
X198849547Y-110817428D01*
X198659071Y-110817428D01*
X198563833Y-110769809D01*
X198516214Y-110722190D01*
X198468595Y-110626952D01*
X198040023Y-111103142D02*
X197992404Y-111150761D01*
X198040023Y-111198380D01*
X198087642Y-111150761D01*
X198040023Y-111103142D01*
X198040023Y-111198380D01*
X198040023Y-110579333D02*
X197992404Y-110626952D01*
X198040023Y-110674571D01*
X198087642Y-110626952D01*
X198040023Y-110579333D01*
X198040023Y-110674571D01*
X196801928Y-111198380D02*
X196801928Y-110198380D01*
X196230500Y-111198380D01*
X196230500Y-110198380D01*
X195611452Y-111198380D02*
X195706690Y-111150761D01*
X195754309Y-111103142D01*
X195801928Y-111007904D01*
X195801928Y-110722190D01*
X195754309Y-110626952D01*
X195706690Y-110579333D01*
X195611452Y-110531714D01*
X195468595Y-110531714D01*
X195373357Y-110579333D01*
X195325738Y-110626952D01*
X195278119Y-110722190D01*
X195278119Y-111007904D01*
X195325738Y-111103142D01*
X195373357Y-111150761D01*
X195468595Y-111198380D01*
X195611452Y-111198380D01*
X194420976Y-110531714D02*
X194420976Y-111341238D01*
X194468595Y-111436476D01*
X194516214Y-111484095D01*
X194611452Y-111531714D01*
X194754309Y-111531714D01*
X194849547Y-111484095D01*
X194420976Y-111150761D02*
X194516214Y-111198380D01*
X194706690Y-111198380D01*
X194801928Y-111150761D01*
X194849547Y-111103142D01*
X194897166Y-111007904D01*
X194897166Y-110722190D01*
X194849547Y-110626952D01*
X194801928Y-110579333D01*
X194706690Y-110531714D01*
X194516214Y-110531714D01*
X194420976Y-110579333D01*
X193516214Y-110531714D02*
X193516214Y-111341238D01*
X193563833Y-111436476D01*
X193611452Y-111484095D01*
X193706690Y-111531714D01*
X193849547Y-111531714D01*
X193944785Y-111484095D01*
X193516214Y-111150761D02*
X193611452Y-111198380D01*
X193801928Y-111198380D01*
X193897166Y-111150761D01*
X193944785Y-111103142D01*
X193992404Y-111007904D01*
X193992404Y-110722190D01*
X193944785Y-110626952D01*
X193897166Y-110579333D01*
X193801928Y-110531714D01*
X193611452Y-110531714D01*
X193516214Y-110579333D01*
X193040023Y-111198380D02*
X193040023Y-110531714D01*
X193040023Y-110198380D02*
X193087642Y-110246000D01*
X193040023Y-110293619D01*
X192992404Y-110246000D01*
X193040023Y-110198380D01*
X193040023Y-110293619D01*
X192563833Y-110531714D02*
X192563833Y-111198380D01*
X192563833Y-110626952D02*
X192516214Y-110579333D01*
X192420976Y-110531714D01*
X192278119Y-110531714D01*
X192182880Y-110579333D01*
X192135261Y-110674571D01*
X192135261Y-111198380D01*
X210992404Y-112848380D02*
X210992404Y-111848380D01*
X210754309Y-111848380D01*
X210611452Y-111896000D01*
X210516214Y-111991238D01*
X210468595Y-112086476D01*
X210420976Y-112276952D01*
X210420976Y-112419809D01*
X210468595Y-112610285D01*
X210516214Y-112705523D01*
X210611452Y-112800761D01*
X210754309Y-112848380D01*
X210992404Y-112848380D01*
X209611452Y-112800761D02*
X209706690Y-112848380D01*
X209897166Y-112848380D01*
X209992404Y-112800761D01*
X210040023Y-112705523D01*
X210040023Y-112324571D01*
X209992404Y-112229333D01*
X209897166Y-112181714D01*
X209706690Y-112181714D01*
X209611452Y-112229333D01*
X209563833Y-112324571D01*
X209563833Y-112419809D01*
X210040023Y-112515047D01*
X209230500Y-112181714D02*
X208992404Y-112848380D01*
X208754309Y-112181714D01*
X207659071Y-112800761D02*
X207516214Y-112848380D01*
X207278119Y-112848380D01*
X207182880Y-112800761D01*
X207135261Y-112753142D01*
X207087642Y-112657904D01*
X207087642Y-112562666D01*
X207135261Y-112467428D01*
X207182880Y-112419809D01*
X207278119Y-112372190D01*
X207468595Y-112324571D01*
X207563833Y-112276952D01*
X207611452Y-112229333D01*
X207659071Y-112134095D01*
X207659071Y-112038857D01*
X207611452Y-111943619D01*
X207563833Y-111896000D01*
X207468595Y-111848380D01*
X207230500Y-111848380D01*
X207087642Y-111896000D01*
X206659071Y-112848380D02*
X206659071Y-111848380D01*
X206230500Y-112848380D02*
X206230500Y-112324571D01*
X206278119Y-112229333D01*
X206373357Y-112181714D01*
X206516214Y-112181714D01*
X206611452Y-112229333D01*
X206659071Y-112276952D01*
X205325738Y-112848380D02*
X205325738Y-112324571D01*
X205373357Y-112229333D01*
X205468595Y-112181714D01*
X205659071Y-112181714D01*
X205754309Y-112229333D01*
X205325738Y-112800761D02*
X205420976Y-112848380D01*
X205659071Y-112848380D01*
X205754309Y-112800761D01*
X205801928Y-112705523D01*
X205801928Y-112610285D01*
X205754309Y-112515047D01*
X205659071Y-112467428D01*
X205420976Y-112467428D01*
X205325738Y-112419809D01*
X204849547Y-112848380D02*
X204849547Y-111848380D01*
X204420976Y-112848380D02*
X204420976Y-112324571D01*
X204468595Y-112229333D01*
X204563833Y-112181714D01*
X204706690Y-112181714D01*
X204801928Y-112229333D01*
X204849547Y-112276952D01*
X210992404Y-114498380D02*
X210992404Y-113498380D01*
X210659071Y-114212666D01*
X210325738Y-113498380D01*
X210325738Y-114498380D01*
X209706690Y-114498380D02*
X209801928Y-114450761D01*
X209849547Y-114403142D01*
X209897166Y-114307904D01*
X209897166Y-114022190D01*
X209849547Y-113926952D01*
X209801928Y-113879333D01*
X209706690Y-113831714D01*
X209563833Y-113831714D01*
X209468595Y-113879333D01*
X209420976Y-113926952D01*
X209373357Y-114022190D01*
X209373357Y-114307904D01*
X209420976Y-114403142D01*
X209468595Y-114450761D01*
X209563833Y-114498380D01*
X209706690Y-114498380D01*
X208801928Y-114498380D02*
X208897166Y-114450761D01*
X208944785Y-114403142D01*
X208992404Y-114307904D01*
X208992404Y-114022190D01*
X208944785Y-113926952D01*
X208897166Y-113879333D01*
X208801928Y-113831714D01*
X208659071Y-113831714D01*
X208563833Y-113879333D01*
X208516214Y-113926952D01*
X208468595Y-114022190D01*
X208468595Y-114307904D01*
X208516214Y-114403142D01*
X208563833Y-114450761D01*
X208659071Y-114498380D01*
X208801928Y-114498380D01*
X208135261Y-113831714D02*
X207897166Y-114498380D01*
X207659071Y-113831714D02*
X207897166Y-114498380D01*
X207992404Y-114736476D01*
X208040023Y-114784095D01*
X208135261Y-114831714D01*
X206897166Y-114450761D02*
X206992404Y-114498380D01*
X207182880Y-114498380D01*
X207278119Y-114450761D01*
X207325738Y-114355523D01*
X207325738Y-113974571D01*
X207278119Y-113879333D01*
X207182880Y-113831714D01*
X206992404Y-113831714D01*
X206897166Y-113879333D01*
X206849547Y-113974571D01*
X206849547Y-114069809D01*
X207325738Y-114165047D01*
X206278119Y-114498380D02*
X206373357Y-114450761D01*
X206420976Y-114403142D01*
X206468595Y-114307904D01*
X206468595Y-114022190D01*
X206420976Y-113926952D01*
X206373357Y-113879333D01*
X206278119Y-113831714D01*
X206135261Y-113831714D01*
X206040023Y-113879333D01*
X205992404Y-113926952D01*
X205944785Y-114022190D01*
X205944785Y-114307904D01*
X205992404Y-114403142D01*
X206040023Y-114450761D01*
X206135261Y-114498380D01*
X206278119Y-114498380D01*
X205516214Y-113831714D02*
X205516214Y-114498380D01*
X205516214Y-113926952D02*
X205468595Y-113879333D01*
X205373357Y-113831714D01*
X205230500Y-113831714D01*
X205135261Y-113879333D01*
X205087642Y-113974571D01*
X205087642Y-114498380D01*
X203849547Y-114498380D02*
X203849547Y-113498380D01*
X203278119Y-114498380D02*
X203706690Y-113926952D01*
X203278119Y-113498380D02*
X203849547Y-114069809D01*
X202849547Y-114498380D02*
X202849547Y-113831714D01*
X202849547Y-113498380D02*
X202897166Y-113546000D01*
X202849547Y-113593619D01*
X202801928Y-113546000D01*
X202849547Y-113498380D01*
X202849547Y-113593619D01*
X202373357Y-114498380D02*
X202373357Y-113831714D01*
X202373357Y-113926952D02*
X202325738Y-113879333D01*
X202230500Y-113831714D01*
X202087642Y-113831714D01*
X201992404Y-113879333D01*
X201944785Y-113974571D01*
X201944785Y-114498380D01*
X201944785Y-113974571D02*
X201897166Y-113879333D01*
X201801928Y-113831714D01*
X201659071Y-113831714D01*
X201563833Y-113879333D01*
X201516214Y-113974571D01*
X201516214Y-114498380D01*
X210420976Y-116148380D02*
X210754309Y-115672190D01*
X210992404Y-116148380D02*
X210992404Y-115148380D01*
X210611452Y-115148380D01*
X210516214Y-115196000D01*
X210468595Y-115243619D01*
X210420976Y-115338857D01*
X210420976Y-115481714D01*
X210468595Y-115576952D01*
X210516214Y-115624571D01*
X210611452Y-115672190D01*
X210992404Y-115672190D01*
X210087642Y-115481714D02*
X209849547Y-116148380D01*
X209611452Y-115481714D02*
X209849547Y-116148380D01*
X209944785Y-116386476D01*
X209992404Y-116434095D01*
X210087642Y-116481714D01*
X208801928Y-116148380D02*
X208801928Y-115624571D01*
X208849547Y-115529333D01*
X208944785Y-115481714D01*
X209135261Y-115481714D01*
X209230500Y-115529333D01*
X208801928Y-116100761D02*
X208897166Y-116148380D01*
X209135261Y-116148380D01*
X209230500Y-116100761D01*
X209278119Y-116005523D01*
X209278119Y-115910285D01*
X209230500Y-115815047D01*
X209135261Y-115767428D01*
X208897166Y-115767428D01*
X208801928Y-115719809D01*
X208325738Y-115481714D02*
X208325738Y-116148380D01*
X208325738Y-115576952D02*
X208278119Y-115529333D01*
X208182880Y-115481714D01*
X208040023Y-115481714D01*
X207944785Y-115529333D01*
X207897166Y-115624571D01*
X207897166Y-116148380D01*
X206659071Y-116148380D02*
X206659071Y-115148380D01*
X206420976Y-115148380D01*
X206278119Y-115196000D01*
X206182880Y-115291238D01*
X206135261Y-115386476D01*
X206087642Y-115576952D01*
X206087642Y-115719809D01*
X206135261Y-115910285D01*
X206182880Y-116005523D01*
X206278119Y-116100761D01*
X206420976Y-116148380D01*
X206659071Y-116148380D01*
X205516214Y-116148380D02*
X205611452Y-116100761D01*
X205659071Y-116053142D01*
X205706690Y-115957904D01*
X205706690Y-115672190D01*
X205659071Y-115576952D01*
X205611452Y-115529333D01*
X205516214Y-115481714D01*
X205373357Y-115481714D01*
X205278119Y-115529333D01*
X205230500Y-115576952D01*
X205182880Y-115672190D01*
X205182880Y-115957904D01*
X205230500Y-116053142D01*
X205278119Y-116100761D01*
X205373357Y-116148380D01*
X205516214Y-116148380D01*
X204754309Y-116148380D02*
X204754309Y-115481714D01*
X204754309Y-115576952D02*
X204706690Y-115529333D01*
X204611452Y-115481714D01*
X204468595Y-115481714D01*
X204373357Y-115529333D01*
X204325738Y-115624571D01*
X204325738Y-116148380D01*
X204325738Y-115624571D02*
X204278119Y-115529333D01*
X204182880Y-115481714D01*
X204040023Y-115481714D01*
X203944785Y-115529333D01*
X203897166Y-115624571D01*
X203897166Y-116148380D01*
X202992404Y-116148380D02*
X202992404Y-115624571D01*
X203040023Y-115529333D01*
X203135261Y-115481714D01*
X203325738Y-115481714D01*
X203420976Y-115529333D01*
X202992404Y-116100761D02*
X203087642Y-116148380D01*
X203325738Y-116148380D01*
X203420976Y-116100761D01*
X203468595Y-116005523D01*
X203468595Y-115910285D01*
X203420976Y-115815047D01*
X203325738Y-115767428D01*
X203087642Y-115767428D01*
X202992404Y-115719809D01*
X202516214Y-115481714D02*
X202516214Y-116148380D01*
X202516214Y-115576952D02*
X202468595Y-115529333D01*
X202373357Y-115481714D01*
X202230500Y-115481714D01*
X202135261Y-115529333D01*
X202087642Y-115624571D01*
X202087642Y-116148380D01*
X201659071Y-116100761D02*
X201563833Y-116148380D01*
X201373357Y-116148380D01*
X201278119Y-116100761D01*
X201230500Y-116005523D01*
X201230500Y-115957904D01*
X201278119Y-115862666D01*
X201373357Y-115815047D01*
X201516214Y-115815047D01*
X201611452Y-115767428D01*
X201659071Y-115672190D01*
X201659071Y-115624571D01*
X201611452Y-115529333D01*
X201516214Y-115481714D01*
X201373357Y-115481714D01*
X201278119Y-115529333D01*
X200801928Y-116148380D02*
X200801928Y-115148380D01*
X200706690Y-115767428D02*
X200420976Y-116148380D01*
X200420976Y-115481714D02*
X200801928Y-115862666D01*
X199992404Y-116148380D02*
X199992404Y-115481714D01*
X199992404Y-115148380D02*
X200040023Y-115196000D01*
X199992404Y-115243619D01*
X199944785Y-115196000D01*
X199992404Y-115148380D01*
X199992404Y-115243619D01*
X211040023Y-117512666D02*
X210563833Y-117512666D01*
X211135261Y-117798380D02*
X210801928Y-116798380D01*
X210468595Y-117798380D01*
X210135261Y-117798380D02*
X210135261Y-116798380D01*
X210040023Y-117417428D02*
X209754309Y-117798380D01*
X209754309Y-117131714D02*
X210135261Y-117512666D01*
X209373357Y-117750761D02*
X209278119Y-117798380D01*
X209087642Y-117798380D01*
X208992404Y-117750761D01*
X208944785Y-117655523D01*
X208944785Y-117607904D01*
X208992404Y-117512666D01*
X209087642Y-117465047D01*
X209230500Y-117465047D01*
X209325738Y-117417428D01*
X209373357Y-117322190D01*
X209373357Y-117274571D01*
X209325738Y-117179333D01*
X209230500Y-117131714D01*
X209087642Y-117131714D01*
X208992404Y-117179333D01*
X208516214Y-117798380D02*
X208516214Y-116798380D01*
X208087642Y-117798380D02*
X208087642Y-117274571D01*
X208135261Y-117179333D01*
X208230500Y-117131714D01*
X208373357Y-117131714D01*
X208468595Y-117179333D01*
X208516214Y-117226952D01*
X207182880Y-117798380D02*
X207182880Y-117274571D01*
X207230500Y-117179333D01*
X207325738Y-117131714D01*
X207516214Y-117131714D01*
X207611452Y-117179333D01*
X207182880Y-117750761D02*
X207278119Y-117798380D01*
X207516214Y-117798380D01*
X207611452Y-117750761D01*
X207659071Y-117655523D01*
X207659071Y-117560285D01*
X207611452Y-117465047D01*
X207516214Y-117417428D01*
X207278119Y-117417428D01*
X207182880Y-117369809D01*
X206706690Y-117131714D02*
X206706690Y-117988857D01*
X206754309Y-118084095D01*
X206849547Y-118131714D01*
X206897166Y-118131714D01*
X206706690Y-116798380D02*
X206754309Y-116846000D01*
X206706690Y-116893619D01*
X206659071Y-116846000D01*
X206706690Y-116798380D01*
X206706690Y-116893619D01*
X205468595Y-117798380D02*
X205468595Y-116798380D01*
X205087642Y-116798380D01*
X204992404Y-116846000D01*
X204944785Y-116893619D01*
X204897166Y-116988857D01*
X204897166Y-117131714D01*
X204944785Y-117226952D01*
X204992404Y-117274571D01*
X205087642Y-117322190D01*
X205468595Y-117322190D01*
X204468595Y-117798380D02*
X204468595Y-117131714D01*
X204468595Y-117322190D02*
X204420976Y-117226952D01*
X204373357Y-117179333D01*
X204278119Y-117131714D01*
X204182880Y-117131714D01*
X203420976Y-117798380D02*
X203420976Y-117274571D01*
X203468595Y-117179333D01*
X203563833Y-117131714D01*
X203754309Y-117131714D01*
X203849547Y-117179333D01*
X203420976Y-117750761D02*
X203516214Y-117798380D01*
X203754309Y-117798380D01*
X203849547Y-117750761D01*
X203897166Y-117655523D01*
X203897166Y-117560285D01*
X203849547Y-117465047D01*
X203754309Y-117417428D01*
X203516214Y-117417428D01*
X203420976Y-117369809D01*
X202992404Y-117750761D02*
X202897166Y-117798380D01*
X202706690Y-117798380D01*
X202611452Y-117750761D01*
X202563833Y-117655523D01*
X202563833Y-117607904D01*
X202611452Y-117512666D01*
X202706690Y-117465047D01*
X202849547Y-117465047D01*
X202944785Y-117417428D01*
X202992404Y-117322190D01*
X202992404Y-117274571D01*
X202944785Y-117179333D01*
X202849547Y-117131714D01*
X202706690Y-117131714D01*
X202611452Y-117179333D01*
X201706690Y-117798380D02*
X201706690Y-117274571D01*
X201754309Y-117179333D01*
X201849547Y-117131714D01*
X202040023Y-117131714D01*
X202135261Y-117179333D01*
X201706690Y-117750761D02*
X201801928Y-117798380D01*
X202040023Y-117798380D01*
X202135261Y-117750761D01*
X202182880Y-117655523D01*
X202182880Y-117560285D01*
X202135261Y-117465047D01*
X202040023Y-117417428D01*
X201801928Y-117417428D01*
X201706690Y-117369809D01*
X201230500Y-117131714D02*
X201230500Y-117798380D01*
X201230500Y-117226952D02*
X201182880Y-117179333D01*
X201087642Y-117131714D01*
X200944785Y-117131714D01*
X200849547Y-117179333D01*
X200801928Y-117274571D01*
X200801928Y-117798380D01*
X200325738Y-117131714D02*
X200325738Y-117798380D01*
X200325738Y-117226952D02*
X200278119Y-117179333D01*
X200182880Y-117131714D01*
X200040023Y-117131714D01*
X199944785Y-117179333D01*
X199897166Y-117274571D01*
X199897166Y-117798380D01*
X198992404Y-117798380D02*
X198992404Y-117274571D01*
X199040023Y-117179333D01*
X199135261Y-117131714D01*
X199325738Y-117131714D01*
X199420976Y-117179333D01*
X198992404Y-117750761D02*
X199087642Y-117798380D01*
X199325738Y-117798380D01*
X199420976Y-117750761D01*
X199468595Y-117655523D01*
X199468595Y-117560285D01*
X199420976Y-117465047D01*
X199325738Y-117417428D01*
X199087642Y-117417428D01*
X198992404Y-117369809D01*
X198516214Y-117798380D02*
X198516214Y-116798380D01*
X198420976Y-117417428D02*
X198135261Y-117798380D01*
X198135261Y-117131714D02*
X198516214Y-117512666D01*
X197278119Y-117131714D02*
X197278119Y-117798380D01*
X197706690Y-117131714D02*
X197706690Y-117655523D01*
X197659071Y-117750761D01*
X197563833Y-117798380D01*
X197420976Y-117798380D01*
X197325738Y-117750761D01*
X197278119Y-117703142D01*
X196801928Y-117798380D02*
X196801928Y-117131714D01*
X196801928Y-117226952D02*
X196754309Y-117179333D01*
X196659071Y-117131714D01*
X196516214Y-117131714D01*
X196420976Y-117179333D01*
X196373357Y-117274571D01*
X196373357Y-117798380D01*
X196373357Y-117274571D02*
X196325738Y-117179333D01*
X196230500Y-117131714D01*
X196087642Y-117131714D01*
X195992404Y-117179333D01*
X195944785Y-117274571D01*
X195944785Y-117798380D01*
X195040023Y-117798380D02*
X195040023Y-117274571D01*
X195087642Y-117179333D01*
X195182880Y-117131714D01*
X195373357Y-117131714D01*
X195468595Y-117179333D01*
X195040023Y-117750761D02*
X195135261Y-117798380D01*
X195373357Y-117798380D01*
X195468595Y-117750761D01*
X195516214Y-117655523D01*
X195516214Y-117560285D01*
X195468595Y-117465047D01*
X195373357Y-117417428D01*
X195135261Y-117417428D01*
X195040023Y-117369809D01*
X194563833Y-117798380D02*
X194563833Y-117131714D01*
X194563833Y-117322190D02*
X194516214Y-117226952D01*
X194468595Y-117179333D01*
X194373357Y-117131714D01*
X194278119Y-117131714D01*
X210420976Y-119448380D02*
X210754309Y-118972190D01*
X210992404Y-119448380D02*
X210992404Y-118448380D01*
X210611452Y-118448380D01*
X210516214Y-118496000D01*
X210468595Y-118543619D01*
X210420976Y-118638857D01*
X210420976Y-118781714D01*
X210468595Y-118876952D01*
X210516214Y-118924571D01*
X210611452Y-118972190D01*
X210992404Y-118972190D01*
X209611452Y-119400761D02*
X209706690Y-119448380D01*
X209897166Y-119448380D01*
X209992404Y-119400761D01*
X210040023Y-119305523D01*
X210040023Y-118924571D01*
X209992404Y-118829333D01*
X209897166Y-118781714D01*
X209706690Y-118781714D01*
X209611452Y-118829333D01*
X209563833Y-118924571D01*
X209563833Y-119019809D01*
X210040023Y-119115047D01*
X209230500Y-118781714D02*
X208992404Y-119448380D01*
X208754309Y-118781714D01*
X208373357Y-119353142D02*
X208325738Y-119400761D01*
X208373357Y-119448380D01*
X208420976Y-119400761D01*
X208373357Y-119353142D01*
X208373357Y-119448380D01*
X208373357Y-118829333D02*
X208325738Y-118876952D01*
X208373357Y-118924571D01*
X208420976Y-118876952D01*
X208373357Y-118829333D01*
X208373357Y-118924571D01*
X207230500Y-118448380D02*
X206611452Y-118448380D01*
X206944785Y-118829333D01*
X206801928Y-118829333D01*
X206706690Y-118876952D01*
X206659071Y-118924571D01*
X206611452Y-119019809D01*
X206611452Y-119257904D01*
X206659071Y-119353142D01*
X206706690Y-119400761D01*
X206801928Y-119448380D01*
X207087642Y-119448380D01*
X207182880Y-119400761D01*
X207230500Y-119353142D01*
X205468595Y-118400761D02*
X206325738Y-119686476D01*
X205230500Y-118448380D02*
X204611452Y-118448380D01*
X204944785Y-118829333D01*
X204801928Y-118829333D01*
X204706690Y-118876952D01*
X204659071Y-118924571D01*
X204611452Y-119019809D01*
X204611452Y-119257904D01*
X204659071Y-119353142D01*
X204706690Y-119400761D01*
X204801928Y-119448380D01*
X205087642Y-119448380D01*
X205182880Y-119400761D01*
X205230500Y-119353142D01*
X203468595Y-118400761D02*
X204325738Y-119686476D01*
X203182880Y-118543619D02*
X203135261Y-118496000D01*
X203040023Y-118448380D01*
X202801928Y-118448380D01*
X202706690Y-118496000D01*
X202659071Y-118543619D01*
X202611452Y-118638857D01*
X202611452Y-118734095D01*
X202659071Y-118876952D01*
X203230500Y-119448380D01*
X202611452Y-119448380D01*
X202230500Y-118543619D02*
X202182880Y-118496000D01*
X202087642Y-118448380D01*
X201849547Y-118448380D01*
X201754309Y-118496000D01*
X201706690Y-118543619D01*
X201659071Y-118638857D01*
X201659071Y-118734095D01*
X201706690Y-118876952D01*
X202278119Y-119448380D01*
X201659071Y-119448380D01*
M02*
