G04 #@! TF.GenerationSoftware,KiCad,Pcbnew,(5.1.5)-3*
G04 #@! TF.CreationDate,2022-03-10T20:17:20-05:00*
G04 #@! TF.ProjectId,supervisor,73757065-7276-4697-936f-722e6b696361,rev?*
G04 #@! TF.SameCoordinates,Original*
G04 #@! TF.FileFunction,Legend,Top*
G04 #@! TF.FilePolarity,Positive*
%FSLAX46Y46*%
G04 Gerber Fmt 4.6, Leading zero omitted, Abs format (unit mm)*
G04 Created by KiCad (PCBNEW (5.1.5)-3) date 2022-03-10 20:17:20*
%MOMM*%
%LPD*%
G04 APERTURE LIST*
%ADD10C,0.150000*%
%ADD11C,0.120000*%
%ADD12C,0.100000*%
%ADD13C,0.200000*%
%ADD14C,0.254000*%
G04 APERTURE END LIST*
D10*
X114101809Y-113831714D02*
X114101809Y-114498380D01*
X113673238Y-113831714D02*
X113673238Y-114355523D01*
X113720857Y-114450761D01*
X113816095Y-114498380D01*
X113958952Y-114498380D01*
X114054190Y-114450761D01*
X114101809Y-114403142D01*
X115101809Y-114498380D02*
X114530380Y-114498380D01*
X114816095Y-114498380D02*
X114816095Y-113498380D01*
X114720857Y-113641238D01*
X114625619Y-113736476D01*
X114530380Y-113784095D01*
X116197047Y-113498380D02*
X116816095Y-113498380D01*
X116482761Y-113879333D01*
X116625619Y-113879333D01*
X116720857Y-113926952D01*
X116768476Y-113974571D01*
X116816095Y-114069809D01*
X116816095Y-114307904D01*
X116768476Y-114403142D01*
X116720857Y-114450761D01*
X116625619Y-114498380D01*
X116339904Y-114498380D01*
X116244666Y-114450761D01*
X116197047Y-114403142D01*
X117149428Y-113831714D02*
X117387523Y-114498380D01*
X117625619Y-113831714D01*
X117911333Y-113498380D02*
X118530380Y-113498380D01*
X118197047Y-113879333D01*
X118339904Y-113879333D01*
X118435142Y-113926952D01*
X118482761Y-113974571D01*
X118530380Y-114069809D01*
X118530380Y-114307904D01*
X118482761Y-114403142D01*
X118435142Y-114450761D01*
X118339904Y-114498380D01*
X118054190Y-114498380D01*
X117958952Y-114450761D01*
X117911333Y-114403142D01*
X176800095Y-117038380D02*
X176323904Y-117038380D01*
X176323904Y-116038380D01*
X177276285Y-117038380D02*
X177181047Y-116990761D01*
X177133428Y-116943142D01*
X177085809Y-116847904D01*
X177085809Y-116562190D01*
X177133428Y-116466952D01*
X177181047Y-116419333D01*
X177276285Y-116371714D01*
X177419142Y-116371714D01*
X177514380Y-116419333D01*
X177562000Y-116466952D01*
X177609619Y-116562190D01*
X177609619Y-116847904D01*
X177562000Y-116943142D01*
X177514380Y-116990761D01*
X177419142Y-117038380D01*
X177276285Y-117038380D01*
X178038190Y-117038380D02*
X178038190Y-116371714D01*
X178038190Y-116562190D02*
X178085809Y-116466952D01*
X178133428Y-116419333D01*
X178228666Y-116371714D01*
X178323904Y-116371714D01*
X179085809Y-117038380D02*
X179085809Y-116514571D01*
X179038190Y-116419333D01*
X178942952Y-116371714D01*
X178752476Y-116371714D01*
X178657238Y-116419333D01*
X179085809Y-116990761D02*
X178990571Y-117038380D01*
X178752476Y-117038380D01*
X178657238Y-116990761D01*
X178609619Y-116895523D01*
X178609619Y-116800285D01*
X178657238Y-116705047D01*
X178752476Y-116657428D01*
X178990571Y-116657428D01*
X179085809Y-116609809D01*
X180847714Y-117038380D02*
X180276285Y-117038380D01*
X180562000Y-117038380D02*
X180562000Y-116038380D01*
X180466761Y-116181238D01*
X180371523Y-116276476D01*
X180276285Y-116324095D01*
X157162952Y-108656380D02*
X157162952Y-107656380D01*
X157829619Y-107656380D02*
X158020095Y-107656380D01*
X158115333Y-107704000D01*
X158210571Y-107799238D01*
X158258190Y-107989714D01*
X158258190Y-108323047D01*
X158210571Y-108513523D01*
X158115333Y-108608761D01*
X158020095Y-108656380D01*
X157829619Y-108656380D01*
X157734380Y-108608761D01*
X157639142Y-108513523D01*
X157591523Y-108323047D01*
X157591523Y-107989714D01*
X157639142Y-107799238D01*
X157734380Y-107704000D01*
X157829619Y-107656380D01*
X158877238Y-107656380D02*
X158972476Y-107656380D01*
X159067714Y-107704000D01*
X159115333Y-107751619D01*
X159162952Y-107846857D01*
X159210571Y-108037333D01*
X159210571Y-108275428D01*
X159162952Y-108465904D01*
X159115333Y-108561142D01*
X159067714Y-108608761D01*
X158972476Y-108656380D01*
X158877238Y-108656380D01*
X158782000Y-108608761D01*
X158734380Y-108561142D01*
X158686761Y-108465904D01*
X158639142Y-108275428D01*
X158639142Y-108037333D01*
X158686761Y-107846857D01*
X158734380Y-107751619D01*
X158782000Y-107704000D01*
X158877238Y-107656380D01*
X160782000Y-108608761D02*
X160686761Y-108656380D01*
X160496285Y-108656380D01*
X160401047Y-108608761D01*
X160353428Y-108513523D01*
X160353428Y-108132571D01*
X160401047Y-108037333D01*
X160496285Y-107989714D01*
X160686761Y-107989714D01*
X160782000Y-108037333D01*
X160829619Y-108132571D01*
X160829619Y-108227809D01*
X160353428Y-108323047D01*
X161210571Y-108608761D02*
X161305809Y-108656380D01*
X161496285Y-108656380D01*
X161591523Y-108608761D01*
X161639142Y-108513523D01*
X161639142Y-108465904D01*
X161591523Y-108370666D01*
X161496285Y-108323047D01*
X161353428Y-108323047D01*
X161258190Y-108275428D01*
X161210571Y-108180190D01*
X161210571Y-108132571D01*
X161258190Y-108037333D01*
X161353428Y-107989714D01*
X161496285Y-107989714D01*
X161591523Y-108037333D01*
X162067714Y-107989714D02*
X162067714Y-108989714D01*
X162067714Y-108037333D02*
X162162952Y-107989714D01*
X162353428Y-107989714D01*
X162448666Y-108037333D01*
X162496285Y-108084952D01*
X162543904Y-108180190D01*
X162543904Y-108465904D01*
X162496285Y-108561142D01*
X162448666Y-108608761D01*
X162353428Y-108656380D01*
X162162952Y-108656380D01*
X162067714Y-108608761D01*
X162877238Y-107656380D02*
X163496285Y-107656380D01*
X163162952Y-108037333D01*
X163305809Y-108037333D01*
X163401047Y-108084952D01*
X163448666Y-108132571D01*
X163496285Y-108227809D01*
X163496285Y-108465904D01*
X163448666Y-108561142D01*
X163401047Y-108608761D01*
X163305809Y-108656380D01*
X163020095Y-108656380D01*
X162924857Y-108608761D01*
X162877238Y-108561142D01*
X163877238Y-107751619D02*
X163924857Y-107704000D01*
X164020095Y-107656380D01*
X164258190Y-107656380D01*
X164353428Y-107704000D01*
X164401047Y-107751619D01*
X164448666Y-107846857D01*
X164448666Y-107942095D01*
X164401047Y-108084952D01*
X163829619Y-108656380D01*
X164448666Y-108656380D01*
X141145047Y-109482000D02*
X141049809Y-109434380D01*
X140906952Y-109434380D01*
X140764095Y-109482000D01*
X140668857Y-109577238D01*
X140621238Y-109672476D01*
X140573619Y-109862952D01*
X140573619Y-110005809D01*
X140621238Y-110196285D01*
X140668857Y-110291523D01*
X140764095Y-110386761D01*
X140906952Y-110434380D01*
X141002190Y-110434380D01*
X141145047Y-110386761D01*
X141192666Y-110339142D01*
X141192666Y-110005809D01*
X141002190Y-110005809D01*
X141621238Y-110434380D02*
X141621238Y-109434380D01*
X142192666Y-110434380D01*
X142192666Y-109434380D01*
X142668857Y-110434380D02*
X142668857Y-109434380D01*
X142906952Y-109434380D01*
X143049809Y-109482000D01*
X143145047Y-109577238D01*
X143192666Y-109672476D01*
X143240285Y-109862952D01*
X143240285Y-110005809D01*
X143192666Y-110196285D01*
X143145047Y-110291523D01*
X143049809Y-110386761D01*
X142906952Y-110434380D01*
X142668857Y-110434380D01*
X144811714Y-110386761D02*
X144716476Y-110434380D01*
X144526000Y-110434380D01*
X144430761Y-110386761D01*
X144383142Y-110291523D01*
X144383142Y-109910571D01*
X144430761Y-109815333D01*
X144526000Y-109767714D01*
X144716476Y-109767714D01*
X144811714Y-109815333D01*
X144859333Y-109910571D01*
X144859333Y-110005809D01*
X144383142Y-110101047D01*
X145240285Y-110386761D02*
X145335523Y-110434380D01*
X145526000Y-110434380D01*
X145621238Y-110386761D01*
X145668857Y-110291523D01*
X145668857Y-110243904D01*
X145621238Y-110148666D01*
X145526000Y-110101047D01*
X145383142Y-110101047D01*
X145287904Y-110053428D01*
X145240285Y-109958190D01*
X145240285Y-109910571D01*
X145287904Y-109815333D01*
X145383142Y-109767714D01*
X145526000Y-109767714D01*
X145621238Y-109815333D01*
X146097428Y-109767714D02*
X146097428Y-110767714D01*
X146097428Y-109815333D02*
X146192666Y-109767714D01*
X146383142Y-109767714D01*
X146478380Y-109815333D01*
X146526000Y-109862952D01*
X146573619Y-109958190D01*
X146573619Y-110243904D01*
X146526000Y-110339142D01*
X146478380Y-110386761D01*
X146383142Y-110434380D01*
X146192666Y-110434380D01*
X146097428Y-110386761D01*
X146906952Y-109434380D02*
X147526000Y-109434380D01*
X147192666Y-109815333D01*
X147335523Y-109815333D01*
X147430761Y-109862952D01*
X147478380Y-109910571D01*
X147526000Y-110005809D01*
X147526000Y-110243904D01*
X147478380Y-110339142D01*
X147430761Y-110386761D01*
X147335523Y-110434380D01*
X147049809Y-110434380D01*
X146954571Y-110386761D01*
X146906952Y-110339142D01*
X147906952Y-109529619D02*
X147954571Y-109482000D01*
X148049809Y-109434380D01*
X148287904Y-109434380D01*
X148383142Y-109482000D01*
X148430761Y-109529619D01*
X148478380Y-109624857D01*
X148478380Y-109720095D01*
X148430761Y-109862952D01*
X147859333Y-110434380D01*
X148478380Y-110434380D01*
X158067523Y-74890380D02*
X158686571Y-74890380D01*
X158353238Y-75271333D01*
X158496095Y-75271333D01*
X158591333Y-75318952D01*
X158638952Y-75366571D01*
X158686571Y-75461809D01*
X158686571Y-75699904D01*
X158638952Y-75795142D01*
X158591333Y-75842761D01*
X158496095Y-75890380D01*
X158210380Y-75890380D01*
X158115142Y-75842761D01*
X158067523Y-75795142D01*
X159019904Y-75223714D02*
X159258000Y-75890380D01*
X159496095Y-75223714D01*
X159781809Y-74890380D02*
X160400857Y-74890380D01*
X160067523Y-75271333D01*
X160210380Y-75271333D01*
X160305619Y-75318952D01*
X160353238Y-75366571D01*
X160400857Y-75461809D01*
X160400857Y-75699904D01*
X160353238Y-75795142D01*
X160305619Y-75842761D01*
X160210380Y-75890380D01*
X159924666Y-75890380D01*
X159829428Y-75842761D01*
X159781809Y-75795142D01*
X136525142Y-55062380D02*
X136525142Y-54062380D01*
X136763238Y-54062380D01*
X136906095Y-54110000D01*
X137001333Y-54205238D01*
X137048952Y-54300476D01*
X137096571Y-54490952D01*
X137096571Y-54633809D01*
X137048952Y-54824285D01*
X137001333Y-54919523D01*
X136906095Y-55014761D01*
X136763238Y-55062380D01*
X136525142Y-55062380D01*
X137382285Y-54062380D02*
X137953714Y-54062380D01*
X137668000Y-55062380D02*
X137668000Y-54062380D01*
X138858476Y-55062380D02*
X138525142Y-54586190D01*
X138287047Y-55062380D02*
X138287047Y-54062380D01*
X138668000Y-54062380D01*
X138763238Y-54110000D01*
X138810857Y-54157619D01*
X138858476Y-54252857D01*
X138858476Y-54395714D01*
X138810857Y-54490952D01*
X138763238Y-54538571D01*
X138668000Y-54586190D01*
X138287047Y-54586190D01*
X166147714Y-76398380D02*
X165576285Y-76398380D01*
X165862000Y-76398380D02*
X165862000Y-75398380D01*
X165766761Y-75541238D01*
X165671523Y-75636476D01*
X165576285Y-75684095D01*
X108997714Y-96210380D02*
X108426285Y-96210380D01*
X108712000Y-96210380D02*
X108712000Y-95210380D01*
X108616761Y-95353238D01*
X108521523Y-95448476D01*
X108426285Y-95496095D01*
X129571714Y-114498380D02*
X129000285Y-114498380D01*
X129286000Y-114498380D02*
X129286000Y-113498380D01*
X129190761Y-113641238D01*
X129095523Y-113736476D01*
X129000285Y-113784095D01*
X143939047Y-89924000D02*
X143843809Y-89876380D01*
X143700952Y-89876380D01*
X143558095Y-89924000D01*
X143462857Y-90019238D01*
X143415238Y-90114476D01*
X143367619Y-90304952D01*
X143367619Y-90447809D01*
X143415238Y-90638285D01*
X143462857Y-90733523D01*
X143558095Y-90828761D01*
X143700952Y-90876380D01*
X143796190Y-90876380D01*
X143939047Y-90828761D01*
X143986666Y-90781142D01*
X143986666Y-90447809D01*
X143796190Y-90447809D01*
X144415238Y-90876380D02*
X144415238Y-89876380D01*
X144986666Y-90876380D01*
X144986666Y-89876380D01*
X145462857Y-90876380D02*
X145462857Y-89876380D01*
X145700952Y-89876380D01*
X145843809Y-89924000D01*
X145939047Y-90019238D01*
X145986666Y-90114476D01*
X146034285Y-90304952D01*
X146034285Y-90447809D01*
X145986666Y-90638285D01*
X145939047Y-90733523D01*
X145843809Y-90828761D01*
X145700952Y-90876380D01*
X145462857Y-90876380D01*
X147605714Y-90828761D02*
X147510476Y-90876380D01*
X147320000Y-90876380D01*
X147224761Y-90828761D01*
X147177142Y-90733523D01*
X147177142Y-90352571D01*
X147224761Y-90257333D01*
X147320000Y-90209714D01*
X147510476Y-90209714D01*
X147605714Y-90257333D01*
X147653333Y-90352571D01*
X147653333Y-90447809D01*
X147177142Y-90543047D01*
X148034285Y-90828761D02*
X148129523Y-90876380D01*
X148320000Y-90876380D01*
X148415238Y-90828761D01*
X148462857Y-90733523D01*
X148462857Y-90685904D01*
X148415238Y-90590666D01*
X148320000Y-90543047D01*
X148177142Y-90543047D01*
X148081904Y-90495428D01*
X148034285Y-90400190D01*
X148034285Y-90352571D01*
X148081904Y-90257333D01*
X148177142Y-90209714D01*
X148320000Y-90209714D01*
X148415238Y-90257333D01*
X148891428Y-90209714D02*
X148891428Y-91209714D01*
X148891428Y-90257333D02*
X148986666Y-90209714D01*
X149177142Y-90209714D01*
X149272380Y-90257333D01*
X149320000Y-90304952D01*
X149367619Y-90400190D01*
X149367619Y-90685904D01*
X149320000Y-90781142D01*
X149272380Y-90828761D01*
X149177142Y-90876380D01*
X148986666Y-90876380D01*
X148891428Y-90828761D01*
X149700952Y-89876380D02*
X150320000Y-89876380D01*
X149986666Y-90257333D01*
X150129523Y-90257333D01*
X150224761Y-90304952D01*
X150272380Y-90352571D01*
X150320000Y-90447809D01*
X150320000Y-90685904D01*
X150272380Y-90781142D01*
X150224761Y-90828761D01*
X150129523Y-90876380D01*
X149843809Y-90876380D01*
X149748571Y-90828761D01*
X149700952Y-90781142D01*
X150700952Y-89971619D02*
X150748571Y-89924000D01*
X150843809Y-89876380D01*
X151081904Y-89876380D01*
X151177142Y-89924000D01*
X151224761Y-89971619D01*
X151272380Y-90066857D01*
X151272380Y-90162095D01*
X151224761Y-90304952D01*
X150653333Y-90876380D01*
X151272380Y-90876380D01*
X177831714Y-99258380D02*
X177260285Y-99258380D01*
X177546000Y-99258380D02*
X177546000Y-98258380D01*
X177450761Y-98401238D01*
X177355523Y-98496476D01*
X177260285Y-98544095D01*
D11*
X172660000Y-117602000D02*
X172650000Y-117592000D01*
X172650000Y-116342000D02*
X172660000Y-117602000D01*
X175320000Y-117552000D02*
X175300000Y-117572000D01*
X175310000Y-115002000D02*
X175320000Y-117552000D01*
X173990000Y-115002000D02*
X175310000Y-115002000D01*
X172466000Y-114808000D02*
X172466000Y-138176000D01*
X172660000Y-115002000D02*
X173990000Y-115002000D01*
X172660000Y-117602000D02*
X175320000Y-117602000D01*
X172660000Y-137982000D02*
X175320000Y-137982000D01*
X172660000Y-116332000D02*
X172660000Y-115002000D01*
X172660000Y-117602000D02*
X172660000Y-137982000D01*
X175320000Y-117602000D02*
X175320000Y-137982000D01*
X200790000Y-117602000D02*
X200790000Y-127822000D01*
X199460000Y-115002000D02*
X200790000Y-115002000D01*
X198130000Y-127822000D02*
X200790000Y-127822000D01*
X200790000Y-115002000D02*
X200790000Y-116332000D01*
X198130000Y-117602000D02*
X198130000Y-127822000D01*
X198130000Y-117602000D02*
X200790000Y-117602000D01*
X172466000Y-114808000D02*
X201041000Y-114808000D01*
X201041000Y-114808000D02*
X201041000Y-138176000D01*
X201041000Y-138176000D02*
X172466000Y-138176000D01*
X143327000Y-126447000D02*
X143327000Y-123587000D01*
X141407000Y-123587000D02*
X141407000Y-126447000D01*
X141407000Y-126619000D02*
X143327000Y-126619000D01*
X139263000Y-126456000D02*
X139263000Y-123596000D01*
X137343000Y-123596000D02*
X137343000Y-126456000D01*
X137343000Y-126628000D02*
X139263000Y-126628000D01*
X138602000Y-79319000D02*
X141462000Y-79319000D01*
X141462000Y-77399000D02*
X138602000Y-77399000D01*
X138430000Y-77399000D02*
X138430000Y-79319000D01*
D12*
X141144001Y-107846001D02*
X141144001Y-108346001D01*
X141144001Y-108346001D02*
X143144001Y-108346001D01*
X157144001Y-108346001D02*
X159144001Y-108346001D01*
X159144001Y-108346001D02*
X159144001Y-107846001D01*
X141144001Y-89096001D02*
X141144001Y-82846001D01*
X141144001Y-82846001D02*
X159144001Y-82846001D01*
X159144001Y-82846001D02*
X159144001Y-89096001D01*
D13*
X140044001Y-90196001D02*
X140044001Y-90196001D01*
X140044001Y-90396001D02*
X140044001Y-90396001D01*
X140044001Y-90396001D02*
G75*
G03X140044001Y-90196001I0J100000D01*
G01*
X140044001Y-90196001D02*
G75*
G03X140044001Y-90396001I0J-100000D01*
G01*
D11*
X157928000Y-71822000D02*
X157928000Y-74482000D01*
X163068000Y-71822000D02*
X157928000Y-71822000D01*
X164338000Y-71822000D02*
X165668000Y-71822000D01*
X163068000Y-74482000D02*
X157928000Y-74482000D01*
X165668000Y-71822000D02*
X165668000Y-73152000D01*
X163068000Y-71822000D02*
X163068000Y-74482000D01*
X165608000Y-71628000D02*
X165608000Y-62992000D01*
X165608000Y-62992000D02*
X157988000Y-62992000D01*
X157988000Y-62992000D02*
X157988000Y-71628000D01*
X124189748Y-81586000D02*
X124712252Y-81586000D01*
X124189748Y-83006000D02*
X124712252Y-83006000D01*
X116070748Y-127456000D02*
X116593252Y-127456000D01*
X116070748Y-126036000D02*
X116593252Y-126036000D01*
X115825748Y-137362000D02*
X116348252Y-137362000D01*
X115825748Y-135942000D02*
X116348252Y-135942000D01*
X169470000Y-113784748D02*
X169470000Y-114307252D01*
X170890000Y-113784748D02*
X170890000Y-114307252D01*
X136854000Y-90186252D02*
X136854000Y-89663748D01*
X135434000Y-90186252D02*
X135434000Y-89663748D01*
X131878000Y-90177252D02*
X131878000Y-89654748D01*
X133298000Y-90177252D02*
X133298000Y-89654748D01*
X202498000Y-78172000D02*
X199838000Y-78172000D01*
X202498000Y-85852000D02*
X202498000Y-78172000D01*
X199838000Y-85852000D02*
X199838000Y-78172000D01*
X202498000Y-85852000D02*
X199838000Y-85852000D01*
X202498000Y-87122000D02*
X202498000Y-88452000D01*
X202498000Y-88452000D02*
X201168000Y-88452000D01*
D12*
X123770000Y-69422000D02*
X123770000Y-59922000D01*
X123770000Y-59922000D02*
X132770000Y-59922000D01*
X132770000Y-59922000D02*
X132770000Y-75122000D01*
X132770000Y-75122000D02*
X130270000Y-75122000D01*
X123770000Y-73422000D02*
X123770000Y-75122000D01*
X123770000Y-75122000D02*
X126270000Y-75122000D01*
X128270000Y-76322000D02*
X128270000Y-76322000D01*
X128270000Y-76422000D02*
X128270000Y-76422000D01*
X128270000Y-76422000D02*
G75*
G02X128270000Y-76322000I0J50000D01*
G01*
X128270000Y-76322000D02*
G75*
G02X128270000Y-76422000I0J-50000D01*
G01*
D14*
X151642000Y-135001000D02*
G75*
G03X151642000Y-135001000I-6100000J0D01*
G01*
X145364090Y-128140000D02*
G75*
G03X145364090Y-128140000I-50090J0D01*
G01*
D11*
X116593252Y-122884000D02*
X116070748Y-122884000D01*
X116593252Y-121464000D02*
X116070748Y-121464000D01*
X132087252Y-121464000D02*
X131564748Y-121464000D01*
X132087252Y-122884000D02*
X131564748Y-122884000D01*
X116348252Y-131370000D02*
X115825748Y-131370000D01*
X116348252Y-132790000D02*
X115825748Y-132790000D01*
X132341252Y-132790000D02*
X131818748Y-132790000D01*
X132341252Y-131370000D02*
X131818748Y-131370000D01*
X159818000Y-119886252D02*
X159818000Y-119363748D01*
X161238000Y-119886252D02*
X161238000Y-119363748D01*
X120090000Y-81018748D02*
X120090000Y-81541252D01*
X118670000Y-81018748D02*
X118670000Y-81541252D01*
X142950000Y-118492748D02*
X142950000Y-119015252D01*
X141530000Y-118492748D02*
X141530000Y-119015252D01*
X138886000Y-119260252D02*
X138886000Y-118737748D01*
X137466000Y-119260252D02*
X137466000Y-118737748D01*
X146287748Y-78942000D02*
X146810252Y-78942000D01*
X146287748Y-77522000D02*
X146810252Y-77522000D01*
X121650000Y-127674000D02*
X126150000Y-127674000D01*
X120400000Y-123674000D02*
X120400000Y-125174000D01*
X126150000Y-121174000D02*
X121650000Y-121174000D01*
X127400000Y-125174000D02*
X127400000Y-123674000D01*
X121396000Y-137580000D02*
X125896000Y-137580000D01*
X120146000Y-133580000D02*
X120146000Y-135080000D01*
X125896000Y-131080000D02*
X121396000Y-131080000D01*
X127146000Y-135080000D02*
X127146000Y-133580000D01*
X126130000Y-88852000D02*
X126130000Y-87352000D01*
X124880000Y-84852000D02*
X120380000Y-84852000D01*
X119130000Y-87352000D02*
X119130000Y-88852000D01*
X120380000Y-91352000D02*
X124880000Y-91352000D01*
X122444000Y-115376000D02*
G75*
G02X124444000Y-115376000I1000000J0D01*
G01*
X124444000Y-115376000D02*
X126094000Y-115376000D01*
X126094000Y-115376000D02*
X126094000Y-97476000D01*
X126094000Y-97476000D02*
X120794000Y-97476000D01*
X120794000Y-97476000D02*
X120794000Y-115376000D01*
X120794000Y-115376000D02*
X122444000Y-115376000D01*
X191768000Y-81082000D02*
X190308000Y-81082000D01*
X191768000Y-77922000D02*
X189608000Y-77922000D01*
X191768000Y-77922000D02*
X191768000Y-78852000D01*
X191768000Y-81082000D02*
X191768000Y-80152000D01*
X191768000Y-88194000D02*
X191768000Y-87264000D01*
X191768000Y-85034000D02*
X191768000Y-85964000D01*
X191768000Y-85034000D02*
X189608000Y-85034000D01*
X191768000Y-88194000D02*
X190308000Y-88194000D01*
X177344000Y-79240748D02*
X177344000Y-79763252D01*
X178764000Y-79240748D02*
X178764000Y-79763252D01*
X178868000Y-86352748D02*
X178868000Y-86875252D01*
X180288000Y-86352748D02*
X180288000Y-86875252D01*
X183440000Y-80026252D02*
X183440000Y-79503748D01*
X184860000Y-80026252D02*
X184860000Y-79503748D01*
X194556748Y-93016000D02*
X195079252Y-93016000D01*
X194556748Y-94436000D02*
X195079252Y-94436000D01*
X169478000Y-140522000D02*
X169478000Y-137862000D01*
X156718000Y-140522000D02*
X169478000Y-140522000D01*
X156718000Y-137862000D02*
X169478000Y-137862000D01*
X156718000Y-140522000D02*
X156718000Y-137862000D01*
X155448000Y-140522000D02*
X154118000Y-140522000D01*
X154118000Y-140522000D02*
X154118000Y-139192000D01*
X107382000Y-106994000D02*
X110042000Y-106994000D01*
X107382000Y-96774000D02*
X107382000Y-106994000D01*
X110042000Y-96774000D02*
X110042000Y-106994000D01*
X107382000Y-96774000D02*
X110042000Y-96774000D01*
X107382000Y-95504000D02*
X107382000Y-94174000D01*
X107382000Y-94174000D02*
X108712000Y-94174000D01*
X179264000Y-108772000D02*
X181924000Y-108772000D01*
X179264000Y-101092000D02*
X179264000Y-108772000D01*
X181924000Y-101092000D02*
X181924000Y-108772000D01*
X179264000Y-101092000D02*
X181924000Y-101092000D01*
X179264000Y-99822000D02*
X179264000Y-98492000D01*
X179264000Y-98492000D02*
X180594000Y-98492000D01*
X198121748Y-98604000D02*
X198644252Y-98604000D01*
X198121748Y-100024000D02*
X198644252Y-100024000D01*
X154492000Y-57718000D02*
X154492000Y-55058000D01*
X139192000Y-57718000D02*
X154492000Y-57718000D01*
X139192000Y-55058000D02*
X154492000Y-55058000D01*
X139192000Y-57718000D02*
X139192000Y-55058000D01*
X137922000Y-57718000D02*
X136592000Y-57718000D01*
X136592000Y-57718000D02*
X136592000Y-56388000D01*
D13*
X137839000Y-65712000D02*
X136989000Y-65712000D01*
X136989000Y-65712000D02*
X136989000Y-62812000D01*
X136989000Y-62812000D02*
X137839000Y-62812000D01*
X137839000Y-62812000D02*
X137839000Y-65712000D01*
X139039000Y-65762000D02*
X138189000Y-65762000D01*
X146133000Y-62574000D02*
X146983000Y-62574000D01*
X147333000Y-65524000D02*
X147333000Y-62624000D01*
X148183000Y-65524000D02*
X147333000Y-65524000D01*
X148183000Y-62624000D02*
X148183000Y-65524000D01*
X147333000Y-62624000D02*
X148183000Y-62624000D01*
D11*
X199905252Y-95452000D02*
X199382748Y-95452000D01*
X199905252Y-94032000D02*
X199382748Y-94032000D01*
X146795748Y-70306000D02*
X147318252Y-70306000D01*
X146795748Y-68886000D02*
X147318252Y-68886000D01*
X138921748Y-68632000D02*
X139444252Y-68632000D01*
X138921748Y-70052000D02*
X139444252Y-70052000D01*
X186778000Y-102782000D02*
X191278000Y-102782000D01*
X185528000Y-98782000D02*
X185528000Y-100282000D01*
X191278000Y-96282000D02*
X186778000Y-96282000D01*
X192528000Y-100282000D02*
X192528000Y-98782000D01*
D10*
X173228095Y-113034380D02*
X173228095Y-113843904D01*
X173275714Y-113939142D01*
X173323333Y-113986761D01*
X173418571Y-114034380D01*
X173609047Y-114034380D01*
X173704285Y-113986761D01*
X173751904Y-113939142D01*
X173799523Y-113843904D01*
X173799523Y-113034380D01*
X174228095Y-113129619D02*
X174275714Y-113082000D01*
X174370952Y-113034380D01*
X174609047Y-113034380D01*
X174704285Y-113082000D01*
X174751904Y-113129619D01*
X174799523Y-113224857D01*
X174799523Y-113320095D01*
X174751904Y-113462952D01*
X174180476Y-114034380D01*
X174799523Y-114034380D01*
X170465714Y-115514380D02*
X169894285Y-115514380D01*
X170180000Y-115514380D02*
X170180000Y-114514380D01*
X170084761Y-114657238D01*
X169989523Y-114752476D01*
X169894285Y-114800095D01*
X141041380Y-125325095D02*
X140041380Y-125325095D01*
X140041380Y-125087000D01*
X140089000Y-124944142D01*
X140184238Y-124848904D01*
X140279476Y-124801285D01*
X140469952Y-124753666D01*
X140612809Y-124753666D01*
X140803285Y-124801285D01*
X140898523Y-124848904D01*
X140993761Y-124944142D01*
X141041380Y-125087000D01*
X141041380Y-125325095D01*
X141041380Y-123801285D02*
X141041380Y-124372714D01*
X141041380Y-124087000D02*
X140041380Y-124087000D01*
X140184238Y-124182238D01*
X140279476Y-124277476D01*
X140327095Y-124372714D01*
X136977380Y-125334095D02*
X135977380Y-125334095D01*
X135977380Y-125096000D01*
X136025000Y-124953142D01*
X136120238Y-124857904D01*
X136215476Y-124810285D01*
X136405952Y-124762666D01*
X136548809Y-124762666D01*
X136739285Y-124810285D01*
X136834523Y-124857904D01*
X136929761Y-124953142D01*
X136977380Y-125096000D01*
X136977380Y-125334095D01*
X136072619Y-124381714D02*
X136025000Y-124334095D01*
X135977380Y-124238857D01*
X135977380Y-124000761D01*
X136025000Y-123905523D01*
X136072619Y-123857904D01*
X136167857Y-123810285D01*
X136263095Y-123810285D01*
X136405952Y-123857904D01*
X136977380Y-124429333D01*
X136977380Y-123810285D01*
X139723904Y-77033380D02*
X139723904Y-76033380D01*
X139962000Y-76033380D01*
X140104857Y-76081000D01*
X140200095Y-76176238D01*
X140247714Y-76271476D01*
X140295333Y-76461952D01*
X140295333Y-76604809D01*
X140247714Y-76795285D01*
X140200095Y-76890523D01*
X140104857Y-76985761D01*
X139962000Y-77033380D01*
X139723904Y-77033380D01*
X140628666Y-76033380D02*
X141247714Y-76033380D01*
X140914380Y-76414333D01*
X141057238Y-76414333D01*
X141152476Y-76461952D01*
X141200095Y-76509571D01*
X141247714Y-76604809D01*
X141247714Y-76842904D01*
X141200095Y-76938142D01*
X141152476Y-76985761D01*
X141057238Y-77033380D01*
X140771523Y-77033380D01*
X140676285Y-76985761D01*
X140628666Y-76938142D01*
X105092666Y-133666380D02*
X104759333Y-133190190D01*
X104521238Y-133666380D02*
X104521238Y-132666380D01*
X104902190Y-132666380D01*
X104997428Y-132714000D01*
X105045047Y-132761619D01*
X105092666Y-132856857D01*
X105092666Y-132999714D01*
X105045047Y-133094952D01*
X104997428Y-133142571D01*
X104902190Y-133190190D01*
X104521238Y-133190190D01*
X105521238Y-133142571D02*
X105854571Y-133142571D01*
X105997428Y-133666380D02*
X105521238Y-133666380D01*
X105521238Y-132666380D01*
X105997428Y-132666380D01*
X106759333Y-133142571D02*
X106426000Y-133142571D01*
X106426000Y-133666380D02*
X106426000Y-132666380D01*
X106902190Y-132666380D01*
X107426000Y-132666380D02*
X107426000Y-132904476D01*
X107187904Y-132809238D02*
X107426000Y-132904476D01*
X107664095Y-132809238D01*
X107283142Y-133094952D02*
X107426000Y-132904476D01*
X107568857Y-133094952D01*
X108187904Y-132666380D02*
X108187904Y-132904476D01*
X107949809Y-132809238D02*
X108187904Y-132904476D01*
X108426000Y-132809238D01*
X108045047Y-133094952D02*
X108187904Y-132904476D01*
X108330761Y-133094952D01*
X196786666Y-104456380D02*
X196453333Y-103980190D01*
X196215238Y-104456380D02*
X196215238Y-103456380D01*
X196596190Y-103456380D01*
X196691428Y-103504000D01*
X196739047Y-103551619D01*
X196786666Y-103646857D01*
X196786666Y-103789714D01*
X196739047Y-103884952D01*
X196691428Y-103932571D01*
X196596190Y-103980190D01*
X196215238Y-103980190D01*
X197215238Y-103932571D02*
X197548571Y-103932571D01*
X197691428Y-104456380D02*
X197215238Y-104456380D01*
X197215238Y-103456380D01*
X197691428Y-103456380D01*
X198453333Y-103932571D02*
X198120000Y-103932571D01*
X198120000Y-104456380D02*
X198120000Y-103456380D01*
X198596190Y-103456380D01*
X199120000Y-103456380D02*
X199120000Y-103694476D01*
X198881904Y-103599238D02*
X199120000Y-103694476D01*
X199358095Y-103599238D01*
X198977142Y-103884952D02*
X199120000Y-103694476D01*
X199262857Y-103884952D01*
X199881904Y-103456380D02*
X199881904Y-103694476D01*
X199643809Y-103599238D02*
X199881904Y-103694476D01*
X200120000Y-103599238D01*
X199739047Y-103884952D02*
X199881904Y-103694476D01*
X200024761Y-103884952D01*
X111442666Y-55316380D02*
X111109333Y-54840190D01*
X110871238Y-55316380D02*
X110871238Y-54316380D01*
X111252190Y-54316380D01*
X111347428Y-54364000D01*
X111395047Y-54411619D01*
X111442666Y-54506857D01*
X111442666Y-54649714D01*
X111395047Y-54744952D01*
X111347428Y-54792571D01*
X111252190Y-54840190D01*
X110871238Y-54840190D01*
X111871238Y-54792571D02*
X112204571Y-54792571D01*
X112347428Y-55316380D02*
X111871238Y-55316380D01*
X111871238Y-54316380D01*
X112347428Y-54316380D01*
X113109333Y-54792571D02*
X112776000Y-54792571D01*
X112776000Y-55316380D02*
X112776000Y-54316380D01*
X113252190Y-54316380D01*
X113776000Y-54316380D02*
X113776000Y-54554476D01*
X113537904Y-54459238D02*
X113776000Y-54554476D01*
X114014095Y-54459238D01*
X113633142Y-54744952D02*
X113776000Y-54554476D01*
X113918857Y-54744952D01*
X114537904Y-54316380D02*
X114537904Y-54554476D01*
X114299809Y-54459238D02*
X114537904Y-54554476D01*
X114776000Y-54459238D01*
X114395047Y-54744952D02*
X114537904Y-54554476D01*
X114680761Y-54744952D01*
X192468666Y-55316380D02*
X192135333Y-54840190D01*
X191897238Y-55316380D02*
X191897238Y-54316380D01*
X192278190Y-54316380D01*
X192373428Y-54364000D01*
X192421047Y-54411619D01*
X192468666Y-54506857D01*
X192468666Y-54649714D01*
X192421047Y-54744952D01*
X192373428Y-54792571D01*
X192278190Y-54840190D01*
X191897238Y-54840190D01*
X192897238Y-54792571D02*
X193230571Y-54792571D01*
X193373428Y-55316380D02*
X192897238Y-55316380D01*
X192897238Y-54316380D01*
X193373428Y-54316380D01*
X194135333Y-54792571D02*
X193802000Y-54792571D01*
X193802000Y-55316380D02*
X193802000Y-54316380D01*
X194278190Y-54316380D01*
X194802000Y-54316380D02*
X194802000Y-54554476D01*
X194563904Y-54459238D02*
X194802000Y-54554476D01*
X195040095Y-54459238D01*
X194659142Y-54744952D02*
X194802000Y-54554476D01*
X194944857Y-54744952D01*
X195563904Y-54316380D02*
X195563904Y-54554476D01*
X195325809Y-54459238D02*
X195563904Y-54554476D01*
X195802000Y-54459238D01*
X195421047Y-54744952D02*
X195563904Y-54554476D01*
X195706761Y-54744952D01*
D14*
X147737810Y-96057667D02*
X148342572Y-96057667D01*
X147616858Y-96420524D02*
X148040191Y-95150524D01*
X148463524Y-96420524D01*
X148886858Y-96420524D02*
X148886858Y-95150524D01*
X149612572Y-96420524D01*
X149612572Y-95150524D01*
X150035905Y-95150524D02*
X150761620Y-95150524D01*
X150398762Y-96420524D02*
X150398762Y-95150524D01*
X151850191Y-96420524D02*
X151124477Y-96420524D01*
X151487334Y-96420524D02*
X151487334Y-95150524D01*
X151366381Y-95331953D01*
X151245429Y-95452905D01*
X151124477Y-95513381D01*
D10*
X166330380Y-74715523D02*
X167330380Y-74382190D01*
X166330380Y-74048857D01*
X167330380Y-73144095D02*
X166854190Y-73477428D01*
X167330380Y-73715523D02*
X166330380Y-73715523D01*
X166330380Y-73334571D01*
X166378000Y-73239333D01*
X166425619Y-73191714D01*
X166520857Y-73144095D01*
X166663714Y-73144095D01*
X166758952Y-73191714D01*
X166806571Y-73239333D01*
X166854190Y-73334571D01*
X166854190Y-73715523D01*
X167330380Y-72191714D02*
X167330380Y-72763142D01*
X167330380Y-72477428D02*
X166330380Y-72477428D01*
X166473238Y-72572666D01*
X166568476Y-72667904D01*
X166616095Y-72763142D01*
X163790380Y-77223809D02*
X164790380Y-76890476D01*
X163790380Y-76557142D01*
X164790380Y-76223809D02*
X164123714Y-76223809D01*
X163790380Y-76223809D02*
X163838000Y-76271428D01*
X163885619Y-76223809D01*
X163838000Y-76176190D01*
X163790380Y-76223809D01*
X163885619Y-76223809D01*
X164123714Y-75747619D02*
X164790380Y-75747619D01*
X164218952Y-75747619D02*
X164171333Y-75700000D01*
X164123714Y-75604761D01*
X164123714Y-75461904D01*
X164171333Y-75366666D01*
X164266571Y-75319047D01*
X164790380Y-75319047D01*
X164806380Y-75438000D02*
X165044476Y-75438000D01*
X164949238Y-75676095D02*
X165044476Y-75438000D01*
X164949238Y-75199904D01*
X165234952Y-75580857D02*
X165044476Y-75438000D01*
X165234952Y-75295142D01*
X124284333Y-81003142D02*
X124236714Y-81050761D01*
X124093857Y-81098380D01*
X123998619Y-81098380D01*
X123855761Y-81050761D01*
X123760523Y-80955523D01*
X123712904Y-80860285D01*
X123665285Y-80669809D01*
X123665285Y-80526952D01*
X123712904Y-80336476D01*
X123760523Y-80241238D01*
X123855761Y-80146000D01*
X123998619Y-80098380D01*
X124093857Y-80098380D01*
X124236714Y-80146000D01*
X124284333Y-80193619D01*
X125236714Y-81098380D02*
X124665285Y-81098380D01*
X124951000Y-81098380D02*
X124951000Y-80098380D01*
X124855761Y-80241238D01*
X124760523Y-80336476D01*
X124665285Y-80384095D01*
X116165333Y-125453142D02*
X116117714Y-125500761D01*
X115974857Y-125548380D01*
X115879619Y-125548380D01*
X115736761Y-125500761D01*
X115641523Y-125405523D01*
X115593904Y-125310285D01*
X115546285Y-125119809D01*
X115546285Y-124976952D01*
X115593904Y-124786476D01*
X115641523Y-124691238D01*
X115736761Y-124596000D01*
X115879619Y-124548380D01*
X115974857Y-124548380D01*
X116117714Y-124596000D01*
X116165333Y-124643619D01*
X116546285Y-124643619D02*
X116593904Y-124596000D01*
X116689142Y-124548380D01*
X116927238Y-124548380D01*
X117022476Y-124596000D01*
X117070095Y-124643619D01*
X117117714Y-124738857D01*
X117117714Y-124834095D01*
X117070095Y-124976952D01*
X116498666Y-125548380D01*
X117117714Y-125548380D01*
X115920333Y-135359142D02*
X115872714Y-135406761D01*
X115729857Y-135454380D01*
X115634619Y-135454380D01*
X115491761Y-135406761D01*
X115396523Y-135311523D01*
X115348904Y-135216285D01*
X115301285Y-135025809D01*
X115301285Y-134882952D01*
X115348904Y-134692476D01*
X115396523Y-134597238D01*
X115491761Y-134502000D01*
X115634619Y-134454380D01*
X115729857Y-134454380D01*
X115872714Y-134502000D01*
X115920333Y-134549619D01*
X116253666Y-134454380D02*
X116872714Y-134454380D01*
X116539380Y-134835333D01*
X116682238Y-134835333D01*
X116777476Y-134882952D01*
X116825095Y-134930571D01*
X116872714Y-135025809D01*
X116872714Y-135263904D01*
X116825095Y-135359142D01*
X116777476Y-135406761D01*
X116682238Y-135454380D01*
X116396523Y-135454380D01*
X116301285Y-135406761D01*
X116253666Y-135359142D01*
X172187142Y-114212666D02*
X172234761Y-114260285D01*
X172282380Y-114403142D01*
X172282380Y-114498380D01*
X172234761Y-114641238D01*
X172139523Y-114736476D01*
X172044285Y-114784095D01*
X171853809Y-114831714D01*
X171710952Y-114831714D01*
X171520476Y-114784095D01*
X171425238Y-114736476D01*
X171330000Y-114641238D01*
X171282380Y-114498380D01*
X171282380Y-114403142D01*
X171330000Y-114260285D01*
X171377619Y-114212666D01*
X171282380Y-113355523D02*
X171282380Y-113546000D01*
X171330000Y-113641238D01*
X171377619Y-113688857D01*
X171520476Y-113784095D01*
X171710952Y-113831714D01*
X172091904Y-113831714D01*
X172187142Y-113784095D01*
X172234761Y-113736476D01*
X172282380Y-113641238D01*
X172282380Y-113450761D01*
X172234761Y-113355523D01*
X172187142Y-113307904D01*
X172091904Y-113260285D01*
X171853809Y-113260285D01*
X171758571Y-113307904D01*
X171710952Y-113355523D01*
X171663333Y-113450761D01*
X171663333Y-113641238D01*
X171710952Y-113736476D01*
X171758571Y-113784095D01*
X171853809Y-113831714D01*
X134851142Y-90591666D02*
X134898761Y-90639285D01*
X134946380Y-90782142D01*
X134946380Y-90877380D01*
X134898761Y-91020238D01*
X134803523Y-91115476D01*
X134708285Y-91163095D01*
X134517809Y-91210714D01*
X134374952Y-91210714D01*
X134184476Y-91163095D01*
X134089238Y-91115476D01*
X133994000Y-91020238D01*
X133946380Y-90877380D01*
X133946380Y-90782142D01*
X133994000Y-90639285D01*
X134041619Y-90591666D01*
X134946380Y-90163095D02*
X133946380Y-90163095D01*
X133946380Y-89782142D01*
X133994000Y-89686904D01*
X134041619Y-89639285D01*
X134136857Y-89591666D01*
X134279714Y-89591666D01*
X134374952Y-89639285D01*
X134422571Y-89686904D01*
X134470190Y-89782142D01*
X134470190Y-90163095D01*
X134279714Y-88734523D02*
X134946380Y-88734523D01*
X133898761Y-88972619D02*
X134613047Y-89210714D01*
X134613047Y-88591666D01*
X131295142Y-90582666D02*
X131342761Y-90630285D01*
X131390380Y-90773142D01*
X131390380Y-90868380D01*
X131342761Y-91011238D01*
X131247523Y-91106476D01*
X131152285Y-91154095D01*
X130961809Y-91201714D01*
X130818952Y-91201714D01*
X130628476Y-91154095D01*
X130533238Y-91106476D01*
X130438000Y-91011238D01*
X130390380Y-90868380D01*
X130390380Y-90773142D01*
X130438000Y-90630285D01*
X130485619Y-90582666D01*
X131390380Y-90154095D02*
X130390380Y-90154095D01*
X130390380Y-89773142D01*
X130438000Y-89677904D01*
X130485619Y-89630285D01*
X130580857Y-89582666D01*
X130723714Y-89582666D01*
X130818952Y-89630285D01*
X130866571Y-89677904D01*
X130914190Y-89773142D01*
X130914190Y-90154095D01*
X130390380Y-88677904D02*
X130390380Y-89154095D01*
X130866571Y-89201714D01*
X130818952Y-89154095D01*
X130771333Y-89058857D01*
X130771333Y-88820761D01*
X130818952Y-88725523D01*
X130866571Y-88677904D01*
X130961809Y-88630285D01*
X131199904Y-88630285D01*
X131295142Y-88677904D01*
X131342761Y-88725523D01*
X131390380Y-88820761D01*
X131390380Y-89058857D01*
X131342761Y-89154095D01*
X131295142Y-89201714D01*
X200358476Y-88904380D02*
X200358476Y-89618666D01*
X200310857Y-89761523D01*
X200215619Y-89856761D01*
X200072761Y-89904380D01*
X199977523Y-89904380D01*
X201358476Y-89904380D02*
X200787047Y-89904380D01*
X201072761Y-89904380D02*
X201072761Y-88904380D01*
X200977523Y-89047238D01*
X200882285Y-89142476D01*
X200787047Y-89190095D01*
X201691809Y-88904380D02*
X202358476Y-88904380D01*
X201929904Y-89904380D01*
D14*
X119192523Y-69874190D02*
X120099666Y-69874190D01*
X120281095Y-69934666D01*
X120402047Y-70055619D01*
X120462523Y-70237047D01*
X120462523Y-70358000D01*
X120462523Y-68725142D02*
X119797285Y-68725142D01*
X119676333Y-68785619D01*
X119615857Y-68906571D01*
X119615857Y-69148476D01*
X119676333Y-69269428D01*
X120402047Y-68725142D02*
X120462523Y-68846095D01*
X120462523Y-69148476D01*
X120402047Y-69269428D01*
X120281095Y-69329904D01*
X120160142Y-69329904D01*
X120039190Y-69269428D01*
X119978714Y-69148476D01*
X119978714Y-68846095D01*
X119918238Y-68725142D01*
X120402047Y-67576095D02*
X120462523Y-67697047D01*
X120462523Y-67938952D01*
X120402047Y-68059904D01*
X120341571Y-68120380D01*
X120220619Y-68180857D01*
X119857761Y-68180857D01*
X119736809Y-68120380D01*
X119676333Y-68059904D01*
X119615857Y-67938952D01*
X119615857Y-67697047D01*
X119676333Y-67576095D01*
X120462523Y-67031809D02*
X119192523Y-67031809D01*
X119978714Y-66910857D02*
X120462523Y-66548000D01*
X119615857Y-66548000D02*
X120099666Y-67031809D01*
X120462523Y-65338476D02*
X120462523Y-66064190D01*
X120462523Y-65701333D02*
X119192523Y-65701333D01*
X119373952Y-65822285D01*
X119494904Y-65943238D01*
X119555380Y-66064190D01*
X144519571Y-135512523D02*
X143914809Y-135512523D01*
X143914809Y-134242523D01*
X144882428Y-135452047D02*
X145063857Y-135512523D01*
X145366238Y-135512523D01*
X145487190Y-135452047D01*
X145547666Y-135391571D01*
X145608142Y-135270619D01*
X145608142Y-135149666D01*
X145547666Y-135028714D01*
X145487190Y-134968238D01*
X145366238Y-134907761D01*
X145124333Y-134847285D01*
X145003380Y-134786809D01*
X144942904Y-134726333D01*
X144882428Y-134605380D01*
X144882428Y-134484428D01*
X144942904Y-134363476D01*
X145003380Y-134303000D01*
X145124333Y-134242523D01*
X145426714Y-134242523D01*
X145608142Y-134303000D01*
X146817666Y-135512523D02*
X146091952Y-135512523D01*
X146454809Y-135512523D02*
X146454809Y-134242523D01*
X146333857Y-134423952D01*
X146212904Y-134544904D01*
X146091952Y-134605380D01*
D10*
X116165333Y-124276380D02*
X115832000Y-123800190D01*
X115593904Y-124276380D02*
X115593904Y-123276380D01*
X115974857Y-123276380D01*
X116070095Y-123324000D01*
X116117714Y-123371619D01*
X116165333Y-123466857D01*
X116165333Y-123609714D01*
X116117714Y-123704952D01*
X116070095Y-123752571D01*
X115974857Y-123800190D01*
X115593904Y-123800190D01*
X117117714Y-124276380D02*
X116546285Y-124276380D01*
X116832000Y-124276380D02*
X116832000Y-123276380D01*
X116736761Y-123419238D01*
X116641523Y-123514476D01*
X116546285Y-123562095D01*
X131659333Y-124276380D02*
X131326000Y-123800190D01*
X131087904Y-124276380D02*
X131087904Y-123276380D01*
X131468857Y-123276380D01*
X131564095Y-123324000D01*
X131611714Y-123371619D01*
X131659333Y-123466857D01*
X131659333Y-123609714D01*
X131611714Y-123704952D01*
X131564095Y-123752571D01*
X131468857Y-123800190D01*
X131087904Y-123800190D01*
X132040285Y-123371619D02*
X132087904Y-123324000D01*
X132183142Y-123276380D01*
X132421238Y-123276380D01*
X132516476Y-123324000D01*
X132564095Y-123371619D01*
X132611714Y-123466857D01*
X132611714Y-123562095D01*
X132564095Y-123704952D01*
X131992666Y-124276380D01*
X132611714Y-124276380D01*
X115920333Y-134182380D02*
X115587000Y-133706190D01*
X115348904Y-134182380D02*
X115348904Y-133182380D01*
X115729857Y-133182380D01*
X115825095Y-133230000D01*
X115872714Y-133277619D01*
X115920333Y-133372857D01*
X115920333Y-133515714D01*
X115872714Y-133610952D01*
X115825095Y-133658571D01*
X115729857Y-133706190D01*
X115348904Y-133706190D01*
X116253666Y-133182380D02*
X116872714Y-133182380D01*
X116539380Y-133563333D01*
X116682238Y-133563333D01*
X116777476Y-133610952D01*
X116825095Y-133658571D01*
X116872714Y-133753809D01*
X116872714Y-133991904D01*
X116825095Y-134087142D01*
X116777476Y-134134761D01*
X116682238Y-134182380D01*
X116396523Y-134182380D01*
X116301285Y-134134761D01*
X116253666Y-134087142D01*
X131913333Y-134182380D02*
X131580000Y-133706190D01*
X131341904Y-134182380D02*
X131341904Y-133182380D01*
X131722857Y-133182380D01*
X131818095Y-133230000D01*
X131865714Y-133277619D01*
X131913333Y-133372857D01*
X131913333Y-133515714D01*
X131865714Y-133610952D01*
X131818095Y-133658571D01*
X131722857Y-133706190D01*
X131341904Y-133706190D01*
X132770476Y-133515714D02*
X132770476Y-134182380D01*
X132532380Y-133134761D02*
X132294285Y-133849047D01*
X132913333Y-133849047D01*
X159330380Y-119791666D02*
X158854190Y-120125000D01*
X159330380Y-120363095D02*
X158330380Y-120363095D01*
X158330380Y-119982142D01*
X158378000Y-119886904D01*
X158425619Y-119839285D01*
X158520857Y-119791666D01*
X158663714Y-119791666D01*
X158758952Y-119839285D01*
X158806571Y-119886904D01*
X158854190Y-119982142D01*
X158854190Y-120363095D01*
X158330380Y-118886904D02*
X158330380Y-119363095D01*
X158806571Y-119410714D01*
X158758952Y-119363095D01*
X158711333Y-119267857D01*
X158711333Y-119029761D01*
X158758952Y-118934523D01*
X158806571Y-118886904D01*
X158901809Y-118839285D01*
X159139904Y-118839285D01*
X159235142Y-118886904D01*
X159282761Y-118934523D01*
X159330380Y-119029761D01*
X159330380Y-119267857D01*
X159282761Y-119363095D01*
X159235142Y-119410714D01*
X121482380Y-81446666D02*
X121006190Y-81780000D01*
X121482380Y-82018095D02*
X120482380Y-82018095D01*
X120482380Y-81637142D01*
X120530000Y-81541904D01*
X120577619Y-81494285D01*
X120672857Y-81446666D01*
X120815714Y-81446666D01*
X120910952Y-81494285D01*
X120958571Y-81541904D01*
X121006190Y-81637142D01*
X121006190Y-82018095D01*
X120482380Y-80589523D02*
X120482380Y-80780000D01*
X120530000Y-80875238D01*
X120577619Y-80922857D01*
X120720476Y-81018095D01*
X120910952Y-81065714D01*
X121291904Y-81065714D01*
X121387142Y-81018095D01*
X121434761Y-80970476D01*
X121482380Y-80875238D01*
X121482380Y-80684761D01*
X121434761Y-80589523D01*
X121387142Y-80541904D01*
X121291904Y-80494285D01*
X121053809Y-80494285D01*
X120958571Y-80541904D01*
X120910952Y-80589523D01*
X120863333Y-80684761D01*
X120863333Y-80875238D01*
X120910952Y-80970476D01*
X120958571Y-81018095D01*
X121053809Y-81065714D01*
X144342380Y-118920666D02*
X143866190Y-119254000D01*
X144342380Y-119492095D02*
X143342380Y-119492095D01*
X143342380Y-119111142D01*
X143390000Y-119015904D01*
X143437619Y-118968285D01*
X143532857Y-118920666D01*
X143675714Y-118920666D01*
X143770952Y-118968285D01*
X143818571Y-119015904D01*
X143866190Y-119111142D01*
X143866190Y-119492095D01*
X143342380Y-118587333D02*
X143342380Y-117920666D01*
X144342380Y-118349238D01*
X136978380Y-119165666D02*
X136502190Y-119499000D01*
X136978380Y-119737095D02*
X135978380Y-119737095D01*
X135978380Y-119356142D01*
X136026000Y-119260904D01*
X136073619Y-119213285D01*
X136168857Y-119165666D01*
X136311714Y-119165666D01*
X136406952Y-119213285D01*
X136454571Y-119260904D01*
X136502190Y-119356142D01*
X136502190Y-119737095D01*
X136406952Y-118594238D02*
X136359333Y-118689476D01*
X136311714Y-118737095D01*
X136216476Y-118784714D01*
X136168857Y-118784714D01*
X136073619Y-118737095D01*
X136026000Y-118689476D01*
X135978380Y-118594238D01*
X135978380Y-118403761D01*
X136026000Y-118308523D01*
X136073619Y-118260904D01*
X136168857Y-118213285D01*
X136216476Y-118213285D01*
X136311714Y-118260904D01*
X136359333Y-118308523D01*
X136406952Y-118403761D01*
X136406952Y-118594238D01*
X136454571Y-118689476D01*
X136502190Y-118737095D01*
X136597428Y-118784714D01*
X136787904Y-118784714D01*
X136883142Y-118737095D01*
X136930761Y-118689476D01*
X136978380Y-118594238D01*
X136978380Y-118403761D01*
X136930761Y-118308523D01*
X136883142Y-118260904D01*
X136787904Y-118213285D01*
X136597428Y-118213285D01*
X136502190Y-118260904D01*
X136454571Y-118308523D01*
X136406952Y-118403761D01*
X146382333Y-77034380D02*
X146049000Y-76558190D01*
X145810904Y-77034380D02*
X145810904Y-76034380D01*
X146191857Y-76034380D01*
X146287095Y-76082000D01*
X146334714Y-76129619D01*
X146382333Y-76224857D01*
X146382333Y-76367714D01*
X146334714Y-76462952D01*
X146287095Y-76510571D01*
X146191857Y-76558190D01*
X145810904Y-76558190D01*
X146858523Y-77034380D02*
X147049000Y-77034380D01*
X147144238Y-76986761D01*
X147191857Y-76939142D01*
X147287095Y-76796285D01*
X147334714Y-76605809D01*
X147334714Y-76224857D01*
X147287095Y-76129619D01*
X147239476Y-76082000D01*
X147144238Y-76034380D01*
X146953761Y-76034380D01*
X146858523Y-76082000D01*
X146810904Y-76129619D01*
X146763285Y-76224857D01*
X146763285Y-76462952D01*
X146810904Y-76558190D01*
X146858523Y-76605809D01*
X146953761Y-76653428D01*
X147144238Y-76653428D01*
X147239476Y-76605809D01*
X147287095Y-76558190D01*
X147334714Y-76462952D01*
X122566666Y-120578761D02*
X122709523Y-120626380D01*
X122947619Y-120626380D01*
X123042857Y-120578761D01*
X123090476Y-120531142D01*
X123138095Y-120435904D01*
X123138095Y-120340666D01*
X123090476Y-120245428D01*
X123042857Y-120197809D01*
X122947619Y-120150190D01*
X122757142Y-120102571D01*
X122661904Y-120054952D01*
X122614285Y-120007333D01*
X122566666Y-119912095D01*
X122566666Y-119816857D01*
X122614285Y-119721619D01*
X122661904Y-119674000D01*
X122757142Y-119626380D01*
X122995238Y-119626380D01*
X123138095Y-119674000D01*
X123471428Y-119626380D02*
X123709523Y-120626380D01*
X123900000Y-119912095D01*
X124090476Y-120626380D01*
X124328571Y-119626380D01*
X125233333Y-120626380D02*
X124661904Y-120626380D01*
X124947619Y-120626380D02*
X124947619Y-119626380D01*
X124852380Y-119769238D01*
X124757142Y-119864476D01*
X124661904Y-119912095D01*
X122312666Y-130484761D02*
X122455523Y-130532380D01*
X122693619Y-130532380D01*
X122788857Y-130484761D01*
X122836476Y-130437142D01*
X122884095Y-130341904D01*
X122884095Y-130246666D01*
X122836476Y-130151428D01*
X122788857Y-130103809D01*
X122693619Y-130056190D01*
X122503142Y-130008571D01*
X122407904Y-129960952D01*
X122360285Y-129913333D01*
X122312666Y-129818095D01*
X122312666Y-129722857D01*
X122360285Y-129627619D01*
X122407904Y-129580000D01*
X122503142Y-129532380D01*
X122741238Y-129532380D01*
X122884095Y-129580000D01*
X123217428Y-129532380D02*
X123455523Y-130532380D01*
X123646000Y-129818095D01*
X123836476Y-130532380D01*
X124074571Y-129532380D01*
X124407904Y-129627619D02*
X124455523Y-129580000D01*
X124550761Y-129532380D01*
X124788857Y-129532380D01*
X124884095Y-129580000D01*
X124931714Y-129627619D01*
X124979333Y-129722857D01*
X124979333Y-129818095D01*
X124931714Y-129960952D01*
X124360285Y-130532380D01*
X124979333Y-130532380D01*
X121296666Y-84256761D02*
X121439523Y-84304380D01*
X121677619Y-84304380D01*
X121772857Y-84256761D01*
X121820476Y-84209142D01*
X121868095Y-84113904D01*
X121868095Y-84018666D01*
X121820476Y-83923428D01*
X121772857Y-83875809D01*
X121677619Y-83828190D01*
X121487142Y-83780571D01*
X121391904Y-83732952D01*
X121344285Y-83685333D01*
X121296666Y-83590095D01*
X121296666Y-83494857D01*
X121344285Y-83399619D01*
X121391904Y-83352000D01*
X121487142Y-83304380D01*
X121725238Y-83304380D01*
X121868095Y-83352000D01*
X122201428Y-83304380D02*
X122439523Y-84304380D01*
X122630000Y-83590095D01*
X122820476Y-84304380D01*
X123058571Y-83304380D01*
X123344285Y-83304380D02*
X123963333Y-83304380D01*
X123630000Y-83685333D01*
X123772857Y-83685333D01*
X123868095Y-83732952D01*
X123915714Y-83780571D01*
X123963333Y-83875809D01*
X123963333Y-84113904D01*
X123915714Y-84209142D01*
X123868095Y-84256761D01*
X123772857Y-84304380D01*
X123487142Y-84304380D01*
X123391904Y-84256761D01*
X123344285Y-84209142D01*
X122682095Y-115828380D02*
X122682095Y-116637904D01*
X122729714Y-116733142D01*
X122777333Y-116780761D01*
X122872571Y-116828380D01*
X123063047Y-116828380D01*
X123158285Y-116780761D01*
X123205904Y-116733142D01*
X123253523Y-116637904D01*
X123253523Y-115828380D01*
X124253523Y-116828380D02*
X123682095Y-116828380D01*
X123967809Y-116828380D02*
X123967809Y-115828380D01*
X123872571Y-115971238D01*
X123777333Y-116066476D01*
X123682095Y-116114095D01*
X190912761Y-77549619D02*
X190817523Y-77502000D01*
X190722285Y-77406761D01*
X190579428Y-77263904D01*
X190484190Y-77216285D01*
X190388952Y-77216285D01*
X190436571Y-77454380D02*
X190341333Y-77406761D01*
X190246095Y-77311523D01*
X190198476Y-77121047D01*
X190198476Y-76787714D01*
X190246095Y-76597238D01*
X190341333Y-76502000D01*
X190436571Y-76454380D01*
X190627047Y-76454380D01*
X190722285Y-76502000D01*
X190817523Y-76597238D01*
X190865142Y-76787714D01*
X190865142Y-77121047D01*
X190817523Y-77311523D01*
X190722285Y-77406761D01*
X190627047Y-77454380D01*
X190436571Y-77454380D01*
X191817523Y-77454380D02*
X191246095Y-77454380D01*
X191531809Y-77454380D02*
X191531809Y-76454380D01*
X191436571Y-76597238D01*
X191341333Y-76692476D01*
X191246095Y-76740095D01*
X190912761Y-84661619D02*
X190817523Y-84614000D01*
X190722285Y-84518761D01*
X190579428Y-84375904D01*
X190484190Y-84328285D01*
X190388952Y-84328285D01*
X190436571Y-84566380D02*
X190341333Y-84518761D01*
X190246095Y-84423523D01*
X190198476Y-84233047D01*
X190198476Y-83899714D01*
X190246095Y-83709238D01*
X190341333Y-83614000D01*
X190436571Y-83566380D01*
X190627047Y-83566380D01*
X190722285Y-83614000D01*
X190817523Y-83709238D01*
X190865142Y-83899714D01*
X190865142Y-84233047D01*
X190817523Y-84423523D01*
X190722285Y-84518761D01*
X190627047Y-84566380D01*
X190436571Y-84566380D01*
X191246095Y-83661619D02*
X191293714Y-83614000D01*
X191388952Y-83566380D01*
X191627047Y-83566380D01*
X191722285Y-83614000D01*
X191769904Y-83661619D01*
X191817523Y-83756857D01*
X191817523Y-83852095D01*
X191769904Y-83994952D01*
X191198476Y-84566380D01*
X191817523Y-84566380D01*
X180156380Y-80144857D02*
X179680190Y-80478190D01*
X180156380Y-80716285D02*
X179156380Y-80716285D01*
X179156380Y-80335333D01*
X179204000Y-80240095D01*
X179251619Y-80192476D01*
X179346857Y-80144857D01*
X179489714Y-80144857D01*
X179584952Y-80192476D01*
X179632571Y-80240095D01*
X179680190Y-80335333D01*
X179680190Y-80716285D01*
X180156380Y-79192476D02*
X180156380Y-79763904D01*
X180156380Y-79478190D02*
X179156380Y-79478190D01*
X179299238Y-79573428D01*
X179394476Y-79668666D01*
X179442095Y-79763904D01*
X179156380Y-78573428D02*
X179156380Y-78478190D01*
X179204000Y-78382952D01*
X179251619Y-78335333D01*
X179346857Y-78287714D01*
X179537333Y-78240095D01*
X179775428Y-78240095D01*
X179965904Y-78287714D01*
X180061142Y-78335333D01*
X180108761Y-78382952D01*
X180156380Y-78478190D01*
X180156380Y-78573428D01*
X180108761Y-78668666D01*
X180061142Y-78716285D01*
X179965904Y-78763904D01*
X179775428Y-78811523D01*
X179537333Y-78811523D01*
X179346857Y-78763904D01*
X179251619Y-78716285D01*
X179204000Y-78668666D01*
X179156380Y-78573428D01*
X181680380Y-87256857D02*
X181204190Y-87590190D01*
X181680380Y-87828285D02*
X180680380Y-87828285D01*
X180680380Y-87447333D01*
X180728000Y-87352095D01*
X180775619Y-87304476D01*
X180870857Y-87256857D01*
X181013714Y-87256857D01*
X181108952Y-87304476D01*
X181156571Y-87352095D01*
X181204190Y-87447333D01*
X181204190Y-87828285D01*
X181680380Y-86304476D02*
X181680380Y-86875904D01*
X181680380Y-86590190D02*
X180680380Y-86590190D01*
X180823238Y-86685428D01*
X180918476Y-86780666D01*
X180966095Y-86875904D01*
X181680380Y-85352095D02*
X181680380Y-85923523D01*
X181680380Y-85637809D02*
X180680380Y-85637809D01*
X180823238Y-85733047D01*
X180918476Y-85828285D01*
X180966095Y-85923523D01*
X182952380Y-80407857D02*
X182476190Y-80741190D01*
X182952380Y-80979285D02*
X181952380Y-80979285D01*
X181952380Y-80598333D01*
X182000000Y-80503095D01*
X182047619Y-80455476D01*
X182142857Y-80407857D01*
X182285714Y-80407857D01*
X182380952Y-80455476D01*
X182428571Y-80503095D01*
X182476190Y-80598333D01*
X182476190Y-80979285D01*
X182952380Y-79455476D02*
X182952380Y-80026904D01*
X182952380Y-79741190D02*
X181952380Y-79741190D01*
X182095238Y-79836428D01*
X182190476Y-79931666D01*
X182238095Y-80026904D01*
X182047619Y-79074523D02*
X182000000Y-79026904D01*
X181952380Y-78931666D01*
X181952380Y-78693571D01*
X182000000Y-78598333D01*
X182047619Y-78550714D01*
X182142857Y-78503095D01*
X182238095Y-78503095D01*
X182380952Y-78550714D01*
X182952380Y-79122142D01*
X182952380Y-78503095D01*
X194175142Y-92528380D02*
X193841809Y-92052190D01*
X193603714Y-92528380D02*
X193603714Y-91528380D01*
X193984666Y-91528380D01*
X194079904Y-91576000D01*
X194127523Y-91623619D01*
X194175142Y-91718857D01*
X194175142Y-91861714D01*
X194127523Y-91956952D01*
X194079904Y-92004571D01*
X193984666Y-92052190D01*
X193603714Y-92052190D01*
X195127523Y-92528380D02*
X194556095Y-92528380D01*
X194841809Y-92528380D02*
X194841809Y-91528380D01*
X194746571Y-91671238D01*
X194651333Y-91766476D01*
X194556095Y-91814095D01*
X195460857Y-91528380D02*
X196079904Y-91528380D01*
X195746571Y-91909333D01*
X195889428Y-91909333D01*
X195984666Y-91956952D01*
X196032285Y-92004571D01*
X196079904Y-92099809D01*
X196079904Y-92337904D01*
X196032285Y-92433142D01*
X195984666Y-92480761D01*
X195889428Y-92528380D01*
X195603714Y-92528380D01*
X195508476Y-92480761D01*
X195460857Y-92433142D01*
X152570380Y-139525333D02*
X153284666Y-139525333D01*
X153427523Y-139572952D01*
X153522761Y-139668190D01*
X153570380Y-139811047D01*
X153570380Y-139906285D01*
X153570380Y-138525333D02*
X153570380Y-139096761D01*
X153570380Y-138811047D02*
X152570380Y-138811047D01*
X152713238Y-138906285D01*
X152808476Y-139001523D01*
X152856095Y-139096761D01*
X108378666Y-92626380D02*
X108378666Y-93340666D01*
X108331047Y-93483523D01*
X108235809Y-93578761D01*
X108092952Y-93626380D01*
X107997714Y-93626380D01*
X108807238Y-92721619D02*
X108854857Y-92674000D01*
X108950095Y-92626380D01*
X109188190Y-92626380D01*
X109283428Y-92674000D01*
X109331047Y-92721619D01*
X109378666Y-92816857D01*
X109378666Y-92912095D01*
X109331047Y-93054952D01*
X108759619Y-93626380D01*
X109378666Y-93626380D01*
X180260666Y-96944380D02*
X180260666Y-97658666D01*
X180213047Y-97801523D01*
X180117809Y-97896761D01*
X179974952Y-97944380D01*
X179879714Y-97944380D01*
X180641619Y-96944380D02*
X181260666Y-96944380D01*
X180927333Y-97325333D01*
X181070190Y-97325333D01*
X181165428Y-97372952D01*
X181213047Y-97420571D01*
X181260666Y-97515809D01*
X181260666Y-97753904D01*
X181213047Y-97849142D01*
X181165428Y-97896761D01*
X181070190Y-97944380D01*
X180784476Y-97944380D01*
X180689238Y-97896761D01*
X180641619Y-97849142D01*
X198216333Y-98021142D02*
X198168714Y-98068761D01*
X198025857Y-98116380D01*
X197930619Y-98116380D01*
X197787761Y-98068761D01*
X197692523Y-97973523D01*
X197644904Y-97878285D01*
X197597285Y-97687809D01*
X197597285Y-97544952D01*
X197644904Y-97354476D01*
X197692523Y-97259238D01*
X197787761Y-97164000D01*
X197930619Y-97116380D01*
X198025857Y-97116380D01*
X198168714Y-97164000D01*
X198216333Y-97211619D01*
X199073476Y-97449714D02*
X199073476Y-98116380D01*
X198835380Y-97068761D02*
X198597285Y-97783047D01*
X199216333Y-97783047D01*
X135044380Y-56721333D02*
X135758666Y-56721333D01*
X135901523Y-56768952D01*
X135996761Y-56864190D01*
X136044380Y-57007047D01*
X136044380Y-57102285D01*
X135377714Y-55816571D02*
X136044380Y-55816571D01*
X134996761Y-56054666D02*
X135711047Y-56292761D01*
X135711047Y-55673714D01*
D14*
X137293047Y-62417476D02*
X137172095Y-62357000D01*
X137051142Y-62236047D01*
X136869714Y-62054619D01*
X136748761Y-61994142D01*
X136627809Y-61994142D01*
X136688285Y-62296523D02*
X136567333Y-62236047D01*
X136446380Y-62115095D01*
X136385904Y-61873190D01*
X136385904Y-61449857D01*
X136446380Y-61207952D01*
X136567333Y-61087000D01*
X136688285Y-61026523D01*
X136930190Y-61026523D01*
X137051142Y-61087000D01*
X137172095Y-61207952D01*
X137232571Y-61449857D01*
X137232571Y-61873190D01*
X137172095Y-62115095D01*
X137051142Y-62236047D01*
X136930190Y-62296523D01*
X136688285Y-62296523D01*
X137655904Y-61026523D02*
X138442095Y-61026523D01*
X138018761Y-61510333D01*
X138200190Y-61510333D01*
X138321142Y-61570809D01*
X138381619Y-61631285D01*
X138442095Y-61752238D01*
X138442095Y-62054619D01*
X138381619Y-62175571D01*
X138321142Y-62236047D01*
X138200190Y-62296523D01*
X137837333Y-62296523D01*
X137716380Y-62236047D01*
X137655904Y-62175571D01*
X147453047Y-62417476D02*
X147332095Y-62357000D01*
X147211142Y-62236047D01*
X147029714Y-62054619D01*
X146908761Y-61994142D01*
X146787809Y-61994142D01*
X146848285Y-62296523D02*
X146727333Y-62236047D01*
X146606380Y-62115095D01*
X146545904Y-61873190D01*
X146545904Y-61449857D01*
X146606380Y-61207952D01*
X146727333Y-61087000D01*
X146848285Y-61026523D01*
X147090190Y-61026523D01*
X147211142Y-61087000D01*
X147332095Y-61207952D01*
X147392571Y-61449857D01*
X147392571Y-61873190D01*
X147332095Y-62115095D01*
X147211142Y-62236047D01*
X147090190Y-62296523D01*
X146848285Y-62296523D01*
X148481142Y-61449857D02*
X148481142Y-62296523D01*
X148178761Y-60966047D02*
X147876380Y-61873190D01*
X148662571Y-61873190D01*
D10*
X199001142Y-96844380D02*
X198667809Y-96368190D01*
X198429714Y-96844380D02*
X198429714Y-95844380D01*
X198810666Y-95844380D01*
X198905904Y-95892000D01*
X198953523Y-95939619D01*
X199001142Y-96034857D01*
X199001142Y-96177714D01*
X198953523Y-96272952D01*
X198905904Y-96320571D01*
X198810666Y-96368190D01*
X198429714Y-96368190D01*
X199953523Y-96844380D02*
X199382095Y-96844380D01*
X199667809Y-96844380D02*
X199667809Y-95844380D01*
X199572571Y-95987238D01*
X199477333Y-96082476D01*
X199382095Y-96130095D01*
X200810666Y-96177714D02*
X200810666Y-96844380D01*
X200572571Y-95796761D02*
X200334476Y-96511047D01*
X200953523Y-96511047D01*
X146414142Y-68398380D02*
X146080809Y-67922190D01*
X145842714Y-68398380D02*
X145842714Y-67398380D01*
X146223666Y-67398380D01*
X146318904Y-67446000D01*
X146366523Y-67493619D01*
X146414142Y-67588857D01*
X146414142Y-67731714D01*
X146366523Y-67826952D01*
X146318904Y-67874571D01*
X146223666Y-67922190D01*
X145842714Y-67922190D01*
X147366523Y-68398380D02*
X146795095Y-68398380D01*
X147080809Y-68398380D02*
X147080809Y-67398380D01*
X146985571Y-67541238D01*
X146890333Y-67636476D01*
X146795095Y-67684095D01*
X148271285Y-67398380D02*
X147795095Y-67398380D01*
X147747476Y-67874571D01*
X147795095Y-67826952D01*
X147890333Y-67779333D01*
X148128428Y-67779333D01*
X148223666Y-67826952D01*
X148271285Y-67874571D01*
X148318904Y-67969809D01*
X148318904Y-68207904D01*
X148271285Y-68303142D01*
X148223666Y-68350761D01*
X148128428Y-68398380D01*
X147890333Y-68398380D01*
X147795095Y-68350761D01*
X147747476Y-68303142D01*
X138540142Y-68144380D02*
X138206809Y-67668190D01*
X137968714Y-68144380D02*
X137968714Y-67144380D01*
X138349666Y-67144380D01*
X138444904Y-67192000D01*
X138492523Y-67239619D01*
X138540142Y-67334857D01*
X138540142Y-67477714D01*
X138492523Y-67572952D01*
X138444904Y-67620571D01*
X138349666Y-67668190D01*
X137968714Y-67668190D01*
X139492523Y-68144380D02*
X138921095Y-68144380D01*
X139206809Y-68144380D02*
X139206809Y-67144380D01*
X139111571Y-67287238D01*
X139016333Y-67382476D01*
X138921095Y-67430095D01*
X140349666Y-67144380D02*
X140159190Y-67144380D01*
X140063952Y-67192000D01*
X140016333Y-67239619D01*
X139921095Y-67382476D01*
X139873476Y-67572952D01*
X139873476Y-67953904D01*
X139921095Y-68049142D01*
X139968714Y-68096761D01*
X140063952Y-68144380D01*
X140254428Y-68144380D01*
X140349666Y-68096761D01*
X140397285Y-68049142D01*
X140444904Y-67953904D01*
X140444904Y-67715809D01*
X140397285Y-67620571D01*
X140349666Y-67572952D01*
X140254428Y-67525333D01*
X140063952Y-67525333D01*
X139968714Y-67572952D01*
X139921095Y-67620571D01*
X139873476Y-67715809D01*
X187694666Y-95686761D02*
X187837523Y-95734380D01*
X188075619Y-95734380D01*
X188170857Y-95686761D01*
X188218476Y-95639142D01*
X188266095Y-95543904D01*
X188266095Y-95448666D01*
X188218476Y-95353428D01*
X188170857Y-95305809D01*
X188075619Y-95258190D01*
X187885142Y-95210571D01*
X187789904Y-95162952D01*
X187742285Y-95115333D01*
X187694666Y-95020095D01*
X187694666Y-94924857D01*
X187742285Y-94829619D01*
X187789904Y-94782000D01*
X187885142Y-94734380D01*
X188123238Y-94734380D01*
X188266095Y-94782000D01*
X188599428Y-94734380D02*
X188837523Y-95734380D01*
X189028000Y-95020095D01*
X189218476Y-95734380D01*
X189456571Y-94734380D01*
X190266095Y-95067714D02*
X190266095Y-95734380D01*
X190028000Y-94686761D02*
X189789904Y-95401047D01*
X190408952Y-95401047D01*
M02*
