M48
; DRILL file {KiCad (5.1.5)-3} date 3/10/2022 8:19:12 PM
; FORMAT={-:-/ absolute / inch / decimal}
; #@! TF.CreationDate,2022-03-10T20:19:12-05:00
; #@! TF.GenerationSoftware,Kicad,Pcbnew,(5.1.5)-3
FMAT,2
INCH
T1C0.0150
T2C0.0315
T3C0.0335
T4C0.0394
T5C0.0433
T6C0.0743
T7C0.0866
T8C0.1260
%
G90
G05
T1
X4.945Y-4.59
X5.06Y-3.3
X5.12Y-3.21
X5.135Y-4.005
X5.27Y-4.01
X5.27Y-4.065
X5.295Y-3.725
X5.33Y-3.955
X5.365Y-4.255
X5.37Y-3.27
X5.37Y-3.86
X5.375Y-3.78
X5.385Y-3.655
X5.39Y-3.42
X5.3907Y-3.6946
X5.415Y-3.775
X5.45Y-2.94
X5.515Y-4.555
X5.53Y-2.59
X5.595Y-4.515
X5.64Y-2.74
X5.67Y-4.44
X5.7Y-4.38
X5.78Y-4.61
X5.83Y-4.61
X5.86Y-4.78
X5.95Y-2.52
X6.0Y-4.95
X6.25Y-3.02
X6.28Y-3.1
X6.28Y-5.14
X6.3228Y-4.5628
X6.35Y-4.21
X6.39Y-3.4
X6.39Y-3.75
X6.415Y-4.075
X6.42Y-4.01
X6.42Y-4.18
X6.425Y-5.005
X6.43Y-3.71
X6.43Y-4.42
X6.43Y-4.5
X6.46Y-3.65
X6.46Y-5.09
X6.51Y-3.65
X6.53Y-4.5
X6.54Y-4.79
X6.545Y-4.61
X6.56Y-5.08
X6.59Y-4.165
X6.59Y-4.37
X6.68Y-3.905
X6.7Y-2.88
X6.7Y-3.55
X6.77Y-3.09
X6.88Y-3.55
X6.9Y-3.45
X7.01Y-3.28
X7.19Y-3.27
X7.25Y-3.32
X7.25Y-3.54
X7.39Y-3.27
X7.58Y-3.27
X7.59Y-3.58
X7.64Y-3.13
X7.72Y-3.36
X7.76Y-3.13
T2
X4.71Y-3.89
X4.71Y-3.99
X4.71Y-4.09
X4.71Y-4.19
X4.71Y-4.29
X4.71Y-4.39
X4.71Y-4.49
X5.01Y-3.89
X5.01Y-3.99
X5.01Y-4.09
X5.01Y-4.19
X5.01Y-4.29
X5.01Y-4.39
X5.01Y-4.49
T3
X5.73Y-5.2166
X5.73Y-5.4134
T4
X5.43Y-2.22
X5.53Y-2.22
X5.63Y-2.22
X5.73Y-2.22
X5.83Y-2.22
X5.93Y-2.22
X6.03Y-2.22
X7.92Y-3.13
X7.92Y-3.23
X7.92Y-3.33
X7.92Y-3.43
X4.28Y-3.76
X4.28Y-3.86
X4.28Y-3.96
X4.28Y-4.06
X4.28Y-4.16
X6.85Y-4.58
X6.85Y-4.68
X6.85Y-4.78
X6.85Y-4.88
X6.85Y-4.98
X6.85Y-5.08
X6.85Y-5.18
X6.85Y-5.28
X6.85Y-5.38
X7.8528Y-4.58
X7.8528Y-4.68
X7.8528Y-4.78
X7.8528Y-4.88
X7.8528Y-4.98
X6.27Y-2.88
X6.37Y-2.88
X6.47Y-2.88
X6.12Y-5.48
X6.22Y-5.48
X6.32Y-5.48
X6.42Y-5.48
X6.52Y-5.48
X6.62Y-5.48
X7.11Y-3.93
X7.11Y-4.03
X7.11Y-4.13
X7.11Y-4.23
T5
X4.74Y-5.2
X4.74Y-5.3772
X4.9959Y-5.2
X4.9959Y-5.3772
X4.7Y-3.38
X4.7Y-3.5572
X4.9559Y-3.38
X4.9559Y-3.5572
X4.75Y-4.81
X4.75Y-4.9872
X5.0059Y-4.81
X5.0059Y-4.9872
X7.3141Y-3.83
X7.3141Y-4.0072
X7.57Y-3.83
X7.57Y-4.0072
T6
X4.865Y-2.8119
X5.05Y-2.6938
X5.05Y-2.93
T7
X5.05Y-2.5166
T8
X4.23Y-2.25
X7.8Y-2.27
X7.8Y-4.26
X4.19Y-5.41
T0
M30
