G04 #@! TF.GenerationSoftware,KiCad,Pcbnew,(5.1.5)-3*
G04 #@! TF.CreationDate,2022-03-10T20:17:20-05:00*
G04 #@! TF.ProjectId,supervisor,73757065-7276-4697-936f-722e6b696361,rev?*
G04 #@! TF.SameCoordinates,Original*
G04 #@! TF.FileFunction,Soldermask,Bot*
G04 #@! TF.FilePolarity,Negative*
%FSLAX46Y46*%
G04 Gerber Fmt 4.6, Leading zero omitted, Abs format (unit mm)*
G04 Created by KiCad (PCBNEW (5.1.5)-3) date 2022-03-10 20:17:20*
%MOMM*%
%LPD*%
G04 APERTURE LIST*
%ADD10C,0.100000*%
G04 APERTURE END LIST*
D10*
G36*
X156348800Y-140092800D02*
G01*
X154547200Y-140092800D01*
X154547200Y-138291200D01*
X156348800Y-138291200D01*
X156348800Y-140092800D01*
G37*
G36*
X168410754Y-138325817D02*
G01*
X168574689Y-138393721D01*
X168722227Y-138492303D01*
X168847697Y-138617773D01*
X168946279Y-138765311D01*
X169014183Y-138929246D01*
X169048800Y-139103279D01*
X169048800Y-139280721D01*
X169014183Y-139454754D01*
X168946279Y-139618689D01*
X168847697Y-139766227D01*
X168722227Y-139891697D01*
X168574689Y-139990279D01*
X168410754Y-140058183D01*
X168236721Y-140092800D01*
X168059279Y-140092800D01*
X167885246Y-140058183D01*
X167721311Y-139990279D01*
X167573773Y-139891697D01*
X167448303Y-139766227D01*
X167349721Y-139618689D01*
X167281817Y-139454754D01*
X167247200Y-139280721D01*
X167247200Y-139103279D01*
X167281817Y-138929246D01*
X167349721Y-138765311D01*
X167448303Y-138617773D01*
X167573773Y-138492303D01*
X167721311Y-138393721D01*
X167885246Y-138325817D01*
X168059279Y-138291200D01*
X168236721Y-138291200D01*
X168410754Y-138325817D01*
G37*
G36*
X165870754Y-138325817D02*
G01*
X166034689Y-138393721D01*
X166182227Y-138492303D01*
X166307697Y-138617773D01*
X166406279Y-138765311D01*
X166474183Y-138929246D01*
X166508800Y-139103279D01*
X166508800Y-139280721D01*
X166474183Y-139454754D01*
X166406279Y-139618689D01*
X166307697Y-139766227D01*
X166182227Y-139891697D01*
X166034689Y-139990279D01*
X165870754Y-140058183D01*
X165696721Y-140092800D01*
X165519279Y-140092800D01*
X165345246Y-140058183D01*
X165181311Y-139990279D01*
X165033773Y-139891697D01*
X164908303Y-139766227D01*
X164809721Y-139618689D01*
X164741817Y-139454754D01*
X164707200Y-139280721D01*
X164707200Y-139103279D01*
X164741817Y-138929246D01*
X164809721Y-138765311D01*
X164908303Y-138617773D01*
X165033773Y-138492303D01*
X165181311Y-138393721D01*
X165345246Y-138325817D01*
X165519279Y-138291200D01*
X165696721Y-138291200D01*
X165870754Y-138325817D01*
G37*
G36*
X163330754Y-138325817D02*
G01*
X163494689Y-138393721D01*
X163642227Y-138492303D01*
X163767697Y-138617773D01*
X163866279Y-138765311D01*
X163934183Y-138929246D01*
X163968800Y-139103279D01*
X163968800Y-139280721D01*
X163934183Y-139454754D01*
X163866279Y-139618689D01*
X163767697Y-139766227D01*
X163642227Y-139891697D01*
X163494689Y-139990279D01*
X163330754Y-140058183D01*
X163156721Y-140092800D01*
X162979279Y-140092800D01*
X162805246Y-140058183D01*
X162641311Y-139990279D01*
X162493773Y-139891697D01*
X162368303Y-139766227D01*
X162269721Y-139618689D01*
X162201817Y-139454754D01*
X162167200Y-139280721D01*
X162167200Y-139103279D01*
X162201817Y-138929246D01*
X162269721Y-138765311D01*
X162368303Y-138617773D01*
X162493773Y-138492303D01*
X162641311Y-138393721D01*
X162805246Y-138325817D01*
X162979279Y-138291200D01*
X163156721Y-138291200D01*
X163330754Y-138325817D01*
G37*
G36*
X158250754Y-138325817D02*
G01*
X158414689Y-138393721D01*
X158562227Y-138492303D01*
X158687697Y-138617773D01*
X158786279Y-138765311D01*
X158854183Y-138929246D01*
X158888800Y-139103279D01*
X158888800Y-139280721D01*
X158854183Y-139454754D01*
X158786279Y-139618689D01*
X158687697Y-139766227D01*
X158562227Y-139891697D01*
X158414689Y-139990279D01*
X158250754Y-140058183D01*
X158076721Y-140092800D01*
X157899279Y-140092800D01*
X157725246Y-140058183D01*
X157561311Y-139990279D01*
X157413773Y-139891697D01*
X157288303Y-139766227D01*
X157189721Y-139618689D01*
X157121817Y-139454754D01*
X157087200Y-139280721D01*
X157087200Y-139103279D01*
X157121817Y-138929246D01*
X157189721Y-138765311D01*
X157288303Y-138617773D01*
X157413773Y-138492303D01*
X157561311Y-138393721D01*
X157725246Y-138325817D01*
X157899279Y-138291200D01*
X158076721Y-138291200D01*
X158250754Y-138325817D01*
G37*
G36*
X160790754Y-138325817D02*
G01*
X160954689Y-138393721D01*
X161102227Y-138492303D01*
X161227697Y-138617773D01*
X161326279Y-138765311D01*
X161394183Y-138929246D01*
X161428800Y-139103279D01*
X161428800Y-139280721D01*
X161394183Y-139454754D01*
X161326279Y-139618689D01*
X161227697Y-139766227D01*
X161102227Y-139891697D01*
X160954689Y-139990279D01*
X160790754Y-140058183D01*
X160616721Y-140092800D01*
X160439279Y-140092800D01*
X160265246Y-140058183D01*
X160101311Y-139990279D01*
X159953773Y-139891697D01*
X159828303Y-139766227D01*
X159729721Y-139618689D01*
X159661817Y-139454754D01*
X159627200Y-139280721D01*
X159627200Y-139103279D01*
X159661817Y-138929246D01*
X159729721Y-138765311D01*
X159828303Y-138617773D01*
X159953773Y-138492303D01*
X160101311Y-138393721D01*
X160265246Y-138325817D01*
X160439279Y-138291200D01*
X160616721Y-138291200D01*
X160790754Y-138325817D01*
G37*
G36*
X106907521Y-135826639D02*
G01*
X107207947Y-135951080D01*
X107478324Y-136131740D01*
X107708260Y-136361676D01*
X107888920Y-136632053D01*
X108013361Y-136932479D01*
X108076800Y-137251410D01*
X108076800Y-137576590D01*
X108013361Y-137895521D01*
X107888920Y-138195947D01*
X107708260Y-138466324D01*
X107478324Y-138696260D01*
X107207947Y-138876920D01*
X106907521Y-139001361D01*
X106588590Y-139064800D01*
X106263410Y-139064800D01*
X105944479Y-139001361D01*
X105644053Y-138876920D01*
X105373676Y-138696260D01*
X105143740Y-138466324D01*
X104963080Y-138195947D01*
X104838639Y-137895521D01*
X104775200Y-137576590D01*
X104775200Y-137251410D01*
X104838639Y-136932479D01*
X104963080Y-136632053D01*
X105143740Y-136361676D01*
X105373676Y-136131740D01*
X105644053Y-135951080D01*
X105944479Y-135826639D01*
X106263410Y-135763200D01*
X106588590Y-135763200D01*
X106907521Y-135826639D01*
G37*
G36*
X145753709Y-136803092D02*
G01*
X145885795Y-136857804D01*
X146004671Y-136937234D01*
X146105766Y-137038329D01*
X146185196Y-137157205D01*
X146239908Y-137289291D01*
X146267800Y-137429515D01*
X146267800Y-137572485D01*
X146239908Y-137712709D01*
X146185196Y-137844795D01*
X146105765Y-137963672D01*
X146004672Y-138064765D01*
X145885795Y-138144196D01*
X145753709Y-138198908D01*
X145613485Y-138226800D01*
X145470515Y-138226800D01*
X145330291Y-138198908D01*
X145198205Y-138144196D01*
X145079328Y-138064765D01*
X144978235Y-137963672D01*
X144898804Y-137844795D01*
X144844092Y-137712709D01*
X144816200Y-137572485D01*
X144816200Y-137429515D01*
X144844092Y-137289291D01*
X144898804Y-137157205D01*
X144978234Y-137038329D01*
X145079329Y-136937234D01*
X145198205Y-136857804D01*
X145330291Y-136803092D01*
X145470515Y-136775200D01*
X145613485Y-136775200D01*
X145753709Y-136803092D01*
G37*
G36*
X127202508Y-135569582D02*
G01*
X127393741Y-135648793D01*
X127565847Y-135763791D01*
X127712209Y-135910153D01*
X127827207Y-136082259D01*
X127906418Y-136273492D01*
X127946800Y-136476505D01*
X127946800Y-136683495D01*
X127906418Y-136886508D01*
X127827207Y-137077741D01*
X127712209Y-137249847D01*
X127565847Y-137396209D01*
X127393741Y-137511207D01*
X127202508Y-137590418D01*
X126999495Y-137630800D01*
X126792505Y-137630800D01*
X126589492Y-137590418D01*
X126398259Y-137511207D01*
X126226153Y-137396209D01*
X126079791Y-137249847D01*
X125964793Y-137077741D01*
X125885582Y-136886508D01*
X125845200Y-136683495D01*
X125845200Y-136476505D01*
X125885582Y-136273492D01*
X125964793Y-136082259D01*
X126079791Y-135910153D01*
X126226153Y-135763791D01*
X126398259Y-135648793D01*
X126589492Y-135569582D01*
X126792505Y-135529200D01*
X126999495Y-135529200D01*
X127202508Y-135569582D01*
G37*
G36*
X120702508Y-135569582D02*
G01*
X120893741Y-135648793D01*
X121065847Y-135763791D01*
X121212209Y-135910153D01*
X121327207Y-136082259D01*
X121406418Y-136273492D01*
X121446800Y-136476505D01*
X121446800Y-136683495D01*
X121406418Y-136886508D01*
X121327207Y-137077741D01*
X121212209Y-137249847D01*
X121065847Y-137396209D01*
X120893741Y-137511207D01*
X120702508Y-137590418D01*
X120499495Y-137630800D01*
X120292505Y-137630800D01*
X120089492Y-137590418D01*
X119898259Y-137511207D01*
X119726153Y-137396209D01*
X119579791Y-137249847D01*
X119464793Y-137077741D01*
X119385582Y-136886508D01*
X119345200Y-136683495D01*
X119345200Y-136476505D01*
X119385582Y-136273492D01*
X119464793Y-136082259D01*
X119579791Y-135910153D01*
X119726153Y-135763791D01*
X119898259Y-135648793D01*
X120089492Y-135569582D01*
X120292505Y-135529200D01*
X120499495Y-135529200D01*
X120702508Y-135569582D01*
G37*
G36*
X174252754Y-135785817D02*
G01*
X174416689Y-135853721D01*
X174564227Y-135952303D01*
X174689697Y-136077773D01*
X174788279Y-136225311D01*
X174856183Y-136389246D01*
X174890800Y-136563279D01*
X174890800Y-136740721D01*
X174856183Y-136914754D01*
X174788279Y-137078689D01*
X174689697Y-137226227D01*
X174564227Y-137351697D01*
X174416689Y-137450279D01*
X174252754Y-137518183D01*
X174078721Y-137552800D01*
X173901279Y-137552800D01*
X173727246Y-137518183D01*
X173563311Y-137450279D01*
X173415773Y-137351697D01*
X173290303Y-137226227D01*
X173191721Y-137078689D01*
X173123817Y-136914754D01*
X173089200Y-136740721D01*
X173089200Y-136563279D01*
X173123817Y-136389246D01*
X173191721Y-136225311D01*
X173290303Y-136077773D01*
X173415773Y-135952303D01*
X173563311Y-135853721D01*
X173727246Y-135785817D01*
X173901279Y-135751200D01*
X174078721Y-135751200D01*
X174252754Y-135785817D01*
G37*
G36*
X174252754Y-133245817D02*
G01*
X174416689Y-133313721D01*
X174564227Y-133412303D01*
X174689697Y-133537773D01*
X174788279Y-133685311D01*
X174856183Y-133849246D01*
X174890800Y-134023279D01*
X174890800Y-134200721D01*
X174856183Y-134374754D01*
X174788279Y-134538689D01*
X174689697Y-134686227D01*
X174564227Y-134811697D01*
X174416689Y-134910279D01*
X174252754Y-134978183D01*
X174078721Y-135012800D01*
X173901279Y-135012800D01*
X173727246Y-134978183D01*
X173563311Y-134910279D01*
X173415773Y-134811697D01*
X173290303Y-134686227D01*
X173191721Y-134538689D01*
X173123817Y-134374754D01*
X173089200Y-134200721D01*
X173089200Y-134023279D01*
X173123817Y-133849246D01*
X173191721Y-133685311D01*
X173290303Y-133537773D01*
X173415773Y-133412303D01*
X173563311Y-133313721D01*
X173727246Y-133245817D01*
X173901279Y-133211200D01*
X174078721Y-133211200D01*
X174252754Y-133245817D01*
G37*
G36*
X145753709Y-131803092D02*
G01*
X145885795Y-131857804D01*
X146004672Y-131937235D01*
X146105765Y-132038328D01*
X146185196Y-132157205D01*
X146239908Y-132289291D01*
X146267800Y-132429515D01*
X146267800Y-132572485D01*
X146239908Y-132712709D01*
X146185196Y-132844795D01*
X146105765Y-132963672D01*
X146004672Y-133064765D01*
X145885795Y-133144196D01*
X145753709Y-133198908D01*
X145613485Y-133226800D01*
X145470515Y-133226800D01*
X145330291Y-133198908D01*
X145198205Y-133144196D01*
X145079328Y-133064765D01*
X144978235Y-132963672D01*
X144898804Y-132844795D01*
X144844092Y-132712709D01*
X144816200Y-132572485D01*
X144816200Y-132429515D01*
X144844092Y-132289291D01*
X144898804Y-132157205D01*
X144978235Y-132038328D01*
X145079328Y-131937235D01*
X145198205Y-131857804D01*
X145330291Y-131803092D01*
X145470515Y-131775200D01*
X145613485Y-131775200D01*
X145753709Y-131803092D01*
G37*
G36*
X127202508Y-131069582D02*
G01*
X127393741Y-131148793D01*
X127565847Y-131263791D01*
X127712209Y-131410153D01*
X127827207Y-131582259D01*
X127906418Y-131773492D01*
X127946800Y-131976505D01*
X127946800Y-132183495D01*
X127906418Y-132386508D01*
X127827207Y-132577741D01*
X127712209Y-132749847D01*
X127565847Y-132896209D01*
X127393741Y-133011207D01*
X127202508Y-133090418D01*
X126999495Y-133130800D01*
X126792505Y-133130800D01*
X126589492Y-133090418D01*
X126398259Y-133011207D01*
X126226153Y-132896209D01*
X126079791Y-132749847D01*
X125964793Y-132577741D01*
X125885582Y-132386508D01*
X125845200Y-132183495D01*
X125845200Y-131976505D01*
X125885582Y-131773492D01*
X125964793Y-131582259D01*
X126079791Y-131410153D01*
X126226153Y-131263791D01*
X126398259Y-131148793D01*
X126589492Y-131069582D01*
X126792505Y-131029200D01*
X126999495Y-131029200D01*
X127202508Y-131069582D01*
G37*
G36*
X120702508Y-131069582D02*
G01*
X120893741Y-131148793D01*
X121065847Y-131263791D01*
X121212209Y-131410153D01*
X121327207Y-131582259D01*
X121406418Y-131773492D01*
X121446800Y-131976505D01*
X121446800Y-132183495D01*
X121406418Y-132386508D01*
X121327207Y-132577741D01*
X121212209Y-132749847D01*
X121065847Y-132896209D01*
X120893741Y-133011207D01*
X120702508Y-133090418D01*
X120499495Y-133130800D01*
X120292505Y-133130800D01*
X120089492Y-133090418D01*
X119898259Y-133011207D01*
X119726153Y-132896209D01*
X119579791Y-132749847D01*
X119464793Y-132577741D01*
X119385582Y-132386508D01*
X119345200Y-132183495D01*
X119345200Y-131976505D01*
X119385582Y-131773492D01*
X119464793Y-131582259D01*
X119579791Y-131410153D01*
X119726153Y-131263791D01*
X119898259Y-131148793D01*
X120089492Y-131069582D01*
X120292505Y-131029200D01*
X120499495Y-131029200D01*
X120702508Y-131069582D01*
G37*
G36*
X174252754Y-130705817D02*
G01*
X174416689Y-130773721D01*
X174564227Y-130872303D01*
X174689697Y-130997773D01*
X174788279Y-131145311D01*
X174856183Y-131309246D01*
X174890800Y-131483279D01*
X174890800Y-131660721D01*
X174856183Y-131834754D01*
X174788279Y-131998689D01*
X174689697Y-132146227D01*
X174564227Y-132271697D01*
X174416689Y-132370279D01*
X174252754Y-132438183D01*
X174078721Y-132472800D01*
X173901279Y-132472800D01*
X173727246Y-132438183D01*
X173563311Y-132370279D01*
X173415773Y-132271697D01*
X173290303Y-132146227D01*
X173191721Y-131998689D01*
X173123817Y-131834754D01*
X173089200Y-131660721D01*
X173089200Y-131483279D01*
X173123817Y-131309246D01*
X173191721Y-131145311D01*
X173290303Y-130997773D01*
X173415773Y-130872303D01*
X173563311Y-130773721D01*
X173727246Y-130705817D01*
X173901279Y-130671200D01*
X174078721Y-130671200D01*
X174252754Y-130705817D01*
G37*
G36*
X174252754Y-128165817D02*
G01*
X174416689Y-128233721D01*
X174564227Y-128332303D01*
X174689697Y-128457773D01*
X174788279Y-128605311D01*
X174856183Y-128769246D01*
X174890800Y-128943279D01*
X174890800Y-129120721D01*
X174856183Y-129294754D01*
X174788279Y-129458689D01*
X174689697Y-129606227D01*
X174564227Y-129731697D01*
X174416689Y-129830279D01*
X174252754Y-129898183D01*
X174078721Y-129932800D01*
X173901279Y-129932800D01*
X173727246Y-129898183D01*
X173563311Y-129830279D01*
X173415773Y-129731697D01*
X173290303Y-129606227D01*
X173191721Y-129458689D01*
X173123817Y-129294754D01*
X173089200Y-129120721D01*
X173089200Y-128943279D01*
X173123817Y-128769246D01*
X173191721Y-128605311D01*
X173290303Y-128457773D01*
X173415773Y-128332303D01*
X173563311Y-128233721D01*
X173727246Y-128165817D01*
X173901279Y-128131200D01*
X174078721Y-128131200D01*
X174252754Y-128165817D01*
G37*
G36*
X127456508Y-125663582D02*
G01*
X127647741Y-125742793D01*
X127819847Y-125857791D01*
X127966209Y-126004153D01*
X128081207Y-126176259D01*
X128160418Y-126367492D01*
X128200800Y-126570505D01*
X128200800Y-126777495D01*
X128160418Y-126980508D01*
X128081207Y-127171741D01*
X127966209Y-127343847D01*
X127819847Y-127490209D01*
X127647741Y-127605207D01*
X127456508Y-127684418D01*
X127253495Y-127724800D01*
X127046505Y-127724800D01*
X126843492Y-127684418D01*
X126652259Y-127605207D01*
X126480153Y-127490209D01*
X126333791Y-127343847D01*
X126218793Y-127171741D01*
X126139582Y-126980508D01*
X126099200Y-126777495D01*
X126099200Y-126570505D01*
X126139582Y-126367492D01*
X126218793Y-126176259D01*
X126333791Y-126004153D01*
X126480153Y-125857791D01*
X126652259Y-125742793D01*
X126843492Y-125663582D01*
X127046505Y-125623200D01*
X127253495Y-125623200D01*
X127456508Y-125663582D01*
G37*
G36*
X120956508Y-125663582D02*
G01*
X121147741Y-125742793D01*
X121319847Y-125857791D01*
X121466209Y-126004153D01*
X121581207Y-126176259D01*
X121660418Y-126367492D01*
X121700800Y-126570505D01*
X121700800Y-126777495D01*
X121660418Y-126980508D01*
X121581207Y-127171741D01*
X121466209Y-127343847D01*
X121319847Y-127490209D01*
X121147741Y-127605207D01*
X120956508Y-127684418D01*
X120753495Y-127724800D01*
X120546505Y-127724800D01*
X120343492Y-127684418D01*
X120152259Y-127605207D01*
X119980153Y-127490209D01*
X119833791Y-127343847D01*
X119718793Y-127171741D01*
X119639582Y-126980508D01*
X119599200Y-126777495D01*
X119599200Y-126570505D01*
X119639582Y-126367492D01*
X119718793Y-126176259D01*
X119833791Y-126004153D01*
X119980153Y-125857791D01*
X120152259Y-125742793D01*
X120343492Y-125663582D01*
X120546505Y-125623200D01*
X120753495Y-125623200D01*
X120956508Y-125663582D01*
G37*
G36*
X199722754Y-125625817D02*
G01*
X199886689Y-125693721D01*
X200034227Y-125792303D01*
X200159697Y-125917773D01*
X200258279Y-126065311D01*
X200326183Y-126229246D01*
X200360800Y-126403279D01*
X200360800Y-126580721D01*
X200326183Y-126754754D01*
X200258279Y-126918689D01*
X200159697Y-127066227D01*
X200034227Y-127191697D01*
X199886689Y-127290279D01*
X199722754Y-127358183D01*
X199548721Y-127392800D01*
X199371279Y-127392800D01*
X199197246Y-127358183D01*
X199033311Y-127290279D01*
X198885773Y-127191697D01*
X198760303Y-127066227D01*
X198661721Y-126918689D01*
X198593817Y-126754754D01*
X198559200Y-126580721D01*
X198559200Y-126403279D01*
X198593817Y-126229246D01*
X198661721Y-126065311D01*
X198760303Y-125917773D01*
X198885773Y-125792303D01*
X199033311Y-125693721D01*
X199197246Y-125625817D01*
X199371279Y-125591200D01*
X199548721Y-125591200D01*
X199722754Y-125625817D01*
G37*
G36*
X174252754Y-125625817D02*
G01*
X174416689Y-125693721D01*
X174564227Y-125792303D01*
X174689697Y-125917773D01*
X174788279Y-126065311D01*
X174856183Y-126229246D01*
X174890800Y-126403279D01*
X174890800Y-126580721D01*
X174856183Y-126754754D01*
X174788279Y-126918689D01*
X174689697Y-127066227D01*
X174564227Y-127191697D01*
X174416689Y-127290279D01*
X174252754Y-127358183D01*
X174078721Y-127392800D01*
X173901279Y-127392800D01*
X173727246Y-127358183D01*
X173563311Y-127290279D01*
X173415773Y-127191697D01*
X173290303Y-127066227D01*
X173191721Y-126918689D01*
X173123817Y-126754754D01*
X173089200Y-126580721D01*
X173089200Y-126403279D01*
X173123817Y-126229246D01*
X173191721Y-126065311D01*
X173290303Y-125917773D01*
X173415773Y-125792303D01*
X173563311Y-125693721D01*
X173727246Y-125625817D01*
X173901279Y-125591200D01*
X174078721Y-125591200D01*
X174252754Y-125625817D01*
G37*
G36*
X174252754Y-123085817D02*
G01*
X174416689Y-123153721D01*
X174564227Y-123252303D01*
X174689697Y-123377773D01*
X174788279Y-123525311D01*
X174856183Y-123689246D01*
X174890800Y-123863279D01*
X174890800Y-124040721D01*
X174856183Y-124214754D01*
X174788279Y-124378689D01*
X174689697Y-124526227D01*
X174564227Y-124651697D01*
X174416689Y-124750279D01*
X174252754Y-124818183D01*
X174078721Y-124852800D01*
X173901279Y-124852800D01*
X173727246Y-124818183D01*
X173563311Y-124750279D01*
X173415773Y-124651697D01*
X173290303Y-124526227D01*
X173191721Y-124378689D01*
X173123817Y-124214754D01*
X173089200Y-124040721D01*
X173089200Y-123863279D01*
X173123817Y-123689246D01*
X173191721Y-123525311D01*
X173290303Y-123377773D01*
X173415773Y-123252303D01*
X173563311Y-123153721D01*
X173727246Y-123085817D01*
X173901279Y-123051200D01*
X174078721Y-123051200D01*
X174252754Y-123085817D01*
G37*
G36*
X199722754Y-123085817D02*
G01*
X199886689Y-123153721D01*
X200034227Y-123252303D01*
X200159697Y-123377773D01*
X200258279Y-123525311D01*
X200326183Y-123689246D01*
X200360800Y-123863279D01*
X200360800Y-124040721D01*
X200326183Y-124214754D01*
X200258279Y-124378689D01*
X200159697Y-124526227D01*
X200034227Y-124651697D01*
X199886689Y-124750279D01*
X199722754Y-124818183D01*
X199548721Y-124852800D01*
X199371279Y-124852800D01*
X199197246Y-124818183D01*
X199033311Y-124750279D01*
X198885773Y-124651697D01*
X198760303Y-124526227D01*
X198661721Y-124378689D01*
X198593817Y-124214754D01*
X198559200Y-124040721D01*
X198559200Y-123863279D01*
X198593817Y-123689246D01*
X198661721Y-123525311D01*
X198760303Y-123377773D01*
X198885773Y-123252303D01*
X199033311Y-123153721D01*
X199197246Y-123085817D01*
X199371279Y-123051200D01*
X199548721Y-123051200D01*
X199722754Y-123085817D01*
G37*
G36*
X127456508Y-121163582D02*
G01*
X127647741Y-121242793D01*
X127819847Y-121357791D01*
X127966209Y-121504153D01*
X128081207Y-121676259D01*
X128160418Y-121867492D01*
X128200800Y-122070505D01*
X128200800Y-122277495D01*
X128160418Y-122480508D01*
X128081207Y-122671741D01*
X127966209Y-122843847D01*
X127819847Y-122990209D01*
X127647741Y-123105207D01*
X127456508Y-123184418D01*
X127253495Y-123224800D01*
X127046505Y-123224800D01*
X126843492Y-123184418D01*
X126652259Y-123105207D01*
X126480153Y-122990209D01*
X126333791Y-122843847D01*
X126218793Y-122671741D01*
X126139582Y-122480508D01*
X126099200Y-122277495D01*
X126099200Y-122070505D01*
X126139582Y-121867492D01*
X126218793Y-121676259D01*
X126333791Y-121504153D01*
X126480153Y-121357791D01*
X126652259Y-121242793D01*
X126843492Y-121163582D01*
X127046505Y-121123200D01*
X127253495Y-121123200D01*
X127456508Y-121163582D01*
G37*
G36*
X120956508Y-121163582D02*
G01*
X121147741Y-121242793D01*
X121319847Y-121357791D01*
X121466209Y-121504153D01*
X121581207Y-121676259D01*
X121660418Y-121867492D01*
X121700800Y-122070505D01*
X121700800Y-122277495D01*
X121660418Y-122480508D01*
X121581207Y-122671741D01*
X121466209Y-122843847D01*
X121319847Y-122990209D01*
X121147741Y-123105207D01*
X120956508Y-123184418D01*
X120753495Y-123224800D01*
X120546505Y-123224800D01*
X120343492Y-123184418D01*
X120152259Y-123105207D01*
X119980153Y-122990209D01*
X119833791Y-122843847D01*
X119718793Y-122671741D01*
X119639582Y-122480508D01*
X119599200Y-122277495D01*
X119599200Y-122070505D01*
X119639582Y-121867492D01*
X119718793Y-121676259D01*
X119833791Y-121504153D01*
X119980153Y-121357791D01*
X120152259Y-121242793D01*
X120343492Y-121163582D01*
X120546505Y-121123200D01*
X120753495Y-121123200D01*
X120956508Y-121163582D01*
G37*
G36*
X174252754Y-120545817D02*
G01*
X174416689Y-120613721D01*
X174564227Y-120712303D01*
X174689697Y-120837773D01*
X174788279Y-120985311D01*
X174856183Y-121149246D01*
X174890800Y-121323279D01*
X174890800Y-121500721D01*
X174856183Y-121674754D01*
X174788279Y-121838689D01*
X174689697Y-121986227D01*
X174564227Y-122111697D01*
X174416689Y-122210279D01*
X174252754Y-122278183D01*
X174078721Y-122312800D01*
X173901279Y-122312800D01*
X173727246Y-122278183D01*
X173563311Y-122210279D01*
X173415773Y-122111697D01*
X173290303Y-121986227D01*
X173191721Y-121838689D01*
X173123817Y-121674754D01*
X173089200Y-121500721D01*
X173089200Y-121323279D01*
X173123817Y-121149246D01*
X173191721Y-120985311D01*
X173290303Y-120837773D01*
X173415773Y-120712303D01*
X173563311Y-120613721D01*
X173727246Y-120545817D01*
X173901279Y-120511200D01*
X174078721Y-120511200D01*
X174252754Y-120545817D01*
G37*
G36*
X199722754Y-120545817D02*
G01*
X199886689Y-120613721D01*
X200034227Y-120712303D01*
X200159697Y-120837773D01*
X200258279Y-120985311D01*
X200326183Y-121149246D01*
X200360800Y-121323279D01*
X200360800Y-121500721D01*
X200326183Y-121674754D01*
X200258279Y-121838689D01*
X200159697Y-121986227D01*
X200034227Y-122111697D01*
X199886689Y-122210279D01*
X199722754Y-122278183D01*
X199548721Y-122312800D01*
X199371279Y-122312800D01*
X199197246Y-122278183D01*
X199033311Y-122210279D01*
X198885773Y-122111697D01*
X198760303Y-121986227D01*
X198661721Y-121838689D01*
X198593817Y-121674754D01*
X198559200Y-121500721D01*
X198559200Y-121323279D01*
X198593817Y-121149246D01*
X198661721Y-120985311D01*
X198760303Y-120837773D01*
X198885773Y-120712303D01*
X199033311Y-120613721D01*
X199197246Y-120545817D01*
X199371279Y-120511200D01*
X199548721Y-120511200D01*
X199722754Y-120545817D01*
G37*
G36*
X174252754Y-118005817D02*
G01*
X174416689Y-118073721D01*
X174564227Y-118172303D01*
X174689697Y-118297773D01*
X174788279Y-118445311D01*
X174856183Y-118609246D01*
X174890800Y-118783279D01*
X174890800Y-118960721D01*
X174856183Y-119134754D01*
X174788279Y-119298689D01*
X174689697Y-119446227D01*
X174564227Y-119571697D01*
X174416689Y-119670279D01*
X174252754Y-119738183D01*
X174078721Y-119772800D01*
X173901279Y-119772800D01*
X173727246Y-119738183D01*
X173563311Y-119670279D01*
X173415773Y-119571697D01*
X173290303Y-119446227D01*
X173191721Y-119298689D01*
X173123817Y-119134754D01*
X173089200Y-118960721D01*
X173089200Y-118783279D01*
X173123817Y-118609246D01*
X173191721Y-118445311D01*
X173290303Y-118297773D01*
X173415773Y-118172303D01*
X173563311Y-118073721D01*
X173727246Y-118005817D01*
X173901279Y-117971200D01*
X174078721Y-117971200D01*
X174252754Y-118005817D01*
G37*
G36*
X199722754Y-118005817D02*
G01*
X199886689Y-118073721D01*
X200034227Y-118172303D01*
X200159697Y-118297773D01*
X200258279Y-118445311D01*
X200326183Y-118609246D01*
X200360800Y-118783279D01*
X200360800Y-118960721D01*
X200326183Y-119134754D01*
X200258279Y-119298689D01*
X200159697Y-119446227D01*
X200034227Y-119571697D01*
X199886689Y-119670279D01*
X199722754Y-119738183D01*
X199548721Y-119772800D01*
X199371279Y-119772800D01*
X199197246Y-119738183D01*
X199033311Y-119670279D01*
X198885773Y-119571697D01*
X198760303Y-119446227D01*
X198661721Y-119298689D01*
X198593817Y-119134754D01*
X198559200Y-118960721D01*
X198559200Y-118783279D01*
X198593817Y-118609246D01*
X198661721Y-118445311D01*
X198760303Y-118297773D01*
X198885773Y-118172303D01*
X199033311Y-118073721D01*
X199197246Y-118005817D01*
X199371279Y-117971200D01*
X199548721Y-117971200D01*
X199722754Y-118005817D01*
G37*
G36*
X174890800Y-117232800D02*
G01*
X173089200Y-117232800D01*
X173089200Y-115431200D01*
X174890800Y-115431200D01*
X174890800Y-117232800D01*
G37*
G36*
X200360800Y-117232800D02*
G01*
X198559200Y-117232800D01*
X198559200Y-115431200D01*
X200360800Y-115431200D01*
X200360800Y-117232800D01*
G37*
G36*
X128104800Y-114896800D02*
G01*
X126403200Y-114896800D01*
X126403200Y-113195200D01*
X128104800Y-113195200D01*
X128104800Y-114896800D01*
G37*
G36*
X119882169Y-113227895D02*
G01*
X120037005Y-113292031D01*
X120176354Y-113385140D01*
X120294860Y-113503646D01*
X120387969Y-113642995D01*
X120452105Y-113797831D01*
X120484800Y-113962203D01*
X120484800Y-114129797D01*
X120452105Y-114294169D01*
X120387969Y-114449005D01*
X120294860Y-114588354D01*
X120176354Y-114706860D01*
X120037005Y-114799969D01*
X119882169Y-114864105D01*
X119717797Y-114896800D01*
X119550203Y-114896800D01*
X119385831Y-114864105D01*
X119230995Y-114799969D01*
X119091646Y-114706860D01*
X118973140Y-114588354D01*
X118880031Y-114449005D01*
X118815895Y-114294169D01*
X118783200Y-114129797D01*
X118783200Y-113962203D01*
X118815895Y-113797831D01*
X118880031Y-113642995D01*
X118973140Y-113503646D01*
X119091646Y-113385140D01*
X119230995Y-113292031D01*
X119385831Y-113227895D01*
X119550203Y-113195200D01*
X119717797Y-113195200D01*
X119882169Y-113227895D01*
G37*
G36*
X127502169Y-110687895D02*
G01*
X127657005Y-110752031D01*
X127796354Y-110845140D01*
X127914860Y-110963646D01*
X128007969Y-111102995D01*
X128072105Y-111257831D01*
X128104800Y-111422203D01*
X128104800Y-111589797D01*
X128072105Y-111754169D01*
X128007969Y-111909005D01*
X127914860Y-112048354D01*
X127796354Y-112166860D01*
X127657005Y-112259969D01*
X127502169Y-112324105D01*
X127337797Y-112356800D01*
X127170203Y-112356800D01*
X127005831Y-112324105D01*
X126850995Y-112259969D01*
X126711646Y-112166860D01*
X126593140Y-112048354D01*
X126500031Y-111909005D01*
X126435895Y-111754169D01*
X126403200Y-111589797D01*
X126403200Y-111422203D01*
X126435895Y-111257831D01*
X126500031Y-111102995D01*
X126593140Y-110963646D01*
X126711646Y-110845140D01*
X126850995Y-110752031D01*
X127005831Y-110687895D01*
X127170203Y-110655200D01*
X127337797Y-110655200D01*
X127502169Y-110687895D01*
G37*
G36*
X119882169Y-110687895D02*
G01*
X120037005Y-110752031D01*
X120176354Y-110845140D01*
X120294860Y-110963646D01*
X120387969Y-111102995D01*
X120452105Y-111257831D01*
X120484800Y-111422203D01*
X120484800Y-111589797D01*
X120452105Y-111754169D01*
X120387969Y-111909005D01*
X120294860Y-112048354D01*
X120176354Y-112166860D01*
X120037005Y-112259969D01*
X119882169Y-112324105D01*
X119717797Y-112356800D01*
X119550203Y-112356800D01*
X119385831Y-112324105D01*
X119230995Y-112259969D01*
X119091646Y-112166860D01*
X118973140Y-112048354D01*
X118880031Y-111909005D01*
X118815895Y-111754169D01*
X118783200Y-111589797D01*
X118783200Y-111422203D01*
X118815895Y-111257831D01*
X118880031Y-111102995D01*
X118973140Y-110963646D01*
X119091646Y-110845140D01*
X119230995Y-110752031D01*
X119385831Y-110687895D01*
X119550203Y-110655200D01*
X119717797Y-110655200D01*
X119882169Y-110687895D01*
G37*
G36*
X198601521Y-106616639D02*
G01*
X198901947Y-106741080D01*
X199172324Y-106921740D01*
X199402260Y-107151676D01*
X199582920Y-107422053D01*
X199707361Y-107722479D01*
X199770800Y-108041410D01*
X199770800Y-108366590D01*
X199707361Y-108685521D01*
X199582920Y-108985947D01*
X199402260Y-109256324D01*
X199172324Y-109486260D01*
X198901947Y-109666920D01*
X198601521Y-109791361D01*
X198282590Y-109854800D01*
X197957410Y-109854800D01*
X197638479Y-109791361D01*
X197338053Y-109666920D01*
X197067676Y-109486260D01*
X196837740Y-109256324D01*
X196657080Y-108985947D01*
X196532639Y-108685521D01*
X196469200Y-108366590D01*
X196469200Y-108041410D01*
X196532639Y-107722479D01*
X196657080Y-107422053D01*
X196837740Y-107151676D01*
X197067676Y-106921740D01*
X197338053Y-106741080D01*
X197638479Y-106616639D01*
X197957410Y-106553200D01*
X198282590Y-106553200D01*
X198601521Y-106616639D01*
G37*
G36*
X127502169Y-108147895D02*
G01*
X127657005Y-108212031D01*
X127796354Y-108305140D01*
X127914860Y-108423646D01*
X128007969Y-108562995D01*
X128072105Y-108717831D01*
X128104800Y-108882203D01*
X128104800Y-109049797D01*
X128072105Y-109214169D01*
X128007969Y-109369005D01*
X127914860Y-109508354D01*
X127796354Y-109626860D01*
X127657005Y-109719969D01*
X127502169Y-109784105D01*
X127337797Y-109816800D01*
X127170203Y-109816800D01*
X127005831Y-109784105D01*
X126850995Y-109719969D01*
X126711646Y-109626860D01*
X126593140Y-109508354D01*
X126500031Y-109369005D01*
X126435895Y-109214169D01*
X126403200Y-109049797D01*
X126403200Y-108882203D01*
X126435895Y-108717831D01*
X126500031Y-108562995D01*
X126593140Y-108423646D01*
X126711646Y-108305140D01*
X126850995Y-108212031D01*
X127005831Y-108147895D01*
X127170203Y-108115200D01*
X127337797Y-108115200D01*
X127502169Y-108147895D01*
G37*
G36*
X119882169Y-108147895D02*
G01*
X120037005Y-108212031D01*
X120176354Y-108305140D01*
X120294860Y-108423646D01*
X120387969Y-108562995D01*
X120452105Y-108717831D01*
X120484800Y-108882203D01*
X120484800Y-109049797D01*
X120452105Y-109214169D01*
X120387969Y-109369005D01*
X120294860Y-109508354D01*
X120176354Y-109626860D01*
X120037005Y-109719969D01*
X119882169Y-109784105D01*
X119717797Y-109816800D01*
X119550203Y-109816800D01*
X119385831Y-109784105D01*
X119230995Y-109719969D01*
X119091646Y-109626860D01*
X118973140Y-109508354D01*
X118880031Y-109369005D01*
X118815895Y-109214169D01*
X118783200Y-109049797D01*
X118783200Y-108882203D01*
X118815895Y-108717831D01*
X118880031Y-108562995D01*
X118973140Y-108423646D01*
X119091646Y-108305140D01*
X119230995Y-108212031D01*
X119385831Y-108147895D01*
X119550203Y-108115200D01*
X119717797Y-108115200D01*
X119882169Y-108147895D01*
G37*
G36*
X180856754Y-106575817D02*
G01*
X181020689Y-106643721D01*
X181168227Y-106742303D01*
X181293697Y-106867773D01*
X181392279Y-107015311D01*
X181460183Y-107179246D01*
X181494800Y-107353279D01*
X181494800Y-107530721D01*
X181460183Y-107704754D01*
X181392279Y-107868689D01*
X181293697Y-108016227D01*
X181168227Y-108141697D01*
X181020689Y-108240279D01*
X180856754Y-108308183D01*
X180682721Y-108342800D01*
X180505279Y-108342800D01*
X180331246Y-108308183D01*
X180167311Y-108240279D01*
X180019773Y-108141697D01*
X179894303Y-108016227D01*
X179795721Y-107868689D01*
X179727817Y-107704754D01*
X179693200Y-107530721D01*
X179693200Y-107353279D01*
X179727817Y-107179246D01*
X179795721Y-107015311D01*
X179894303Y-106867773D01*
X180019773Y-106742303D01*
X180167311Y-106643721D01*
X180331246Y-106575817D01*
X180505279Y-106541200D01*
X180682721Y-106541200D01*
X180856754Y-106575817D01*
G37*
G36*
X119882169Y-105607895D02*
G01*
X120037005Y-105672031D01*
X120176354Y-105765140D01*
X120294860Y-105883646D01*
X120387969Y-106022995D01*
X120452105Y-106177831D01*
X120484800Y-106342203D01*
X120484800Y-106509797D01*
X120452105Y-106674169D01*
X120387969Y-106829005D01*
X120294860Y-106968354D01*
X120176354Y-107086860D01*
X120037005Y-107179969D01*
X119882169Y-107244105D01*
X119717797Y-107276800D01*
X119550203Y-107276800D01*
X119385831Y-107244105D01*
X119230995Y-107179969D01*
X119091646Y-107086860D01*
X118973140Y-106968354D01*
X118880031Y-106829005D01*
X118815895Y-106674169D01*
X118783200Y-106509797D01*
X118783200Y-106342203D01*
X118815895Y-106177831D01*
X118880031Y-106022995D01*
X118973140Y-105883646D01*
X119091646Y-105765140D01*
X119230995Y-105672031D01*
X119385831Y-105607895D01*
X119550203Y-105575200D01*
X119717797Y-105575200D01*
X119882169Y-105607895D01*
G37*
G36*
X127502169Y-105607895D02*
G01*
X127657005Y-105672031D01*
X127796354Y-105765140D01*
X127914860Y-105883646D01*
X128007969Y-106022995D01*
X128072105Y-106177831D01*
X128104800Y-106342203D01*
X128104800Y-106509797D01*
X128072105Y-106674169D01*
X128007969Y-106829005D01*
X127914860Y-106968354D01*
X127796354Y-107086860D01*
X127657005Y-107179969D01*
X127502169Y-107244105D01*
X127337797Y-107276800D01*
X127170203Y-107276800D01*
X127005831Y-107244105D01*
X126850995Y-107179969D01*
X126711646Y-107086860D01*
X126593140Y-106968354D01*
X126500031Y-106829005D01*
X126435895Y-106674169D01*
X126403200Y-106509797D01*
X126403200Y-106342203D01*
X126435895Y-106177831D01*
X126500031Y-106022995D01*
X126593140Y-105883646D01*
X126711646Y-105765140D01*
X126850995Y-105672031D01*
X127005831Y-105607895D01*
X127170203Y-105575200D01*
X127337797Y-105575200D01*
X127502169Y-105607895D01*
G37*
G36*
X108974754Y-104797817D02*
G01*
X109138689Y-104865721D01*
X109286227Y-104964303D01*
X109411697Y-105089773D01*
X109510279Y-105237311D01*
X109578183Y-105401246D01*
X109612800Y-105575279D01*
X109612800Y-105752721D01*
X109578183Y-105926754D01*
X109510279Y-106090689D01*
X109411697Y-106238227D01*
X109286227Y-106363697D01*
X109138689Y-106462279D01*
X108974754Y-106530183D01*
X108800721Y-106564800D01*
X108623279Y-106564800D01*
X108449246Y-106530183D01*
X108285311Y-106462279D01*
X108137773Y-106363697D01*
X108012303Y-106238227D01*
X107913721Y-106090689D01*
X107845817Y-105926754D01*
X107811200Y-105752721D01*
X107811200Y-105575279D01*
X107845817Y-105401246D01*
X107913721Y-105237311D01*
X108012303Y-105089773D01*
X108137773Y-104964303D01*
X108285311Y-104865721D01*
X108449246Y-104797817D01*
X108623279Y-104763200D01*
X108800721Y-104763200D01*
X108974754Y-104797817D01*
G37*
G36*
X180856754Y-104035817D02*
G01*
X181020689Y-104103721D01*
X181168227Y-104202303D01*
X181293697Y-104327773D01*
X181392279Y-104475311D01*
X181460183Y-104639246D01*
X181494800Y-104813279D01*
X181494800Y-104990721D01*
X181460183Y-105164754D01*
X181392279Y-105328689D01*
X181293697Y-105476227D01*
X181168227Y-105601697D01*
X181020689Y-105700279D01*
X180856754Y-105768183D01*
X180682721Y-105802800D01*
X180505279Y-105802800D01*
X180331246Y-105768183D01*
X180167311Y-105700279D01*
X180019773Y-105601697D01*
X179894303Y-105476227D01*
X179795721Y-105328689D01*
X179727817Y-105164754D01*
X179693200Y-104990721D01*
X179693200Y-104813279D01*
X179727817Y-104639246D01*
X179795721Y-104475311D01*
X179894303Y-104327773D01*
X180019773Y-104202303D01*
X180167311Y-104103721D01*
X180331246Y-104035817D01*
X180505279Y-104001200D01*
X180682721Y-104001200D01*
X180856754Y-104035817D01*
G37*
G36*
X127502169Y-103067895D02*
G01*
X127657005Y-103132031D01*
X127796354Y-103225140D01*
X127914860Y-103343646D01*
X128007969Y-103482995D01*
X128072105Y-103637831D01*
X128104800Y-103802203D01*
X128104800Y-103969797D01*
X128072105Y-104134169D01*
X128007969Y-104289005D01*
X127914860Y-104428354D01*
X127796354Y-104546860D01*
X127657005Y-104639969D01*
X127502169Y-104704105D01*
X127337797Y-104736800D01*
X127170203Y-104736800D01*
X127005831Y-104704105D01*
X126850995Y-104639969D01*
X126711646Y-104546860D01*
X126593140Y-104428354D01*
X126500031Y-104289005D01*
X126435895Y-104134169D01*
X126403200Y-103969797D01*
X126403200Y-103802203D01*
X126435895Y-103637831D01*
X126500031Y-103482995D01*
X126593140Y-103343646D01*
X126711646Y-103225140D01*
X126850995Y-103132031D01*
X127005831Y-103067895D01*
X127170203Y-103035200D01*
X127337797Y-103035200D01*
X127502169Y-103067895D01*
G37*
G36*
X119882169Y-103067895D02*
G01*
X120037005Y-103132031D01*
X120176354Y-103225140D01*
X120294860Y-103343646D01*
X120387969Y-103482995D01*
X120452105Y-103637831D01*
X120484800Y-103802203D01*
X120484800Y-103969797D01*
X120452105Y-104134169D01*
X120387969Y-104289005D01*
X120294860Y-104428354D01*
X120176354Y-104546860D01*
X120037005Y-104639969D01*
X119882169Y-104704105D01*
X119717797Y-104736800D01*
X119550203Y-104736800D01*
X119385831Y-104704105D01*
X119230995Y-104639969D01*
X119091646Y-104546860D01*
X118973140Y-104428354D01*
X118880031Y-104289005D01*
X118815895Y-104134169D01*
X118783200Y-103969797D01*
X118783200Y-103802203D01*
X118815895Y-103637831D01*
X118880031Y-103482995D01*
X118973140Y-103343646D01*
X119091646Y-103225140D01*
X119230995Y-103132031D01*
X119385831Y-103067895D01*
X119550203Y-103035200D01*
X119717797Y-103035200D01*
X119882169Y-103067895D01*
G37*
G36*
X108974754Y-102257817D02*
G01*
X109138689Y-102325721D01*
X109286227Y-102424303D01*
X109411697Y-102549773D01*
X109510279Y-102697311D01*
X109578183Y-102861246D01*
X109612800Y-103035279D01*
X109612800Y-103212721D01*
X109578183Y-103386754D01*
X109510279Y-103550689D01*
X109411697Y-103698227D01*
X109286227Y-103823697D01*
X109138689Y-103922279D01*
X108974754Y-103990183D01*
X108800721Y-104024800D01*
X108623279Y-104024800D01*
X108449246Y-103990183D01*
X108285311Y-103922279D01*
X108137773Y-103823697D01*
X108012303Y-103698227D01*
X107913721Y-103550689D01*
X107845817Y-103386754D01*
X107811200Y-103212721D01*
X107811200Y-103035279D01*
X107845817Y-102861246D01*
X107913721Y-102697311D01*
X108012303Y-102549773D01*
X108137773Y-102424303D01*
X108285311Y-102325721D01*
X108449246Y-102257817D01*
X108623279Y-102223200D01*
X108800721Y-102223200D01*
X108974754Y-102257817D01*
G37*
G36*
X180856754Y-101495817D02*
G01*
X181020689Y-101563721D01*
X181168227Y-101662303D01*
X181293697Y-101787773D01*
X181392279Y-101935311D01*
X181460183Y-102099246D01*
X181494800Y-102273279D01*
X181494800Y-102450721D01*
X181460183Y-102624754D01*
X181392279Y-102788689D01*
X181293697Y-102936227D01*
X181168227Y-103061697D01*
X181020689Y-103160279D01*
X180856754Y-103228183D01*
X180682721Y-103262800D01*
X180505279Y-103262800D01*
X180331246Y-103228183D01*
X180167311Y-103160279D01*
X180019773Y-103061697D01*
X179894303Y-102936227D01*
X179795721Y-102788689D01*
X179727817Y-102624754D01*
X179693200Y-102450721D01*
X179693200Y-102273279D01*
X179727817Y-102099246D01*
X179795721Y-101935311D01*
X179894303Y-101787773D01*
X180019773Y-101662303D01*
X180167311Y-101563721D01*
X180331246Y-101495817D01*
X180505279Y-101461200D01*
X180682721Y-101461200D01*
X180856754Y-101495817D01*
G37*
G36*
X192584508Y-100771582D02*
G01*
X192775741Y-100850793D01*
X192947847Y-100965791D01*
X193094209Y-101112153D01*
X193209207Y-101284259D01*
X193288418Y-101475492D01*
X193328800Y-101678505D01*
X193328800Y-101885495D01*
X193288418Y-102088508D01*
X193209207Y-102279741D01*
X193094209Y-102451847D01*
X192947847Y-102598209D01*
X192775741Y-102713207D01*
X192584508Y-102792418D01*
X192381495Y-102832800D01*
X192174505Y-102832800D01*
X191971492Y-102792418D01*
X191780259Y-102713207D01*
X191608153Y-102598209D01*
X191461791Y-102451847D01*
X191346793Y-102279741D01*
X191267582Y-102088508D01*
X191227200Y-101885495D01*
X191227200Y-101678505D01*
X191267582Y-101475492D01*
X191346793Y-101284259D01*
X191461791Y-101112153D01*
X191608153Y-100965791D01*
X191780259Y-100850793D01*
X191971492Y-100771582D01*
X192174505Y-100731200D01*
X192381495Y-100731200D01*
X192584508Y-100771582D01*
G37*
G36*
X186084508Y-100771582D02*
G01*
X186275741Y-100850793D01*
X186447847Y-100965791D01*
X186594209Y-101112153D01*
X186709207Y-101284259D01*
X186788418Y-101475492D01*
X186828800Y-101678505D01*
X186828800Y-101885495D01*
X186788418Y-102088508D01*
X186709207Y-102279741D01*
X186594209Y-102451847D01*
X186447847Y-102598209D01*
X186275741Y-102713207D01*
X186084508Y-102792418D01*
X185881495Y-102832800D01*
X185674505Y-102832800D01*
X185471492Y-102792418D01*
X185280259Y-102713207D01*
X185108153Y-102598209D01*
X184961791Y-102451847D01*
X184846793Y-102279741D01*
X184767582Y-102088508D01*
X184727200Y-101885495D01*
X184727200Y-101678505D01*
X184767582Y-101475492D01*
X184846793Y-101284259D01*
X184961791Y-101112153D01*
X185108153Y-100965791D01*
X185280259Y-100850793D01*
X185471492Y-100771582D01*
X185674505Y-100731200D01*
X185881495Y-100731200D01*
X186084508Y-100771582D01*
G37*
G36*
X127502169Y-100527895D02*
G01*
X127657005Y-100592031D01*
X127796354Y-100685140D01*
X127914860Y-100803646D01*
X128007969Y-100942995D01*
X128072105Y-101097831D01*
X128104800Y-101262203D01*
X128104800Y-101429797D01*
X128072105Y-101594169D01*
X128007969Y-101749005D01*
X127914860Y-101888354D01*
X127796354Y-102006860D01*
X127657005Y-102099969D01*
X127502169Y-102164105D01*
X127337797Y-102196800D01*
X127170203Y-102196800D01*
X127005831Y-102164105D01*
X126850995Y-102099969D01*
X126711646Y-102006860D01*
X126593140Y-101888354D01*
X126500031Y-101749005D01*
X126435895Y-101594169D01*
X126403200Y-101429797D01*
X126403200Y-101262203D01*
X126435895Y-101097831D01*
X126500031Y-100942995D01*
X126593140Y-100803646D01*
X126711646Y-100685140D01*
X126850995Y-100592031D01*
X127005831Y-100527895D01*
X127170203Y-100495200D01*
X127337797Y-100495200D01*
X127502169Y-100527895D01*
G37*
G36*
X119882169Y-100527895D02*
G01*
X120037005Y-100592031D01*
X120176354Y-100685140D01*
X120294860Y-100803646D01*
X120387969Y-100942995D01*
X120452105Y-101097831D01*
X120484800Y-101262203D01*
X120484800Y-101429797D01*
X120452105Y-101594169D01*
X120387969Y-101749005D01*
X120294860Y-101888354D01*
X120176354Y-102006860D01*
X120037005Y-102099969D01*
X119882169Y-102164105D01*
X119717797Y-102196800D01*
X119550203Y-102196800D01*
X119385831Y-102164105D01*
X119230995Y-102099969D01*
X119091646Y-102006860D01*
X118973140Y-101888354D01*
X118880031Y-101749005D01*
X118815895Y-101594169D01*
X118783200Y-101429797D01*
X118783200Y-101262203D01*
X118815895Y-101097831D01*
X118880031Y-100942995D01*
X118973140Y-100803646D01*
X119091646Y-100685140D01*
X119230995Y-100592031D01*
X119385831Y-100527895D01*
X119550203Y-100495200D01*
X119717797Y-100495200D01*
X119882169Y-100527895D01*
G37*
G36*
X108974754Y-99717817D02*
G01*
X109138689Y-99785721D01*
X109286227Y-99884303D01*
X109411697Y-100009773D01*
X109510279Y-100157311D01*
X109578183Y-100321246D01*
X109612800Y-100495279D01*
X109612800Y-100672721D01*
X109578183Y-100846754D01*
X109510279Y-101010689D01*
X109411697Y-101158227D01*
X109286227Y-101283697D01*
X109138689Y-101382279D01*
X108974754Y-101450183D01*
X108800721Y-101484800D01*
X108623279Y-101484800D01*
X108449246Y-101450183D01*
X108285311Y-101382279D01*
X108137773Y-101283697D01*
X108012303Y-101158227D01*
X107913721Y-101010689D01*
X107845817Y-100846754D01*
X107811200Y-100672721D01*
X107811200Y-100495279D01*
X107845817Y-100321246D01*
X107913721Y-100157311D01*
X108012303Y-100009773D01*
X108137773Y-99884303D01*
X108285311Y-99785721D01*
X108449246Y-99717817D01*
X108623279Y-99683200D01*
X108800721Y-99683200D01*
X108974754Y-99717817D01*
G37*
G36*
X181494800Y-100722800D02*
G01*
X179693200Y-100722800D01*
X179693200Y-98921200D01*
X181494800Y-98921200D01*
X181494800Y-100722800D01*
G37*
G36*
X119882169Y-97987895D02*
G01*
X120037005Y-98052031D01*
X120176354Y-98145140D01*
X120294860Y-98263646D01*
X120387969Y-98402995D01*
X120452105Y-98557831D01*
X120484800Y-98722203D01*
X120484800Y-98889797D01*
X120452105Y-99054169D01*
X120387969Y-99209005D01*
X120294860Y-99348354D01*
X120176354Y-99466860D01*
X120037005Y-99559969D01*
X119882169Y-99624105D01*
X119717797Y-99656800D01*
X119550203Y-99656800D01*
X119385831Y-99624105D01*
X119230995Y-99559969D01*
X119091646Y-99466860D01*
X118973140Y-99348354D01*
X118880031Y-99209005D01*
X118815895Y-99054169D01*
X118783200Y-98889797D01*
X118783200Y-98722203D01*
X118815895Y-98557831D01*
X118880031Y-98402995D01*
X118973140Y-98263646D01*
X119091646Y-98145140D01*
X119230995Y-98052031D01*
X119385831Y-97987895D01*
X119550203Y-97955200D01*
X119717797Y-97955200D01*
X119882169Y-97987895D01*
G37*
G36*
X127502169Y-97987895D02*
G01*
X127657005Y-98052031D01*
X127796354Y-98145140D01*
X127914860Y-98263646D01*
X128007969Y-98402995D01*
X128072105Y-98557831D01*
X128104800Y-98722203D01*
X128104800Y-98889797D01*
X128072105Y-99054169D01*
X128007969Y-99209005D01*
X127914860Y-99348354D01*
X127796354Y-99466860D01*
X127657005Y-99559969D01*
X127502169Y-99624105D01*
X127337797Y-99656800D01*
X127170203Y-99656800D01*
X127005831Y-99624105D01*
X126850995Y-99559969D01*
X126711646Y-99466860D01*
X126593140Y-99348354D01*
X126500031Y-99209005D01*
X126435895Y-99054169D01*
X126403200Y-98889797D01*
X126403200Y-98722203D01*
X126435895Y-98557831D01*
X126500031Y-98402995D01*
X126593140Y-98263646D01*
X126711646Y-98145140D01*
X126850995Y-98052031D01*
X127005831Y-97987895D01*
X127170203Y-97955200D01*
X127337797Y-97955200D01*
X127502169Y-97987895D01*
G37*
G36*
X108974754Y-97177817D02*
G01*
X109138689Y-97245721D01*
X109286227Y-97344303D01*
X109411697Y-97469773D01*
X109510279Y-97617311D01*
X109578183Y-97781246D01*
X109612800Y-97955279D01*
X109612800Y-98132721D01*
X109578183Y-98306754D01*
X109510279Y-98470689D01*
X109411697Y-98618227D01*
X109286227Y-98743697D01*
X109138689Y-98842279D01*
X108974754Y-98910183D01*
X108800721Y-98944800D01*
X108623279Y-98944800D01*
X108449246Y-98910183D01*
X108285311Y-98842279D01*
X108137773Y-98743697D01*
X108012303Y-98618227D01*
X107913721Y-98470689D01*
X107845817Y-98306754D01*
X107811200Y-98132721D01*
X107811200Y-97955279D01*
X107845817Y-97781246D01*
X107913721Y-97617311D01*
X108012303Y-97469773D01*
X108137773Y-97344303D01*
X108285311Y-97245721D01*
X108449246Y-97177817D01*
X108623279Y-97143200D01*
X108800721Y-97143200D01*
X108974754Y-97177817D01*
G37*
G36*
X192584508Y-96271582D02*
G01*
X192775741Y-96350793D01*
X192947847Y-96465791D01*
X193094209Y-96612153D01*
X193209207Y-96784259D01*
X193288418Y-96975492D01*
X193328800Y-97178505D01*
X193328800Y-97385495D01*
X193288418Y-97588508D01*
X193209207Y-97779741D01*
X193094209Y-97951847D01*
X192947847Y-98098209D01*
X192775741Y-98213207D01*
X192584508Y-98292418D01*
X192381495Y-98332800D01*
X192174505Y-98332800D01*
X191971492Y-98292418D01*
X191780259Y-98213207D01*
X191608153Y-98098209D01*
X191461791Y-97951847D01*
X191346793Y-97779741D01*
X191267582Y-97588508D01*
X191227200Y-97385495D01*
X191227200Y-97178505D01*
X191267582Y-96975492D01*
X191346793Y-96784259D01*
X191461791Y-96612153D01*
X191608153Y-96465791D01*
X191780259Y-96350793D01*
X191971492Y-96271582D01*
X192174505Y-96231200D01*
X192381495Y-96231200D01*
X192584508Y-96271582D01*
G37*
G36*
X186084508Y-96271582D02*
G01*
X186275741Y-96350793D01*
X186447847Y-96465791D01*
X186594209Y-96612153D01*
X186709207Y-96784259D01*
X186788418Y-96975492D01*
X186828800Y-97178505D01*
X186828800Y-97385495D01*
X186788418Y-97588508D01*
X186709207Y-97779741D01*
X186594209Y-97951847D01*
X186447847Y-98098209D01*
X186275741Y-98213207D01*
X186084508Y-98292418D01*
X185881495Y-98332800D01*
X185674505Y-98332800D01*
X185471492Y-98292418D01*
X185280259Y-98213207D01*
X185108153Y-98098209D01*
X184961791Y-97951847D01*
X184846793Y-97779741D01*
X184767582Y-97588508D01*
X184727200Y-97385495D01*
X184727200Y-97178505D01*
X184767582Y-96975492D01*
X184846793Y-96784259D01*
X184961791Y-96612153D01*
X185108153Y-96465791D01*
X185280259Y-96350793D01*
X185471492Y-96271582D01*
X185674505Y-96231200D01*
X185881495Y-96231200D01*
X186084508Y-96271582D01*
G37*
G36*
X109612800Y-96404800D02*
G01*
X107811200Y-96404800D01*
X107811200Y-94603200D01*
X109612800Y-94603200D01*
X109612800Y-96404800D01*
G37*
G36*
X126186508Y-89341582D02*
G01*
X126377741Y-89420793D01*
X126549847Y-89535791D01*
X126696209Y-89682153D01*
X126811207Y-89854259D01*
X126890418Y-90045492D01*
X126930800Y-90248505D01*
X126930800Y-90455495D01*
X126890418Y-90658508D01*
X126811207Y-90849741D01*
X126696209Y-91021847D01*
X126549847Y-91168209D01*
X126377741Y-91283207D01*
X126186508Y-91362418D01*
X125983495Y-91402800D01*
X125776505Y-91402800D01*
X125573492Y-91362418D01*
X125382259Y-91283207D01*
X125210153Y-91168209D01*
X125063791Y-91021847D01*
X124948793Y-90849741D01*
X124869582Y-90658508D01*
X124829200Y-90455495D01*
X124829200Y-90248505D01*
X124869582Y-90045492D01*
X124948793Y-89854259D01*
X125063791Y-89682153D01*
X125210153Y-89535791D01*
X125382259Y-89420793D01*
X125573492Y-89341582D01*
X125776505Y-89301200D01*
X125983495Y-89301200D01*
X126186508Y-89341582D01*
G37*
G36*
X119686508Y-89341582D02*
G01*
X119877741Y-89420793D01*
X120049847Y-89535791D01*
X120196209Y-89682153D01*
X120311207Y-89854259D01*
X120390418Y-90045492D01*
X120430800Y-90248505D01*
X120430800Y-90455495D01*
X120390418Y-90658508D01*
X120311207Y-90849741D01*
X120196209Y-91021847D01*
X120049847Y-91168209D01*
X119877741Y-91283207D01*
X119686508Y-91362418D01*
X119483495Y-91402800D01*
X119276505Y-91402800D01*
X119073492Y-91362418D01*
X118882259Y-91283207D01*
X118710153Y-91168209D01*
X118563791Y-91021847D01*
X118448793Y-90849741D01*
X118369582Y-90658508D01*
X118329200Y-90455495D01*
X118329200Y-90248505D01*
X118369582Y-90045492D01*
X118448793Y-89854259D01*
X118563791Y-89682153D01*
X118710153Y-89535791D01*
X118882259Y-89420793D01*
X119073492Y-89341582D01*
X119276505Y-89301200D01*
X119483495Y-89301200D01*
X119686508Y-89341582D01*
G37*
G36*
X202068800Y-88022800D02*
G01*
X200267200Y-88022800D01*
X200267200Y-86221200D01*
X202068800Y-86221200D01*
X202068800Y-88022800D01*
G37*
G36*
X126186508Y-84841582D02*
G01*
X126377741Y-84920793D01*
X126549847Y-85035791D01*
X126696209Y-85182153D01*
X126811207Y-85354259D01*
X126890418Y-85545492D01*
X126930800Y-85748505D01*
X126930800Y-85955495D01*
X126890418Y-86158508D01*
X126811207Y-86349741D01*
X126696209Y-86521847D01*
X126549847Y-86668209D01*
X126377741Y-86783207D01*
X126186508Y-86862418D01*
X125983495Y-86902800D01*
X125776505Y-86902800D01*
X125573492Y-86862418D01*
X125382259Y-86783207D01*
X125210153Y-86668209D01*
X125063791Y-86521847D01*
X124948793Y-86349741D01*
X124869582Y-86158508D01*
X124829200Y-85955495D01*
X124829200Y-85748505D01*
X124869582Y-85545492D01*
X124948793Y-85354259D01*
X125063791Y-85182153D01*
X125210153Y-85035791D01*
X125382259Y-84920793D01*
X125573492Y-84841582D01*
X125776505Y-84801200D01*
X125983495Y-84801200D01*
X126186508Y-84841582D01*
G37*
G36*
X119686508Y-84841582D02*
G01*
X119877741Y-84920793D01*
X120049847Y-85035791D01*
X120196209Y-85182153D01*
X120311207Y-85354259D01*
X120390418Y-85545492D01*
X120430800Y-85748505D01*
X120430800Y-85955495D01*
X120390418Y-86158508D01*
X120311207Y-86349741D01*
X120196209Y-86521847D01*
X120049847Y-86668209D01*
X119877741Y-86783207D01*
X119686508Y-86862418D01*
X119483495Y-86902800D01*
X119276505Y-86902800D01*
X119073492Y-86862418D01*
X118882259Y-86783207D01*
X118710153Y-86668209D01*
X118563791Y-86521847D01*
X118448793Y-86349741D01*
X118369582Y-86158508D01*
X118329200Y-85955495D01*
X118329200Y-85748505D01*
X118369582Y-85545492D01*
X118448793Y-85354259D01*
X118563791Y-85182153D01*
X118710153Y-85035791D01*
X118882259Y-84920793D01*
X119073492Y-84841582D01*
X119276505Y-84801200D01*
X119483495Y-84801200D01*
X119686508Y-84841582D01*
G37*
G36*
X201430754Y-83715817D02*
G01*
X201594689Y-83783721D01*
X201742227Y-83882303D01*
X201867697Y-84007773D01*
X201966279Y-84155311D01*
X202034183Y-84319246D01*
X202068800Y-84493279D01*
X202068800Y-84670721D01*
X202034183Y-84844754D01*
X201966279Y-85008689D01*
X201867697Y-85156227D01*
X201742227Y-85281697D01*
X201594689Y-85380279D01*
X201430754Y-85448183D01*
X201256721Y-85482800D01*
X201079279Y-85482800D01*
X200905246Y-85448183D01*
X200741311Y-85380279D01*
X200593773Y-85281697D01*
X200468303Y-85156227D01*
X200369721Y-85008689D01*
X200301817Y-84844754D01*
X200267200Y-84670721D01*
X200267200Y-84493279D01*
X200301817Y-84319246D01*
X200369721Y-84155311D01*
X200468303Y-84007773D01*
X200593773Y-83882303D01*
X200741311Y-83783721D01*
X200905246Y-83715817D01*
X201079279Y-83681200D01*
X201256721Y-83681200D01*
X201430754Y-83715817D01*
G37*
G36*
X201430754Y-81175817D02*
G01*
X201594689Y-81243721D01*
X201742227Y-81342303D01*
X201867697Y-81467773D01*
X201966279Y-81615311D01*
X202034183Y-81779246D01*
X202068800Y-81953279D01*
X202068800Y-82130721D01*
X202034183Y-82304754D01*
X201966279Y-82468689D01*
X201867697Y-82616227D01*
X201742227Y-82741697D01*
X201594689Y-82840279D01*
X201430754Y-82908183D01*
X201256721Y-82942800D01*
X201079279Y-82942800D01*
X200905246Y-82908183D01*
X200741311Y-82840279D01*
X200593773Y-82741697D01*
X200468303Y-82616227D01*
X200369721Y-82468689D01*
X200301817Y-82304754D01*
X200267200Y-82130721D01*
X200267200Y-81953279D01*
X200301817Y-81779246D01*
X200369721Y-81615311D01*
X200468303Y-81467773D01*
X200593773Y-81342303D01*
X200741311Y-81243721D01*
X200905246Y-81175817D01*
X201079279Y-81141200D01*
X201256721Y-81141200D01*
X201430754Y-81175817D01*
G37*
G36*
X201430754Y-78635817D02*
G01*
X201594689Y-78703721D01*
X201742227Y-78802303D01*
X201867697Y-78927773D01*
X201966279Y-79075311D01*
X202034183Y-79239246D01*
X202068800Y-79413279D01*
X202068800Y-79590721D01*
X202034183Y-79764754D01*
X201966279Y-79928689D01*
X201867697Y-80076227D01*
X201742227Y-80201697D01*
X201594689Y-80300279D01*
X201430754Y-80368183D01*
X201256721Y-80402800D01*
X201079279Y-80402800D01*
X200905246Y-80368183D01*
X200741311Y-80300279D01*
X200593773Y-80201697D01*
X200468303Y-80076227D01*
X200369721Y-79928689D01*
X200301817Y-79764754D01*
X200267200Y-79590721D01*
X200267200Y-79413279D01*
X200301817Y-79239246D01*
X200369721Y-79075311D01*
X200468303Y-78927773D01*
X200593773Y-78802303D01*
X200741311Y-78703721D01*
X200905246Y-78635817D01*
X201079279Y-78601200D01*
X201256721Y-78601200D01*
X201430754Y-78635817D01*
G37*
G36*
X128697559Y-73012530D02*
G01*
X128964316Y-73123025D01*
X129204394Y-73283440D01*
X129408560Y-73487606D01*
X129568975Y-73727684D01*
X129679470Y-73994441D01*
X129735800Y-74277631D01*
X129735800Y-74566369D01*
X129679470Y-74849559D01*
X129568975Y-75116316D01*
X129408560Y-75356394D01*
X129204394Y-75560560D01*
X128964316Y-75720975D01*
X128697559Y-75831470D01*
X128414369Y-75887800D01*
X128125631Y-75887800D01*
X127842441Y-75831470D01*
X127575684Y-75720975D01*
X127335606Y-75560560D01*
X127131440Y-75356394D01*
X126971025Y-75116316D01*
X126860530Y-74849559D01*
X126804200Y-74566369D01*
X126804200Y-74277631D01*
X126860530Y-73994441D01*
X126971025Y-73727684D01*
X127131440Y-73487606D01*
X127335606Y-73283440D01*
X127575684Y-73123025D01*
X127842441Y-73012530D01*
X128125631Y-72956200D01*
X128414369Y-72956200D01*
X128697559Y-73012530D01*
G37*
G36*
X165238800Y-74052800D02*
G01*
X163437200Y-74052800D01*
X163437200Y-72251200D01*
X165238800Y-72251200D01*
X165238800Y-74052800D01*
G37*
G36*
X162060754Y-72285817D02*
G01*
X162224689Y-72353721D01*
X162372227Y-72452303D01*
X162497697Y-72577773D01*
X162596279Y-72725311D01*
X162664183Y-72889246D01*
X162698800Y-73063279D01*
X162698800Y-73240721D01*
X162664183Y-73414754D01*
X162596279Y-73578689D01*
X162497697Y-73726227D01*
X162372227Y-73851697D01*
X162224689Y-73950279D01*
X162060754Y-74018183D01*
X161886721Y-74052800D01*
X161709279Y-74052800D01*
X161535246Y-74018183D01*
X161371311Y-73950279D01*
X161223773Y-73851697D01*
X161098303Y-73726227D01*
X160999721Y-73578689D01*
X160931817Y-73414754D01*
X160897200Y-73240721D01*
X160897200Y-73063279D01*
X160931817Y-72889246D01*
X160999721Y-72725311D01*
X161098303Y-72577773D01*
X161223773Y-72452303D01*
X161371311Y-72353721D01*
X161535246Y-72285817D01*
X161709279Y-72251200D01*
X161886721Y-72251200D01*
X162060754Y-72285817D01*
G37*
G36*
X159520754Y-72285817D02*
G01*
X159684689Y-72353721D01*
X159832227Y-72452303D01*
X159957697Y-72577773D01*
X160056279Y-72725311D01*
X160124183Y-72889246D01*
X160158800Y-73063279D01*
X160158800Y-73240721D01*
X160124183Y-73414754D01*
X160056279Y-73578689D01*
X159957697Y-73726227D01*
X159832227Y-73851697D01*
X159684689Y-73950279D01*
X159520754Y-74018183D01*
X159346721Y-74052800D01*
X159169279Y-74052800D01*
X158995246Y-74018183D01*
X158831311Y-73950279D01*
X158683773Y-73851697D01*
X158558303Y-73726227D01*
X158459721Y-73578689D01*
X158391817Y-73414754D01*
X158357200Y-73240721D01*
X158357200Y-73063279D01*
X158391817Y-72889246D01*
X158459721Y-72725311D01*
X158558303Y-72577773D01*
X158683773Y-72452303D01*
X158831311Y-72353721D01*
X158995246Y-72285817D01*
X159169279Y-72251200D01*
X159346721Y-72251200D01*
X159520754Y-72285817D01*
G37*
G36*
X123997559Y-70012530D02*
G01*
X124264316Y-70123025D01*
X124504393Y-70283439D01*
X124708561Y-70487607D01*
X124868975Y-70727684D01*
X124979470Y-70994442D01*
X125035800Y-71277631D01*
X125035800Y-71566369D01*
X124979470Y-71849558D01*
X124868975Y-72116316D01*
X124708561Y-72356393D01*
X124504393Y-72560561D01*
X124478633Y-72577773D01*
X124264316Y-72720975D01*
X123997559Y-72831470D01*
X123714369Y-72887800D01*
X123425631Y-72887800D01*
X123142441Y-72831470D01*
X122875684Y-72720975D01*
X122661367Y-72577773D01*
X122635607Y-72560561D01*
X122431439Y-72356393D01*
X122271025Y-72116316D01*
X122160530Y-71849558D01*
X122104200Y-71566369D01*
X122104200Y-71277631D01*
X122160530Y-70994442D01*
X122271025Y-70727684D01*
X122431439Y-70487607D01*
X122635607Y-70283439D01*
X122875684Y-70123025D01*
X123142441Y-70012530D01*
X123425631Y-69956200D01*
X123714369Y-69956200D01*
X123997559Y-70012530D01*
G37*
G36*
X128697559Y-67012530D02*
G01*
X128964316Y-67123025D01*
X129204394Y-67283440D01*
X129408560Y-67487606D01*
X129568975Y-67727684D01*
X129679470Y-67994441D01*
X129735800Y-68277631D01*
X129735800Y-68566369D01*
X129679470Y-68849559D01*
X129568975Y-69116316D01*
X129408560Y-69356394D01*
X129204394Y-69560560D01*
X128964316Y-69720975D01*
X128697559Y-69831470D01*
X128414369Y-69887800D01*
X128125631Y-69887800D01*
X127842441Y-69831470D01*
X127575684Y-69720975D01*
X127335606Y-69560560D01*
X127131440Y-69356394D01*
X126971025Y-69116316D01*
X126860530Y-68849559D01*
X126804200Y-68566369D01*
X126804200Y-68277631D01*
X126860530Y-67994441D01*
X126971025Y-67727684D01*
X127131440Y-67487606D01*
X127335606Y-67283440D01*
X127575684Y-67123025D01*
X127842441Y-67012530D01*
X128125631Y-66956200D01*
X128414369Y-66956200D01*
X128697559Y-67012530D01*
G37*
G36*
X128605676Y-62815425D02*
G01*
X128815109Y-62902174D01*
X129003594Y-63028116D01*
X129163884Y-63188406D01*
X129289826Y-63376891D01*
X129376575Y-63586324D01*
X129420800Y-63808656D01*
X129420800Y-64035344D01*
X129376575Y-64257676D01*
X129289826Y-64467109D01*
X129163884Y-64655594D01*
X129003594Y-64815884D01*
X128815109Y-64941826D01*
X128605676Y-65028575D01*
X128383344Y-65072800D01*
X128156656Y-65072800D01*
X127934324Y-65028575D01*
X127724891Y-64941826D01*
X127536406Y-64815884D01*
X127376116Y-64655594D01*
X127250174Y-64467109D01*
X127163425Y-64257676D01*
X127119200Y-64035344D01*
X127119200Y-63808656D01*
X127163425Y-63586324D01*
X127250174Y-63376891D01*
X127376116Y-63188406D01*
X127536406Y-63028116D01*
X127724891Y-62902174D01*
X127934324Y-62815425D01*
X128156656Y-62771200D01*
X128383344Y-62771200D01*
X128605676Y-62815425D01*
G37*
G36*
X198601521Y-56070639D02*
G01*
X198901947Y-56195080D01*
X199172324Y-56375740D01*
X199402260Y-56605676D01*
X199582920Y-56876053D01*
X199707361Y-57176479D01*
X199770800Y-57495410D01*
X199770800Y-57820590D01*
X199707361Y-58139521D01*
X199582920Y-58439947D01*
X199402260Y-58710324D01*
X199172324Y-58940260D01*
X198901947Y-59120920D01*
X198601521Y-59245361D01*
X198282590Y-59308800D01*
X197957410Y-59308800D01*
X197638479Y-59245361D01*
X197338053Y-59120920D01*
X197067676Y-58940260D01*
X196837740Y-58710324D01*
X196657080Y-58439947D01*
X196532639Y-58139521D01*
X196469200Y-57820590D01*
X196469200Y-57495410D01*
X196532639Y-57176479D01*
X196657080Y-56876053D01*
X196837740Y-56605676D01*
X197067676Y-56375740D01*
X197338053Y-56195080D01*
X197638479Y-56070639D01*
X197957410Y-56007200D01*
X198282590Y-56007200D01*
X198601521Y-56070639D01*
G37*
G36*
X107923521Y-55562639D02*
G01*
X108223947Y-55687080D01*
X108494324Y-55867740D01*
X108724260Y-56097676D01*
X108904920Y-56368053D01*
X109029361Y-56668479D01*
X109092800Y-56987410D01*
X109092800Y-57312590D01*
X109029361Y-57631521D01*
X108904920Y-57931947D01*
X108724260Y-58202324D01*
X108494324Y-58432260D01*
X108223947Y-58612920D01*
X107923521Y-58737361D01*
X107604590Y-58800800D01*
X107279410Y-58800800D01*
X106960479Y-58737361D01*
X106660053Y-58612920D01*
X106389676Y-58432260D01*
X106159740Y-58202324D01*
X105979080Y-57931947D01*
X105854639Y-57631521D01*
X105791200Y-57312590D01*
X105791200Y-56987410D01*
X105854639Y-56668479D01*
X105979080Y-56368053D01*
X106159740Y-56097676D01*
X106389676Y-55867740D01*
X106660053Y-55687080D01*
X106960479Y-55562639D01*
X107279410Y-55499200D01*
X107604590Y-55499200D01*
X107923521Y-55562639D01*
G37*
G36*
X145804754Y-55521817D02*
G01*
X145968689Y-55589721D01*
X146116227Y-55688303D01*
X146241697Y-55813773D01*
X146340279Y-55961311D01*
X146408183Y-56125246D01*
X146442800Y-56299279D01*
X146442800Y-56476721D01*
X146408183Y-56650754D01*
X146340279Y-56814689D01*
X146241697Y-56962227D01*
X146116227Y-57087697D01*
X145968689Y-57186279D01*
X145804754Y-57254183D01*
X145630721Y-57288800D01*
X145453279Y-57288800D01*
X145279246Y-57254183D01*
X145115311Y-57186279D01*
X144967773Y-57087697D01*
X144842303Y-56962227D01*
X144743721Y-56814689D01*
X144675817Y-56650754D01*
X144641200Y-56476721D01*
X144641200Y-56299279D01*
X144675817Y-56125246D01*
X144743721Y-55961311D01*
X144842303Y-55813773D01*
X144967773Y-55688303D01*
X145115311Y-55589721D01*
X145279246Y-55521817D01*
X145453279Y-55487200D01*
X145630721Y-55487200D01*
X145804754Y-55521817D01*
G37*
G36*
X148344754Y-55521817D02*
G01*
X148508689Y-55589721D01*
X148656227Y-55688303D01*
X148781697Y-55813773D01*
X148880279Y-55961311D01*
X148948183Y-56125246D01*
X148982800Y-56299279D01*
X148982800Y-56476721D01*
X148948183Y-56650754D01*
X148880279Y-56814689D01*
X148781697Y-56962227D01*
X148656227Y-57087697D01*
X148508689Y-57186279D01*
X148344754Y-57254183D01*
X148170721Y-57288800D01*
X147993279Y-57288800D01*
X147819246Y-57254183D01*
X147655311Y-57186279D01*
X147507773Y-57087697D01*
X147382303Y-56962227D01*
X147283721Y-56814689D01*
X147215817Y-56650754D01*
X147181200Y-56476721D01*
X147181200Y-56299279D01*
X147215817Y-56125246D01*
X147283721Y-55961311D01*
X147382303Y-55813773D01*
X147507773Y-55688303D01*
X147655311Y-55589721D01*
X147819246Y-55521817D01*
X147993279Y-55487200D01*
X148170721Y-55487200D01*
X148344754Y-55521817D01*
G37*
G36*
X150884754Y-55521817D02*
G01*
X151048689Y-55589721D01*
X151196227Y-55688303D01*
X151321697Y-55813773D01*
X151420279Y-55961311D01*
X151488183Y-56125246D01*
X151522800Y-56299279D01*
X151522800Y-56476721D01*
X151488183Y-56650754D01*
X151420279Y-56814689D01*
X151321697Y-56962227D01*
X151196227Y-57087697D01*
X151048689Y-57186279D01*
X150884754Y-57254183D01*
X150710721Y-57288800D01*
X150533279Y-57288800D01*
X150359246Y-57254183D01*
X150195311Y-57186279D01*
X150047773Y-57087697D01*
X149922303Y-56962227D01*
X149823721Y-56814689D01*
X149755817Y-56650754D01*
X149721200Y-56476721D01*
X149721200Y-56299279D01*
X149755817Y-56125246D01*
X149823721Y-55961311D01*
X149922303Y-55813773D01*
X150047773Y-55688303D01*
X150195311Y-55589721D01*
X150359246Y-55521817D01*
X150533279Y-55487200D01*
X150710721Y-55487200D01*
X150884754Y-55521817D01*
G37*
G36*
X153424754Y-55521817D02*
G01*
X153588689Y-55589721D01*
X153736227Y-55688303D01*
X153861697Y-55813773D01*
X153960279Y-55961311D01*
X154028183Y-56125246D01*
X154062800Y-56299279D01*
X154062800Y-56476721D01*
X154028183Y-56650754D01*
X153960279Y-56814689D01*
X153861697Y-56962227D01*
X153736227Y-57087697D01*
X153588689Y-57186279D01*
X153424754Y-57254183D01*
X153250721Y-57288800D01*
X153073279Y-57288800D01*
X152899246Y-57254183D01*
X152735311Y-57186279D01*
X152587773Y-57087697D01*
X152462303Y-56962227D01*
X152363721Y-56814689D01*
X152295817Y-56650754D01*
X152261200Y-56476721D01*
X152261200Y-56299279D01*
X152295817Y-56125246D01*
X152363721Y-55961311D01*
X152462303Y-55813773D01*
X152587773Y-55688303D01*
X152735311Y-55589721D01*
X152899246Y-55521817D01*
X153073279Y-55487200D01*
X153250721Y-55487200D01*
X153424754Y-55521817D01*
G37*
G36*
X138822800Y-57288800D02*
G01*
X137021200Y-57288800D01*
X137021200Y-55487200D01*
X138822800Y-55487200D01*
X138822800Y-57288800D01*
G37*
G36*
X140724754Y-55521817D02*
G01*
X140888689Y-55589721D01*
X141036227Y-55688303D01*
X141161697Y-55813773D01*
X141260279Y-55961311D01*
X141328183Y-56125246D01*
X141362800Y-56299279D01*
X141362800Y-56476721D01*
X141328183Y-56650754D01*
X141260279Y-56814689D01*
X141161697Y-56962227D01*
X141036227Y-57087697D01*
X140888689Y-57186279D01*
X140724754Y-57254183D01*
X140550721Y-57288800D01*
X140373279Y-57288800D01*
X140199246Y-57254183D01*
X140035311Y-57186279D01*
X139887773Y-57087697D01*
X139762303Y-56962227D01*
X139663721Y-56814689D01*
X139595817Y-56650754D01*
X139561200Y-56476721D01*
X139561200Y-56299279D01*
X139595817Y-56125246D01*
X139663721Y-55961311D01*
X139762303Y-55813773D01*
X139887773Y-55688303D01*
X140035311Y-55589721D01*
X140199246Y-55521817D01*
X140373279Y-55487200D01*
X140550721Y-55487200D01*
X140724754Y-55521817D01*
G37*
G36*
X143264754Y-55521817D02*
G01*
X143428689Y-55589721D01*
X143576227Y-55688303D01*
X143701697Y-55813773D01*
X143800279Y-55961311D01*
X143868183Y-56125246D01*
X143902800Y-56299279D01*
X143902800Y-56476721D01*
X143868183Y-56650754D01*
X143800279Y-56814689D01*
X143701697Y-56962227D01*
X143576227Y-57087697D01*
X143428689Y-57186279D01*
X143264754Y-57254183D01*
X143090721Y-57288800D01*
X142913279Y-57288800D01*
X142739246Y-57254183D01*
X142575311Y-57186279D01*
X142427773Y-57087697D01*
X142302303Y-56962227D01*
X142203721Y-56814689D01*
X142135817Y-56650754D01*
X142101200Y-56476721D01*
X142101200Y-56299279D01*
X142135817Y-56125246D01*
X142203721Y-55961311D01*
X142302303Y-55813773D01*
X142427773Y-55688303D01*
X142575311Y-55589721D01*
X142739246Y-55521817D01*
X142913279Y-55487200D01*
X143090721Y-55487200D01*
X143264754Y-55521817D01*
G37*
M02*
